<?xml version="1.0" encoding="UTF-8" standalone="no"?>
<!DOCTYPE svg PUBLIC "-//W3C//DTD SVG 1.1//EN" "http://www.w3.org/Graphics/SVG/1.1/DTD/svg11.dtd">
<svg xmlns="http://www.w3.org/2000/svg" version="1.1" viewBox="0 0 68 68">
<g stroke-width="2.00" fill="none" stroke-linecap="butt">
<path stroke="#f7faff" vector-effect="non-scaling-stroke" d="
  M 33.81 0.00
  C 8.73 1.25 -7.87 26.22 4.00 49.47
  Q 12.64 66.40 33.94 68.00"
/>
<path stroke="#f7faff" vector-effect="non-scaling-stroke" d="
  M 34.06 0.00
  Q 39.59 -0.20 43.71 3.25"
/>
<path stroke="#c1e3f2" vector-effect="non-scaling-stroke" d="
  M 43.71 3.25
  Q 25.22 -0.95 12.82 10.53
  C -7.27 29.12 3.78 62.55 31.25 65.46"
/>
<path stroke="#c5bad1" vector-effect="non-scaling-stroke" d="
  M 31.25 65.46
  Q 32.29 65.91 32.98 65.41"
/>
<path stroke="#e5e8f0" vector-effect="non-scaling-stroke" d="
  M 32.98 65.41
  Q 39.08 65.93 44.75 63.71"
/>
<path stroke="#d7dfec" vector-effect="non-scaling-stroke" d="
  M 44.75 63.71
  L 49.25 61.79"
/>
<path stroke="#c1e3f2" vector-effect="non-scaling-stroke" d="
  M 49.25 61.79
  L 53.25 59.21"
/>
<path stroke="#9996ae" vector-effect="non-scaling-stroke" d="
  M 53.25 59.21
  Q 58.09 55.94 60.53 51.04"
/>
<path stroke="#c1e3f2" vector-effect="non-scaling-stroke" d="
  M 60.53 51.04
  C 61.01 50.67 61.79 50.02 62.05 49.49
  Q 71.33 30.43 58.85 13.55
  C 58.43 12.98 57.88 12.78 57.25 12.54"
/>
<path stroke="#aba6be" vector-effect="non-scaling-stroke" d="
  M 57.25 12.54
  Q 52.98 6.24 45.50 4.79"
/>
<path stroke="#c1e3f2" vector-effect="non-scaling-stroke" d="
  M 45.50 4.79
  Q 45.34 3.78 44.50 3.54"
/>
<path stroke="#f7faff" vector-effect="non-scaling-stroke" d="
  M 44.50 3.54
  C 48.22 2.65 56.11 7.29 58.25 11.27
  C 59.12 12.88 60.79 13.46 61.80 14.98
  Q 66.78 22.53 68.00 31.56"
/>
<path stroke="#f7faff" vector-effect="non-scaling-stroke" d="
  M 68.00 35.56
  C 67.48 40.52 65.87 47.73 62.63 51.66
  C 61.08 53.54 59.80 55.93 58.34 57.41
  Q 49.24 66.67 35.94 68.00"
/>
<path stroke="#c9e8f2" vector-effect="non-scaling-stroke" d="
  M 44.50 3.54
  L 43.71 3.25"
/>
<path stroke="#7d94b1" vector-effect="non-scaling-stroke" d="
  M 45.50 4.79
  Q 39.36 5.81 37.92 11.66"
/>
<path stroke="#6b84a1" vector-effect="non-scaling-stroke" d="
  M 37.92 11.66
  L 36.25 15.79"
/>
<path stroke="#637d9a" vector-effect="non-scaling-stroke" d="
  M 36.25 15.79
  L 35.50 15.46"
/>
<path stroke="#7d94b1" vector-effect="non-scaling-stroke" d="
  M 35.50 15.46
  Q 29.23 14.30 23.00 15.71"
/>
<path stroke="#6b84a1" vector-effect="non-scaling-stroke" d="
  M 23.00 15.71
  C 14.48 16.60 5.90 22.34 11.00 32.04"
/>
<path stroke="#a9ccdf" vector-effect="non-scaling-stroke" d="
  M 11.00 32.04
  Q 9.35 38.99 13.75 44.54"
/>
<path stroke="#88b1cc" vector-effect="non-scaling-stroke" d="
  M 13.75 44.54
  Q 14.55 47.11 17.22 46.73"
/>
<path stroke="#6997b4" vector-effect="non-scaling-stroke" d="
  M 17.22 46.73
  Q 19.87 47.57 21.90 45.40"
/>
<path stroke="#bdd5da" vector-effect="non-scaling-stroke" d="
  M 21.90 45.40
  Q 24.88 49.73 30.65 52.59"
/>
<path stroke="#bcc6cc" vector-effect="non-scaling-stroke" d="
  M 30.65 52.59
  Q 33.02 53.58 35.50 50.71"
/>
<path stroke="#bab0b4" vector-effect="non-scaling-stroke" d="
  M 35.50 50.71
  Q 37.01 52.60 37.54 55.00"
/>
<path stroke="#bdd5da" vector-effect="non-scaling-stroke" d="
  M 37.54 55.00
  L 35.70 60.24"
/>
<path stroke="#97bed4" vector-effect="non-scaling-stroke" d="
  M 35.70 60.24
  Q 34.87 61.18 34.54 62.50"
/>
<path stroke="#b7d6e4" vector-effect="non-scaling-stroke" d="
  M 34.54 62.50
  L 32.96 64.00"
/>
<path stroke="#97a7c4" vector-effect="non-scaling-stroke" d="
  M 32.96 64.00
  Q 31.78 64.31 31.25 65.46"
/>
<path stroke="#7d94b1" vector-effect="non-scaling-stroke" d="
  M 57.25 12.54
  Q 61.20 21.62 60.04 31.50"
/>
<path stroke="#55476d" vector-effect="non-scaling-stroke" d="
  M 60.04 31.50
  Q 60.14 30.97 59.92 30.50
  Q 59.48 29.59 59.26 30.58
  L 58.91 32.17
  A 1.42 1.38 74.6 0 1 58.56 32.81
  L 58.37 33.02
  A 0.53 0.53 0.0 0 1 57.49 32.84
  L 56.68 30.55
  A 0.50 0.50 0.0 0 0 56.08 30.24
  C 55.78 30.33 54.71 34.31 54.59 34.64
  C 52.99 39.10 53.91 46.26 54.15 51.02
  A 0.46 0.46 0.0 0 1 53.66 51.50
  L 53.23 51.46
  A 0.58 0.58 0.0 0 1 52.72 50.71
  Q 53.37 48.55 51.59 47.25
  A 1.43 1.38 -80.4 0 1 51.06 46.47
  Q 49.79 41.44 50.03 36.26
  Q 50.06 35.57 49.31 34.57
  A 1.44 1.40 -63.0 0 1 49.03 33.66
  Q 49.24 27.72 47.54 22.00"
/>
<path stroke="#726486" vector-effect="non-scaling-stroke" d="
  M 47.54 22.00
  Q 49.73 21.52 50.17 23.52
  Q 50.65 25.78 52.27 28.14
  A 1.69 1.63 -5.3 0 0 53.02 28.74
  L 55.34 29.66
  A 0.48 0.48 0.0 0 0 55.99 29.31
  L 56.46 27.00"
/>
<path stroke="#816b90" vector-effect="non-scaling-stroke" d="
  M 56.46 27.00
  Q 57.04 22.44 57.51 17.84
  C 57.94 13.55 54.04 10.10 50.54 8.50
  Q 45.63 6.27 42.28 10.57"
/>
<path stroke="#726486" vector-effect="non-scaling-stroke" d="
  M 42.28 10.57
  Q 40.87 13.57 42.25 17.21"
/>
<path stroke="#55476d" vector-effect="non-scaling-stroke" d="
  M 42.25 17.21
  L 37.92 11.66"
/>
<path stroke="#8b7899" vector-effect="non-scaling-stroke" d="
  M 56.46 27.00
  C 50.61 25.53 53.17 20.92 50.12 18.05
  Q 46.23 14.39 42.28 10.57"
/>
<path stroke="#5f5476" vector-effect="non-scaling-stroke" d="
  M 47.54 22.00
  Q 45.75 18.61 42.25 17.21"
/>
<path stroke="#6b84a1" vector-effect="non-scaling-stroke" d="
  M 60.04 31.50
  Q 59.60 41.26 60.53 51.04"
/>
<path stroke="#6b84a1" vector-effect="non-scaling-stroke" d="
  M 53.25 59.21
  C 49.59 51.11 48.80 41.24 47.90 32.49
  C 47.61 29.61 45.08 16.88 41.21 19.25"
/>
<path stroke="#3b3056" vector-effect="non-scaling-stroke" d="
  M 41.21 19.25
  L 40.94 19.47
  A 0.53 0.52 -52.2 0 1 40.38 19.55
  Q 37.75 18.31 36.25 15.79"
/>
<path stroke="#4d4066" vector-effect="non-scaling-stroke" d="
  M 35.50 15.46
  Q 34.63 15.24 34.23 15.76
  A 0.48 0.47 -53.8 0 0 34.33 16.43
  L 35.17 17.04
  Q 35.79 17.50 35.07 17.76
  Q 32.73 18.62 33.00 20.96"
/>
<path stroke="#8181a0" vector-effect="non-scaling-stroke" d="
  M 33.00 20.96
  L 32.25 21.04"
/>
<path stroke="#9390ab" vector-effect="non-scaling-stroke" d="
  M 32.25 21.04
  Q 27.22 20.81 22.75 23.04"
/>
<path stroke="#8181a0" vector-effect="non-scaling-stroke" d="
  M 22.75 23.04
  Q 22.40 23.11 22.16 22.98
  A 0.39 0.39 0.0 0 1 22.07 22.35
  L 22.75 21.70
  A 0.47 0.47 0.0 0 0 22.59 20.92
  C 20.24 20.04 18.41 23.01 18.79 25.00"
/>
<path stroke="#9390ab" vector-effect="non-scaling-stroke" d="
  M 18.79 25.00
  L 17.29 26.00"
/>
<path stroke="#55476d" vector-effect="non-scaling-stroke" d="
  M 17.29 26.00
  C 17.13 22.39 18.72 21.20 20.28 18.25
  A 1.43 1.41 -87.9 0 1 20.96 17.61
  Q 22.35 16.99 23.00 15.71"
/>
<path stroke="#637d9a" vector-effect="non-scaling-stroke" d="
  M 41.21 19.25
  C 42.64 22.45 46.47 25.44 46.34 28.77
  C 46.05 36.14 46.64 40.86 41.04 46.50"
/>
<path stroke="#8a5c69" vector-effect="non-scaling-stroke" d="
  M 41.04 46.50
  L 39.29 37.50"
/>
<path stroke="#8c7380" vector-effect="non-scaling-stroke" d="
  M 39.29 37.50
  L 38.46 30.75"
/>
<path stroke="#676a89" vector-effect="non-scaling-stroke" d="
  M 38.46 30.75
  Q 40.04 30.20 41.10 29.18
  Q 41.46 28.84 41.92 28.64
  L 43.68 27.87
  A 0.65 0.65 0.0 0 0 44.07 27.17
  C 43.31 22.24 37.44 21.54 33.00 20.96"
/>
<path stroke="#80809b" vector-effect="non-scaling-stroke" d="
  M 17.29 26.00
  L 11.54 32.05
  A 0.29 0.27 29.7 0 1 11.24 32.12
  L 11.00 32.04"
/>
<path stroke="#a9ccdf" vector-effect="non-scaling-stroke" d="
  M 49.25 61.79
  L 48.95 61.56
  A 0.93 0.93 0.0 0 1 48.57 60.81
  Q 48.54 57.53 46.00 55.46"
/>
<path stroke="#97bed4" vector-effect="non-scaling-stroke" d="
  M 46.00 55.46
  Q 46.22 53.22 45.19 51.16
  A 0.79 0.78 75.2 0 0 44.46 50.73
  Q 43.53 50.77 43.05 51.61
  A 0.77 0.77 0.0 0 1 42.22 51.98
  Q 41.98 51.93 41.79 51.75"
/>
<path stroke="#bdd5da" vector-effect="non-scaling-stroke" d="
  M 41.79 51.75
  L 40.96 49.50"
/>
<path stroke="#bab0b4" vector-effect="non-scaling-stroke" d="
  M 40.96 49.50
  L 41.04 46.50"
/>
<path stroke="#acbace" vector-effect="non-scaling-stroke" d="
  M 22.75 23.04
  L 18.79 25.00"
/>
<path stroke="#acbace" vector-effect="non-scaling-stroke" d="
  M 32.25 21.04
  Q 34.68 24.49 34.50 28.71"
/>
<path stroke="#cfacae" vector-effect="non-scaling-stroke" d="
  M 34.50 28.71
  L 32.75 30.04"
/>
<path stroke="#9dadc6" vector-effect="non-scaling-stroke" d="
  M 32.75 30.04
  C 28.76 29.70 27.21 33.23 24.66 35.66
  A 1.72 1.66 -15.5 0 0 24.18 36.47
  C 23.66 38.44 18.92 39.28 17.10 40.50
  C 15.57 41.53 15.26 43.24 13.75 44.54"
/>
<path stroke="#bfb4bb" vector-effect="non-scaling-stroke" d="
  M 38.46 30.75
  L 37.54 30.00"
/>
<path stroke="#bd9da3" vector-effect="non-scaling-stroke" d="
  M 37.54 30.00
  Q 36.35 28.71 34.50 28.71"
/>
<path stroke="#e2a69b" vector-effect="non-scaling-stroke" d="
  M 37.54 30.00
  Q 37.01 31.56 37.80 32.91
  A 1.26 1.23 37.0 0 1 37.94 33.84
  Q 37.50 35.71 35.68 36.31
  A 0.64 0.64 0.0 0 1 34.88 35.93
  L 33.96 33.53
  A 0.44 0.44 0.0 0 0 33.55 33.25
  L 33.27 33.25
  A 0.49 0.49 0.0 0 0 32.80 33.65
  C 32.69 34.30 31.61 34.00 31.25 33.71"
/>
<path stroke="#ae919b" vector-effect="non-scaling-stroke" d="
  M 31.25 33.71
  L 32.75 30.04"
/>
<path stroke="#b0a7b3" vector-effect="non-scaling-stroke" d="
  M 31.25 33.71
  C 28.50 36.14 24.78 41.06 21.00 41.29"
/>
<path stroke="#b2b6c1" vector-effect="non-scaling-stroke" d="
  M 21.00 41.29
  Q 19.75 40.18 18.44 40.83
  A 1.01 1.00 -9.8 0 0 17.90 41.59
  L 17.75 42.71"
/>
<path stroke="#5d789b" vector-effect="non-scaling-stroke" d="
  M 17.75 42.71
  Q 15.04 44.40 17.22 46.73"
/>
<path stroke="#e2a69b" vector-effect="non-scaling-stroke" d="
  M 39.29 37.50
  L 39.16 41.14
  A 1.17 1.15 -20.0 0 1 38.77 41.96
  Q 37.54 43.06 37.84 44.76
  A 1.75 1.67 53.2 0 1 37.72 45.75
  L 35.50 50.71"
/>
<path stroke="#e6cbc1" vector-effect="non-scaling-stroke" d="
  M 30.65 52.59
  Q 37.56 45.15 32.45 35.76
  A 0.70 0.69 54.9 0 0 31.38 35.57
  L 24.30 41.87
  A 1.45 1.44 -66.8 0 1 23.39 42.24
  L 21.46 42.30
  A 0.45 0.45 0.0 0 1 21.00 41.85
  L 21.00 41.29"
/>
<path stroke="#939ca9" vector-effect="non-scaling-stroke" d="
  M 21.90 45.40
  L 17.75 42.71"
/>
<path stroke="#e4b4a9" vector-effect="non-scaling-stroke" d="
  M 27.39 41.64
  C 27.55 43.06 25.26 48.12 26.36 48.53
  A 0.65 0.65 0.0 0 0 27.23 48.06
  L 28.61 41.98
  A 0.57 0.56 10.5 0 0 28.14 41.30
  L 27.80 41.25
  A 0.36 0.36 0.0 0 0 27.39 41.64"
/>
<path stroke="#e4b4a9" vector-effect="non-scaling-stroke" d="
  M 40.96 49.50
  L 39.96 49.72
  A 0.97 0.97 0.0 0 0 39.27 50.33
  L 37.54 55.00"
/>
<path stroke="#c1c2c9" vector-effect="non-scaling-stroke" d="
  M 41.79 51.75
  L 41.29 52.49
  A 0.25 0.25 0.0 0 0 41.48 52.88
  L 43.24 53.07
  Q 44.25 53.17 43.47 53.81
  L 35.70 60.24"
/>
<path stroke="#acbace" vector-effect="non-scaling-stroke" d="
  M 46.00 55.46
  Q 44.06 55.37 42.75 56.71"
/>
<path stroke="#bbc3d3" vector-effect="non-scaling-stroke" d="
  M 42.75 56.71
  Q 38.78 58.95 35.82 62.38
  A 0.81 0.79 27.3 0 1 35.02 62.63
  L 34.54 62.50"
/>
<path stroke="#cdd2de" vector-effect="non-scaling-stroke" d="
  M 44.75 63.71
  C 44.84 61.75 46.09 56.20 42.75 56.71"
/>
<path stroke="#bbadc3" vector-effect="non-scaling-stroke" d="
  M 32.98 65.41
  L 32.96 64.00"
/>
</g>
<path fill="#ffffff" d="
  M 0.00 0.00
  L 33.81 0.00
  C 8.73 1.25 -7.87 26.22 4.00 49.47
  Q 12.64 66.40 33.94 68.00
  L 0.00 68.00
  L 0.00 0.00
  Z"
/>
<path fill="#eff5fe" d="
  M 33.81 0.00
  L 34.06 0.00
  Q 39.59 -0.20 43.71 3.25
  Q 25.22 -0.95 12.82 10.53
  C -7.27 29.12 3.78 62.55 31.25 65.46
  Q 32.29 65.91 32.98 65.41
  Q 39.08 65.93 44.75 63.71
  L 49.25 61.79
  L 53.25 59.21
  Q 58.09 55.94 60.53 51.04
  C 61.01 50.67 61.79 50.02 62.05 49.49
  Q 71.33 30.43 58.85 13.55
  C 58.43 12.98 57.88 12.78 57.25 12.54
  Q 52.98 6.24 45.50 4.79
  Q 45.34 3.78 44.50 3.54
  C 48.22 2.65 56.11 7.29 58.25 11.27
  C 59.12 12.88 60.79 13.46 61.80 14.98
  Q 66.78 22.53 68.00 31.56
  L 68.00 35.56
  C 67.48 40.52 65.87 47.73 62.63 51.66
  C 61.08 53.54 59.80 55.93 58.34 57.41
  Q 49.24 66.67 35.94 68.00
  L 33.94 68.00
  Q 12.64 66.40 4.00 49.47
  C -7.87 26.22 8.73 1.25 33.81 0.00
  Z"
/>
<path fill="#ffffff" d="
  M 34.06 0.00
  L 68.00 0.00
  L 68.00 31.56
  Q 66.78 22.53 61.80 14.98
  C 60.79 13.46 59.12 12.88 58.25 11.27
  C 56.11 7.29 48.22 2.65 44.50 3.54
  L 43.71 3.25
  Q 39.59 -0.20 34.06 0.00
  Z"
/>
<path fill="#93d0e5" d="
  M 43.71 3.25
  L 44.50 3.54
  Q 45.34 3.78 45.50 4.79
  Q 39.36 5.81 37.92 11.66
  L 36.25 15.79
  L 35.50 15.46
  Q 29.23 14.30 23.00 15.71
  C 14.48 16.60 5.90 22.34 11.00 32.04
  Q 9.35 38.99 13.75 44.54
  Q 14.55 47.11 17.22 46.73
  Q 19.87 47.57 21.90 45.40
  Q 24.88 49.73 30.65 52.59
  Q 33.02 53.58 35.50 50.71
  Q 37.01 52.60 37.54 55.00
  L 35.70 60.24
  Q 34.87 61.18 34.54 62.50
  L 32.96 64.00
  Q 31.78 64.31 31.25 65.46
  C 3.78 62.55 -7.27 29.12 12.82 10.53
  Q 25.22 -0.95 43.71 3.25
  Z"
/>
<path fill="#67577d" d="
  M 45.50 4.79
  Q 52.98 6.24 57.25 12.54
  Q 61.20 21.62 60.04 31.50
  Q 60.14 30.97 59.92 30.50
  Q 59.48 29.59 59.26 30.58
  L 58.91 32.17
  A 1.42 1.38 74.6 0 1 58.56 32.81
  L 58.37 33.02
  A 0.53 0.53 0.0 0 1 57.49 32.84
  L 56.68 30.55
  A 0.50 0.50 0.0 0 0 56.08 30.24
  C 55.78 30.33 54.71 34.31 54.59 34.64
  C 52.99 39.10 53.91 46.26 54.15 51.02
  A 0.46 0.46 0.0 0 1 53.66 51.50
  L 53.23 51.46
  A 0.58 0.58 0.0 0 1 52.72 50.71
  Q 53.37 48.55 51.59 47.25
  A 1.43 1.38 -80.4 0 1 51.06 46.47
  Q 49.79 41.44 50.03 36.26
  Q 50.06 35.57 49.31 34.57
  A 1.44 1.40 -63.0 0 1 49.03 33.66
  Q 49.24 27.72 47.54 22.00
  Q 49.73 21.52 50.17 23.52
  Q 50.65 25.78 52.27 28.14
  A 1.69 1.63 -5.3 0 0 53.02 28.74
  L 55.34 29.66
  A 0.48 0.48 0.0 0 0 55.99 29.31
  L 56.46 27.00
  Q 57.04 22.44 57.51 17.84
  C 57.94 13.55 54.04 10.10 50.54 8.50
  Q 45.63 6.27 42.28 10.57
  Q 40.87 13.57 42.25 17.21
  L 37.92 11.66
  Q 39.36 5.81 45.50 4.79
  Z"
/>
<path fill="#9a7ea3" d="
  M 56.46 27.00
  C 50.61 25.53 53.17 20.92 50.12 18.05
  Q 46.23 14.39 42.28 10.57
  Q 45.63 6.27 50.54 8.50
  C 54.04 10.10 57.94 13.55 57.51 17.84
  Q 57.04 22.44 56.46 27.00
  Z"
/>
<path fill="#7c718f" d="
  M 42.28 10.57
  Q 46.23 14.39 50.12 18.05
  C 53.17 20.92 50.61 25.53 56.46 27.00
  L 55.99 29.31
  A 0.48 0.48 0.0 0 1 55.34 29.66
  L 53.02 28.74
  A 1.69 1.63 -5.3 0 1 52.27 28.14
  Q 50.65 25.78 50.17 23.52
  Q 49.73 21.52 47.54 22.00
  Q 45.75 18.61 42.25 17.21
  Q 40.87 13.57 42.28 10.57
  Z"
/>
<path fill="#42375d" d="
  M 37.92 11.66
  L 42.25 17.21
  Q 45.75 18.61 47.54 22.00
  Q 49.24 27.72 49.03 33.66
  A 1.44 1.40 -63.0 0 0 49.31 34.57
  Q 50.06 35.57 50.03 36.26
  Q 49.79 41.44 51.06 46.47
  A 1.43 1.38 -80.4 0 0 51.59 47.25
  Q 53.37 48.55 52.72 50.71
  A 0.58 0.58 0.0 0 0 53.23 51.46
  L 53.66 51.50
  A 0.46 0.46 0.0 0 0 54.15 51.02
  C 53.91 46.26 52.99 39.10 54.59 34.64
  C 54.71 34.31 55.78 30.33 56.08 30.24
  A 0.50 0.50 0.0 0 1 56.68 30.55
  L 57.49 32.84
  A 0.53 0.53 0.0 0 0 58.37 33.02
  L 58.56 32.81
  A 1.42 1.38 74.6 0 0 58.91 32.17
  L 59.26 30.58
  Q 59.48 29.59 59.92 30.50
  Q 60.14 30.97 60.04 31.50
  Q 59.60 41.26 60.53 51.04
  Q 58.09 55.94 53.25 59.21
  C 49.59 51.11 48.80 41.24 47.90 32.49
  C 47.61 29.61 45.08 16.88 41.21 19.25
  L 40.94 19.47
  A 0.53 0.52 -52.2 0 1 40.38 19.55
  Q 37.75 18.31 36.25 15.79
  L 37.92 11.66
  Z"
/>
<path fill="#93d0e5" d="
  M 57.25 12.54
  C 57.88 12.78 58.43 12.98 58.85 13.55
  Q 71.33 30.43 62.05 49.49
  C 61.79 50.02 61.01 50.67 60.53 51.04
  Q 59.60 41.26 60.04 31.50
  Q 61.20 21.62 57.25 12.54
  Z"
/>
<path fill="#67577d" d="
  M 35.50 15.46
  Q 34.63 15.24 34.23 15.76
  A 0.48 0.47 -53.8 0 0 34.33 16.43
  L 35.17 17.04
  Q 35.79 17.50 35.07 17.76
  Q 32.73 18.62 33.00 20.96
  L 32.25 21.04
  Q 27.22 20.81 22.75 23.04
  Q 22.40 23.11 22.16 22.98
  A 0.39 0.39 0.0 0 1 22.07 22.35
  L 22.75 21.70
  A 0.47 0.47 0.0 0 0 22.59 20.92
  C 20.24 20.04 18.41 23.01 18.79 25.00
  L 17.29 26.00
  C 17.13 22.39 18.72 21.20 20.28 18.25
  A 1.43 1.41 -87.9 0 1 20.96 17.61
  Q 22.35 16.99 23.00 15.71
  Q 29.23 14.30 35.50 15.46
  Z"
/>
<path fill="#33294e" d="
  M 35.50 15.46
  L 36.25 15.79
  Q 37.75 18.31 40.38 19.55
  A 0.53 0.52 -52.2 0 0 40.94 19.47
  L 41.21 19.25
  C 42.64 22.45 46.47 25.44 46.34 28.77
  C 46.05 36.14 46.64 40.86 41.04 46.50
  L 39.29 37.50
  L 38.46 30.75
  Q 40.04 30.20 41.10 29.18
  Q 41.46 28.84 41.92 28.64
  L 43.68 27.87
  A 0.65 0.65 0.0 0 0 44.07 27.17
  C 43.31 22.24 37.44 21.54 33.00 20.96
  Q 32.73 18.62 35.07 17.76
  Q 35.79 17.50 35.17 17.04
  L 34.33 16.43
  A 0.48 0.47 -53.8 0 1 34.23 15.76
  Q 34.63 15.24 35.50 15.46
  Z"
/>
<path fill="#42375d" d="
  M 23.00 15.71
  Q 22.35 16.99 20.96 17.61
  A 1.43 1.41 -87.9 0 0 20.28 18.25
  C 18.72 21.20 17.13 22.39 17.29 26.00
  L 11.54 32.05
  A 0.29 0.27 29.7 0 1 11.24 32.12
  L 11.00 32.04
  C 5.90 22.34 14.48 16.60 23.00 15.71
  Z"
/>
<path fill="#93d0e5" d="
  M 53.25 59.21
  L 49.25 61.79
  L 48.95 61.56
  A 0.93 0.93 0.0 0 1 48.57 60.81
  Q 48.54 57.53 46.00 55.46
  Q 46.22 53.22 45.19 51.16
  A 0.79 0.78 75.2 0 0 44.46 50.73
  Q 43.53 50.77 43.05 51.61
  A 0.77 0.77 0.0 0 1 42.22 51.98
  Q 41.98 51.93 41.79 51.75
  L 40.96 49.50
  L 41.04 46.50
  C 46.64 40.86 46.05 36.14 46.34 28.77
  C 46.47 25.44 42.64 22.45 41.21 19.25
  C 45.08 16.88 47.61 29.61 47.90 32.49
  C 48.80 41.24 49.59 51.11 53.25 59.21
  Z"
/>
<path fill="#9aabc3" d="
  M 22.75 23.04
  L 18.79 25.00
  C 18.41 23.01 20.24 20.04 22.59 20.92
  A 0.47 0.47 0.0 0 1 22.75 21.70
  L 22.07 22.35
  A 0.39 0.39 0.0 0 0 22.16 22.98
  Q 22.40 23.11 22.75 23.04
  Z"
/>
<path fill="#bec8d9" d="
  M 32.25 21.04
  Q 34.68 24.49 34.50 28.71
  L 32.75 30.04
  C 28.76 29.70 27.21 33.23 24.66 35.66
  A 1.72 1.66 -15.5 0 0 24.18 36.47
  C 23.66 38.44 18.92 39.28 17.10 40.50
  C 15.57 41.53 15.26 43.24 13.75 44.54
  Q 9.35 38.99 11.00 32.04
  L 11.24 32.12
  A 0.29 0.27 29.7 0 0 11.54 32.05
  L 17.29 26.00
  L 18.79 25.00
  L 22.75 23.04
  Q 27.22 20.81 32.25 21.04
  Z"
/>
<path fill="#9aabc3" d="
  M 32.25 21.04
  L 33.00 20.96
  C 37.44 21.54 43.31 22.24 44.07 27.17
  A 0.65 0.65 0.0 0 1 43.68 27.87
  L 41.92 28.64
  Q 41.46 28.84 41.10 29.18
  Q 40.04 30.20 38.46 30.75
  L 37.54 30.00
  Q 36.35 28.71 34.50 28.71
  Q 34.68 24.49 32.25 21.04
  Z"
/>
<path fill="#e08f83" d="
  M 34.50 28.71
  Q 36.35 28.71 37.54 30.00
  Q 37.01 31.56 37.80 32.91
  A 1.26 1.23 37.0 0 1 37.94 33.84
  Q 37.50 35.71 35.68 36.31
  A 0.64 0.64 0.0 0 1 34.88 35.93
  L 33.96 33.53
  A 0.44 0.44 0.0 0 0 33.55 33.25
  L 33.27 33.25
  A 0.49 0.49 0.0 0 0 32.80 33.65
  C 32.69 34.30 31.61 34.00 31.25 33.71
  L 32.75 30.04
  L 34.50 28.71
  Z"
/>
<path fill="#7c92b3" d="
  M 32.75 30.04
  L 31.25 33.71
  C 28.50 36.14 24.78 41.06 21.00 41.29
  Q 19.75 40.18 18.44 40.83
  A 1.01 1.00 -9.8 0 0 17.90 41.59
  L 17.75 42.71
  Q 15.04 44.40 17.22 46.73
  Q 14.55 47.11 13.75 44.54
  C 15.26 43.24 15.57 41.53 17.10 40.50
  C 18.92 39.28 23.66 38.44 24.18 36.47
  A 1.72 1.66 -15.5 0 1 24.66 35.66
  C 27.21 33.23 28.76 29.70 32.75 30.04
  Z"
/>
<path fill="#e4bcb2" d="
  M 37.54 30.00
  L 38.46 30.75
  L 39.29 37.50
  L 39.16 41.14
  A 1.17 1.15 -20.0 0 1 38.77 41.96
  Q 37.54 43.06 37.84 44.76
  A 1.75 1.67 53.2 0 1 37.72 45.75
  L 35.50 50.71
  Q 33.02 53.58 30.65 52.59
  Q 37.56 45.15 32.45 35.76
  A 0.70 0.69 54.9 0 0 31.38 35.57
  L 24.30 41.87
  A 1.45 1.44 -66.8 0 1 23.39 42.24
  L 21.46 42.30
  A 0.45 0.45 0.0 0 1 21.00 41.85
  L 21.00 41.29
  C 24.78 41.06 28.50 36.14 31.25 33.71
  C 31.61 34.00 32.69 34.30 32.80 33.65
  A 0.49 0.49 0.0 0 1 33.27 33.25
  L 33.55 33.25
  A 0.44 0.44 0.0 0 1 33.96 33.53
  L 34.88 35.93
  A 0.64 0.64 0.0 0 0 35.68 36.31
  Q 37.50 35.71 37.94 33.84
  A 1.26 1.23 37.0 0 0 37.80 32.91
  Q 37.01 31.56 37.54 30.00
  Z"
/>
<path fill="#e7d9cf" d="
  M 30.65 52.59
  Q 24.88 49.73 21.90 45.40
  L 17.75 42.71
  L 17.90 41.59
  A 1.01 1.00 -9.8 0 1 18.44 40.83
  Q 19.75 40.18 21.00 41.29
  L 21.00 41.85
  A 0.45 0.45 0.0 0 0 21.46 42.30
  L 23.39 42.24
  A 1.45 1.44 -66.8 0 0 24.30 41.87
  L 31.38 35.57
  A 0.70 0.69 54.9 0 1 32.45 35.76
  Q 37.56 45.15 30.65 52.59
  Z
  M 27.39 41.64
  C 27.55 43.06 25.26 48.12 26.36 48.53
  A 0.65 0.65 0.0 0 0 27.23 48.06
  L 28.61 41.98
  A 0.57 0.56 10.5 0 0 28.14 41.30
  L 27.80 41.25
  A 0.36 0.36 0.0 0 0 27.39 41.64
  Z"
/>
<path fill="#ffffff" d="
  M 68.00 35.56
  L 68.00 68.00
  L 35.94 68.00
  Q 49.24 66.67 58.34 57.41
  C 59.80 55.93 61.08 53.54 62.63 51.66
  C 65.87 47.73 67.48 40.52 68.00 35.56
  Z"
/>
<path fill="#e08f83" d="
  M 39.29 37.50
  L 41.04 46.50
  L 40.96 49.50
  L 39.96 49.72
  A 0.97 0.97 0.0 0 0 39.27 50.33
  L 37.54 55.00
  Q 37.01 52.60 35.50 50.71
  L 37.72 45.75
  A 1.75 1.67 53.2 0 0 37.84 44.76
  Q 37.54 43.06 38.77 41.96
  A 1.17 1.15 -20.0 0 0 39.16 41.14
  L 39.29 37.50
  Z"
/>
<path fill="#e08f83" d="
  M 26.36 48.53
  C 25.26 48.12 27.55 43.06 27.39 41.64
  A 0.36 0.36 0.0 0 1 27.80 41.25
  L 28.14 41.30
  A 0.57 0.56 10.5 0 1 28.61 41.98
  L 27.23 48.06
  A 0.65 0.65 0.0 0 1 26.36 48.53
  Z"
/>
<path fill="#3e5e83" d="
  M 17.75 42.71
  L 21.90 45.40
  Q 19.87 47.57 17.22 46.73
  Q 15.04 44.40 17.75 42.71
  Z"
/>
<path fill="#e7d9cf" d="
  M 40.96 49.50
  L 41.79 51.75
  L 41.29 52.49
  A 0.25 0.25 0.0 0 0 41.48 52.88
  L 43.24 53.07
  Q 44.25 53.17 43.47 53.81
  L 35.70 60.24
  L 37.54 55.00
  L 39.27 50.33
  A 0.97 0.97 0.0 0 1 39.96 49.72
  L 40.96 49.50
  Z"
/>
<path fill="#9aabc3" d="
  M 46.00 55.46
  Q 44.06 55.37 42.75 56.71
  Q 38.78 58.95 35.82 62.38
  A 0.81 0.79 27.3 0 1 35.02 62.63
  L 34.54 62.50
  Q 34.87 61.18 35.70 60.24
  L 43.47 53.81
  Q 44.25 53.17 43.24 53.07
  L 41.48 52.88
  A 0.25 0.25 0.0 0 1 41.29 52.49
  L 41.79 51.75
  Q 41.98 51.93 42.22 51.98
  A 0.77 0.77 0.0 0 0 43.05 51.61
  Q 43.53 50.77 44.46 50.73
  A 0.79 0.78 75.2 0 1 45.19 51.16
  Q 46.22 53.22 46.00 55.46
  Z"
/>
<path fill="#bec8d9" d="
  M 46.00 55.46
  Q 48.54 57.53 48.57 60.81
  A 0.93 0.93 0.0 0 0 48.95 61.56
  L 49.25 61.79
  L 44.75 63.71
  C 44.84 61.75 46.09 56.20 42.75 56.71
  Q 44.06 55.37 46.00 55.46
  Z"
/>
<path fill="#dbdbe2" d="
  M 42.75 56.71
  C 46.09 56.20 44.84 61.75 44.75 63.71
  Q 39.08 65.93 32.98 65.41
  L 32.96 64.00
  L 34.54 62.50
  L 35.02 62.63
  A 0.81 0.79 27.3 0 0 35.82 62.38
  Q 38.78 58.95 42.75 56.71
  Z"
/>
<path fill="#9a7ea3" d="
  M 32.96 64.00
  L 32.98 65.41
  Q 32.29 65.91 31.25 65.46
  Q 31.78 64.31 32.96 64.00
  Z"
/>
</svg>
