<?xml version="1.0" encoding="UTF-8" standalone="no"?>
<!DOCTYPE svg PUBLIC "-//W3C//DTD SVG 1.1//EN" "http://www.w3.org/Graphics/SVG/1.1/DTD/svg11.dtd">
<svg xmlns="http://www.w3.org/2000/svg" version="1.1" viewBox="0 0 68 68">
<g stroke-width="2.00" fill="none" stroke-linecap="butt">
<path stroke="#f8faff" vector-effect="non-scaling-stroke" d="
  M 0.00 36.44
  Q 3.32 59.92 25.77 66.98
  Q 26.45 67.19 29.83 67.15
  A 0.61 0.61 0.0 0 0 30.41 66.67
  Q 30.73 65.25 32.50 65.71"
/>
<path stroke="#dbb5c1" vector-effect="non-scaling-stroke" d="
  M 32.50 65.71
  Q 37.62 65.95 42.50 64.46"
/>
<path stroke="#cca0b2" vector-effect="non-scaling-stroke" d="
  M 42.50 64.46
  Q 48.72 63.09 53.82 58.87"
/>
<path stroke="#e5c3ca" vector-effect="non-scaling-stroke" d="
  M 53.82 58.87
  Q 55.94 57.92 57.25 55.79"
/>
<path stroke="#d4d2f8" vector-effect="non-scaling-stroke" d="
  M 57.25 55.79
  Q 67.70 44.96 65.96 29.75"
/>
<path stroke="#f8faff" vector-effect="non-scaling-stroke" d="
  M 65.96 29.75
  L 66.94 28.58
  A 1.00 0.99 -31.6 0 0 67.15 27.72
  C 57.78 -11.24 4.52 -7.55 0.00 31.69"
/>
<path stroke="#cccdf8" vector-effect="non-scaling-stroke" d="
  M 65.96 29.75
  Q 62.49 11.64 47.37 4.94
  C 20.28 -7.07 -6.79 20.86 5.83 47.59
  Q 11.14 58.84 24.00 63.71"
/>
<path stroke="#ddbdca" vector-effect="non-scaling-stroke" d="
  M 24.00 63.71
  L 28.25 64.96"
/>
<path stroke="#d3b0c1" vector-effect="non-scaling-stroke" d="
  M 28.25 64.96
  L 32.50 65.71"
/>
<path stroke="#b996c3" vector-effect="non-scaling-stroke" d="
  M 57.25 55.79
  C 55.66 52.71 54.98 50.05 51.74 48.07"
/>
<path stroke="#c287a4" vector-effect="non-scaling-stroke" d="
  M 51.74 48.07
  Q 49.63 48.31 49.68 46.09"
/>
<path stroke="#c8b3cf" vector-effect="non-scaling-stroke" d="
  M 49.68 46.09
  C 53.81 41.07 55.25 35.41 51.04 30.00"
/>
<path stroke="#cabfdc" vector-effect="non-scaling-stroke" d="
  M 51.04 30.00
  L 48.71 26.75"
/>
<path stroke="#69689b" vector-effect="non-scaling-stroke" d="
  M 48.71 26.75
  Q 50.12 25.01 49.71 22.75"
/>
<path stroke="#8181b2" vector-effect="non-scaling-stroke" d="
  M 49.71 22.75
  C 46.82 16.67 44.45 11.57 38.00 10.21"
/>
<path stroke="#8fadc5" vector-effect="non-scaling-stroke" d="
  M 38.00 10.21
  C 33.90 8.23 28.74 10.12 24.56 10.78"
/>
<path stroke="#839dc3" vector-effect="non-scaling-stroke" d="
  M 24.56 10.78
  C 16.95 12.46 10.96 19.37 10.90 27.05
  Q 10.90 27.47 10.53 27.63
  A 0.67 0.66 63.0 0 1 9.69 27.35
  Q 8.69 25.65 9.75 24.02
  A 0.35 0.35 0.0 0 0 9.71 23.59
  L 9.51 23.38
  A 0.54 0.54 0.0 0 0 8.61 23.55
  Q 6.70 28.53 9.87 32.52
  A 0.62 0.62 0.0 0 1 9.85 33.32
  C 4.09 39.71 7.29 46.09 14.00 49.46"
/>
<path stroke="#8181b2" vector-effect="non-scaling-stroke" d="
  M 14.00 49.46
  L 16.74 49.67
  Q 17.22 49.71 17.67 49.53
  Q 18.82 49.04 19.71 50.25"
/>
<path stroke="#af88ba" vector-effect="non-scaling-stroke" d="
  M 19.71 50.25
  C 20.01 54.57 23.24 55.97 27.13 56.77
  A 0.39 0.39 0.0 0 1 27.41 57.30
  L 26.79 58.75"
/>
<path stroke="#b996c3" vector-effect="non-scaling-stroke" d="
  M 26.79 58.75
  Q 25.06 60.79 24.00 63.71"
/>
<path stroke="#688986" vector-effect="non-scaling-stroke" d="
  M 38.00 10.21
  Q 36.24 10.53 35.00 11.86
  A 1.25 1.25 0.0 0 1 34.07 12.25
  L 33.34 12.24
  A 1.83 1.74 -57.7 0 0 32.43 12.47
  Q 28.43 14.73 25.25 18.04"
/>
<path stroke="#69a597" vector-effect="non-scaling-stroke" d="
  M 25.25 18.04
  Q 24.26 17.50 23.92 16.63
  Q 23.37 15.23 22.56 16.49
  C 21.30 18.44 20.58 20.34 19.21 22.32
  Q 17.38 24.97 16.93 28.25
  C 16.90 28.52 16.83 28.64 16.58 28.73
  A 0.50 0.49 69.6 0 1 15.93 28.43
  C 14.45 24.10 15.82 22.61 15.78 18.55
  A 0.97 0.97 0.0 0 1 16.19 17.76
  C 17.20 17.04 17.67 16.77 18.44 15.67
  Q 20.73 12.40 24.56 10.78"
/>
<path stroke="#42435c" vector-effect="non-scaling-stroke" d="
  M 49.71 22.75
  L 46.29 23.50"
/>
<path stroke="#a39b9d" vector-effect="non-scaling-stroke" d="
  M 46.29 23.50
  Q 45.74 21.97 44.40 21.27
  A 1.10 1.08 46.9 0 0 43.47 21.23
  Q 41.60 22.04 41.46 24.25"
/>
<path stroke="#a18e90" vector-effect="non-scaling-stroke" d="
  M 41.46 24.25
  C 40.69 25.55 40.30 26.50 38.93 27.33
  Q 30.61 32.39 26.54 41.25"
/>
<path stroke="#42435c" vector-effect="non-scaling-stroke" d="
  M 26.54 41.25
  L 26.03 40.44
  A 0.49 0.49 0.0 0 0 25.36 40.29
  Q 24.06 41.16 22.50 40.54"
/>
<path stroke="#5c7984" vector-effect="non-scaling-stroke" d="
  M 22.50 40.54
  L 22.82 40.51
  A 0.50 0.49 87.3 0 0 23.25 40.03
  L 23.25 39.69
  A 0.51 0.51 0.0 0 0 22.93 39.20
  C 19.93 37.91 19.79 32.40 23.23 32.44
  A 1.01 1.01 0.0 0 0 24.00 32.11
  L 25.17 30.86
  A 0.46 0.45 -39.2 0 1 25.89 30.93
  L 26.73 32.34
  Q 27.29 33.27 27.58 32.22
  Q 28.45 29.15 27.61 26.13
  A 1.78 1.76 -44.7 0 1 27.62 25.17
  Q 28.84 21.04 25.09 19.77"
/>
<path stroke="#76778a" vector-effect="non-scaling-stroke" d="
  M 25.09 19.77
  Q 23.88 20.17 23.71 21.11"
/>
<path stroke="#5c7984" vector-effect="non-scaling-stroke" d="
  M 23.71 21.11
  Q 23.82 19.21 25.25 18.04"
/>
<path stroke="#77949b" vector-effect="non-scaling-stroke" d="
  M 23.71 21.11
  Q 21.58 25.02 18.39 28.18
  A 1.24 1.20 -22.0 0 0 18.03 28.99
  Q 17.93 31.12 19.21 32.89
  Q 20.02 34.00 20.01 32.63
  L 20.00 31.89
  A 0.63 0.62 81.1 0 1 20.43 31.29
  L 23.06 30.43
  A 1.09 1.08 -2.5 0 0 23.78 29.65
  Q 24.25 27.73 26.06 28.26
  A 0.50 0.49 -80.2 0 0 26.69 27.81
  Q 26.91 23.75 25.09 19.77"
/>
<path stroke="#43606d" vector-effect="non-scaling-stroke" d="
  M 22.50 40.54
  Q 20.05 39.15 18.24 36.94
  Q 17.78 36.38 17.97 37.08
  L 18.79 40.00"
/>
<path stroke="#5c7984" vector-effect="non-scaling-stroke" d="
  M 18.79 40.00
  Q 19.11 43.72 18.07 47.27
  A 1.13 1.13 0.0 0 1 17.45 47.97
  L 14.00 49.46"
/>
<path stroke="#69a597" vector-effect="non-scaling-stroke" d="
  M 10.72 40.25
  C 7.26 39.98 7.25 44.59 10.35 45.67
  A 0.44 0.44 0.0 0 0 10.94 45.28
  L 11.17 40.75
  A 0.48 0.48 0.0 0 0 10.72 40.25"
/>
<path stroke="#8a8286" vector-effect="non-scaling-stroke" d="
  M 46.29 23.50
  Q 46.83 25.59 48.71 26.75"
/>
<path stroke="#eacdba" vector-effect="non-scaling-stroke" d="
  M 51.04 30.00
  C 50.84 32.88 52.44 34.80 51.70 37.72
  C 49.25 47.47 39.15 49.38 30.97 45.55
  Q 28.68 44.47 27.83 42.48
  A 1.17 1.14 47.1 0 1 27.85 41.56
  C 30.09 36.62 35.69 37.20 36.59 30.89
  A 1.64 1.64 0.0 0 1 36.99 30.03
  C 38.74 28.11 42.04 27.24 41.46 24.25"
/>
<path stroke="#eacdba" vector-effect="non-scaling-stroke" d="
  M 47.29 32.15
  C 47.41 35.57 44.04 34.12 42.40 33.59
  A 0.34 0.33 -80.9 0 0 41.96 33.92
  C 41.99 35.10 48.76 36.91 48.30 31.44
  A 0.23 0.23 0.0 0 0 47.95 31.27
  L 47.64 31.47
  A 0.80 0.79 72.8 0 0 47.29 32.15"
/>
<path stroke="#e29582" vector-effect="non-scaling-stroke" d="
  M 49.68 46.09
  Q 46.78 48.03 44.06 50.23
  C 42.17 51.76 40.18 51.81 38.00 52.71"
/>
<path stroke="#cf9698" vector-effect="non-scaling-stroke" d="
  M 38.00 52.71
  L 33.08 53.43
  A 0.78 0.77 -85.8 0 0 32.45 53.98
  C 31.69 56.70 28.38 55.44 26.42 55.19
  C 22.90 54.73 20.78 53.16 20.21 49.50"
/>
<path stroke="#a18e90" vector-effect="non-scaling-stroke" d="
  M 20.21 49.50
  Q 21.57 46.98 24.66 46.86"
/>
<path stroke="#897579" vector-effect="non-scaling-stroke" d="
  M 24.66 46.86
  Q 26.70 44.52 26.54 41.25"
/>
<path stroke="#e7ae9a" vector-effect="non-scaling-stroke" d="
  M 29.62 52.29
  L 29.16 51.31
  Q 27.94 48.78 25.14 48.90
  Q 23.28 48.97 22.29 50.14
  A 0.98 0.97 52.1 0 0 22.16 51.21
  Q 24.29 55.47 29.10 53.62
  A 0.97 0.97 0.0 0 0 29.62 52.29"
/>
<path stroke="#42435c" vector-effect="non-scaling-stroke" d="
  M 24.66 46.86
  Q 23.43 45.14 23.81 43.28
  A 0.67 0.66 -69.4 0 0 23.48 42.55
  L 18.79 40.00"
/>
<path stroke="#88647b" vector-effect="non-scaling-stroke" d="
  M 20.21 49.50
  L 19.71 50.25"
/>
<path stroke="#d37876" vector-effect="non-scaling-stroke" d="
  M 51.74 48.07
  L 45.49 52.55
  A 1.10 1.08 -55.3 0 1 44.60 52.72
  Q 42.67 52.25 41.71 53.75"
/>
<path stroke="#c96a6d" vector-effect="non-scaling-stroke" d="
  M 41.71 53.75
  Q 40.15 52.47 38.00 52.71"
/>
<path stroke="#b1637d" vector-effect="non-scaling-stroke" d="
  M 53.82 58.87
  L 48.46 56.65
  A 0.50 0.49 22.7 0 0 47.81 56.91
  L 47.46 57.75"
/>
<path stroke="#c0798c" vector-effect="non-scaling-stroke" d="
  M 47.46 57.75
  L 45.04 57.03
  A 0.55 0.54 22.5 0 0 44.40 57.29
  L 43.02 59.88
  A 1.28 1.26 4.6 0 1 42.28 60.50
  C 38.96 61.54 33.18 66.34 30.93 61.89
  A 0.97 0.96 -8.5 0 0 30.22 61.37
  L 29.39 61.24
  A 0.75 0.74 -72.7 0 0 28.60 61.66
  Q 27.87 63.20 28.25 64.96"
/>
<path stroke="#c0798c" vector-effect="non-scaling-stroke" d="
  M 26.79 58.75
  L 33.03 54.95
  A 1.72 1.71 30.1 0 1 33.94 54.71
  L 41.56 54.89
  A 0.43 0.43 0.0 0 0 42.01 54.42
  Q 41.99 54.05 41.71 53.75"
/>
<path stroke="#a75674" vector-effect="non-scaling-stroke" d="
  M 42.50 64.46
  C 40.00 64.39 41.46 62.36 42.20 61.51
  A 1.17 1.15 -71.9 0 1 42.98 61.11
  L 48.73 60.63
  Q 49.53 60.56 49.05 59.92
  L 47.46 57.75"
/>
</g>
<path fill="#ffffff" d="
  M 0.00 0.00
  L 68.00 0.00
  L 68.00 68.00
  L 0.00 68.00
  L 0.00 36.44
  Q 3.32 59.92 25.77 66.98
  Q 26.45 67.19 29.83 67.15
  A 0.61 0.61 0.0 0 0 30.41 66.67
  Q 30.73 65.25 32.50 65.71
  Q 37.62 65.95 42.50 64.46
  Q 48.72 63.09 53.82 58.87
  Q 55.94 57.92 57.25 55.79
  Q 67.70 44.96 65.96 29.75
  L 66.94 28.58
  A 1.00 0.99 -31.6 0 0 67.15 27.72
  C 57.78 -11.24 4.52 -7.55 0.00 31.69
  L 0.00 0.00
  Z"
/>
<path fill="#f0f4ff" d="
  M 65.96 29.75
  Q 62.49 11.64 47.37 4.94
  C 20.28 -7.07 -6.79 20.86 5.83 47.59
  Q 11.14 58.84 24.00 63.71
  L 28.25 64.96
  L 32.50 65.71
  Q 30.73 65.25 30.41 66.67
  A 0.61 0.61 0.0 0 1 29.83 67.15
  Q 26.45 67.19 25.77 66.98
  Q 3.32 59.92 0.00 36.44
  L 0.00 31.69
  C 4.52 -7.55 57.78 -11.24 67.15 27.72
  A 1.00 0.99 -31.6 0 1 66.94 28.58
  L 65.96 29.75
  Z"
/>
<path fill="#a8a5f1" d="
  M 65.96 29.75
  Q 67.70 44.96 57.25 55.79
  C 55.66 52.71 54.98 50.05 51.74 48.07
  Q 49.63 48.31 49.68 46.09
  C 53.81 41.07 55.25 35.41 51.04 30.00
  L 48.71 26.75
  Q 50.12 25.01 49.71 22.75
  C 46.82 16.67 44.45 11.57 38.00 10.21
  C 33.90 8.23 28.74 10.12 24.56 10.78
  C 16.95 12.46 10.96 19.37 10.90 27.05
  Q 10.90 27.47 10.53 27.63
  A 0.67 0.66 63.0 0 1 9.69 27.35
  Q 8.69 25.65 9.75 24.02
  A 0.35 0.35 0.0 0 0 9.71 23.59
  L 9.51 23.38
  A 0.54 0.54 0.0 0 0 8.61 23.55
  Q 6.70 28.53 9.87 32.52
  A 0.62 0.62 0.0 0 1 9.85 33.32
  C 4.09 39.71 7.29 46.09 14.00 49.46
  L 16.74 49.67
  Q 17.22 49.71 17.67 49.53
  Q 18.82 49.04 19.71 50.25
  C 20.01 54.57 23.24 55.97 27.13 56.77
  A 0.39 0.39 0.0 0 1 27.41 57.30
  L 26.79 58.75
  Q 25.06 60.79 24.00 63.71
  Q 11.14 58.84 5.83 47.59
  C -6.79 20.86 20.28 -7.07 47.37 4.94
  Q 62.49 11.64 65.96 29.75
  Z"
/>
<path fill="#75b599" d="
  M 38.00 10.21
  Q 36.24 10.53 35.00 11.86
  A 1.25 1.25 0.0 0 1 34.07 12.25
  L 33.34 12.24
  A 1.83 1.74 -57.7 0 0 32.43 12.47
  Q 28.43 14.73 25.25 18.04
  Q 24.26 17.50 23.92 16.63
  Q 23.37 15.23 22.56 16.49
  C 21.30 18.44 20.58 20.34 19.21 22.32
  Q 17.38 24.97 16.93 28.25
  C 16.90 28.52 16.83 28.64 16.58 28.73
  A 0.50 0.49 69.6 0 1 15.93 28.43
  C 14.45 24.10 15.82 22.61 15.78 18.55
  A 0.97 0.97 0.0 0 1 16.19 17.76
  C 17.20 17.04 17.67 16.77 18.44 15.67
  Q 20.73 12.40 24.56 10.78
  C 28.74 10.12 33.90 8.23 38.00 10.21
  Z"
/>
<path fill="#5a5c73" d="
  M 38.00 10.21
  C 44.45 11.57 46.82 16.67 49.71 22.75
  L 46.29 23.50
  Q 45.74 21.97 44.40 21.27
  A 1.10 1.08 46.9 0 0 43.47 21.23
  Q 41.60 22.04 41.46 24.25
  C 40.69 25.55 40.30 26.50 38.93 27.33
  Q 30.61 32.39 26.54 41.25
  L 26.03 40.44
  A 0.49 0.49 0.0 0 0 25.36 40.29
  Q 24.06 41.16 22.50 40.54
  L 22.82 40.51
  A 0.50 0.49 87.3 0 0 23.25 40.03
  L 23.25 39.69
  A 0.51 0.51 0.0 0 0 22.93 39.20
  C 19.93 37.91 19.79 32.40 23.23 32.44
  A 1.01 1.01 0.0 0 0 24.00 32.11
  L 25.17 30.86
  A 0.46 0.45 -39.2 0 1 25.89 30.93
  L 26.73 32.34
  Q 27.29 33.27 27.58 32.22
  Q 28.45 29.15 27.61 26.13
  A 1.78 1.76 -44.7 0 1 27.62 25.17
  Q 28.84 21.04 25.09 19.77
  Q 23.88 20.17 23.71 21.11
  Q 23.82 19.21 25.25 18.04
  Q 28.43 14.73 32.43 12.47
  A 1.83 1.74 -57.7 0 1 33.34 12.24
  L 34.07 12.25
  A 1.25 1.25 0.0 0 0 35.00 11.86
  Q 36.24 10.53 38.00 10.21
  Z"
/>
<path fill="#5d9595" d="
  M 24.56 10.78
  Q 20.73 12.40 18.44 15.67
  C 17.67 16.77 17.20 17.04 16.19 17.76
  A 0.97 0.97 0.0 0 0 15.78 18.55
  C 15.82 22.61 14.45 24.10 15.93 28.43
  A 0.50 0.49 69.6 0 0 16.58 28.73
  C 16.83 28.64 16.90 28.52 16.93 28.25
  Q 17.38 24.97 19.21 22.32
  C 20.58 20.34 21.30 18.44 22.56 16.49
  Q 23.37 15.23 23.92 16.63
  Q 24.26 17.50 25.25 18.04
  Q 23.82 19.21 23.71 21.11
  Q 21.58 25.02 18.39 28.18
  A 1.24 1.20 -22.0 0 0 18.03 28.99
  Q 17.93 31.12 19.21 32.89
  Q 20.02 34.00 20.01 32.63
  L 20.00 31.89
  A 0.63 0.62 81.1 0 1 20.43 31.29
  L 23.06 30.43
  A 1.09 1.08 -2.5 0 0 23.78 29.65
  Q 24.25 27.73 26.06 28.26
  A 0.50 0.49 -80.2 0 0 26.69 27.81
  Q 26.91 23.75 25.09 19.77
  Q 28.84 21.04 27.62 25.17
  A 1.78 1.76 -44.7 0 0 27.61 26.13
  Q 28.45 29.15 27.58 32.22
  Q 27.29 33.27 26.73 32.34
  L 25.89 30.93
  A 0.46 0.45 -39.2 0 0 25.17 30.86
  L 24.00 32.11
  A 1.01 1.01 0.0 0 1 23.23 32.44
  C 19.79 32.40 19.93 37.91 22.93 39.20
  A 0.51 0.51 0.0 0 1 23.25 39.69
  L 23.25 40.03
  A 0.50 0.49 87.3 0 1 22.82 40.51
  L 22.50 40.54
  Q 20.05 39.15 18.24 36.94
  Q 17.78 36.38 17.97 37.08
  L 18.79 40.00
  Q 19.11 43.72 18.07 47.27
  A 1.13 1.13 0.0 0 1 17.45 47.97
  L 14.00 49.46
  C 7.29 46.09 4.09 39.71 9.85 33.32
  A 0.62 0.62 0.0 0 0 9.87 32.52
  Q 6.70 28.53 8.61 23.55
  A 0.54 0.54 0.0 0 1 9.51 23.38
  L 9.71 23.59
  A 0.35 0.35 0.0 0 1 9.75 24.02
  Q 8.69 25.65 9.69 27.35
  A 0.67 0.66 63.0 0 0 10.53 27.63
  Q 10.90 27.47 10.90 27.05
  C 10.96 19.37 16.95 12.46 24.56 10.78
  Z
  M 10.72 40.25
  C 7.26 39.98 7.25 44.59 10.35 45.67
  A 0.44 0.44 0.0 0 0 10.94 45.28
  L 11.17 40.75
  A 0.48 0.48 0.0 0 0 10.72 40.25
  Z"
/>
<path fill="#9192a1" d="
  M 25.09 19.77
  Q 26.91 23.75 26.69 27.81
  A 0.50 0.49 -80.2 0 1 26.06 28.26
  Q 24.25 27.73 23.78 29.65
  A 1.09 1.08 -2.5 0 1 23.06 30.43
  L 20.43 31.29
  A 0.63 0.62 81.1 0 0 20.00 31.89
  L 20.01 32.63
  Q 20.02 34.00 19.21 32.89
  Q 17.93 31.12 18.03 28.99
  A 1.24 1.20 -22.0 0 1 18.39 28.18
  Q 21.58 25.02 23.71 21.11
  Q 23.88 20.17 25.09 19.77
  Z"
/>
<path fill="#ebd9c7" d="
  M 46.29 23.50
  Q 46.83 25.59 48.71 26.75
  L 51.04 30.00
  C 50.84 32.88 52.44 34.80 51.70 37.72
  C 49.25 47.47 39.15 49.38 30.97 45.55
  Q 28.68 44.47 27.83 42.48
  A 1.17 1.14 47.1 0 1 27.85 41.56
  C 30.09 36.62 35.69 37.20 36.59 30.89
  A 1.64 1.64 0.0 0 1 36.99 30.03
  C 38.74 28.11 42.04 27.24 41.46 24.25
  Q 41.60 22.04 43.47 21.23
  A 1.10 1.08 46.9 0 1 44.40 21.27
  Q 45.74 21.97 46.29 23.50
  Z
  M 47.29 32.15
  C 47.41 35.57 44.04 34.12 42.40 33.59
  A 0.34 0.33 -80.9 0 0 41.96 33.92
  C 41.99 35.10 48.76 36.91 48.30 31.44
  A 0.23 0.23 0.0 0 0 47.95 31.27
  L 47.64 31.47
  A 0.80 0.79 72.8 0 0 47.29 32.15
  Z"
/>
<path fill="#292a45" d="
  M 49.71 22.75
  Q 50.12 25.01 48.71 26.75
  Q 46.83 25.59 46.29 23.50
  L 49.71 22.75
  Z"
/>
<path fill="#e8c0ad" d="
  M 41.46 24.25
  C 42.04 27.24 38.74 28.11 36.99 30.03
  A 1.64 1.64 0.0 0 0 36.59 30.89
  C 35.69 37.20 30.09 36.62 27.85 41.56
  A 1.17 1.14 47.1 0 0 27.83 42.48
  Q 28.68 44.47 30.97 45.55
  C 39.15 49.38 49.25 47.47 51.70 37.72
  C 52.44 34.80 50.84 32.88 51.04 30.00
  C 55.25 35.41 53.81 41.07 49.68 46.09
  Q 46.78 48.03 44.06 50.23
  C 42.17 51.76 40.18 51.81 38.00 52.71
  L 33.08 53.43
  A 0.78 0.77 -85.8 0 0 32.45 53.98
  C 31.69 56.70 28.38 55.44 26.42 55.19
  C 22.90 54.73 20.78 53.16 20.21 49.50
  Q 21.57 46.98 24.66 46.86
  Q 26.70 44.52 26.54 41.25
  Q 30.61 32.39 38.93 27.33
  C 40.30 26.50 40.69 25.55 41.46 24.25
  Z
  M 29.62 52.29
  L 29.16 51.31
  Q 27.94 48.78 25.14 48.90
  Q 23.28 48.97 22.29 50.14
  A 0.98 0.97 52.1 0 0 22.16 51.21
  Q 24.29 55.47 29.10 53.62
  A 0.97 0.97 0.0 0 0 29.62 52.29
  Z"
/>
<path fill="#e8c0ad" d="
  M 42.40 33.59
  C 44.04 34.12 47.41 35.57 47.29 32.15
  A 0.80 0.79 72.8 0 1 47.64 31.47
  L 47.95 31.27
  A 0.23 0.23 0.0 0 1 48.30 31.44
  C 48.76 36.91 41.99 35.10 41.96 33.92
  A 0.34 0.33 -80.9 0 1 42.40 33.59
  Z"
/>
<path fill="#292a45" d="
  M 22.50 40.54
  Q 24.06 41.16 25.36 40.29
  A 0.49 0.49 0.0 0 1 26.03 40.44
  L 26.54 41.25
  Q 26.70 44.52 24.66 46.86
  Q 23.43 45.14 23.81 43.28
  A 0.67 0.66 -69.4 0 0 23.48 42.55
  L 18.79 40.00
  L 17.97 37.08
  Q 17.78 36.38 18.24 36.94
  Q 20.05 39.15 22.50 40.54
  Z"
/>
<path fill="#5a5c73" d="
  M 18.79 40.00
  L 23.48 42.55
  A 0.67 0.66 -69.4 0 1 23.81 43.28
  Q 23.43 45.14 24.66 46.86
  Q 21.57 46.98 20.21 49.50
  L 19.71 50.25
  Q 18.82 49.04 17.67 49.53
  Q 17.22 49.71 16.74 49.67
  L 14.00 49.46
  L 17.45 47.97
  A 1.13 1.13 0.0 0 0 18.07 47.27
  Q 19.11 43.72 18.79 40.00
  Z"
/>
<path fill="#75b599" d="
  M 10.35 45.67
  C 7.25 44.59 7.26 39.98 10.72 40.25
  A 0.48 0.48 0.0 0 1 11.17 40.75
  L 10.94 45.28
  A 0.44 0.44 0.0 0 1 10.35 45.67
  Z"
/>
<path fill="#dc6956" d="
  M 49.68 46.09
  Q 49.63 48.31 51.74 48.07
  L 45.49 52.55
  A 1.10 1.08 -55.3 0 1 44.60 52.72
  Q 42.67 52.25 41.71 53.75
  Q 40.15 52.47 38.00 52.71
  C 40.18 51.81 42.17 51.76 44.06 50.23
  Q 46.78 48.03 49.68 46.09
  Z"
/>
<path fill="#ca8695" d="
  M 51.74 48.07
  C 54.98 50.05 55.66 52.71 57.25 55.79
  Q 55.94 57.92 53.82 58.87
  L 48.46 56.65
  A 0.50 0.49 22.7 0 0 47.81 56.91
  L 47.46 57.75
  L 45.04 57.03
  A 0.55 0.54 22.5 0 0 44.40 57.29
  L 43.02 59.88
  A 1.28 1.26 4.6 0 1 42.28 60.50
  C 38.96 61.54 33.18 66.34 30.93 61.89
  A 0.97 0.96 -8.5 0 0 30.22 61.37
  L 29.39 61.24
  A 0.75 0.74 -72.7 0 0 28.60 61.66
  Q 27.87 63.20 28.25 64.96
  L 24.00 63.71
  Q 25.06 60.79 26.79 58.75
  L 33.03 54.95
  A 1.72 1.71 30.1 0 1 33.94 54.71
  L 41.56 54.89
  A 0.43 0.43 0.0 0 0 42.01 54.42
  Q 41.99 54.05 41.71 53.75
  Q 42.67 52.25 44.60 52.72
  A 1.10 1.08 -55.3 0 0 45.49 52.55
  L 51.74 48.07
  Z"
/>
<path fill="#e69b87" d="
  M 29.62 52.29
  A 0.97 0.97 0.0 0 1 29.10 53.62
  Q 24.29 55.47 22.16 51.21
  A 0.98 0.97 52.1 0 1 22.29 50.14
  Q 23.28 48.97 25.14 48.90
  Q 27.94 48.78 29.16 51.31
  L 29.62 52.29
  Z"
/>
<path fill="#b66b83" d="
  M 20.21 49.50
  C 20.78 53.16 22.90 54.73 26.42 55.19
  C 28.38 55.44 31.69 56.70 32.45 53.98
  A 0.78 0.77 -85.8 0 1 33.08 53.43
  L 38.00 52.71
  Q 40.15 52.47 41.71 53.75
  Q 41.99 54.05 42.01 54.42
  A 0.43 0.43 0.0 0 1 41.56 54.89
  L 33.94 54.71
  A 1.72 1.71 30.1 0 0 33.03 54.95
  L 26.79 58.75
  L 27.41 57.30
  A 0.39 0.39 0.0 0 0 27.13 56.77
  C 23.24 55.97 20.01 54.57 19.71 50.25
  L 20.21 49.50
  Z"
/>
<path fill="#984064" d="
  M 53.82 58.87
  Q 48.72 63.09 42.50 64.46
  C 40.00 64.39 41.46 62.36 42.20 61.51
  A 1.17 1.15 -71.9 0 1 42.98 61.11
  L 48.73 60.63
  Q 49.53 60.56 49.05 59.92
  L 47.46 57.75
  L 47.81 56.91
  A 0.50 0.49 22.7 0 1 48.46 56.65
  L 53.82 58.87
  Z"
/>
<path fill="#b66b83" d="
  M 47.46 57.75
  L 49.05 59.92
  Q 49.53 60.56 48.73 60.63
  L 42.98 61.11
  A 1.17 1.15 -71.9 0 0 42.20 61.51
  C 41.46 62.36 40.00 64.39 42.50 64.46
  Q 37.62 65.95 32.50 65.71
  L 28.25 64.96
  Q 27.87 63.20 28.60 61.66
  A 0.75 0.74 -72.7 0 1 29.39 61.24
  L 30.22 61.37
  A 0.97 0.96 -8.5 0 1 30.93 61.89
  C 33.18 66.34 38.96 61.54 42.28 60.50
  A 1.28 1.26 4.6 0 0 43.02 59.88
  L 44.40 57.29
  A 0.55 0.54 22.5 0 1 45.04 57.03
  L 47.46 57.75
  Z"
/>
</svg>
