<?xml version="1.0" encoding="UTF-8" standalone="no"?>
<!DOCTYPE svg PUBLIC "-//W3C//DTD SVG 1.1//EN" "http://www.w3.org/Graphics/SVG/1.1/DTD/svg11.dtd">
<svg xmlns="http://www.w3.org/2000/svg" version="1.1" viewBox="0 0 68 68">
<g stroke-width="2.00" fill="none" stroke-linecap="butt">
<path stroke="#f8faff" vector-effect="non-scaling-stroke" d="
  M 68.00 32.31
  C 67.57 29.57 68.00 26.49 65.25 24.79"
/>
<path stroke="#c9e8f2" vector-effect="non-scaling-stroke" d="
  M 65.25 24.79
  L 62.71 19.00"
/>
<path stroke="#cda8b7" vector-effect="non-scaling-stroke" d="
  M 62.71 19.00
  Q 56.88 7.95 45.04 4.00"
/>
<path stroke="#cbc0db" vector-effect="non-scaling-stroke" d="
  M 45.04 4.00
  L 44.00 3.79"
/>
<path stroke="#cda8b7" vector-effect="non-scaling-stroke" d="
  M 44.00 3.79
  Q 42.18 2.66 40.00 2.96"
/>
<path stroke="#c9e8f2" vector-effect="non-scaling-stroke" d="
  M 40.00 2.96
  Q 39.06 1.77 37.50 1.96"
/>
<path stroke="#f8faff" vector-effect="non-scaling-stroke" d="
  M 37.50 1.96
  L 36.88 0.77
  A 0.95 0.94 77.6 0 0 36.10 0.27
  C 17.33 -0.89 2.13 13.08 0.00 31.44"
/>
<path stroke="#c2e3f2" vector-effect="non-scaling-stroke" d="
  M 37.50 1.96
  C 23.94 1.48 12.48 7.72 6.15 19.48
  C 0.56 29.86 2.61 44.77 9.50 53.04"
/>
<path stroke="#e4e4ef" vector-effect="non-scaling-stroke" d="
  M 9.50 53.04
  Q 12.61 57.90 17.75 60.46"
/>
<path stroke="#c4bbda" vector-effect="non-scaling-stroke" d="
  M 17.75 60.46
  Q 21.60 63.25 26.25 64.46"
/>
<path stroke="#deb2a0" vector-effect="non-scaling-stroke" d="
  M 26.25 64.46
  L 28.50 64.96"
/>
<path stroke="#d7d2e6" vector-effect="non-scaling-stroke" d="
  M 28.50 64.96
  Q 32.97 66.02 37.54 65.75"
/>
<path stroke="#e4e4ef" vector-effect="non-scaling-stroke" d="
  M 37.54 65.75
  Q 41.35 65.32 44.29 63.84"
/>
<path stroke="#d7d2e6" vector-effect="non-scaling-stroke" d="
  M 44.29 63.84
  Q 46.58 63.62 48.00 62.54"
/>
<path stroke="#c4bbda" vector-effect="non-scaling-stroke" d="
  M 48.00 62.54
  L 48.54 62.25"
/>
<path stroke="#c2e3f2" vector-effect="non-scaling-stroke" d="
  M 48.54 62.25
  Q 70.20 50.04 65.25 24.79"
/>
<path stroke="#f8faff" vector-effect="non-scaling-stroke" d="
  M 68.00 33.06
  C 67.27 37.87 67.12 42.80 65.19 47.08
  C 60.63 57.18 51.41 65.02 40.24 66.99
  Q 39.75 67.08 39.28 66.91
  Q 36.00 65.77 33.19 68.00"
/>
<path stroke="#f8faff" vector-effect="non-scaling-stroke" d="
  M 31.69 68.00
  Q 11.80 65.44 3.25 48.25
  C 1.41 44.54 0.93 40.81 0.00 36.69"
/>
<path stroke="#9790aa" vector-effect="non-scaling-stroke" d="
  M 40.00 2.96
  Q 38.16 3.07 37.42 4.59
  A 0.93 0.89 -43.9 0 0 37.39 5.35
  L 39.03 9.34
  A 0.58 0.58 0.0 0 1 38.55 10.14
  Q 34.91 10.51 31.75 11.96"
/>
<path stroke="#9d9db4" vector-effect="non-scaling-stroke" d="
  M 31.75 11.96
  C 25.83 13.71 22.03 17.77 18.00 22.50"
/>
<path stroke="#95a8ce" vector-effect="non-scaling-stroke" d="
  M 18.00 22.50
  Q 15.35 22.76 15.25 25.46"
/>
<path stroke="#8097b7" vector-effect="non-scaling-stroke" d="
  M 15.25 25.46
  L 14.29 29.00"
/>
<path stroke="#6f8ba8" vector-effect="non-scaling-stroke" d="
  M 14.29 29.00
  Q 12.16 37.61 19.46 41.34"
/>
<path stroke="#bfd7de" vector-effect="non-scaling-stroke" d="
  M 19.46 41.34
  Q 19.68 45.53 21.68 49.78"
/>
<path stroke="#a9c0d9" vector-effect="non-scaling-stroke" d="
  M 21.68 49.78
  Q 22.11 50.31 22.05 50.78
  A 0.71 0.71 0.0 0 1 21.51 51.37
  L 20.00 51.71"
/>
<path stroke="#b6d1e2" vector-effect="non-scaling-stroke" d="
  M 20.00 51.71
  L 9.50 53.04"
/>
<path stroke="#996892" vector-effect="non-scaling-stroke" d="
  M 44.00 3.79
  Q 43.65 5.57 44.43 7.01
  Q 44.77 7.64 44.82 6.93
  L 45.04 4.00"
/>
<path stroke="#9790aa" vector-effect="non-scaling-stroke" d="
  M 62.71 19.00
  L 56.76 17.88
  Q 56.31 17.80 56.62 18.13
  C 57.79 19.37 61.05 20.74 58.84 22.84
  A 0.86 0.84 31.7 0 1 58.00 23.03
  Q 54.90 22.01 52.29 20.00"
/>
<path stroke="#8b3c5b" vector-effect="non-scaling-stroke" d="
  M 52.29 20.00
  L 52.43 19.28
  A 1.01 0.99 29.8 0 0 52.19 18.43
  L 49.15 15.16
  A 0.98 0.97 -54.7 0 1 48.97 14.10
  L 49.61 12.66
  A 0.73 0.72 -57.4 0 0 49.43 11.82
  L 48.18 10.72
  Q 47.30 9.95 47.53 11.10
  Q 48.00 13.52 46.00 14.46"
/>
<path stroke="#a15d79" vector-effect="non-scaling-stroke" d="
  M 46.00 14.46
  L 43.28 13.79"
/>
<path stroke="#b27589" vector-effect="non-scaling-stroke" d="
  M 43.28 13.79
  Q 40.57 12.26 37.00 11.79"
/>
<path stroke="#bb8697" vector-effect="non-scaling-stroke" d="
  M 37.00 11.79
  L 33.25 12.21"
/>
<path stroke="#a15d79" vector-effect="non-scaling-stroke" d="
  M 33.25 12.21
  L 31.75 11.96"
/>
<path stroke="#a15d79" vector-effect="non-scaling-stroke" d="
  M 42.26 4.25
  Q 40.56 3.34 38.81 3.99
  A 0.68 0.68 0.0 0 0 38.47 4.98
  L 41.45 9.85
  A 0.93 0.92 68.3 0 0 42.41 10.27
  L 42.84 10.18
  A 0.62 0.61 82.7 0 0 43.34 9.53
  L 43.06 5.49
  A 1.53 1.53 0.0 0 0 42.26 4.25"
/>
<path stroke="#877c97" vector-effect="non-scaling-stroke" d="
  M 52.29 20.00
  Q 54.37 27.43 52.48 35.12"
/>
<path stroke="#633659" vector-effect="non-scaling-stroke" d="
  M 52.48 35.12
  Q 48.61 33.37 46.39 29.95"
/>
<path stroke="#8b3c5b" vector-effect="non-scaling-stroke" d="
  M 46.39 29.95
  Q 49.77 28.37 50.19 24.57
  A 0.78 0.76 82.6 0 1 50.67 23.93
  C 52.97 23.04 48.82 16.58 48.04 15.75"
/>
<path stroke="#914866" vector-effect="non-scaling-stroke" d="
  M 48.04 15.75
  L 46.00 14.46"
/>
<path stroke="#d2abb1" vector-effect="non-scaling-stroke" d="
  M 37.00 11.79
  L 37.00 12.52
  A 0.75 0.74 -9.2 0 1 36.48 13.23
  Q 32.88 14.33 30.19 16.98
  A 0.68 0.67 40.8 0 1 29.31 17.04
  Q 28.05 16.10 27.75 14.54"
/>
<path stroke="#c193a1" vector-effect="non-scaling-stroke" d="
  M 27.75 14.54
  Q 30.29 12.89 33.25 12.21"
/>
<path stroke="#b88193" vector-effect="non-scaling-stroke" d="
  M 43.28 13.79
  Q 44.05 19.49 39.83 21.11
  Q 38.13 21.76 35.01 21.04
  Q 29.71 19.82 24.24 19.84
  A 0.94 0.93 -75.6 0 1 23.42 18.45
  Q 24.91 15.75 27.75 14.54"
/>
<path stroke="#a15d79" vector-effect="non-scaling-stroke" d="
  M 48.04 15.75
  Q 47.48 17.16 46.38 18.19
  A 0.98 0.95 -25.7 0 0 46.08 19.01
  Q 46.61 23.19 44.19 26.67"
/>
<path stroke="#795777" vector-effect="non-scaling-stroke" d="
  M 44.19 26.67
  L 43.75 26.46"
/>
<path stroke="#8a6486" vector-effect="non-scaling-stroke" d="
  M 43.75 26.46
  Q 42.13 24.13 39.44 23.77
  A 0.62 0.61 14.9 0 0 38.81 24.13
  Q 38.02 25.99 36.29 26.61
  A 1.06 1.05 -35.3 0 1 35.27 26.44
  L 31.16 23.13
  A 0.58 0.58 0.0 0 1 31.18 22.22
  L 31.64 21.87
  Q 32.45 21.25 31.43 21.29
  C 30.55 21.33 25.99 20.43 25.91 21.29
  A 0.54 0.53 -89.9 0 1 25.43 21.78
  L 18.00 22.50"
/>
<path stroke="#734b6c" vector-effect="non-scaling-stroke" d="
  M 46.39 29.95
  Q 45.49 27.11 44.19 26.67"
/>
<path stroke="#95a8ce" vector-effect="non-scaling-stroke" d="
  M 48.54 62.25
  Q 49.44 55.73 45.72 50.30"
/>
<path stroke="#a9c0d9" vector-effect="non-scaling-stroke" d="
  M 45.72 50.30
  Q 44.24 49.96 44.04 48.89
  A 1.21 1.17 -34.5 0 1 44.22 48.01
  L 46.50 44.54"
/>
<path stroke="#beccd1" vector-effect="non-scaling-stroke" d="
  M 46.50 44.54
  L 48.03 42.90"
/>
<path stroke="#6f8ba8" vector-effect="non-scaling-stroke" d="
  M 48.03 42.90
  Q 53.07 40.67 52.48 35.12"
/>
<path stroke="#5c527a" vector-effect="non-scaling-stroke" d="
  M 43.75 26.46
  Q 40.46 25.37 35.75 28.15
  A 1.65 1.64 -40.4 0 1 33.86 28.00
  L 30.49 25.23
  A 1.18 1.15 -75.6 0 1 30.07 24.50
  Q 29.71 22.18 27.32 21.95
  A 0.46 0.45 -87.2 0 0 26.82 22.41
  C 26.85 24.06 24.72 25.28 23.59 26.26
  C 22.20 27.47 20.02 33.08 17.81 31.89
  A 1.00 0.99 -79.6 0 1 17.31 31.16
  Q 16.97 28.47 14.29 29.00"
/>
<path stroke="#826fa0" vector-effect="non-scaling-stroke" d="
  M 15.25 25.46
  Q 17.58 24.99 18.00 22.50"
/>
<path stroke="#9a8694" vector-effect="non-scaling-stroke" d="
  M 48.03 42.90
  L 49.54 39.25"
/>
<path stroke="#5c527a" vector-effect="non-scaling-stroke" d="
  M 49.54 39.25
  Q 50.80 37.00 49.73 34.70
  A 0.35 0.34 -35.5 0 0 49.16 34.61
  L 48.50 35.29"
/>
<path stroke="#9a8694" vector-effect="non-scaling-stroke" d="
  M 48.50 35.29
  Q 43.75 34.11 41.65 38.23
  A 0.52 0.52 0.0 0 1 40.98 38.48
  Q 39.18 37.74 37.25 37.79"
/>
<path stroke="#9b92a0" vector-effect="non-scaling-stroke" d="
  M 37.25 37.79
  L 36.50 37.46"
/>
<path stroke="#99707c" vector-effect="non-scaling-stroke" d="
  M 36.50 37.46
  Q 30.09 35.34 23.29 35.75"
/>
<path stroke="#9b92a0" vector-effect="non-scaling-stroke" d="
  M 23.29 35.75
  Q 21.62 34.04 19.31 34.59
  A 0.91 0.90 63.7 0 0 18.82 36.05
  Q 20.50 38.08 19.46 41.34"
/>
<path stroke="#ab93a3" vector-effect="non-scaling-stroke" d="
  M 49.54 39.25
  Q 49.49 37.13 48.50 35.29"
/>
<path stroke="#e8bdb2" vector-effect="non-scaling-stroke" d="
  M 23.29 35.75
  L 23.56 36.10
  A 1.22 1.20 -11.7 0 0 24.24 36.54
  Q 30.31 37.92 36.50 37.46"
/>
<path stroke="#ead3ca" vector-effect="non-scaling-stroke" d="
  M 37.25 37.79
  Q 39.49 38.65 39.00 40.75
  Q 37.88 45.55 37.96 48.75"
/>
<path stroke="#d4c7d2" vector-effect="non-scaling-stroke" d="
  M 37.96 48.75
  Q 37.32 48.88 36.74 48.71
  A 0.55 0.53 -75.7 0 1 36.37 48.07
  L 36.71 46.50"
/>
<path stroke="#d79c99" vector-effect="non-scaling-stroke" d="
  M 36.71 46.50
  Q 37.51 42.91 35.89 39.69
  A 0.94 0.92 78.2 0 0 35.14 39.19
  Q 34.40 39.13 33.96 39.75"
/>
<path stroke="#e2cdcb" vector-effect="non-scaling-stroke" d="
  M 33.96 39.75
  Q 28.05 41.62 23.57 46.08"
/>
<path stroke="#d79c99" vector-effect="non-scaling-stroke" d="
  M 23.57 46.08
  Q 23.61 48.46 25.04 50.00"
/>
<path stroke="#d4c7d2" vector-effect="non-scaling-stroke" d="
  M 25.04 50.00
  Q 23.39 52.15 21.68 49.78"
/>
<path stroke="#d4bbc5" vector-effect="non-scaling-stroke" d="
  M 46.50 44.54
  C 44.80 45.65 39.87 49.52 37.96 48.75"
/>
<path stroke="#e8b1a5" vector-effect="non-scaling-stroke" d="
  M 43.9826 41.8162
  A 3.12 1.92 119.1 0 0 47.1776 40.0238
  A 3.12 1.92 119.1 0 0 47.0174 36.3638
  A 3.12 1.92 119.1 0 0 43.8224 38.1562
  A 3.12 1.92 119.1 0 0 43.9826 41.8162"
/>
<path stroke="#c18594" vector-effect="non-scaling-stroke" d="
  M 36.71 46.50
  Q 34.16 47.23 32.26 49.10
  Q 31.91 49.45 31.43 49.58
  Q 28.28 50.44 25.04 50.00"
/>
<path stroke="#cf8b8d" vector-effect="non-scaling-stroke" d="
  M 23.57 46.08
  L 24.50 46.71"
/>
<path stroke="#daa8ad" vector-effect="non-scaling-stroke" d="
  M 24.50 46.71
  Q 27.23 47.96 29.31 47.05
  C 30.57 46.50 35.26 42.52 34.00 40.46"
/>
<path stroke="#cf8b8d" vector-effect="non-scaling-stroke" d="
  M 34.00 40.46
  L 33.96 39.75"
/>
<path stroke="#e5d9df" vector-effect="non-scaling-stroke" d="
  M 34.00 40.46
  C 30.26 41.63 27.58 44.41 24.50 46.71"
/>
<path stroke="#ab98c2" vector-effect="non-scaling-stroke" d="
  M 45.72 50.30
  Q 44.41 51.26 45.14 52.38
  Q 47.93 56.68 47.13 61.80
  A 0.65 0.65 0.0 0 0 47.54 62.51
  Q 47.80 62.60 48.00 62.54"
/>
<path stroke="#cbc1d6" vector-effect="non-scaling-stroke" d="
  M 44.29 63.84
  Q 43.96 61.51 44.72 55.77
  C 45.20 52.22 41.77 51.15 38.98 50.44
  Q 36.49 49.82 34.08 51.21
  A 1.72 1.70 30.8 0 1 33.15 51.44
  Q 29.39 51.35 25.66 52.04
  C 23.59 52.43 22.07 51.72 20.00 51.71"
/>
<path stroke="#cbc1d6" vector-effect="non-scaling-stroke" d="
  M 37.54 65.75
  L 37.75 65.04"
/>
<path stroke="#d2a091" vector-effect="non-scaling-stroke" d="
  M 37.75 65.04
  L 38.11 63.94
  A 0.88 0.88 0.0 0 0 37.92 63.07
  Q 37.18 62.26 36.00 62.21"
/>
<path stroke="#cbc1d6" vector-effect="non-scaling-stroke" d="
  M 36.00 62.21
  Q 34.30 59.25 31.00 60.04"
/>
<path stroke="#b8a9cb" vector-effect="non-scaling-stroke" d="
  M 31.00 60.04
  Q 24.63 59.50 18.26 59.98
  A 0.47 0.47 0.0 0 0 17.88 60.23
  L 17.75 60.46"
/>
<path stroke="#ab98c2" vector-effect="non-scaling-stroke" d="
  M 31.00 60.04
  Q 31.52 61.78 30.00 62.71"
/>
<path stroke="#b2777c" vector-effect="non-scaling-stroke" d="
  M 30.00 62.71
  Q 30.57 61.78 30.55 60.76
  A 0.40 0.39 79.7 0 0 30.03 60.39
  Q 27.15 61.37 26.25 64.46"
/>
<path stroke="#c58f88" vector-effect="non-scaling-stroke" d="
  M 36.00 62.21
  Q 34.70 62.98 34.85 64.34
  A 0.64 0.63 -1.0 0 0 35.45 64.91
  L 37.75 65.04"
/>
<path stroke="#c58f88" vector-effect="non-scaling-stroke" d="
  M 28.50 64.96
  L 30.00 62.71"
/>
</g>
<path fill="#ffffff" d="
  M 0.00 0.00
  L 68.00 0.00
  L 68.00 32.31
  C 67.57 29.57 68.00 26.49 65.25 24.79
  L 62.71 19.00
  Q 56.88 7.95 45.04 4.00
  L 44.00 3.79
  Q 42.18 2.66 40.00 2.96
  Q 39.06 1.77 37.50 1.96
  L 36.88 0.77
  A 0.95 0.94 77.6 0 0 36.10 0.27
  C 17.33 -0.89 2.13 13.08 0.00 31.44
  L 0.00 0.00
  Z"
/>
<path fill="#f0f5fe" d="
  M 37.50 1.96
  C 23.94 1.48 12.48 7.72 6.15 19.48
  C 0.56 29.86 2.61 44.77 9.50 53.04
  Q 12.61 57.90 17.75 60.46
  Q 21.60 63.25 26.25 64.46
  L 28.50 64.96
  Q 32.97 66.02 37.54 65.75
  Q 41.35 65.32 44.29 63.84
  Q 46.58 63.62 48.00 62.54
  L 48.54 62.25
  Q 70.20 50.04 65.25 24.79
  C 68.00 26.49 67.57 29.57 68.00 32.31
  L 68.00 33.06
  C 67.27 37.87 67.12 42.80 65.19 47.08
  C 60.63 57.18 51.41 65.02 40.24 66.99
  Q 39.75 67.08 39.28 66.91
  Q 36.00 65.77 33.19 68.00
  L 31.69 68.00
  Q 11.80 65.44 3.25 48.25
  C 1.41 44.54 0.93 40.81 0.00 36.69
  L 0.00 31.44
  C 2.13 13.08 17.33 -0.89 36.10 0.27
  A 0.95 0.94 77.6 0 1 36.88 0.77
  L 37.50 1.96
  Z"
/>
<path fill="#93d0e5" d="
  M 37.50 1.96
  Q 39.06 1.77 40.00 2.96
  Q 38.16 3.07 37.42 4.59
  A 0.93 0.89 -43.9 0 0 37.39 5.35
  L 39.03 9.34
  A 0.58 0.58 0.0 0 1 38.55 10.14
  Q 34.91 10.51 31.75 11.96
  C 25.83 13.71 22.03 17.77 18.00 22.50
  Q 15.35 22.76 15.25 25.46
  L 14.29 29.00
  Q 12.16 37.61 19.46 41.34
  Q 19.68 45.53 21.68 49.78
  Q 22.11 50.31 22.05 50.78
  A 0.71 0.71 0.0 0 1 21.51 51.37
  L 20.00 51.71
  L 9.50 53.04
  C 2.61 44.77 0.56 29.86 6.15 19.48
  C 12.48 7.72 23.94 1.48 37.50 1.96
  Z"
/>
<path fill="#9b506e" d="
  M 40.00 2.96
  Q 42.18 2.66 44.00 3.79
  Q 43.65 5.57 44.43 7.01
  Q 44.77 7.64 44.82 6.93
  L 45.04 4.00
  Q 56.88 7.95 62.71 19.00
  L 56.76 17.88
  Q 56.31 17.80 56.62 18.13
  C 57.79 19.37 61.05 20.74 58.84 22.84
  A 0.86 0.84 31.7 0 1 58.00 23.03
  Q 54.90 22.01 52.29 20.00
  L 52.43 19.28
  A 1.01 0.99 29.8 0 0 52.19 18.43
  L 49.15 15.16
  A 0.98 0.97 -54.7 0 1 48.97 14.10
  L 49.61 12.66
  A 0.73 0.72 -57.4 0 0 49.43 11.82
  L 48.18 10.72
  Q 47.30 9.95 47.53 11.10
  Q 48.00 13.52 46.00 14.46
  L 43.28 13.79
  Q 40.57 12.26 37.00 11.79
  L 33.25 12.21
  L 31.75 11.96
  Q 34.91 10.51 38.55 10.14
  A 0.58 0.58 0.0 0 0 39.03 9.34
  L 37.39 5.35
  A 0.93 0.89 -43.9 0 1 37.42 4.59
  Q 38.16 3.07 40.00 2.96
  Z
  M 42.26 4.25
  Q 40.56 3.34 38.81 3.99
  A 0.68 0.68 0.0 0 0 38.47 4.98
  L 41.45 9.85
  A 0.93 0.92 68.3 0 0 42.41 10.27
  L 42.84 10.18
  A 0.62 0.61 82.7 0 0 43.34 9.53
  L 43.06 5.49
  A 1.53 1.53 0.0 0 0 42.26 4.25
  Z"
/>
<path fill="#a76983" d="
  M 42.26 4.25
  A 1.53 1.53 0.0 0 1 43.06 5.49
  L 43.34 9.53
  A 0.62 0.61 82.7 0 1 42.84 10.18
  L 42.41 10.27
  A 0.93 0.92 68.3 0 1 41.45 9.85
  L 38.47 4.98
  A 0.68 0.68 0.0 0 1 38.81 3.99
  Q 40.56 3.34 42.26 4.25
  Z"
/>
<path fill="#9780b6" d="
  M 44.00 3.79
  L 45.04 4.00
  L 44.82 6.93
  Q 44.77 7.64 44.43 7.01
  Q 43.65 5.57 44.00 3.79
  Z"
/>
<path fill="#7a2748" d="
  M 52.29 20.00
  Q 54.37 27.43 52.48 35.12
  Q 48.61 33.37 46.39 29.95
  Q 49.77 28.37 50.19 24.57
  A 0.78 0.76 82.6 0 1 50.67 23.93
  C 52.97 23.04 48.82 16.58 48.04 15.75
  L 46.00 14.46
  Q 48.00 13.52 47.53 11.10
  Q 47.30 9.95 48.18 10.72
  L 49.43 11.82
  A 0.73 0.72 -57.4 0 1 49.61 12.66
  L 48.97 14.10
  A 0.98 0.97 -54.7 0 0 49.15 15.16
  L 52.19 18.43
  A 1.01 0.99 29.8 0 1 52.43 19.28
  L 52.29 20.00
  Z"
/>
<path fill="#dabcbf" d="
  M 37.00 11.79
  L 37.00 12.52
  A 0.75 0.74 -9.2 0 1 36.48 13.23
  Q 32.88 14.33 30.19 16.98
  A 0.68 0.67 40.8 0 1 29.31 17.04
  Q 28.05 16.10 27.75 14.54
  Q 30.29 12.89 33.25 12.21
  L 37.00 11.79
  Z"
/>
<path fill="#c999a3" d="
  M 37.00 11.79
  Q 40.57 12.26 43.28 13.79
  Q 44.05 19.49 39.83 21.11
  Q 38.13 21.76 35.01 21.04
  Q 29.71 19.82 24.24 19.84
  A 0.94 0.93 -75.6 0 1 23.42 18.45
  Q 24.91 15.75 27.75 14.54
  Q 28.05 16.10 29.31 17.04
  A 0.68 0.67 40.8 0 0 30.19 16.98
  Q 32.88 14.33 36.48 13.23
  A 0.75 0.74 -9.2 0 0 37.00 12.52
  L 37.00 11.79
  Z"
/>
<path fill="#a76983" d="
  M 31.75 11.96
  L 33.25 12.21
  Q 30.29 12.89 27.75 14.54
  Q 24.91 15.75 23.42 18.45
  A 0.94 0.93 -75.6 0 0 24.24 19.84
  Q 29.71 19.82 35.01 21.04
  Q 38.13 21.76 39.83 21.11
  Q 44.05 19.49 43.28 13.79
  L 46.00 14.46
  L 48.04 15.75
  Q 47.48 17.16 46.38 18.19
  A 0.98 0.95 -25.7 0 0 46.08 19.01
  Q 46.61 23.19 44.19 26.67
  L 43.75 26.46
  Q 42.13 24.13 39.44 23.77
  A 0.62 0.61 14.9 0 0 38.81 24.13
  Q 38.02 25.99 36.29 26.61
  A 1.06 1.05 -35.3 0 1 35.27 26.44
  L 31.16 23.13
  A 0.58 0.58 0.0 0 1 31.18 22.22
  L 31.64 21.87
  Q 32.45 21.25 31.43 21.29
  C 30.55 21.33 25.99 20.43 25.91 21.29
  A 0.54 0.53 -89.9 0 1 25.43 21.78
  L 18.00 22.50
  C 22.03 17.77 25.83 13.71 31.75 11.96
  Z"
/>
<path fill="#9b506e" d="
  M 48.04 15.75
  C 48.82 16.58 52.97 23.04 50.67 23.93
  A 0.78 0.76 82.6 0 0 50.19 24.57
  Q 49.77 28.37 46.39 29.95
  Q 45.49 27.11 44.19 26.67
  Q 46.61 23.19 46.08 19.01
  A 0.98 0.95 -25.7 0 1 46.38 18.19
  Q 47.48 17.16 48.04 15.75
  Z"
/>
<path fill="#93d0e5" d="
  M 62.71 19.00
  L 65.25 24.79
  Q 70.20 50.04 48.54 62.25
  Q 49.44 55.73 45.72 50.30
  Q 44.24 49.96 44.04 48.89
  A 1.21 1.17 -34.5 0 1 44.22 48.01
  L 46.50 44.54
  L 48.03 42.90
  Q 53.07 40.67 52.48 35.12
  Q 54.37 27.43 52.29 20.00
  Q 54.90 22.01 58.00 23.03
  A 0.86 0.84 31.7 0 0 58.84 22.84
  C 61.05 20.74 57.79 19.37 56.62 18.13
  Q 56.31 17.80 56.76 17.88
  L 62.71 19.00
  Z"
/>
<path fill="#6d5e89" d="
  M 43.75 26.46
  Q 40.46 25.37 35.75 28.15
  A 1.65 1.64 -40.4 0 1 33.86 28.00
  L 30.49 25.23
  A 1.18 1.15 -75.6 0 1 30.07 24.50
  Q 29.71 22.18 27.32 21.95
  A 0.46 0.45 -87.2 0 0 26.82 22.41
  C 26.85 24.06 24.72 25.28 23.59 26.26
  C 22.20 27.47 20.02 33.08 17.81 31.89
  A 1.00 0.99 -79.6 0 1 17.31 31.16
  Q 16.97 28.47 14.29 29.00
  L 15.25 25.46
  Q 17.58 24.99 18.00 22.50
  L 25.43 21.78
  A 0.54 0.53 -89.9 0 0 25.91 21.29
  C 25.99 20.43 30.55 21.33 31.43 21.29
  Q 32.45 21.25 31.64 21.87
  L 31.18 22.22
  A 0.58 0.58 0.0 0 0 31.16 23.13
  L 35.27 26.44
  A 1.06 1.05 -35.3 0 0 36.29 26.61
  Q 38.02 25.99 38.81 24.13
  A 0.62 0.61 14.9 0 1 39.44 23.77
  Q 42.13 24.13 43.75 26.46
  Z"
/>
<path fill="#4b456a" d="
  M 43.75 26.46
  L 44.19 26.67
  Q 45.49 27.11 46.39 29.95
  Q 48.61 33.37 52.48 35.12
  Q 53.07 40.67 48.03 42.90
  L 49.54 39.25
  Q 50.80 37.00 49.73 34.70
  A 0.35 0.34 -35.5 0 0 49.16 34.61
  L 48.50 35.29
  Q 43.75 34.11 41.65 38.23
  A 0.52 0.52 0.0 0 1 40.98 38.48
  Q 39.18 37.74 37.25 37.79
  L 36.50 37.46
  Q 30.09 35.34 23.29 35.75
  Q 21.62 34.04 19.31 34.59
  A 0.91 0.90 63.7 0 0 18.82 36.05
  Q 20.50 38.08 19.46 41.34
  Q 12.16 37.61 14.29 29.00
  Q 16.97 28.47 17.31 31.16
  A 1.00 0.99 -79.6 0 0 17.81 31.89
  C 20.02 33.08 22.20 27.47 23.59 26.26
  C 24.72 25.28 26.85 24.06 26.82 22.41
  A 0.46 0.45 -87.2 0 1 27.32 21.95
  Q 29.71 22.18 30.07 24.50
  A 1.18 1.15 -75.6 0 0 30.49 25.23
  L 33.86 28.00
  A 1.65 1.64 -40.4 0 0 35.75 28.15
  Q 40.46 25.37 43.75 26.46
  Z"
/>
<path fill="#9780b6" d="
  M 18.00 22.50
  Q 17.58 24.99 15.25 25.46
  Q 15.35 22.76 18.00 22.50
  Z"
/>
<path fill="#ffffff" d="
  M 68.00 33.06
  L 68.00 68.00
  L 33.19 68.00
  Q 36.00 65.77 39.28 66.91
  Q 39.75 67.08 40.24 66.99
  C 51.41 65.02 60.63 57.18 65.19 47.08
  C 67.12 42.80 67.27 37.87 68.00 33.06
  Z"
/>
<path fill="#6d5e89" d="
  M 49.54 39.25
  Q 49.49 37.13 48.50 35.29
  L 49.16 34.61
  A 0.35 0.34 -35.5 0 1 49.73 34.70
  Q 50.80 37.00 49.54 39.25
  Z"
/>
<path fill="#eaded6" d="
  M 23.29 35.75
  L 23.56 36.10
  A 1.22 1.20 -11.7 0 0 24.24 36.54
  Q 30.31 37.92 36.50 37.46
  L 37.25 37.79
  Q 39.49 38.65 39.00 40.75
  Q 37.88 45.55 37.96 48.75
  Q 37.32 48.88 36.74 48.71
  A 0.55 0.53 -75.7 0 1 36.37 48.07
  L 36.71 46.50
  Q 37.51 42.91 35.89 39.69
  A 0.94 0.92 78.2 0 0 35.14 39.19
  Q 34.40 39.13 33.96 39.75
  Q 28.05 41.62 23.57 46.08
  Q 23.61 48.46 25.04 50.00
  Q 23.39 52.15 21.68 49.78
  Q 19.68 45.53 19.46 41.34
  Q 20.50 38.08 18.82 36.05
  A 0.91 0.90 63.7 0 1 19.31 34.59
  Q 21.62 34.04 23.29 35.75
  Z"
/>
<path fill="#e9c7bd" d="
  M 48.50 35.29
  Q 49.49 37.13 49.54 39.25
  L 48.03 42.90
  L 46.50 44.54
  C 44.80 45.65 39.87 49.52 37.96 48.75
  Q 37.88 45.55 39.00 40.75
  Q 39.49 38.65 37.25 37.79
  Q 39.18 37.74 40.98 38.48
  A 0.52 0.52 0.0 0 0 41.65 38.23
  Q 43.75 34.11 48.50 35.29
  Z
  M 43.9826 41.8162
  A 3.12 1.92 119.1 0 0 47.1776 40.0238
  A 3.12 1.92 119.1 0 0 47.0174 36.3638
  A 3.12 1.92 119.1 0 0 43.8224 38.1562
  A 3.12 1.92 119.1 0 0 43.9826 41.8162
  Z"
/>
<path fill="#e69b8d" d="
  M 23.29 35.75
  Q 30.09 35.34 36.50 37.46
  Q 30.31 37.92 24.24 36.54
  A 1.22 1.20 -11.7 0 1 23.56 36.10
  L 23.29 35.75
  Z"
/>
<ellipse fill="#e69b8d" cx="0.00" cy="0.00" transform="translate(45.50,39.09) rotate(119.1)" rx="3.12" ry="1.92"/>
<path fill="#ffffff" d="
  M 0.00 36.69
  C 0.93 40.81 1.41 44.54 3.25 48.25
  Q 11.80 65.44 31.69 68.00
  L 0.00 68.00
  L 0.00 36.69
  Z"
/>
<path fill="#c45a5b" d="
  M 36.71 46.50
  Q 34.16 47.23 32.26 49.10
  Q 31.91 49.45 31.43 49.58
  Q 28.28 50.44 25.04 50.00
  Q 23.61 48.46 23.57 46.08
  L 24.50 46.71
  Q 27.23 47.96 29.31 47.05
  C 30.57 46.50 35.26 42.52 34.00 40.46
  L 33.96 39.75
  Q 34.40 39.13 35.14 39.19
  A 0.94 0.92 78.2 0 1 35.89 39.69
  Q 37.51 42.91 36.71 46.50
  Z"
/>
<path fill="#dabcbf" d="
  M 33.96 39.75
  L 34.00 40.46
  C 30.26 41.63 27.58 44.41 24.50 46.71
  L 23.57 46.08
  Q 28.05 41.62 33.96 39.75
  Z"
/>
<path fill="#f0f5fe" d="
  M 34.00 40.46
  C 35.26 42.52 30.57 46.50 29.31 47.05
  Q 27.23 47.96 24.50 46.71
  C 27.58 44.41 30.26 41.63 34.00 40.46
  Z"
/>
<path fill="#beafcd" d="
  M 46.50 44.54
  L 44.22 48.01
  A 1.21 1.17 -34.5 0 0 44.04 48.89
  Q 44.24 49.96 45.72 50.30
  Q 44.41 51.26 45.14 52.38
  Q 47.93 56.68 47.13 61.80
  A 0.65 0.65 0.0 0 0 47.54 62.51
  Q 47.80 62.60 48.00 62.54
  Q 46.58 63.62 44.29 63.84
  Q 43.96 61.51 44.72 55.77
  C 45.20 52.22 41.77 51.15 38.98 50.44
  Q 36.49 49.82 34.08 51.21
  A 1.72 1.70 30.8 0 1 33.15 51.44
  Q 29.39 51.35 25.66 52.04
  C 23.59 52.43 22.07 51.72 20.00 51.71
  L 21.51 51.37
  A 0.71 0.71 0.0 0 0 22.05 50.78
  Q 22.11 50.31 21.68 49.78
  Q 23.39 52.15 25.04 50.00
  Q 28.28 50.44 31.43 49.58
  Q 31.91 49.45 32.26 49.10
  Q 34.16 47.23 36.71 46.50
  L 36.37 48.07
  A 0.55 0.53 -75.7 0 0 36.74 48.71
  Q 37.32 48.88 37.96 48.75
  C 39.87 49.52 44.80 45.65 46.50 44.54
  Z"
/>
<path fill="#d8d2df" d="
  M 44.29 63.84
  Q 41.35 65.32 37.54 65.75
  L 37.75 65.04
  L 38.11 63.94
  A 0.88 0.88 0.0 0 0 37.92 63.07
  Q 37.18 62.26 36.00 62.21
  Q 34.30 59.25 31.00 60.04
  Q 24.63 59.50 18.26 59.98
  A 0.47 0.47 0.0 0 0 17.88 60.23
  L 17.75 60.46
  Q 12.61 57.90 9.50 53.04
  L 20.00 51.71
  C 22.07 51.72 23.59 52.43 25.66 52.04
  Q 29.39 51.35 33.15 51.44
  A 1.72 1.70 30.8 0 0 34.08 51.21
  Q 36.49 49.82 38.98 50.44
  C 41.77 51.15 45.20 52.22 44.72 55.77
  Q 43.96 61.51 44.29 63.84
  Z"
/>
<path fill="#9780b6" d="
  M 45.72 50.30
  Q 49.44 55.73 48.54 62.25
  L 48.00 62.54
  Q 47.80 62.60 47.54 62.51
  A 0.65 0.65 0.0 0 1 47.13 61.80
  Q 47.93 56.68 45.14 52.38
  Q 44.41 51.26 45.72 50.30
  Z"
/>
<path fill="#9780b6" d="
  M 31.00 60.04
  Q 31.52 61.78 30.00 62.71
  Q 30.57 61.78 30.55 60.76
  A 0.40 0.39 79.7 0 0 30.03 60.39
  Q 27.15 61.37 26.25 64.46
  Q 21.60 63.25 17.75 60.46
  L 17.88 60.23
  A 0.47 0.47 0.0 0 1 18.26 59.98
  Q 24.63 59.50 31.00 60.04
  Z"
/>
<path fill="#beafcd" d="
  M 36.00 62.21
  Q 34.70 62.98 34.85 64.34
  A 0.64 0.63 -1.0 0 0 35.45 64.91
  L 37.75 65.04
  L 37.54 65.75
  Q 32.97 66.02 28.50 64.96
  L 30.00 62.71
  Q 31.52 61.78 31.00 60.04
  Q 34.30 59.25 36.00 62.21
  Z"
/>
<path fill="#cc6e42" d="
  M 30.00 62.71
  L 28.50 64.96
  L 26.25 64.46
  Q 27.15 61.37 30.03 60.39
  A 0.40 0.39 79.7 0 1 30.55 60.76
  Q 30.57 61.78 30.00 62.71
  Z"
/>
<path fill="#cc6e42" d="
  M 36.00 62.21
  Q 37.18 62.26 37.92 63.07
  A 0.88 0.88 0.0 0 1 38.11 63.94
  L 37.75 65.04
  L 35.45 64.91
  A 0.64 0.63 -1.0 0 1 34.85 64.34
  Q 34.70 62.98 36.00 62.21
  Z"
/>
</svg>
