<?xml version="1.0" encoding="UTF-8" standalone="no"?>
<!DOCTYPE svg PUBLIC "-//W3C//DTD SVG 1.1//EN" "http://www.w3.org/Graphics/SVG/1.1/DTD/svg11.dtd">
<svg xmlns="http://www.w3.org/2000/svg" version="1.1" viewBox="0 0 68 68">
<g stroke-width="2.00" fill="none" stroke-linecap="butt">
<path stroke="#f7faff" vector-effect="non-scaling-stroke" d="
  M 68.00 32.56
  Q 65.88 14.36 51.81 5.52
  C 19.28 -14.92 -16.46 26.43 8.15 55.82
  Q 17.08 66.49 32.44 68.00"
/>
<path stroke="#f7faff" vector-effect="non-scaling-stroke" d="
  M 68.00 34.06
  C 66.76 54.31 53.05 67.14 32.94 68.00"
/>
<path stroke="#e5e5ed" vector-effect="non-scaling-stroke" d="
  M 10.25 54.79
  Q 14.08 59.61 19.75 61.96"
/>
<path stroke="#cccde1" vector-effect="non-scaling-stroke" d="
  M 19.75 61.96
  L 20.75 62.71"
/>
<path stroke="#c1bcda" vector-effect="non-scaling-stroke" d="
  M 20.75 62.71
  Q 26.07 65.42 31.66 64.99"
/>
<path stroke="#e0dfee" vector-effect="non-scaling-stroke" d="
  M 31.66 64.99
  Q 39.36 66.46 46.56 63.06
  Q 54.85 59.15 59.96 52.00"
/>
<path stroke="#c1e3f2" vector-effect="non-scaling-stroke" d="
  M 59.96 52.00
  Q 72.29 32.20 58.64 13.63
  A 1.73 1.68 -6.9 0 0 57.89 13.06
  L 57.04 12.75"
/>
<path stroke="#d5a9a1" vector-effect="non-scaling-stroke" d="
  M 57.04 12.75
  C 57.05 10.80 51.15 7.08 49.50 6.21"
/>
<path stroke="#c1e3f2" vector-effect="non-scaling-stroke" d="
  M 49.50 6.21
  C 18.32 -11.08 -13.27 28.13 10.25 54.79"
/>
<path stroke="#a79695" vector-effect="non-scaling-stroke" d="
  M 49.50 6.21
  C 46.25 7.23 42.89 7.50 43.00 11.96"
/>
<path stroke="#a7c19e" vector-effect="non-scaling-stroke" d="
  M 43.00 11.96
  C 35.26 10.07 21.93 9.74 18.92 19.06
  A 1.10 1.10 0.0 0 1 18.30 19.72
  C 13.46 21.76 6.18 27.33 8.46 33.50"
/>
<path stroke="#a0ba92" vector-effect="non-scaling-stroke" d="
  M 8.46 33.50
  Q 8.64 35.34 10.00 36.54"
/>
<path stroke="#a7c19e" vector-effect="non-scaling-stroke" d="
  M 10.00 36.54
  Q 10.82 37.82 12.25 38.29"
/>
<path stroke="#9ebad4" vector-effect="non-scaling-stroke" d="
  M 12.25 38.29
  L 14.25 43.14"
/>
<path stroke="#8194c2" vector-effect="non-scaling-stroke" d="
  M 14.25 43.14
  Q 15.55 45.63 18.50 45.21"
/>
<path stroke="#949798" vector-effect="non-scaling-stroke" d="
  M 18.50 45.21
  Q 17.92 48.85 20.50 51.29"
/>
<path stroke="#9ebad4" vector-effect="non-scaling-stroke" d="
  M 20.50 51.29
  Q 20.32 53.61 18.89 55.32
  A 0.91 0.88 22.3 0 1 18.11 55.63
  L 13.25 55.04"
/>
<path stroke="#b7d3e1" vector-effect="non-scaling-stroke" d="
  M 13.25 55.04
  L 10.25 54.79"
/>
<path stroke="#c6bf74" vector-effect="non-scaling-stroke" d="
  M 45.75 13.46
  Q 44.48 13.42 44.14 14.14
  A 0.86 0.86 0.0 0 0 44.20 14.97
  Q 45.26 16.64 45.00 18.59
  A 1.43 1.42 31.5 0 0 45.24 19.58
  L 50.89 27.69
  A 0.80 0.80 0.0 0 0 51.75 28.01
  L 56.15 26.88
  A 0.71 0.71 0.0 0 0 56.67 26.17
  Q 56.46 21.53 52.61 19.12
  A 1.42 1.38 -83.7 0 1 52.01 18.35
  L 51.50 16.79"
/>
<path stroke="#a7c19e" vector-effect="non-scaling-stroke" d="
  M 54.21 18.25
  C 57.50 24.33 65.41 39.98 54.54 42.50"
/>
<path stroke="#a88851" vector-effect="non-scaling-stroke" d="
  M 54.54 42.50
  L 54.46 41.50"
/>
<path stroke="#a79b86" vector-effect="non-scaling-stroke" d="
  M 54.46 41.50
  C 56.23 38.39 52.53 35.35 50.55 33.36
  A 1.18 1.16 -67.2 0 1 50.21 32.51
  C 50.24 30.10 49.46 26.03 47.05 24.82
  Q 45.92 24.25 45.15 23.97"
/>
<path stroke="#b4ab4a" vector-effect="non-scaling-stroke" d="
  M 45.15 23.97
  Q 44.20 21.18 41.75 20.47
  C 30.38 17.19 11.82 19.22 8.46 33.50"
/>
<path stroke="#a79695" vector-effect="non-scaling-stroke" d="
  M 57.04 12.75
  Q 57.04 16.27 54.21 18.25"
/>
<path stroke="#bb874d" vector-effect="non-scaling-stroke" d="
  M 54.21 18.25
  L 51.50 16.79"
/>
<path stroke="#c5946b" vector-effect="non-scaling-stroke" d="
  M 51.50 16.79
  L 45.75 13.46"
/>
<path stroke="#bb874d" vector-effect="non-scaling-stroke" d="
  M 45.75 13.46
  L 43.00 11.96"
/>
<path stroke="#8c7eb1" vector-effect="non-scaling-stroke" d="
  M 23.50 39.54
  Q 18.60 40.47 14.25 43.14"
/>
<path stroke="#825a75" vector-effect="non-scaling-stroke" d="
  M 43.25 38.71
  L 45.40 38.78
  A 1.44 1.42 66.4 0 1 46.28 39.13
  Q 48.72 41.29 52.00 40.54"
/>
<path stroke="#b29394" vector-effect="non-scaling-stroke" d="
  M 50.75 48.29
  L 47.50 48.29"
/>
<path stroke="#9f8187" vector-effect="non-scaling-stroke" d="
  M 47.50 48.29
  C 46.24 48.27 45.77 49.21 44.98 49.68
  C 39.83 52.71 35.69 52.59 30.50 53.54"
/>
<path stroke="#937081" vector-effect="non-scaling-stroke" d="
  M 30.50 53.54
  L 29.25 53.46"
/>
<path stroke="#9f8187" vector-effect="non-scaling-stroke" d="
  M 29.25 53.46
  Q 24.51 53.66 20.50 51.29"
/>
<path stroke="#825a75" vector-effect="non-scaling-stroke" d="
  M 18.50 45.21
  Q 20.20 43.25 22.79 42.75"
/>
<path stroke="#c6be9a" vector-effect="non-scaling-stroke" d="
  M 31.27 23.38
  Q 23.86 23.68 17.96 26.27
  Q 15.03 27.56 13.46 31.00"
/>
<path stroke="#b2ab8d" vector-effect="non-scaling-stroke" d="
  M 13.46 31.00
  Q 12.07 34.51 12.25 38.29"
/>
<path stroke="#a0947a" vector-effect="non-scaling-stroke" d="
  M 45.15 23.97
  L 44.50 24.04"
/>
<path stroke="#bfb78e" vector-effect="non-scaling-stroke" d="
  M 44.50 24.04
  Q 37.99 22.13 31.27 23.38"
/>
<path stroke="#b4ab4a" vector-effect="non-scaling-stroke" d="
  M 31.27 23.38
  C 23.14 19.67 20.96 22.06 14.81 26.48
  A 1.36 1.36 0.0 0 0 14.30 27.17
  L 14.05 27.94
  A 1.11 1.10 89.6 0 1 13.37 28.64
  C 9.84 29.89 10.80 34.28 10.00 36.54"
/>
<path stroke="#9e94bd" vector-effect="non-scaling-stroke" d="
  M 29.25 53.46
  Q 30.04 54.21 29.38 55.07
  A 1.38 1.38 0.0 0 0 29.09 56.00
  L 29.54 62.81
  A 0.35 0.34 -1.5 0 1 29.18 63.18
  C 27.59 63.12 21.40 61.70 20.75 62.71"
/>
<path stroke="#c2bdd0" vector-effect="non-scaling-stroke" d="
  M 19.75 61.96
  L 19.02 57.59
  A 0.85 0.84 -84.6 0 0 18.49 56.94
  L 13.25 55.04"
/>
<path stroke="#937081" vector-effect="non-scaling-stroke" d="
  M 54.46 41.50
  L 52.00 40.54"
/>
<path stroke="#816daa" vector-effect="non-scaling-stroke" d="
  M 52.00 40.54
  Q 48.31 36.88 43.25 38.71"
/>
<path stroke="#937081" vector-effect="non-scaling-stroke" d="
  M 43.25 38.71
  L 36.27 38.75
  Q 35.78 38.76 35.34 38.99
  Q 32.96 40.30 31.25 38.04"
/>
<path stroke="#b2cde1" vector-effect="non-scaling-stroke" d="
  M 59.96 52.00
  L 58.21 52.75"
/>
<path stroke="#93aace" vector-effect="non-scaling-stroke" d="
  M 58.21 52.75
  L 52.25 54.71"
/>
<path stroke="#b2cde1" vector-effect="non-scaling-stroke" d="
  M 52.25 54.71
  L 50.75 48.29"
/>
<path stroke="#949798" vector-effect="non-scaling-stroke" d="
  M 50.75 48.29
  Q 55.02 47.08 54.54 42.50"
/>
<path stroke="#b1a6ca" vector-effect="non-scaling-stroke" d="
  M 44.50 24.04
  Q 45.88 25.76 46.76 27.76
  C 47.82 30.19 46.94 32.69 46.82 35.21
  A 1.84 1.84 0.0 0 1 44.99 36.97
  Q 36.94 37.02 31.25 38.04"
/>
<path stroke="#b29394" vector-effect="non-scaling-stroke" d="
  M 31.25 38.04
  L 29.50 38.04"
/>
<path stroke="#aa8789" vector-effect="non-scaling-stroke" d="
  M 29.50 38.04
  Q 27.59 37.51 26.75 39.04"
/>
<path stroke="#a090be" vector-effect="non-scaling-stroke" d="
  M 26.75 39.04
  L 23.50 39.54"
/>
<path stroke="#bdb7d0" vector-effect="non-scaling-stroke" d="
  M 23.50 39.54
  Q 22.74 39.21 22.68 38.45
  Q 22.64 37.93 22.35 37.49
  Q 21.83 36.68 20.89 36.71
  A 1.22 1.21 -67.7 0 0 20.11 37.04
  L 19.11 38.01
  A 0.82 0.81 -58.8 0 1 18.32 38.21
  L 16.65 37.73
  A 0.81 0.80 15.7 0 0 15.66 38.28
  L 14.96 40.65
  A 0.52 0.51 11.9 0 1 14.38 41.02
  Q 14.02 40.97 14.00 40.50
  Q 13.73 33.37 13.46 31.00"
/>
<path stroke="#8c5140" vector-effect="non-scaling-stroke" d="
  M 29.50 38.04
  Q 30.64 38.29 30.96 39.57
  Q 31.72 42.68 28.55 42.24
  Q 25.63 41.84 22.79 42.75"
/>
<path stroke="#794e69" vector-effect="non-scaling-stroke" d="
  M 22.79 42.75
  Q 23.82 41.67 25.34 41.91
  A 1.07 1.04 28.2 0 0 26.21 41.66
  Q 27.33 40.67 26.75 39.04"
/>
<path stroke="#b1a6ca" vector-effect="non-scaling-stroke" d="
  M 52.25 54.71
  L 52.00 54.79"
/>
<path stroke="#bdb7d0" vector-effect="non-scaling-stroke" d="
  M 47.50 48.29
  L 46.36 49.77
  A 0.84 0.83 -37.5 0 0 46.25 50.59
  L 48.15 55.10
  A 0.47 0.46 63.0 0 0 48.82 55.32
  Q 50.34 54.40 52.00 54.79"
/>
<path stroke="#9e94bd" vector-effect="non-scaling-stroke" d="
  M 52.00 54.79
  Q 51.74 55.07 51.40 55.19
  Q 50.94 55.34 50.61 55.69
  Q 45.53 61.07 38.34 62.71
  C 36.55 63.12 34.61 62.44 32.82 63.09
  A 1.61 1.61 0.0 0 1 30.73 62.02
  Q 29.49 57.71 30.50 53.54"
/>
<path stroke="#b1a6ca" vector-effect="non-scaling-stroke" d="
  M 31.66 64.99
  Q 43.57 64.71 51.64 56.35
  A 1.76 1.74 15.0 0 1 52.48 55.87
  Q 55.80 55.07 58.21 52.75"
/>
<path stroke="#8c5140" vector-effect="non-scaling-stroke" d="
  M 52.17 42.45
  L 51.10 42.10
  A 1.22 1.19 -49.8 0 0 50.15 42.19
  Q 47.89 43.39 47.16 45.86
  A 0.55 0.54 13.3 0 0 47.59 46.55
  C 49.41 46.89 53.87 46.60 53.19 43.57
  A 1.52 1.50 -87.7 0 0 52.17 42.45"
/>
<path stroke="#a95951" vector-effect="non-scaling-stroke" d="
  M 29.36 44.87
  Q 26.49 47.81 30.38 50.89"
/>
<path stroke="#b16e65" vector-effect="non-scaling-stroke" d="
  M 30.38 50.89
  Q 35.54 53.94 39.20 49.07"
/>
<path stroke="#a95951" vector-effect="non-scaling-stroke" d="
  M 39.20 49.07
  Q 42.48 43.75 36.54 42.75"
/>
<path stroke="#b79994" vector-effect="non-scaling-stroke" d="
  M 36.54 42.75
  L 36.27 42.50
  A 0.77 0.75 -27.8 0 0 35.63 42.31
  Q 32.40 42.91 29.36 44.87"
/>
<path stroke="#cc959a" vector-effect="non-scaling-stroke" d="
  M 36.54 42.75
  Q 34.06 47.31 29.36 44.87"
/>
<path stroke="#c5696b" vector-effect="non-scaling-stroke" d="
  M 39.20 49.07
  C 36.49 45.56 32.41 48.23 30.38 50.89"
/>
</g>
<path fill="#ffffff" d="
  M 0.00 0.00
  L 68.00 0.00
  L 68.00 32.56
  Q 65.88 14.36 51.81 5.52
  C 19.28 -14.92 -16.46 26.43 8.15 55.82
  Q 17.08 66.49 32.44 68.00
  L 0.00 68.00
  L 0.00 0.00
  Z"
/>
<path fill="#eff5fe" d="
  M 68.00 32.56
  L 68.00 34.06
  C 66.76 54.31 53.05 67.14 32.94 68.00
  L 32.44 68.00
  Q 17.08 66.49 8.15 55.82
  C -16.46 26.43 19.28 -14.92 51.81 5.52
  Q 65.88 14.36 68.00 32.56
  Z
  M 10.25 54.79
  Q 14.08 59.61 19.75 61.96
  L 20.75 62.71
  Q 26.07 65.42 31.66 64.99
  Q 39.36 66.46 46.56 63.06
  Q 54.85 59.15 59.96 52.00
  Q 72.29 32.20 58.64 13.63
  A 1.73 1.68 -6.9 0 0 57.89 13.06
  L 57.04 12.75
  C 57.05 10.80 51.15 7.08 49.50 6.21
  C 18.32 -11.08 -13.27 28.13 10.25 54.79
  Z"
/>
<path fill="#93d0e5" d="
  M 49.50 6.21
  C 46.25 7.23 42.89 7.50 43.00 11.96
  C 35.26 10.07 21.93 9.74 18.92 19.06
  A 1.10 1.10 0.0 0 1 18.30 19.72
  C 13.46 21.76 6.18 27.33 8.46 33.50
  Q 8.64 35.34 10.00 36.54
  Q 10.82 37.82 12.25 38.29
  L 14.25 43.14
  Q 15.55 45.63 18.50 45.21
  Q 17.92 48.85 20.50 51.29
  Q 20.32 53.61 18.89 55.32
  A 0.91 0.88 22.3 0 1 18.11 55.63
  L 13.25 55.04
  L 10.25 54.79
  C -13.27 28.13 18.32 -11.08 49.50 6.21
  Z"
/>
<path fill="#ba5c44" d="
  M 49.50 6.21
  C 51.15 7.08 57.05 10.80 57.04 12.75
  Q 57.04 16.27 54.21 18.25
  L 51.50 16.79
  L 45.75 13.46
  L 43.00 11.96
  C 42.89 7.50 46.25 7.23 49.50 6.21
  Z"
/>
<path fill="#bbb256" d="
  M 43.00 11.96
  L 45.75 13.46
  Q 44.48 13.42 44.14 14.14
  A 0.86 0.86 0.0 0 0 44.20 14.97
  Q 45.26 16.64 45.00 18.59
  A 1.43 1.42 31.5 0 0 45.24 19.58
  L 50.89 27.69
  A 0.80 0.80 0.0 0 0 51.75 28.01
  L 56.15 26.88
  A 0.71 0.71 0.0 0 0 56.67 26.17
  Q 56.46 21.53 52.61 19.12
  A 1.42 1.38 -83.7 0 1 52.01 18.35
  L 51.50 16.79
  L 54.21 18.25
  C 57.50 24.33 65.41 39.98 54.54 42.50
  L 54.46 41.50
  C 56.23 38.39 52.53 35.35 50.55 33.36
  A 1.18 1.16 -67.2 0 1 50.21 32.51
  C 50.24 30.10 49.46 26.03 47.05 24.82
  Q 45.92 24.25 45.15 23.97
  Q 44.20 21.18 41.75 20.47
  C 30.38 17.19 11.82 19.22 8.46 33.50
  C 6.18 27.33 13.46 21.76 18.30 19.72
  A 1.10 1.10 0.0 0 0 18.92 19.06
  C 21.93 9.74 35.26 10.07 43.00 11.96
  Z"
/>
<path fill="#93d0e5" d="
  M 57.04 12.75
  L 57.89 13.06
  A 1.73 1.68 -6.9 0 1 58.64 13.63
  Q 72.29 32.20 59.96 52.00
  L 58.21 52.75
  L 52.25 54.71
  L 50.75 48.29
  Q 55.02 47.08 54.54 42.50
  C 65.41 39.98 57.50 24.33 54.21 18.25
  Q 57.04 16.27 57.04 12.75
  Z"
/>
<path fill="#d0cc92" d="
  M 45.75 13.46
  L 51.50 16.79
  L 52.01 18.35
  A 1.42 1.38 -83.7 0 0 52.61 19.12
  Q 56.46 21.53 56.67 26.17
  A 0.71 0.71 0.0 0 1 56.15 26.88
  L 51.75 28.01
  A 0.80 0.80 0.0 0 1 50.89 27.69
  L 45.24 19.58
  A 1.43 1.42 31.5 0 1 45.00 18.59
  Q 45.26 16.64 44.20 14.97
  A 0.86 0.86 0.0 0 1 44.14 14.14
  Q 44.48 13.42 45.75 13.46
  Z"
/>
<path fill="#ada43e" d="
  M 45.15 23.97
  L 44.50 24.04
  Q 37.99 22.13 31.27 23.38
  C 23.14 19.67 20.96 22.06 14.81 26.48
  A 1.36 1.36 0.0 0 0 14.30 27.17
  L 14.05 27.94
  A 1.11 1.10 89.6 0 1 13.37 28.64
  C 9.84 29.89 10.80 34.28 10.00 36.54
  Q 8.64 35.34 8.46 33.50
  C 11.82 19.22 30.38 17.19 41.75 20.47
  Q 44.20 21.18 45.15 23.97
  Z"
/>
<path fill="#bbb256" d="
  M 31.27 23.38
  Q 23.86 23.68 17.96 26.27
  Q 15.03 27.56 13.46 31.00
  Q 12.07 34.51 12.25 38.29
  Q 10.82 37.82 10.00 36.54
  C 10.80 34.28 9.84 29.89 13.37 28.64
  A 1.11 1.10 89.6 0 0 14.05 27.94
  L 14.30 27.17
  A 1.36 1.36 0.0 0 1 14.81 26.48
  C 20.96 22.06 23.14 19.67 31.27 23.38
  Z"
/>
<path fill="#d0c9dd" d="
  M 31.27 23.38
  Q 37.99 22.13 44.50 24.04
  Q 45.88 25.76 46.76 27.76
  C 47.82 30.19 46.94 32.69 46.82 35.21
  A 1.84 1.84 0.0 0 1 44.99 36.97
  Q 36.94 37.02 31.25 38.04
  L 29.50 38.04
  Q 27.59 37.51 26.75 39.04
  L 23.50 39.54
  Q 22.74 39.21 22.68 38.45
  Q 22.64 37.93 22.35 37.49
  Q 21.83 36.68 20.89 36.71
  A 1.22 1.21 -67.7 0 0 20.11 37.04
  L 19.11 38.01
  A 0.82 0.81 -58.8 0 1 18.32 38.21
  L 16.65 37.73
  A 0.81 0.80 15.7 0 0 15.66 38.28
  L 14.96 40.65
  A 0.52 0.51 11.9 0 1 14.38 41.02
  Q 14.02 40.97 14.00 40.50
  Q 13.73 33.37 13.46 31.00
  Q 15.03 27.56 17.96 26.27
  Q 23.86 23.68 31.27 23.38
  Z"
/>
<path fill="#9283b6" d="
  M 44.50 24.04
  L 45.15 23.97
  Q 45.92 24.25 47.05 24.82
  C 49.46 26.03 50.24 30.10 50.21 32.51
  A 1.18 1.16 -67.2 0 0 50.55 33.36
  C 52.53 35.35 56.23 38.39 54.46 41.50
  L 52.00 40.54
  Q 48.31 36.88 43.25 38.71
  L 36.27 38.75
  Q 35.78 38.76 35.34 38.99
  Q 32.96 40.30 31.25 38.04
  Q 36.94 37.02 44.99 36.97
  A 1.84 1.84 0.0 0 0 46.82 35.21
  C 46.94 32.69 47.82 30.19 46.76 27.76
  Q 45.88 25.76 44.50 24.04
  Z"
/>
<path fill="#a9a4c3" d="
  M 13.46 31.00
  Q 13.73 33.37 14.00 40.50
  Q 14.02 40.97 14.38 41.02
  A 0.52 0.51 11.9 0 0 14.96 40.65
  L 15.66 38.28
  A 0.81 0.80 15.7 0 1 16.65 37.73
  L 18.32 38.21
  A 0.82 0.81 -58.8 0 0 19.11 38.01
  L 20.11 37.04
  A 1.22 1.21 -67.7 0 1 20.89 36.71
  Q 21.83 36.68 22.35 37.49
  Q 22.64 37.93 22.68 38.45
  Q 22.74 39.21 23.50 39.54
  Q 18.60 40.47 14.25 43.14
  L 12.25 38.29
  Q 12.07 34.51 13.46 31.00
  Z"
/>
<path fill="#ffffff" d="
  M 68.00 34.06
  L 68.00 68.00
  L 32.94 68.00
  C 53.05 67.14 66.76 54.31 68.00 34.06
  Z"
/>
<path fill="#834434" d="
  M 29.50 38.04
  Q 30.64 38.29 30.96 39.57
  Q 31.72 42.68 28.55 42.24
  Q 25.63 41.84 22.79 42.75
  Q 23.82 41.67 25.34 41.91
  A 1.07 1.04 28.2 0 0 26.21 41.66
  Q 27.33 40.67 26.75 39.04
  Q 27.59 37.51 29.50 38.04
  Z"
/>
<path fill="#945d4b" d="
  M 29.50 38.04
  L 31.25 38.04
  Q 32.96 40.30 35.34 38.99
  Q 35.78 38.76 36.27 38.75
  L 43.25 38.71
  L 45.40 38.78
  A 1.44 1.42 66.4 0 1 46.28 39.13
  Q 48.72 41.29 52.00 40.54
  L 54.46 41.50
  L 54.54 42.50
  Q 55.02 47.08 50.75 48.29
  L 47.50 48.29
  C 46.24 48.27 45.77 49.21 44.98 49.68
  C 39.83 52.71 35.69 52.59 30.50 53.54
  L 29.25 53.46
  Q 24.51 53.66 20.50 51.29
  Q 17.92 48.85 18.50 45.21
  Q 20.20 43.25 22.79 42.75
  Q 25.63 41.84 28.55 42.24
  Q 31.72 42.68 30.96 39.57
  Q 30.64 38.29 29.50 38.04
  Z
  M 52.17 42.45
  L 51.10 42.10
  A 1.22 1.19 -49.8 0 0 50.15 42.19
  Q 47.89 43.39 47.16 45.86
  A 0.55 0.54 13.3 0 0 47.59 46.55
  C 49.41 46.89 53.87 46.60 53.19 43.57
  A 1.52 1.50 -87.7 0 0 52.17 42.45
  Z
  M 29.36 44.87
  Q 26.49 47.81 30.38 50.89
  Q 35.54 53.94 39.20 49.07
  Q 42.48 43.75 36.54 42.75
  L 36.27 42.50
  A 0.77 0.75 -27.8 0 0 35.63 42.31
  Q 32.40 42.91 29.36 44.87
  Z"
/>
<path fill="#6f579e" d="
  M 52.00 40.54
  Q 48.72 41.29 46.28 39.13
  A 1.44 1.42 66.4 0 0 45.40 38.78
  L 43.25 38.71
  Q 48.31 36.88 52.00 40.54
  Z"
/>
<path fill="#6f579e" d="
  M 26.75 39.04
  Q 27.33 40.67 26.21 41.66
  A 1.07 1.04 28.2 0 1 25.34 41.91
  Q 23.82 41.67 22.79 42.75
  Q 20.20 43.25 18.50 45.21
  Q 15.55 45.63 14.25 43.14
  Q 18.60 40.47 23.50 39.54
  L 26.75 39.04
  Z"
/>
<path fill="#834434" d="
  M 52.17 42.45
  A 1.52 1.50 -87.7 0 1 53.19 43.57
  C 53.87 46.60 49.41 46.89 47.59 46.55
  A 0.55 0.54 13.3 0 1 47.16 45.86
  Q 47.89 43.39 50.15 42.19
  A 1.22 1.19 -49.8 0 1 51.10 42.10
  L 52.17 42.45
  Z"
/>
<path fill="#dad5dc" d="
  M 36.54 42.75
  Q 34.06 47.31 29.36 44.87
  Q 32.40 42.91 35.63 42.31
  A 0.77 0.75 -27.8 0 1 36.27 42.50
  L 36.54 42.75
  Z"
/>
<path fill="#bd5457" d="
  M 36.54 42.75
  Q 42.48 43.75 39.20 49.07
  C 36.49 45.56 32.41 48.23 30.38 50.89
  Q 26.49 47.81 29.36 44.87
  Q 34.06 47.31 36.54 42.75
  Z"
/>
<path fill="#cd7e7f" d="
  M 39.20 49.07
  Q 35.54 53.94 30.38 50.89
  C 32.41 48.23 36.49 45.56 39.20 49.07
  Z"
/>
<path fill="#a9a4c3" d="
  M 47.50 48.29
  L 46.36 49.77
  A 0.84 0.83 -37.5 0 0 46.25 50.59
  L 48.15 55.10
  A 0.47 0.46 63.0 0 0 48.82 55.32
  Q 50.34 54.40 52.00 54.79
  Q 51.74 55.07 51.40 55.19
  Q 50.94 55.34 50.61 55.69
  Q 45.53 61.07 38.34 62.71
  C 36.55 63.12 34.61 62.44 32.82 63.09
  A 1.61 1.61 0.0 0 1 30.73 62.02
  Q 29.49 57.71 30.50 53.54
  C 35.69 52.59 39.83 52.71 44.98 49.68
  C 45.77 49.21 46.24 48.27 47.50 48.29
  Z"
/>
<path fill="#d0c9dd" d="
  M 47.50 48.29
  L 50.75 48.29
  L 52.25 54.71
  L 52.00 54.79
  Q 50.34 54.40 48.82 55.32
  A 0.47 0.46 63.0 0 1 48.15 55.10
  L 46.25 50.59
  A 0.84 0.83 -37.5 0 1 46.36 49.77
  L 47.50 48.29
  Z"
/>
<path fill="#a9a4c3" d="
  M 20.50 51.29
  Q 24.51 53.66 29.25 53.46
  Q 30.04 54.21 29.38 55.07
  A 1.38 1.38 0.0 0 0 29.09 56.00
  L 29.54 62.81
  A 0.35 0.34 -1.5 0 1 29.18 63.18
  C 27.59 63.12 21.40 61.70 20.75 62.71
  L 19.75 61.96
  L 19.02 57.59
  A 0.85 0.84 -84.6 0 0 18.49 56.94
  L 13.25 55.04
  L 18.11 55.63
  A 0.91 0.88 22.3 0 0 18.89 55.32
  Q 20.32 53.61 20.50 51.29
  Z"
/>
<path fill="#d0c9dd" d="
  M 59.96 52.00
  Q 54.85 59.15 46.56 63.06
  Q 39.36 66.46 31.66 64.99
  Q 43.57 64.71 51.64 56.35
  A 1.76 1.74 15.0 0 1 52.48 55.87
  Q 55.80 55.07 58.21 52.75
  L 59.96 52.00
  Z"
/>
<path fill="#9283b6" d="
  M 58.21 52.75
  Q 55.80 55.07 52.48 55.87
  A 1.76 1.74 15.0 0 0 51.64 56.35
  Q 43.57 64.71 31.66 64.99
  Q 26.07 65.42 20.75 62.71
  C 21.40 61.70 27.59 63.12 29.18 63.18
  A 0.35 0.34 -1.5 0 0 29.54 62.81
  L 29.09 56.00
  A 1.38 1.38 0.0 0 1 29.38 55.07
  Q 30.04 54.21 29.25 53.46
  L 30.50 53.54
  Q 29.49 57.71 30.73 62.02
  A 1.61 1.61 0.0 0 0 32.82 63.09
  C 34.61 62.44 36.55 63.12 38.34 62.71
  Q 45.53 61.07 50.61 55.69
  Q 50.94 55.34 51.40 55.19
  Q 51.74 55.07 52.00 54.79
  L 52.25 54.71
  L 58.21 52.75
  Z"
/>
<path fill="#dad5dc" d="
  M 10.25 54.79
  L 13.25 55.04
  L 18.49 56.94
  A 0.85 0.84 -84.6 0 1 19.02 57.59
  L 19.75 61.96
  Q 14.08 59.61 10.25 54.79
  Z"
/>
</svg>
