<?xml version="1.0" encoding="UTF-8" standalone="no"?>
<!DOCTYPE svg PUBLIC "-//W3C//DTD SVG 1.1//EN" "http://www.w3.org/Graphics/SVG/1.1/DTD/svg11.dtd">
<svg xmlns="http://www.w3.org/2000/svg" version="1.1" viewBox="0 0 68 68">
<g stroke-width="2.00" fill="none" stroke-linecap="butt">
<path stroke="#f7faff" vector-effect="non-scaling-stroke" d="
  M 32.31 0.00
  Q 8.87 2.87 1.28 25.01
  C -0.29 29.61 0.75 33.74 0.81 38.14
  C 0.97 49.13 9.09 58.85 18.27 64.00
  Q 21.35 65.73 24.00 63.96"
/>
<path stroke="#f3d4ce" vector-effect="non-scaling-stroke" d="
  M 24.00 63.96
  L 28.23 65.29
  A 1.08 1.05 38.4 0 0 29.10 65.20
  L 29.50 64.96"
/>
<path stroke="#e1adb5" vector-effect="non-scaling-stroke" d="
  M 29.50 64.96
  Q 35.15 66.63 41.05 64.85"
/>
<path stroke="#e7c7ca" vector-effect="non-scaling-stroke" d="
  M 41.05 64.85
  Q 50.59 62.49 57.54 55.25"
/>
<path stroke="#d4d2f8" vector-effect="non-scaling-stroke" d="
  M 57.54 55.25
  Q 66.12 45.71 66.04 32.75"
/>
<path stroke="#f7faff" vector-effect="non-scaling-stroke" d="
  M 66.04 32.75
  Q 67.69 31.77 67.52 30.26
  C 65.57 12.70 50.26 0.05 32.56 0.00"
/>
<path stroke="#cccdf8" vector-effect="non-scaling-stroke" d="
  M 66.04 32.75
  C 63.19 -3.84 14.63 -9.35 3.29 25.80
  Q 3.15 26.25 3.29 27.25"
/>
<path stroke="#ece8e9" vector-effect="non-scaling-stroke" d="
  M 3.29 27.25
  Q 1.94 30.62 2.50 33.86"
/>
<path stroke="#e0bcbf" vector-effect="non-scaling-stroke" d="
  M 2.50 33.86
  L 2.54 34.50"
/>
<path stroke="#bdd8ea" vector-effect="non-scaling-stroke" d="
  M 2.54 34.50
  Q 2.02 39.47 4.54 43.75"
/>
<path stroke="#e1e6f2" vector-effect="non-scaling-stroke" d="
  M 4.54 43.75
  Q 4.48 47.89 7.50 50.71"
/>
<path stroke="#bdd8ea" vector-effect="non-scaling-stroke" d="
  M 7.50 50.71
  Q 9.58 55.31 14.18 58.02"
/>
<path stroke="#cccdf8" vector-effect="non-scaling-stroke" d="
  M 14.18 58.02
  Q 16.58 60.82 20.25 62.46"
/>
<path stroke="#ebcfce" vector-effect="non-scaling-stroke" d="
  M 20.25 62.46
  L 24.00 63.96"
/>
<path stroke="#bc9ac3" vector-effect="non-scaling-stroke" d="
  M 57.54 55.25
  Q 55.23 54.49 53.04 55.50"
/>
<path stroke="#7170a7" vector-effect="non-scaling-stroke" d="
  M 53.04 55.50
  Q 53.23 54.45 53.93 53.59
  A 0.66 0.66 0.0 0 1 54.80 53.45
  L 55.45 53.87
  A 1.05 1.05 0.0 0 0 56.34 53.97
  Q 59.01 53.08 59.04 50.25"
/>
<path stroke="#7f7ab1" vector-effect="non-scaling-stroke" d="
  M 59.04 50.25
  Q 59.42 48.61 58.79 47.00"
/>
<path stroke="#9588bf" vector-effect="non-scaling-stroke" d="
  M 58.79 47.00
  Q 62.61 41.64 58.25 36.46"
/>
<path stroke="#7f7ab1" vector-effect="non-scaling-stroke" d="
  M 58.25 36.46
  Q 57.68 34.26 59.52 33.07
  A 1.70 1.63 86.0 0 0 60.13 32.34
  C 61.72 28.55 57.76 25.69 54.50 24.85
  A 0.47 0.47 0.0 0 1 54.17 24.24
  L 54.50 23.29"
/>
<path stroke="#9588bf" vector-effect="non-scaling-stroke" d="
  M 54.50 23.29
  C 57.60 17.37 52.36 12.74 46.85 16.74
  A 0.92 0.92 0.0 0 1 45.39 16.10
  Q 45.14 13.95 43.97 12.19
  Q 42.53 10.00 40.40 11.53
  L 39.00 12.54"
/>
<path stroke="#7f7ab1" vector-effect="non-scaling-stroke" d="
  M 39.00 12.54
  C 36.65 9.80 31.95 6.97 29.50 11.13
  A 0.50 0.49 -59.7 0 1 28.83 11.31
  Q 24.30 8.83 21.54 12.67"
/>
<path stroke="#7170a7" vector-effect="non-scaling-stroke" d="
  M 21.54 12.67
  Q 20.94 17.24 24.00 19.29"
/>
<path stroke="#bebeeb" vector-effect="non-scaling-stroke" d="
  M 24.00 19.29
  Q 19.74 21.36 17.77 25.60
  A 1.49 1.49 0.0 0 1 17.13 26.27
  C 14.82 27.46 16.77 30.25 17.21 32.00"
/>
<path stroke="#c9c0e2" vector-effect="non-scaling-stroke" d="
  M 17.21 32.00
  L 17.21 36.75"
/>
<path stroke="#bc94b8" vector-effect="non-scaling-stroke" d="
  M 17.21 36.75
  L 15.71 36.75"
/>
<path stroke="#b77995" vector-effect="non-scaling-stroke" d="
  M 15.71 36.75
  Q 15.03 35.70 13.75 36.04"
/>
<path stroke="#bc94b8" vector-effect="non-scaling-stroke" d="
  M 13.75 36.04
  L 13.25 36.04"
/>
<path stroke="#c9c0e2" vector-effect="non-scaling-stroke" d="
  M 13.25 36.04
  Q 12.09 35.28 10.81 33.69
  Q 7.84 29.97 3.29 27.25"
/>
<path stroke="#6c5d7f" vector-effect="non-scaling-stroke" d="
  M 39.00 12.54
  L 37.78 19.06
  A 2.87 2.85 26.2 0 0 38.70 21.73
  C 41.20 23.96 43.65 26.89 46.94 27.37
  Q 49.90 27.81 52.87 26.96
  A 0.31 0.31 0.0 0 0 53.09 26.64
  Q 52.84 23.52 54.50 23.29"
/>
<path stroke="#6c5d7f" vector-effect="non-scaling-stroke" d="
  M 58.25 36.46
  Q 57.10 38.06 55.39 39.00
  A 1.07 1.03 84.0 0 0 54.90 39.63
  L 53.55 44.37
  A 0.97 0.97 0.0 0 0 54.56 45.61
  Q 56.77 45.43 58.79 47.00"
/>
<path stroke="#484567" vector-effect="non-scaling-stroke" d="
  M 59.04 50.25
  Q 57.53 48.88 55.70 48.15
  C 53.14 47.12 52.13 45.74 51.22 43.38
  A 0.86 0.85 55.4 0 1 51.38 42.50
  Q 53.17 40.58 53.60 37.97
  A 1.16 1.14 -12.0 0 1 54.12 37.18
  L 57.39 35.07
  A 0.80 0.78 -24.4 0 0 57.73 34.19
  L 57.11 31.99
  A 1.02 1.00 -34.4 0 1 57.29 31.09
  Q 58.39 29.70 57.08 28.65
  A 1.52 1.52 0.0 0 0 56.23 28.30
  L 53.03 28.00
  A 1.22 1.19 -63.7 0 0 52.09 28.33
  Q 50.32 30.03 47.83 29.98
  A 1.10 1.06 66.7 0 1 47.07 29.66
  L 46.33 28.94
  A 1.18 1.18 0.0 0 0 45.59 28.61
  L 39.87 28.32
  A 1.57 1.53 -57.0 0 0 39.02 28.51
  C 37.23 29.47 36.26 27.62 34.50 28.71"
/>
<path stroke="#9493ab" vector-effect="non-scaling-stroke" d="
  M 34.50 28.71
  L 35.21 27.25"
/>
<path stroke="#484567" vector-effect="non-scaling-stroke" d="
  M 35.21 27.25
  Q 35.58 27.13 35.76 26.91
  A 0.43 0.43 0.0 0 0 35.62 26.27
  L 34.55 25.68
  A 0.49 0.49 0.0 0 1 34.42 24.92
  Q 35.26 24.01 34.78 22.51
  Q 32.48 15.30 25.66 18.32
  A 0.89 0.87 53.9 0 1 24.71 18.16
  Q 22.84 16.47 22.76 13.78
  A 0.85 0.84 12.8 0 0 22.29 13.04
  L 21.54 12.67"
/>
<path stroke="#8789a1" vector-effect="non-scaling-stroke" d="
  M 35.21 27.25
  Q 27.41 27.14 27.49 19.73
  A 0.50 0.49 89.4 0 0 26.99 19.23
  L 24.00 19.29"
/>
<path stroke="#8789a1" vector-effect="non-scaling-stroke" d="
  M 34.50 28.71
  C 33.79 32.42 36.06 33.84 38.43 35.90
  A 0.69 0.67 -59.6 0 1 38.62 36.67
  Q 37.94 38.36 38.79 40.00"
/>
<path stroke="#b2b9dd" vector-effect="non-scaling-stroke" d="
  M 38.79 40.00
  Q 37.13 42.28 34.29 42.48
  A 1.11 1.11 0.0 0 1 33.43 42.17
  Q 25.25 33.96 23.45 31.80
  Q 21.25 29.18 18.44 29.21"
/>
<path stroke="#ded9dc" vector-effect="non-scaling-stroke" d="
  M 18.44 29.21
  Q 17.32 30.50 17.21 32.00"
/>
<path stroke="#ddafa9" vector-effect="non-scaling-stroke" d="
  M 13.25 36.04
  Q 13.52 39.59 10.54 41.25"
/>
<path stroke="#baccd3" vector-effect="non-scaling-stroke" d="
  M 10.54 41.25
  L 6.96 36.00"
/>
<path stroke="#ddafa9" vector-effect="non-scaling-stroke" d="
  M 6.96 36.00
  Q 7.35 35.14 6.46 34.48
  Q 4.54 33.06 2.50 33.86"
/>
<path stroke="#856479" vector-effect="non-scaling-stroke" d="
  M 53.04 55.50
  Q 50.65 58.49 47.29 56.50"
/>
<path stroke="#656b99" vector-effect="non-scaling-stroke" d="
  M 47.29 56.50
  L 46.29 55.25"
/>
<path stroke="#222142" vector-effect="non-scaling-stroke" d="
  M 46.29 55.25
  L 46.58 55.25
  A 0.23 0.22 -80.9 0 0 46.79 55.09
  Q 48.03 51.34 45.26 49.34
  A 1.95 1.90 6.6 0 1 44.62 48.55
  C 43.50 46.01 46.27 41.31 42.51 41.50
  A 0.56 0.56 0.0 0 0 41.98 42.08
  Q 41.99 42.39 42.25 42.71"
/>
<path stroke="#8789a1" vector-effect="non-scaling-stroke" d="
  M 42.25 42.71
  L 40.75 41.96"
/>
<path stroke="#656b99" vector-effect="non-scaling-stroke" d="
  M 40.75 41.96
  L 38.79 40.00"
/>
<path stroke="#b2b9dd" vector-effect="non-scaling-stroke" d="
  M 40.75 41.96
  Q 38.58 42.73 37.75 44.96"
/>
<path stroke="#bba2b9" vector-effect="non-scaling-stroke" d="
  M 37.75 44.96
  Q 35.16 44.89 32.79 43.75"
/>
<path stroke="#bdbbd4" vector-effect="non-scaling-stroke" d="
  M 32.79 43.75
  Q 26.90 35.61 18.44 29.21"
/>
<path stroke="#e8c2b8" vector-effect="non-scaling-stroke" d="
  M 32.79 43.75
  Q 28.68 50.36 20.91 51.85"
/>
<path stroke="#d89486" vector-effect="non-scaling-stroke" d="
  M 20.91 51.85
  Q 19.42 51.51 17.96 50.25"
/>
<path stroke="#ddafa9" vector-effect="non-scaling-stroke" d="
  M 17.96 50.25
  C 18.08 48.88 23.72 49.31 23.50 43.44
  A 0.96 0.96 0.0 0 0 22.98 42.64
  L 17.99 40.14
  A 0.81 0.81 0.0 0 0 16.83 40.72
  L 15.86 46.05
  A 0.48 0.47 -72.7 0 1 15.20 46.40
  L 14.92 46.28
  A 0.81 0.81 0.0 0 1 14.45 45.53
  Q 14.59 40.81 17.21 36.75"
/>
<path stroke="#aea0aa" vector-effect="non-scaling-stroke" d="
  M 6.96 36.00
  L 2.54 34.50"
/>
<path stroke="#aea0aa" vector-effect="non-scaling-stroke" d="
  M 10.54 41.25
  L 10.00 41.79"
/>
<path stroke="#afcadd" vector-effect="non-scaling-stroke" d="
  M 10.00 41.79
  Q 9.52 41.46 8.95 41.46
  A 0.80 0.79 11.9 0 0 8.22 41.93
  L 7.08 44.50
  Q 6.14 46.63 8.47 46.67
  Q 11.32 46.72 11.04 44.00"
/>
<path stroke="#aea0aa" vector-effect="non-scaling-stroke" d="
  M 11.04 44.00
  Q 12.58 44.67 13.25 46.21"
/>
<path stroke="#9ab1e3" vector-effect="non-scaling-stroke" d="
  M 13.25 46.21
  Q 12.65 46.10 12.23 46.30
  A 0.57 0.57 0.0 0 0 11.96 47.03
  C 12.33 47.90 12.74 48.33 12.80 49.32
  Q 13.04 53.72 14.18 58.02"
/>
<path stroke="#afcadd" vector-effect="non-scaling-stroke" d="
  M 7.50 50.71
  Q 7.09 46.76 4.54 43.75"
/>
<path stroke="#cb685c" vector-effect="non-scaling-stroke" d="
  M 13.75 36.04
  Q 13.53 36.96 14.07 37.41
  A 0.64 0.63 45.3 0 0 14.89 37.42
  L 15.71 36.75"
/>
<path stroke="#cb685c" vector-effect="non-scaling-stroke" d="
  M 17.96 50.25
  L 16.75 49.79"
/>
<path stroke="#bc94b8" vector-effect="non-scaling-stroke" d="
  M 16.75 49.79
  L 13.25 46.21"
/>
<path stroke="#d2adb2" vector-effect="non-scaling-stroke" d="
  M 11.04 44.00
  Q 9.99 43.12 10.00 41.79"
/>
<path stroke="#e0bcbf" vector-effect="non-scaling-stroke" d="
  M 17.65 41.64
  C 17.15 43.84 20.22 44.94 21.79 43.72
  A 0.46 0.46 0.0 0 0 21.72 42.95
  L 18.42 41.28
  A 0.54 0.54 0.0 0 0 17.65 41.64"
/>
<path stroke="#4d517e" vector-effect="non-scaling-stroke" d="
  M 46.29 55.25
  L 42.96 48.13
  A 1.22 1.21 41.5 0 1 42.90 47.23
  Q 43.55 45.17 42.95 43.24"
/>
<path stroke="#6f6f86" vector-effect="non-scaling-stroke" d="
  M 42.95 43.24
  L 42.25 42.71"
/>
<path stroke="#b2b9dd" vector-effect="non-scaling-stroke" d="
  M 42.95 43.24
  Q 42.48 45.57 40.25 45.54"
/>
<path stroke="#ddc0c1" vector-effect="non-scaling-stroke" d="
  M 40.25 45.54
  L 37.75 44.96"
/>
<path stroke="#b095b5" vector-effect="non-scaling-stroke" d="
  M 47.29 56.50
  Q 44.44 57.77 41.25 57.29"
/>
<path stroke="#a97ba0" vector-effect="non-scaling-stroke" d="
  M 41.25 57.29
  Q 38.66 57.49 37.20 55.75"
/>
<path stroke="#4d517e" vector-effect="non-scaling-stroke" d="
  M 37.20 55.75
  L 38.78 55.62
  A 0.54 0.54 0.0 0 0 39.28 55.12
  Q 39.34 54.13 38.75 53.29"
/>
<path stroke="#bba2b9" vector-effect="non-scaling-stroke" d="
  M 38.75 53.29
  L 39.75 52.04"
/>
<path stroke="#b08faa" vector-effect="non-scaling-stroke" d="
  M 39.75 52.04
  L 40.50 51.54"
/>
<path stroke="#bba2b9" vector-effect="non-scaling-stroke" d="
  M 40.50 51.54
  Q 43.47 48.54 40.25 45.54"
/>
<path stroke="#db968e" vector-effect="non-scaling-stroke" d="
  M 40.50 51.54
  Q 40.35 51.56 40.23 51.51
  A 0.36 0.36 0.0 0 1 39.98 51.13
  L 40.21 49.04
  A 0.77 0.77 0.0 0 0 39.69 48.22
  C 37.97 47.64 32.54 47.35 33.55 50.51
  A 1.05 1.04 0.7 0 0 34.20 51.17
  Q 36.91 52.11 39.75 52.04"
/>
<path stroke="#785862" vector-effect="non-scaling-stroke" d="
  M 38.75 53.29
  L 35.81 53.52
  A 0.73 0.73 0.0 0 0 35.17 54.04
  L 34.96 54.75"
/>
<path stroke="#d48284" vector-effect="non-scaling-stroke" d="
  M 34.96 54.75
  L 32.88 55.82
  A 0.91 0.90 -9.1 0 0 32.39 56.49
  Q 32.09 58.38 30.00 57.96"
/>
<path stroke="#db968e" vector-effect="non-scaling-stroke" d="
  M 30.00 57.96
  Q 28.38 54.86 25.16 53.42
  A 0.82 0.82 0.0 0 0 24.34 53.52
  L 24.00 53.79"
/>
<path stroke="#d67b6b" vector-effect="non-scaling-stroke" d="
  M 24.00 53.79
  L 20.91 51.85"
/>
<path stroke="#b77995" vector-effect="non-scaling-stroke" d="
  M 16.75 49.79
  L 21.66 55.13
  A 1.56 1.56 0.0 0 1 22.06 56.00
  L 22.54 59.75"
/>
<path stroke="#b580ae" vector-effect="non-scaling-stroke" d="
  M 22.54 59.75
  L 21.50 60.96"
/>
<path stroke="#c7a7c7" vector-effect="non-scaling-stroke" d="
  M 21.50 60.96
  Q 20.32 61.31 20.25 62.46"
/>
<path stroke="#cb685c" vector-effect="non-scaling-stroke" d="
  M 24.00 53.79
  L 28.00 58.21"
/>
<path stroke="#c45452" vector-effect="non-scaling-stroke" d="
  M 28.00 58.21
  L 22.54 59.75"
/>
<path stroke="#c96f75" vector-effect="non-scaling-stroke" d="
  M 30.00 57.96
  Q 29.05 58.67 28.00 58.21"
/>
<path stroke="#663149" vector-effect="non-scaling-stroke" d="
  M 37.20 55.75
  Q 36.19 55.59 34.96 54.75"
/>
<path stroke="#c97480" vector-effect="non-scaling-stroke" d="
  M 41.25 57.29
  Q 43.19 57.58 43.82 59.56
  A 0.88 0.87 79.7 0 1 43.04 60.70
  L 37.53 61.04
  Q 36.73 61.08 37.34 61.61
  L 41.05 64.85"
/>
<path stroke="#d48284" vector-effect="non-scaling-stroke" d="
  M 29.50 64.96
  Q 27.46 62.10 24.49 60.29
  A 1.05 1.01 49.9 0 0 23.60 60.20
  L 21.50 60.96"
/>
</g>
<path fill="#ffffff" d="
  M 0.00 0.00
  L 32.31 0.00
  Q 8.87 2.87 1.28 25.01
  C -0.29 29.61 0.75 33.74 0.81 38.14
  C 0.97 49.13 9.09 58.85 18.27 64.00
  Q 21.35 65.73 24.00 63.96
  L 28.23 65.29
  A 1.08 1.05 38.4 0 0 29.10 65.20
  L 29.50 64.96
  Q 35.15 66.63 41.05 64.85
  Q 50.59 62.49 57.54 55.25
  Q 66.12 45.71 66.04 32.75
  Q 67.69 31.77 67.52 30.26
  C 65.57 12.70 50.26 0.05 32.56 0.00
  L 68.00 0.00
  L 68.00 68.00
  L 0.00 68.00
  L 0.00 0.00
  Z"
/>
<path fill="#eff4ff" d="
  M 32.31 0.00
  L 32.56 0.00
  C 50.26 0.05 65.57 12.70 67.52 30.26
  Q 67.69 31.77 66.04 32.75
  C 63.19 -3.84 14.63 -9.35 3.29 25.80
  Q 3.15 26.25 3.29 27.25
  Q 1.94 30.62 2.50 33.86
  L 2.54 34.50
  Q 2.02 39.47 4.54 43.75
  Q 4.48 47.89 7.50 50.71
  Q 9.58 55.31 14.18 58.02
  Q 16.58 60.82 20.25 62.46
  L 24.00 63.96
  Q 21.35 65.73 18.27 64.00
  C 9.09 58.85 0.97 49.13 0.81 38.14
  C 0.75 33.74 -0.29 29.61 1.28 25.01
  Q 8.87 2.87 32.31 0.00
  Z"
/>
<path fill="#a8a5f1" d="
  M 66.04 32.75
  Q 66.12 45.71 57.54 55.25
  Q 55.23 54.49 53.04 55.50
  Q 53.23 54.45 53.93 53.59
  A 0.66 0.66 0.0 0 1 54.80 53.45
  L 55.45 53.87
  A 1.05 1.05 0.0 0 0 56.34 53.97
  Q 59.01 53.08 59.04 50.25
  Q 59.42 48.61 58.79 47.00
  Q 62.61 41.64 58.25 36.46
  Q 57.68 34.26 59.52 33.07
  A 1.70 1.63 86.0 0 0 60.13 32.34
  C 61.72 28.55 57.76 25.69 54.50 24.85
  A 0.47 0.47 0.0 0 1 54.17 24.24
  L 54.50 23.29
  C 57.60 17.37 52.36 12.74 46.85 16.74
  A 0.92 0.92 0.0 0 1 45.39 16.10
  Q 45.14 13.95 43.97 12.19
  Q 42.53 10.00 40.40 11.53
  L 39.00 12.54
  C 36.65 9.80 31.95 6.97 29.50 11.13
  A 0.50 0.49 -59.7 0 1 28.83 11.31
  Q 24.30 8.83 21.54 12.67
  Q 20.94 17.24 24.00 19.29
  Q 19.74 21.36 17.77 25.60
  A 1.49 1.49 0.0 0 1 17.13 26.27
  C 14.82 27.46 16.77 30.25 17.21 32.00
  L 17.21 36.75
  L 15.71 36.75
  Q 15.03 35.70 13.75 36.04
  L 13.25 36.04
  Q 12.09 35.28 10.81 33.69
  Q 7.84 29.97 3.29 27.25
  Q 3.15 26.25 3.29 25.80
  C 14.63 -9.35 63.19 -3.84 66.04 32.75
  Z"
/>
<path fill="#554f71" d="
  M 39.00 12.54
  L 37.78 19.06
  A 2.87 2.85 26.2 0 0 38.70 21.73
  C 41.20 23.96 43.65 26.89 46.94 27.37
  Q 49.90 27.81 52.87 26.96
  A 0.31 0.31 0.0 0 0 53.09 26.64
  Q 52.84 23.52 54.50 23.29
  L 54.17 24.24
  A 0.47 0.47 0.0 0 0 54.50 24.85
  C 57.76 25.69 61.72 28.55 60.13 32.34
  A 1.70 1.63 86.0 0 1 59.52 33.07
  Q 57.68 34.26 58.25 36.46
  Q 57.10 38.06 55.39 39.00
  A 1.07 1.03 84.0 0 0 54.90 39.63
  L 53.55 44.37
  A 0.97 0.97 0.0 0 0 54.56 45.61
  Q 56.77 45.43 58.79 47.00
  Q 59.42 48.61 59.04 50.25
  Q 57.53 48.88 55.70 48.15
  C 53.14 47.12 52.13 45.74 51.22 43.38
  A 0.86 0.85 55.4 0 1 51.38 42.50
  Q 53.17 40.58 53.60 37.97
  A 1.16 1.14 -12.0 0 1 54.12 37.18
  L 57.39 35.07
  A 0.80 0.78 -24.4 0 0 57.73 34.19
  L 57.11 31.99
  A 1.02 1.00 -34.4 0 1 57.29 31.09
  Q 58.39 29.70 57.08 28.65
  A 1.52 1.52 0.0 0 0 56.23 28.30
  L 53.03 28.00
  A 1.22 1.19 -63.7 0 0 52.09 28.33
  Q 50.32 30.03 47.83 29.98
  A 1.10 1.06 66.7 0 1 47.07 29.66
  L 46.33 28.94
  A 1.18 1.18 0.0 0 0 45.59 28.61
  L 39.87 28.32
  A 1.57 1.53 -57.0 0 0 39.02 28.51
  C 37.23 29.47 36.26 27.62 34.50 28.71
  L 35.21 27.25
  Q 35.58 27.13 35.76 26.91
  A 0.43 0.43 0.0 0 0 35.62 26.27
  L 34.55 25.68
  A 0.49 0.49 0.0 0 1 34.42 24.92
  Q 35.26 24.01 34.78 22.51
  Q 32.48 15.30 25.66 18.32
  A 0.89 0.87 53.9 0 1 24.71 18.16
  Q 22.84 16.47 22.76 13.78
  A 0.85 0.84 12.8 0 0 22.29 13.04
  L 21.54 12.67
  Q 24.30 8.83 28.83 11.31
  A 0.50 0.49 -59.7 0 0 29.50 11.13
  C 31.95 6.97 36.65 9.80 39.00 12.54
  Z"
/>
<path fill="#826a8d" d="
  M 54.50 23.29
  Q 52.84 23.52 53.09 26.64
  A 0.31 0.31 0.0 0 1 52.87 26.96
  Q 49.90 27.81 46.94 27.37
  C 43.65 26.89 41.20 23.96 38.70 21.73
  A 2.87 2.85 26.2 0 1 37.78 19.06
  L 39.00 12.54
  L 40.40 11.53
  Q 42.53 10.00 43.97 12.19
  Q 45.14 13.95 45.39 16.10
  A 0.92 0.92 0.0 0 0 46.85 16.74
  C 52.36 12.74 57.60 17.37 54.50 23.29
  Z"
/>
<path fill="#3a3a5d" d="
  M 21.54 12.67
  L 22.29 13.04
  A 0.85 0.84 12.8 0 1 22.76 13.78
  Q 22.84 16.47 24.71 18.16
  A 0.89 0.87 53.9 0 0 25.66 18.32
  Q 32.48 15.30 34.78 22.51
  Q 35.26 24.01 34.42 24.92
  A 0.49 0.49 0.0 0 0 34.55 25.68
  L 35.62 26.27
  A 0.43 0.43 0.0 0 1 35.76 26.91
  Q 35.58 27.13 35.21 27.25
  Q 27.41 27.14 27.49 19.73
  A 0.50 0.49 89.4 0 0 26.99 19.23
  L 24.00 19.29
  Q 20.94 17.24 21.54 12.67
  Z"
/>
<path fill="#d3d7e5" d="
  M 35.21 27.25
  L 34.50 28.71
  C 33.79 32.42 36.06 33.84 38.43 35.90
  A 0.69 0.67 -59.6 0 1 38.62 36.67
  Q 37.94 38.36 38.79 40.00
  Q 37.13 42.28 34.29 42.48
  A 1.11 1.11 0.0 0 1 33.43 42.17
  Q 25.25 33.96 23.45 31.80
  Q 21.25 29.18 18.44 29.21
  Q 17.32 30.50 17.21 32.00
  C 16.77 30.25 14.82 27.46 17.13 26.27
  A 1.49 1.49 0.0 0 0 17.77 25.60
  Q 19.74 21.36 24.00 19.29
  L 26.99 19.23
  A 0.50 0.49 89.4 0 1 27.49 19.73
  Q 27.41 27.14 35.21 27.25
  Z"
/>
<path fill="#e9dbd2" d="
  M 3.29 27.25
  Q 7.84 29.97 10.81 33.69
  Q 12.09 35.28 13.25 36.04
  Q 13.52 39.59 10.54 41.25
  L 6.96 36.00
  Q 7.35 35.14 6.46 34.48
  Q 4.54 33.06 2.50 33.86
  Q 1.94 30.62 3.29 27.25
  Z"
/>
<path fill="#3a3a5d" d="
  M 59.04 50.25
  Q 59.01 53.08 56.34 53.97
  A 1.05 1.05 0.0 0 1 55.45 53.87
  L 54.80 53.45
  A 0.66 0.66 0.0 0 0 53.93 53.59
  Q 53.23 54.45 53.04 55.50
  Q 50.65 58.49 47.29 56.50
  L 46.29 55.25
  L 46.58 55.25
  A 0.23 0.22 -80.9 0 0 46.79 55.09
  Q 48.03 51.34 45.26 49.34
  A 1.95 1.90 6.6 0 1 44.62 48.55
  C 43.50 46.01 46.27 41.31 42.51 41.50
  A 0.56 0.56 0.0 0 0 41.98 42.08
  Q 41.99 42.39 42.25 42.71
  L 40.75 41.96
  L 38.79 40.00
  Q 37.94 38.36 38.62 36.67
  A 0.69 0.67 -59.6 0 0 38.43 35.90
  C 36.06 33.84 33.79 32.42 34.50 28.71
  C 36.26 27.62 37.23 29.47 39.02 28.51
  A 1.57 1.53 -57.0 0 1 39.87 28.32
  L 45.59 28.61
  A 1.18 1.18 0.0 0 1 46.33 28.94
  L 47.07 29.66
  A 1.10 1.06 66.7 0 0 47.83 29.98
  Q 50.32 30.03 52.09 28.33
  A 1.22 1.19 -63.7 0 1 53.03 28.00
  L 56.23 28.30
  A 1.52 1.52 0.0 0 1 57.08 28.65
  Q 58.39 29.70 57.29 31.09
  A 1.02 1.00 -34.4 0 0 57.11 31.99
  L 57.73 34.19
  A 0.80 0.78 -24.4 0 1 57.39 35.07
  L 54.12 37.18
  A 1.16 1.14 -12.0 0 0 53.60 37.97
  Q 53.17 40.58 51.38 42.50
  A 0.86 0.85 55.4 0 0 51.22 43.38
  C 52.13 45.74 53.14 47.12 55.70 48.15
  Q 57.53 48.88 59.04 50.25
  Z"
/>
<path fill="#909bd5" d="
  M 38.79 40.00
  L 40.75 41.96
  Q 38.58 42.73 37.75 44.96
  Q 35.16 44.89 32.79 43.75
  Q 26.90 35.61 18.44 29.21
  Q 21.25 29.18 23.45 31.80
  Q 25.25 33.96 33.43 42.17
  A 1.11 1.11 0.0 0 0 34.29 42.48
  Q 37.13 42.28 38.79 40.00
  Z"
/>
<path fill="#e9dbd2" d="
  M 18.44 29.21
  Q 26.90 35.61 32.79 43.75
  Q 28.68 50.36 20.91 51.85
  Q 19.42 51.51 17.96 50.25
  C 18.08 48.88 23.72 49.31 23.50 43.44
  A 0.96 0.96 0.0 0 0 22.98 42.64
  L 17.99 40.14
  A 0.81 0.81 0.0 0 0 16.83 40.72
  L 15.86 46.05
  A 0.48 0.47 -72.7 0 1 15.20 46.40
  L 14.92 46.28
  A 0.81 0.81 0.0 0 1 14.45 45.53
  Q 14.59 40.81 17.21 36.75
  L 17.21 32.00
  Q 17.32 30.50 18.44 29.21
  Z"
/>
<path fill="#d0837f" d="
  M 6.96 36.00
  L 2.54 34.50
  L 2.50 33.86
  Q 4.54 33.06 6.46 34.48
  Q 7.35 35.14 6.96 36.00
  Z"
/>
<path fill="#8bbcd4" d="
  M 2.54 34.50
  L 6.96 36.00
  L 10.54 41.25
  L 10.00 41.79
  Q 9.52 41.46 8.95 41.46
  A 0.80 0.79 11.9 0 0 8.22 41.93
  L 7.08 44.50
  Q 6.14 46.63 8.47 46.67
  Q 11.32 46.72 11.04 44.00
  Q 12.58 44.67 13.25 46.21
  Q 12.65 46.10 12.23 46.30
  A 0.57 0.57 0.0 0 0 11.96 47.03
  C 12.33 47.90 12.74 48.33 12.80 49.32
  Q 13.04 53.72 14.18 58.02
  Q 9.58 55.31 7.50 50.71
  Q 7.09 46.76 4.54 43.75
  Q 2.02 39.47 2.54 34.50
  Z"
/>
<path fill="#d0837f" d="
  M 13.25 36.04
  L 13.75 36.04
  Q 13.53 36.96 14.07 37.41
  A 0.64 0.63 45.3 0 0 14.89 37.42
  L 15.71 36.75
  L 17.21 36.75
  Q 14.59 40.81 14.45 45.53
  A 0.81 0.81 0.0 0 0 14.92 46.28
  L 15.20 46.40
  A 0.48 0.47 -72.7 0 0 15.86 46.05
  L 16.83 40.72
  A 0.81 0.81 0.0 0 1 17.99 40.14
  L 22.98 42.64
  A 0.96 0.96 0.0 0 1 23.50 43.44
  C 23.72 49.31 18.08 48.88 17.96 50.25
  L 16.75 49.79
  L 13.25 46.21
  Q 12.58 44.67 11.04 44.00
  Q 9.99 43.12 10.00 41.79
  L 10.54 41.25
  Q 13.52 39.59 13.25 36.04
  Z
  M 17.65 41.64
  C 17.15 43.84 20.22 44.94 21.79 43.72
  A 0.46 0.46 0.0 0 0 21.72 42.95
  L 18.42 41.28
  A 0.54 0.54 0.0 0 0 17.65 41.64
  Z"
/>
<path fill="#c64d39" d="
  M 13.75 36.04
  Q 15.03 35.70 15.71 36.75
  L 14.89 37.42
  A 0.64 0.63 45.3 0 1 14.07 37.41
  Q 13.53 36.96 13.75 36.04
  Z"
/>
<path fill="#826a8d" d="
  M 58.25 36.46
  Q 62.61 41.64 58.79 47.00
  Q 56.77 45.43 54.56 45.61
  A 0.97 0.97 0.0 0 1 53.55 44.37
  L 54.90 39.63
  A 1.07 1.03 84.0 0 1 55.39 39.00
  Q 57.10 38.06 58.25 36.46
  Z"
/>
<path fill="#eff4ff" d="
  M 21.79 43.72
  C 20.22 44.94 17.15 43.84 17.65 41.64
  A 0.54 0.54 0.0 0 1 18.42 41.28
  L 21.72 42.95
  A 0.46 0.46 0.0 0 1 21.79 43.72
  Z"
/>
<path fill="#d3d7e5" d="
  M 10.00 41.79
  Q 9.99 43.12 11.04 44.00
  Q 11.32 46.72 8.47 46.67
  Q 6.14 46.63 7.08 44.50
  L 8.22 41.93
  A 0.80 0.79 11.9 0 1 8.95 41.46
  Q 9.52 41.46 10.00 41.79
  Z"
/>
<path fill="#0a0726" d="
  M 46.29 55.25
  L 42.96 48.13
  A 1.22 1.21 41.5 0 1 42.90 47.23
  Q 43.55 45.17 42.95 43.24
  L 42.25 42.71
  Q 41.99 42.39 41.98 42.08
  A 0.56 0.56 0.0 0 1 42.51 41.50
  C 46.27 41.31 43.50 46.01 44.62 48.55
  A 1.95 1.90 6.6 0 0 45.26 49.34
  Q 48.03 51.34 46.79 55.09
  A 0.23 0.22 -80.9 0 1 46.58 55.25
  L 46.29 55.25
  Z"
/>
<path fill="#d3d7e5" d="
  M 40.75 41.96
  L 42.25 42.71
  L 42.95 43.24
  Q 42.48 45.57 40.25 45.54
  L 37.75 44.96
  Q 38.58 42.73 40.75 41.96
  Z"
/>
<path fill="#909bd5" d="
  M 42.95 43.24
  Q 43.55 45.17 42.90 47.23
  A 1.22 1.21 41.5 0 0 42.96 48.13
  L 46.29 55.25
  L 47.29 56.50
  Q 44.44 57.77 41.25 57.29
  Q 38.66 57.49 37.20 55.75
  L 38.78 55.62
  A 0.54 0.54 0.0 0 0 39.28 55.12
  Q 39.34 54.13 38.75 53.29
  L 39.75 52.04
  L 40.50 51.54
  Q 43.47 48.54 40.25 45.54
  Q 42.48 45.57 42.95 43.24
  Z"
/>
<path fill="#d3d7e5" d="
  M 4.54 43.75
  Q 7.09 46.76 7.50 50.71
  Q 4.48 47.89 4.54 43.75
  Z"
/>
<path fill="#e6a99d" d="
  M 32.79 43.75
  Q 35.16 44.89 37.75 44.96
  L 40.25 45.54
  Q 43.47 48.54 40.50 51.54
  Q 40.35 51.56 40.23 51.51
  A 0.36 0.36 0.0 0 1 39.98 51.13
  L 40.21 49.04
  A 0.77 0.77 0.0 0 0 39.69 48.22
  C 37.97 47.64 32.54 47.35 33.55 50.51
  A 1.05 1.04 0.7 0 0 34.20 51.17
  Q 36.91 52.11 39.75 52.04
  L 38.75 53.29
  L 35.81 53.52
  A 0.73 0.73 0.0 0 0 35.17 54.04
  L 34.96 54.75
  L 32.88 55.82
  A 0.91 0.90 -9.1 0 0 32.39 56.49
  Q 32.09 58.38 30.00 57.96
  Q 28.38 54.86 25.16 53.42
  A 0.82 0.82 0.0 0 0 24.34 53.52
  L 24.00 53.79
  L 20.91 51.85
  Q 28.68 50.36 32.79 43.75
  Z"
/>
<path fill="#a8a5f1" d="
  M 13.25 46.21
  L 16.75 49.79
  L 21.66 55.13
  A 1.56 1.56 0.0 0 1 22.06 56.00
  L 22.54 59.75
  L 21.50 60.96
  Q 20.32 61.31 20.25 62.46
  Q 16.58 60.82 14.18 58.02
  Q 13.04 53.72 12.80 49.32
  C 12.74 48.33 12.33 47.90 11.96 47.03
  A 0.57 0.57 0.0 0 1 12.23 46.30
  Q 12.65 46.10 13.25 46.21
  Z"
/>
<path fill="#d0837f" d="
  M 40.50 51.54
  L 39.75 52.04
  Q 36.91 52.11 34.20 51.17
  A 1.05 1.04 0.7 0 1 33.55 50.51
  C 32.54 47.35 37.97 47.64 39.69 48.22
  A 0.77 0.77 0.0 0 1 40.21 49.04
  L 39.98 51.13
  A 0.36 0.36 0.0 0 0 40.23 51.51
  Q 40.35 51.56 40.50 51.54
  Z"
/>
<path fill="#c64d39" d="
  M 16.75 49.79
  L 17.96 50.25
  Q 19.42 51.51 20.91 51.85
  L 24.00 53.79
  L 28.00 58.21
  L 22.54 59.75
  L 22.06 56.00
  A 1.56 1.56 0.0 0 0 21.66 55.13
  L 16.75 49.79
  Z"
/>
<path fill="#d0837f" d="
  M 30.00 57.96
  Q 29.05 58.67 28.00 58.21
  L 24.00 53.79
  L 24.34 53.52
  A 0.82 0.82 0.0 0 1 25.16 53.42
  Q 28.38 54.86 30.00 57.96
  Z"
/>
<path fill="#0a0726" d="
  M 38.75 53.29
  Q 39.34 54.13 39.28 55.12
  A 0.54 0.54 0.0 0 1 38.78 55.62
  L 37.20 55.75
  Q 36.19 55.59 34.96 54.75
  L 35.17 54.04
  A 0.73 0.73 0.0 0 1 35.81 53.52
  L 38.75 53.29
  Z"
/>
<path fill="#c25a6b" d="
  M 34.96 54.75
  Q 36.19 55.59 37.20 55.75
  Q 38.66 57.49 41.25 57.29
  Q 43.19 57.58 43.82 59.56
  A 0.88 0.87 79.7 0 1 43.04 60.70
  L 37.53 61.04
  Q 36.73 61.08 37.34 61.61
  L 41.05 64.85
  Q 35.15 66.63 29.50 64.96
  Q 27.46 62.10 24.49 60.29
  A 1.05 1.01 49.9 0 0 23.60 60.20
  L 21.50 60.96
  L 22.54 59.75
  L 28.00 58.21
  Q 29.05 58.67 30.00 57.96
  Q 32.09 58.38 32.39 56.49
  A 0.91 0.90 -9.1 0 1 32.88 55.82
  L 34.96 54.75
  Z"
/>
<path fill="#cf8e95" d="
  M 57.54 55.25
  Q 50.59 62.49 41.05 64.85
  L 37.34 61.61
  Q 36.73 61.08 37.53 61.04
  L 43.04 60.70
  A 0.88 0.87 79.7 0 0 43.82 59.56
  Q 43.19 57.58 41.25 57.29
  Q 44.44 57.77 47.29 56.50
  Q 50.65 58.49 53.04 55.50
  Q 55.23 54.49 57.54 55.25
  Z"
/>
<path fill="#e6a99d" d="
  M 29.50 64.96
  L 29.10 65.20
  A 1.08 1.05 38.4 0 1 28.23 65.29
  L 24.00 63.96
  L 20.25 62.46
  Q 20.32 61.31 21.50 60.96
  L 23.60 60.20
  A 1.05 1.01 49.9 0 1 24.49 60.29
  Q 27.46 62.10 29.50 64.96
  Z"
/>
</svg>
