<?xml version="1.0" encoding="UTF-8" standalone="no"?>
<!DOCTYPE svg PUBLIC "-//W3C//DTD SVG 1.1//EN" "http://www.w3.org/Graphics/SVG/1.1/DTD/svg11.dtd">
<svg xmlns="http://www.w3.org/2000/svg" version="1.1" viewBox="0 0 64 64">
<g stroke-width="2.00" fill="none" stroke-linecap="butt">
<path stroke="#d4d2f8" vector-effect="non-scaling-stroke" d="
  M 30.31 0.00
  C 12.91 1.89 1.89 12.97 0.00 30.44"
/>
<path stroke="#d4d2f8" vector-effect="non-scaling-stroke" d="
  M 33.81 0.00
  C 60.22 2.59 73.87 33.45 54.75 53.79"
/>
<path stroke="#c4a1c9" vector-effect="non-scaling-stroke" d="
  M 54.75 53.79
  Q 48.04 51.57 41.00 52.04"
/>
<path stroke="#be94b5" vector-effect="non-scaling-stroke" d="
  M 41.00 52.04
  L 36.00 52.29"
/>
<path stroke="#b47594" vector-effect="non-scaling-stroke" d="
  M 36.00 52.29
  L 34.33 52.23"
/>
<path stroke="#c8b4d3" vector-effect="non-scaling-stroke" d="
  M 34.33 52.23
  Q 33.06 52.13 32.71 50.75"
/>
<path stroke="#c9bcdb" vector-effect="non-scaling-stroke" d="
  M 32.71 50.75
  L 32.77 50.49
  A 0.23 0.22 6.4 0 1 32.99 50.32
  Q 37.14 50.34 39.10 46.42"
/>
<path stroke="#be94b5" vector-effect="non-scaling-stroke" d="
  M 39.10 46.42
  Q 47.00 46.46 46.81 39.22
  C 46.80 38.90 46.58 38.63 46.25 38.71"
/>
<path stroke="#9c83c3" vector-effect="non-scaling-stroke" d="
  M 46.25 38.71
  Q 47.22 38.09 46.50 37.21"
/>
<path stroke="#bab4e4" vector-effect="non-scaling-stroke" d="
  M 46.50 37.21
  Q 47.11 35.87 46.50 34.54"
/>
<path stroke="#7c73af" vector-effect="non-scaling-stroke" d="
  M 46.50 34.54
  Q 51.41 34.07 50.89 29.57
  A 0.76 0.75 71.3 0 1 51.25 28.83
  Q 53.76 27.34 52.79 24.25"
/>
<path stroke="#9c83c3" vector-effect="non-scaling-stroke" d="
  M 52.79 24.25
  Q 50.08 20.94 46.43 18.75
  A 0.51 0.51 0.0 0 1 46.24 18.07
  Q 47.33 16.06 47.46 13.75"
/>
<path stroke="#a791cd" vector-effect="non-scaling-stroke" d="
  M 47.46 13.75
  Q 46.29 9.27 41.85 9.96"
/>
<path stroke="#9c83c3" vector-effect="non-scaling-stroke" d="
  M 41.85 9.96
  L 37.29 11.92"
/>
<path stroke="#8979b7" vector-effect="non-scaling-stroke" d="
  M 37.29 11.92
  L 38.03 8.06
  Q 38.49 5.67 36.08 5.31
  Q 24.80 3.65 25.21 13.25"
/>
<path stroke="#7c73af" vector-effect="non-scaling-stroke" d="
  M 25.21 13.25
  L 22.69 9.71
  Q 20.81 7.07 18.20 9.00
  L 13.62 12.37
  A 1.10 1.09 -23.6 0 0 13.19 13.46
  Q 13.68 16.07 15.82 17.67
  Q 17.36 18.83 15.44 19.02
  C 10.84 19.47 6.59 20.26 8.89 26.50
  Q 9.78 28.92 12.52 28.16
  A 0.11 0.11 0.0 0 1 12.66 28.24
  L 12.77 28.55
  A 0.43 0.43 0.0 0 1 12.63 29.03
  C 9.58 31.41 9.59 36.51 14.25 36.71"
/>
<path stroke="#a99fd8" vector-effect="non-scaling-stroke" d="
  M 14.25 36.71
  C 15.80 36.67 14.89 38.98 15.04 40.00"
/>
<path stroke="#c9bcdb" vector-effect="non-scaling-stroke" d="
  M 15.04 40.00
  Q 14.80 43.47 17.79 44.81
  A 1.38 1.34 0.4 0 1 18.46 45.47
  Q 21.36 51.59 28.50 51.29"
/>
<path stroke="#c8b4d3" vector-effect="non-scaling-stroke" d="
  M 28.50 51.29
  Q 29.52 52.37 29.25 53.71"
/>
<path stroke="#b47594" vector-effect="non-scaling-stroke" d="
  M 29.25 53.71
  L 26.12 54.98"
/>
<path stroke="#be94b5" vector-effect="non-scaling-stroke" d="
  M 26.12 54.98
  Q 20.98 56.38 17.50 60.04"
/>
<path stroke="#d4d2f8" vector-effect="non-scaling-stroke" d="
  M 17.50 60.04
  Q 1.38 51.43 0.00 32.94"
/>
<path stroke="#eac1bc" vector-effect="non-scaling-stroke" d="
  M 17.50 60.04
  Q 29.71 66.19 42.75 61.71"
/>
<path stroke="#efced0" vector-effect="non-scaling-stroke" d="
  M 42.75 61.71
  Q 49.64 59.10 54.75 53.79"
/>
<path stroke="#7d5789" vector-effect="non-scaling-stroke" d="
  M 37.29 11.92
  Q 37.75 13.19 36.66 13.89
  A 0.61 0.60 63.7 0 0 36.42 14.61
  Q 36.87 15.87 37.98 16.61
  A 1.84 1.82 6.0 0 1 38.65 17.43
  Q 39.99 20.67 42.43 23.24
  A 1.63 1.58 19.3 0 1 42.85 24.08
  L 43.52 28.03
  A 0.71 0.70 83.8 0 0 44.23 28.61
  Q 46.52 28.55 48.21 27.00"
/>
<path stroke="#5c4775" vector-effect="non-scaling-stroke" d="
  M 48.21 27.00
  Q 47.43 29.19 45.38 30.45
  A 1.32 1.32 0.0 0 1 43.45 29.78
  C 43.09 28.77 41.45 23.09 40.61 23.02
  A 0.57 0.57 0.0 0 0 40.00 23.67
  Q 40.27 25.50 39.89 27.30
  Q 39.45 29.42 38.08 27.75
  Q 36.83 26.22 36.52 24.28
  A 0.55 0.55 0.0 0 0 35.72 23.88
  Q 33.68 24.93 32.60 23.19
  A 0.54 0.54 0.0 0 0 31.68 23.21
  Q 31.08 24.27 29.92 23.44
  A 1.72 1.71 9.3 0 1 29.30 22.58
  Q 28.93 21.44 27.72 21.72
  A 1.02 1.01 -30.8 0 1 26.82 21.50
  Q 24.77 19.69 25.56 17.15
  A 1.33 1.30 -8.3 0 1 26.10 16.44
  Q 27.60 15.51 27.18 13.61
  A 0.53 0.53 0.0 0 0 26.47 13.24
  L 25.51 13.62
  A 0.20 0.19 -19.3 0 1 25.25 13.50
  Q 25.19 13.33 25.21 13.25"
/>
<path stroke="#7d5789" vector-effect="non-scaling-stroke" d="
  M 32.05 8.23
  Q 31.17 9.08 30.68 10.14
  A 0.63 0.62 -61.9 0 0 30.92 10.95
  C 33.40 12.43 36.45 11.93 36.67 8.49
  Q 36.78 6.69 35.01 6.36
  Q 33.41 6.05 32.56 7.58
  Q 32.35 7.94 32.05 8.23"
/>
<path stroke="#705181" vector-effect="non-scaling-stroke" d="
  M 48.21 27.00
  Q 47.89 25.57 46.86 24.49
  A 0.34 0.33 -34.1 0 1 46.97 23.96
  C 47.58 23.68 49.55 26.41 49.99 27.14
  A 0.42 0.42 0.0 0 0 50.63 27.23
  Q 52.04 25.94 52.79 24.25"
/>
<path stroke="#8d82a1" vector-effect="non-scaling-stroke" d="
  M 46.50 34.54
  Q 43.79 33.48 42.23 31.05
  A 0.89 0.89 0.0 0 0 41.52 30.64
  L 36.75 30.46"
/>
<path stroke="#7b5f8a" vector-effect="non-scaling-stroke" d="
  M 36.75 30.46
  L 35.75 28.52
  A 0.50 0.49 -29.2 0 0 35.05 28.33
  Q 34.86 28.44 34.75 28.71"
/>
<path stroke="#8d82a1" vector-effect="non-scaling-stroke" d="
  M 34.75 28.71
  L 33.29 28.75"
/>
<path stroke="#958ca6" vector-effect="non-scaling-stroke" d="
  M 33.29 28.75
  L 32.25 27.96"
/>
<path stroke="#8d82a1" vector-effect="non-scaling-stroke" d="
  M 32.25 27.96
  Q 32.22 27.21 31.84 26.65
  A 0.41 0.40 -41.1 0 0 31.20 26.61
  Q 28.45 29.72 24.75 27.21"
/>
<path stroke="#926273" vector-effect="non-scaling-stroke" d="
  M 24.75 27.21
  Q 24.46 26.58 23.93 26.39
  A 0.48 0.48 0.0 0 0 23.33 26.66
  L 23.00 27.46"
/>
<path stroke="#8d82a1" vector-effect="non-scaling-stroke" d="
  M 23.00 27.46
  Q 20.71 29.08 18.90 28.44
  Q 16.55 27.62 16.16 30.08
  L 15.21 36.25"
/>
<path stroke="#7c6d95" vector-effect="non-scaling-stroke" d="
  M 15.21 36.25
  L 14.25 36.71"
/>
<path stroke="#9b6f9f" vector-effect="non-scaling-stroke" d="
  M 47.46 13.75
  Q 45.59 12.67 44.17 13.98
  A 1.97 1.90 16.8 0 1 43.25 14.45
  L 40.45 15.03
  A 0.80 0.80 0.0 0 1 39.59 14.61
  L 38.82 13.12
  A 0.51 0.51 0.0 0 1 39.08 12.42
  Q 40.90 11.69 41.85 9.96"
/>
<path stroke="#d0a3a8" vector-effect="non-scaling-stroke" d="
  M 24.75 27.21
  L 23.00 27.46"
/>
<path stroke="#d3cddb" vector-effect="non-scaling-stroke" d="
  M 32.25 27.96
  Q 30.87 27.84 30.41 28.67
  Q 27.91 33.22 25.14 37.65
  A 0.61 0.60 35.5 0 0 25.28 38.44
  Q 25.66 38.73 26.25 38.54"
/>
<path stroke="#baaeca" vector-effect="non-scaling-stroke" d="
  M 26.25 38.54
  L 25.48 39.47
  A 0.75 0.75 0.0 0 1 24.76 39.74
  Q 24.38 39.68 24.26 39.28
  A 0.70 0.70 0.0 0 0 23.52 38.79
  L 19.23 39.27
  A 1.63 1.60 21.0 0 0 18.40 39.63
  C 16.06 41.64 15.32 37.53 15.21 36.25"
/>
<path stroke="#d3cddb" vector-effect="non-scaling-stroke" d="
  M 33.29 28.75
  L 33.21 31.42
  A 1.74 1.68 63.1 0 1 32.93 32.33
  L 29.75 37.21"
/>
<path stroke="#c2b8cf" vector-effect="non-scaling-stroke" d="
  M 29.75 37.21
  Q 28.41 38.87 26.25 38.54"
/>
<path stroke="#b9a0bf" vector-effect="non-scaling-stroke" d="
  M 36.75 30.46
  Q 35.48 29.93 34.75 28.71"
/>
<path stroke="#ae92b6" vector-effect="non-scaling-stroke" d="
  M 46.50 37.21
  L 43.25 38.04"
/>
<path stroke="#baaeca" vector-effect="non-scaling-stroke" d="
  M 43.25 38.04
  Q 37.91 38.15 32.58 38.67
  C 31.13 38.81 30.55 38.26 29.75 37.21"
/>
<path stroke="#9d7daa" vector-effect="non-scaling-stroke" d="
  M 43.25 38.04
  C 44.88 42.17 33.65 38.22 34.50 41.21"
/>
<path stroke="#c9b6c2" vector-effect="non-scaling-stroke" d="
  M 34.50 41.21
  Q 30.94 41.23 27.95 39.80
  A 0.52 0.51 22.6 0 0 27.24 40.09
  Q 26.61 41.85 24.75 41.33
  A 1.40 1.39 -47.2 0 0 23.86 41.37
  C 21.80 42.18 16.20 44.67 15.97 40.46
  A 0.49 0.48 -1.8 0 0 15.47 40.00
  L 15.04 40.00"
/>
<path stroke="#b27287" vector-effect="non-scaling-stroke" d="
  M 46.25 38.71
  Q 43.91 38.24 43.63 40.25
  A 1.61 1.60 -76.7 0 1 41.53 41.55
  Q 39.85 40.98 38.25 41.71"
/>
<path stroke="#bd9aad" vector-effect="non-scaling-stroke" d="
  M 38.25 41.71
  L 34.50 41.21"
/>
<path stroke="#dfab9f" vector-effect="non-scaling-stroke" d="
  M 39.10 46.42
  Q 40.82 44.77 40.41 42.39
  A 0.70 0.70 0.0 0 0 39.77 41.81
  L 38.25 41.71"
/>
<path stroke="#e8cbbd" vector-effect="non-scaling-stroke" d="
  M 32.71 50.75
  L 28.50 51.29"
/>
<path stroke="#e2d5d3" vector-effect="non-scaling-stroke" d="
  M 32.83 45.49
  L 34.76 44.62
  A 0.48 0.47 62.2 0 0 34.97 43.94
  L 34.42 43.02
  A 0.69 0.67 -26.7 0 0 33.57 42.75
  L 27.44 45.24
  A 0.71 0.70 -12.5 0 0 27.00 45.92
  C 27.10 48.58 33.19 48.96 34.12 46.56
  A 0.41 0.41 0.0 0 0 33.74 46.00
  L 32.95 46.00
  Q 31.67 46.01 32.83 45.49"
/>
<path stroke="#d48476" vector-effect="non-scaling-stroke" d="
  M 34.33 52.23
  C 36.99 58.63 28.05 61.22 28.14 56.21
  A 0.85 0.84 -13.1 0 1 28.60 55.48
  Q 29.82 54.85 29.25 53.71"
/>
<path stroke="#da908d" vector-effect="non-scaling-stroke" d="
  M 41.00 52.04
  Q 42.06 52.37 41.43 54.96
  Q 41.19 55.96 41.46 56.95
  L 42.75 61.71"
/>
<path stroke="#ca6458" vector-effect="non-scaling-stroke" d="
  M 26.12 54.98
  Q 25.78 58.92 29.21 59.48
  Q 33.04 60.11 36.08 58.09
  A 1.07 1.06 -14.1 0 0 36.55 57.31
  Q 36.82 54.62 36.00 52.29"
/>
</g>
<path fill="#ffffff" d="
  M 0.00 0.00
  L 30.31 0.00
  C 12.91 1.89 1.89 12.97 0.00 30.44
  L 0.00 0.00
  Z"
/>
<path fill="#a8a5f1" d="
  M 30.31 0.00
  L 33.81 0.00
  C 60.22 2.59 73.87 33.45 54.75 53.79
  Q 48.04 51.57 41.00 52.04
  L 36.00 52.29
  L 34.33 52.23
  Q 33.06 52.13 32.71 50.75
  L 32.77 50.49
  A 0.23 0.22 6.4 0 1 32.99 50.32
  Q 37.14 50.34 39.10 46.42
  Q 47.00 46.46 46.81 39.22
  C 46.80 38.90 46.58 38.63 46.25 38.71
  Q 47.22 38.09 46.50 37.21
  Q 47.11 35.87 46.50 34.54
  Q 51.41 34.07 50.89 29.57
  A 0.76 0.75 71.3 0 1 51.25 28.83
  Q 53.76 27.34 52.79 24.25
  Q 50.08 20.94 46.43 18.75
  A 0.51 0.51 0.0 0 1 46.24 18.07
  Q 47.33 16.06 47.46 13.75
  Q 46.29 9.27 41.85 9.96
  L 37.29 11.92
  L 38.03 8.06
  Q 38.49 5.67 36.08 5.31
  Q 24.80 3.65 25.21 13.25
  L 22.69 9.71
  Q 20.81 7.07 18.20 9.00
  L 13.62 12.37
  A 1.10 1.09 -23.6 0 0 13.19 13.46
  Q 13.68 16.07 15.82 17.67
  Q 17.36 18.83 15.44 19.02
  C 10.84 19.47 6.59 20.26 8.89 26.50
  Q 9.78 28.92 12.52 28.16
  A 0.11 0.11 0.0 0 1 12.66 28.24
  L 12.77 28.55
  A 0.43 0.43 0.0 0 1 12.63 29.03
  C 9.58 31.41 9.59 36.51 14.25 36.71
  C 15.80 36.67 14.89 38.98 15.04 40.00
  Q 14.80 43.47 17.79 44.81
  A 1.38 1.34 0.4 0 1 18.46 45.47
  Q 21.36 51.59 28.50 51.29
  Q 29.52 52.37 29.25 53.71
  L 26.12 54.98
  Q 20.98 56.38 17.50 60.04
  Q 1.38 51.43 0.00 32.94
  L 0.00 30.44
  C 1.89 12.97 12.91 1.89 30.31 0.00
  Z"
/>
<path fill="#ffffff" d="
  M 33.81 0.00
  L 64.00 0.00
  L 64.00 64.00
  L 0.00 64.00
  L 0.00 32.94
  Q 1.38 51.43 17.50 60.04
  Q 29.71 66.19 42.75 61.71
  Q 49.64 59.10 54.75 53.79
  C 73.87 33.45 60.22 2.59 33.81 0.00
  Z"
/>
<path fill="#694d7d" d="
  M 37.29 11.92
  Q 37.75 13.19 36.66 13.89
  A 0.61 0.60 63.7 0 0 36.42 14.61
  Q 36.87 15.87 37.98 16.61
  A 1.84 1.82 6.0 0 1 38.65 17.43
  Q 39.99 20.67 42.43 23.24
  A 1.63 1.58 19.3 0 1 42.85 24.08
  L 43.52 28.03
  A 0.71 0.70 83.8 0 0 44.23 28.61
  Q 46.52 28.55 48.21 27.00
  Q 47.43 29.19 45.38 30.45
  A 1.32 1.32 0.0 0 1 43.45 29.78
  C 43.09 28.77 41.45 23.09 40.61 23.02
  A 0.57 0.57 0.0 0 0 40.00 23.67
  Q 40.27 25.50 39.89 27.30
  Q 39.45 29.42 38.08 27.75
  Q 36.83 26.22 36.52 24.28
  A 0.55 0.55 0.0 0 0 35.72 23.88
  Q 33.68 24.93 32.60 23.19
  A 0.54 0.54 0.0 0 0 31.68 23.21
  Q 31.08 24.27 29.92 23.44
  A 1.72 1.71 9.3 0 1 29.30 22.58
  Q 28.93 21.44 27.72 21.72
  A 1.02 1.01 -30.8 0 1 26.82 21.50
  Q 24.77 19.69 25.56 17.15
  A 1.33 1.30 -8.3 0 1 26.10 16.44
  Q 27.60 15.51 27.18 13.61
  A 0.53 0.53 0.0 0 0 26.47 13.24
  L 25.51 13.62
  A 0.20 0.19 -19.3 0 1 25.25 13.50
  Q 25.19 13.33 25.21 13.25
  Q 24.80 3.65 36.08 5.31
  Q 38.49 5.67 38.03 8.06
  L 37.29 11.92
  Z
  M 32.05 8.23
  Q 31.17 9.08 30.68 10.14
  A 0.63 0.62 -61.9 0 0 30.92 10.95
  C 33.40 12.43 36.45 11.93 36.67 8.49
  Q 36.78 6.69 35.01 6.36
  Q 33.41 6.05 32.56 7.58
  Q 32.35 7.94 32.05 8.23
  Z"
/>
<path fill="#906195" d="
  M 32.56 7.58
  Q 33.41 6.05 35.01 6.36
  Q 36.78 6.69 36.67 8.49
  C 36.45 11.93 33.40 12.43 30.92 10.95
  A 0.63 0.62 -61.9 0 1 30.68 10.14
  Q 31.17 9.08 32.05 8.23
  Q 32.35 7.94 32.56 7.58
  Z"
/>
<path fill="#4f416c" d="
  M 25.21 13.25
  Q 25.19 13.33 25.25 13.50
  A 0.20 0.19 -19.3 0 0 25.51 13.62
  L 26.47 13.24
  A 0.53 0.53 0.0 0 1 27.18 13.61
  Q 27.60 15.51 26.10 16.44
  A 1.33 1.30 -8.3 0 0 25.56 17.15
  Q 24.77 19.69 26.82 21.50
  A 1.02 1.01 -30.8 0 0 27.72 21.72
  Q 28.93 21.44 29.30 22.58
  A 1.72 1.71 9.3 0 0 29.92 23.44
  Q 31.08 24.27 31.68 23.21
  A 0.54 0.54 0.0 0 1 32.60 23.19
  Q 33.68 24.93 35.72 23.88
  A 0.55 0.55 0.0 0 1 36.52 24.28
  Q 36.83 26.22 38.08 27.75
  Q 39.45 29.42 39.89 27.30
  Q 40.27 25.50 40.00 23.67
  A 0.57 0.57 0.0 0 1 40.61 23.02
  C 41.45 23.09 43.09 28.77 43.45 29.78
  A 1.32 1.32 0.0 0 0 45.38 30.45
  Q 47.43 29.19 48.21 27.00
  Q 47.89 25.57 46.86 24.49
  A 0.34 0.33 -34.1 0 1 46.97 23.96
  C 47.58 23.68 49.55 26.41 49.99 27.14
  A 0.42 0.42 0.0 0 0 50.63 27.23
  Q 52.04 25.94 52.79 24.25
  Q 53.76 27.34 51.25 28.83
  A 0.76 0.75 71.3 0 0 50.89 29.57
  Q 51.41 34.07 46.50 34.54
  Q 43.79 33.48 42.23 31.05
  A 0.89 0.89 0.0 0 0 41.52 30.64
  L 36.75 30.46
  L 35.75 28.52
  A 0.50 0.49 -29.2 0 0 35.05 28.33
  Q 34.86 28.44 34.75 28.71
  L 33.29 28.75
  L 32.25 27.96
  Q 32.22 27.21 31.84 26.65
  A 0.41 0.40 -41.1 0 0 31.20 26.61
  Q 28.45 29.72 24.75 27.21
  Q 24.46 26.58 23.93 26.39
  A 0.48 0.48 0.0 0 0 23.33 26.66
  L 23.00 27.46
  Q 20.71 29.08 18.90 28.44
  Q 16.55 27.62 16.16 30.08
  L 15.21 36.25
  L 14.25 36.71
  C 9.59 36.51 9.58 31.41 12.63 29.03
  A 0.43 0.43 0.0 0 0 12.77 28.55
  L 12.66 28.24
  A 0.11 0.11 0.0 0 0 12.52 28.16
  Q 9.78 28.92 8.89 26.50
  C 6.59 20.26 10.84 19.47 15.44 19.02
  Q 17.36 18.83 15.82 17.67
  Q 13.68 16.07 13.19 13.46
  A 1.10 1.09 -23.6 0 1 13.62 12.37
  L 18.20 9.00
  Q 20.81 7.07 22.69 9.71
  L 25.21 13.25
  Z"
/>
<path fill="#a67ca8" d="
  M 47.46 13.75
  Q 45.59 12.67 44.17 13.98
  A 1.97 1.90 16.8 0 1 43.25 14.45
  L 40.45 15.03
  A 0.80 0.80 0.0 0 1 39.59 14.61
  L 38.82 13.12
  A 0.51 0.51 0.0 0 1 39.08 12.42
  Q 40.90 11.69 41.85 9.96
  Q 46.29 9.27 47.46 13.75
  Z"
/>
<path fill="#906195" d="
  M 41.85 9.96
  Q 40.90 11.69 39.08 12.42
  A 0.51 0.51 0.0 0 0 38.82 13.12
  L 39.59 14.61
  A 0.80 0.80 0.0 0 0 40.45 15.03
  L 43.25 14.45
  A 1.97 1.90 16.8 0 0 44.17 13.98
  Q 45.59 12.67 47.46 13.75
  Q 47.33 16.06 46.24 18.07
  A 0.51 0.51 0.0 0 0 46.43 18.75
  Q 50.08 20.94 52.79 24.25
  Q 52.04 25.94 50.63 27.23
  A 0.42 0.42 0.0 0 1 49.99 27.14
  C 49.55 26.41 47.58 23.68 46.97 23.96
  A 0.34 0.33 -34.1 0 0 46.86 24.49
  Q 47.89 25.57 48.21 27.00
  Q 46.52 28.55 44.23 28.61
  A 0.71 0.70 83.8 0 1 43.52 28.03
  L 42.85 24.08
  A 1.63 1.58 19.3 0 0 42.43 23.24
  Q 39.99 20.67 38.65 17.43
  A 1.84 1.82 6.0 0 0 37.98 16.61
  Q 36.87 15.87 36.42 14.61
  A 0.61 0.60 63.7 0 1 36.66 13.89
  Q 37.75 13.19 37.29 11.92
  L 41.85 9.96
  Z"
/>
<path fill="#d48379" d="
  M 24.75 27.21
  L 23.00 27.46
  L 23.33 26.66
  A 0.48 0.48 0.0 0 1 23.93 26.39
  Q 24.46 26.58 24.75 27.21
  Z"
/>
<path fill="#cbc3d6" d="
  M 32.25 27.96
  Q 30.87 27.84 30.41 28.67
  Q 27.91 33.22 25.14 37.65
  A 0.61 0.60 35.5 0 0 25.28 38.44
  Q 25.66 38.73 26.25 38.54
  L 25.48 39.47
  A 0.75 0.75 0.0 0 1 24.76 39.74
  Q 24.38 39.68 24.26 39.28
  A 0.70 0.70 0.0 0 0 23.52 38.79
  L 19.23 39.27
  A 1.63 1.60 21.0 0 0 18.40 39.63
  C 16.06 41.64 15.32 37.53 15.21 36.25
  L 16.16 30.08
  Q 16.55 27.62 18.90 28.44
  Q 20.71 29.08 23.00 27.46
  L 24.75 27.21
  Q 28.45 29.72 31.20 26.61
  A 0.41 0.40 -41.1 0 1 31.84 26.65
  Q 32.22 27.21 32.25 27.96
  Z"
/>
<path fill="#dad7e0" d="
  M 32.25 27.96
  L 33.29 28.75
  L 33.21 31.42
  A 1.74 1.68 63.1 0 1 32.93 32.33
  L 29.75 37.21
  Q 28.41 38.87 26.25 38.54
  Q 25.66 38.73 25.28 38.44
  A 0.61 0.60 35.5 0 1 25.14 37.65
  Q 27.91 33.22 30.41 28.67
  Q 30.87 27.84 32.25 27.96
  Z"
/>
<path fill="#a67ca8" d="
  M 36.75 30.46
  Q 35.48 29.93 34.75 28.71
  Q 34.86 28.44 35.05 28.33
  A 0.50 0.49 -29.2 0 1 35.75 28.52
  L 36.75 30.46
  Z"
/>
<path fill="#cbc3d6" d="
  M 33.29 28.75
  L 34.75 28.71
  Q 35.48 29.93 36.75 30.46
  L 41.52 30.64
  A 0.89 0.89 0.0 0 1 42.23 31.05
  Q 43.79 33.48 46.50 34.54
  Q 47.11 35.87 46.50 37.21
  L 43.25 38.04
  Q 37.91 38.15 32.58 38.67
  C 31.13 38.81 30.55 38.26 29.75 37.21
  L 32.93 32.33
  A 1.74 1.68 63.1 0 0 33.21 31.42
  L 33.29 28.75
  Z"
/>
<path fill="#a999be" d="
  M 15.21 36.25
  C 15.32 37.53 16.06 41.64 18.40 39.63
  A 1.63 1.60 21.0 0 1 19.23 39.27
  L 23.52 38.79
  A 0.70 0.70 0.0 0 1 24.26 39.28
  Q 24.38 39.68 24.76 39.74
  A 0.75 0.75 0.0 0 0 25.48 39.47
  L 26.25 38.54
  Q 28.41 38.87 29.75 37.21
  C 30.55 38.26 31.13 38.81 32.58 38.67
  Q 37.91 38.15 43.25 38.04
  C 44.88 42.17 33.65 38.22 34.50 41.21
  Q 30.94 41.23 27.95 39.80
  A 0.52 0.51 22.6 0 0 27.24 40.09
  Q 26.61 41.85 24.75 41.33
  A 1.40 1.39 -47.2 0 0 23.86 41.37
  C 21.80 42.18 16.20 44.67 15.97 40.46
  A 0.49 0.48 -1.8 0 0 15.47 40.00
  L 15.04 40.00
  C 14.89 38.98 15.80 36.67 14.25 36.71
  L 15.21 36.25
  Z"
/>
<path fill="#906195" d="
  M 46.50 37.21
  Q 47.22 38.09 46.25 38.71
  Q 43.91 38.24 43.63 40.25
  A 1.61 1.60 -76.7 0 1 41.53 41.55
  Q 39.85 40.98 38.25 41.71
  L 34.50 41.21
  C 33.65 38.22 44.88 42.17 43.25 38.04
  L 46.50 37.21
  Z"
/>
<path fill="#d48379" d="
  M 46.25 38.71
  C 46.58 38.63 46.80 38.90 46.81 39.22
  Q 47.00 46.46 39.10 46.42
  Q 40.82 44.77 40.41 42.39
  A 0.70 0.70 0.0 0 0 39.77 41.81
  L 38.25 41.71
  Q 39.85 40.98 41.53 41.55
  A 1.61 1.60 -76.7 0 0 43.63 40.25
  Q 43.91 38.24 46.25 38.71
  Z"
/>
<path fill="#e9d3c5" d="
  M 34.50 41.21
  L 38.25 41.71
  L 39.77 41.81
  A 0.70 0.70 0.0 0 1 40.41 42.39
  Q 40.82 44.77 39.10 46.42
  Q 37.14 50.34 32.99 50.32
  A 0.23 0.22 6.4 0 0 32.77 50.49
  L 32.71 50.75
  L 28.50 51.29
  Q 21.36 51.59 18.46 45.47
  A 1.38 1.34 0.4 0 0 17.79 44.81
  Q 14.80 43.47 15.04 40.00
  L 15.47 40.00
  A 0.49 0.48 -1.8 0 1 15.97 40.46
  C 16.20 44.67 21.80 42.18 23.86 41.37
  A 1.40 1.39 -47.2 0 1 24.75 41.33
  Q 26.61 41.85 27.24 40.09
  A 0.52 0.51 22.6 0 1 27.95 39.80
  Q 30.94 41.23 34.50 41.21
  Z
  M 32.83 45.49
  L 34.76 44.62
  A 0.48 0.47 62.2 0 0 34.97 43.94
  L 34.42 43.02
  A 0.69 0.67 -26.7 0 0 33.57 42.75
  L 27.44 45.24
  A 0.71 0.70 -12.5 0 0 27.00 45.92
  C 27.10 48.58 33.19 48.96 34.12 46.56
  A 0.41 0.41 0.0 0 0 33.74 46.00
  L 32.95 46.00
  Q 31.67 46.01 32.83 45.49
  Z"
/>
<path fill="#dad7e0" d="
  M 32.95 46.00
  L 33.74 46.00
  A 0.41 0.41 0.0 0 1 34.12 46.56
  C 33.19 48.96 27.10 48.58 27.00 45.92
  A 0.71 0.70 -12.5 0 1 27.44 45.24
  L 33.57 42.75
  A 0.69 0.67 -26.7 0 1 34.42 43.02
  L 34.97 43.94
  A 0.48 0.47 62.2 0 1 34.76 44.62
  L 32.83 45.49
  Q 31.67 46.01 32.95 46.00
  Z"
/>
<path fill="#e7c3b4" d="
  M 32.71 50.75
  Q 33.06 52.13 34.33 52.23
  C 36.99 58.63 28.05 61.22 28.14 56.21
  A 0.85 0.84 -13.1 0 1 28.60 55.48
  Q 29.82 54.85 29.25 53.71
  Q 29.52 52.37 28.50 51.29
  L 32.71 50.75
  Z"
/>
<path fill="#d48379" d="
  M 41.00 52.04
  Q 42.06 52.37 41.43 54.96
  Q 41.19 55.96 41.46 56.95
  L 42.75 61.71
  Q 29.71 66.19 17.50 60.04
  Q 20.98 56.38 26.12 54.98
  Q 25.78 58.92 29.21 59.48
  Q 33.04 60.11 36.08 58.09
  A 1.07 1.06 -14.1 0 0 36.55 57.31
  Q 36.82 54.62 36.00 52.29
  L 41.00 52.04
  Z"
/>
<path fill="#df9da1" d="
  M 41.00 52.04
  Q 48.04 51.57 54.75 53.79
  Q 49.64 59.10 42.75 61.71
  L 41.46 56.95
  Q 41.19 55.96 41.43 54.96
  Q 42.06 52.37 41.00 52.04
  Z"
/>
<path fill="#c04437" d="
  M 34.33 52.23
  L 36.00 52.29
  Q 36.82 54.62 36.55 57.31
  A 1.07 1.06 -14.1 0 1 36.08 58.09
  Q 33.04 60.11 29.21 59.48
  Q 25.78 58.92 26.12 54.98
  L 29.25 53.71
  Q 29.82 54.85 28.60 55.48
  A 0.85 0.84 -13.1 0 0 28.14 56.21
  C 28.05 61.22 36.99 58.63 34.33 52.23
  Z"
/>
</svg>
