<svg width="20" height="21" viewBox="0 0 20 21" fill="none" xmlns="http://www.w3.org/2000/svg">
<path d="M6.35918 0.683594C6.77134 0.683594 7.09519 1.01115 7.09519 1.40614C7.09519 1.69515 7.34053 1.92637 7.63494 1.92637H8.60648C10.0883 1.936 11.2954 3.12097 11.3052 4.56606V4.7491C12.2375 4.7491 13.1698 4.76837 14.1119 4.77801C17.5172 4.77801 20 7.20575 20 10.5584V14.8647C20 18.2173 17.5172 20.6451 14.1119 20.6451C12.7478 20.674 11.3837 20.6836 10.0098 20.6836C8.63592 20.6836 7.25221 20.674 5.88813 20.6451C2.48283 20.6451 0 18.2173 0 14.8647V10.5584C0 7.20575 2.48283 4.77801 5.89794 4.77801C7.18351 4.75874 8.49853 4.73947 9.83317 4.73947V4.57569C9.83317 3.91095 9.2738 3.37145 8.60648 3.37145H7.63494C6.52601 3.37145 5.62316 2.48514 5.62316 1.40614C5.62316 1.01115 5.95682 0.683594 6.35918 0.683594ZM7.08538 10.2501C6.67321 10.2501 6.34936 10.5776 6.34936 10.9726V11.9842H5.30913C4.90677 11.9842 4.57311 12.3117 4.57311 12.7067C4.57311 13.1113 4.90677 13.4293 5.30913 13.4293H6.34936V14.4505C6.34936 14.8454 6.67321 15.173 7.08538 15.173C7.48773 15.173 7.82139 14.8454 7.82139 14.4505V13.4293H8.85182C9.25417 13.4293 9.58783 13.1113 9.58783 12.7067C9.58783 12.3117 9.25417 11.9842 8.85182 11.9842H7.82139V10.9726C7.82139 10.5776 7.48773 10.2501 7.08538 10.2501ZM14.7988 13.6701H14.7007C14.2875 13.6701 13.9647 13.9977 13.9647 14.3926C13.9647 14.7973 14.2875 15.1152 14.7007 15.1152H14.7988C15.2012 15.1152 15.5348 14.7973 15.5348 14.3926C15.5348 13.9977 15.2012 13.6701 14.7988 13.6701ZM13.1207 10.356H13.0226C12.6104 10.356 12.2866 10.6836 12.2866 11.0786C12.2866 11.4832 12.6104 11.8011 13.0226 11.8011H13.1207C13.5231 11.8011 13.8567 11.4832 13.8567 11.0786C13.8567 10.6836 13.5231 10.356 13.1207 10.356Z" fill="white"/>
</svg>
