<svg width="87" height="87" viewBox="0 0 87 87" fill="none" xmlns="http://www.w3.org/2000/svg">
<path d="M5.68379e-06 43.5C4.60927e-06 67.5244 19.4756 87 43.5 87C67.5244 87 87 67.5244 87 43.5C87 19.4756 67.5244 -8.31986e-07 43.5 -1.85829e-06C19.4756 -2.8846e-06 6.75832e-06 19.4756 5.68379e-06 43.5Z" fill="url(#paint0_radial_145_328)"/>
<path d="M71.805 28.2881C71.805 28.2881 61.8569 11.6205 46.969 11.2669C46.969 11.2669 44.8357 4.17089 52.6732 6.30425C60.5107 8.43761 71.8278 17.6555 75.3644 25.8011C78.9009 33.9467 74.0068 31.4368 71.805 28.2881Z" fill="white"/>
<path d="M37.1235 84.0521C29.0785 82.2759 21.6335 78.4384 15.5193 72.9162C9.40507 67.3941 4.83176 60.377 2.24824 52.5537C2.24824 52.5537 8.02087 81.8503 37.1235 84.0521Z" fill="white"/>
<defs>
<radialGradient id="paint0_radial_145_328" cx="0" cy="0" r="1" gradientUnits="userSpaceOnUse" gradientTransform="translate(43.5 43.5) rotate(90) scale(48.4626)">
<stop offset="0.17" stop-color="white" stop-opacity="0"/>
<stop offset="0.48" stop-color="white" stop-opacity="0.01"/>
<stop offset="0.59" stop-color="white" stop-opacity="0.03"/>
<stop offset="0.67" stop-color="white" stop-opacity="0.08"/>
<stop offset="0.74" stop-color="white" stop-opacity="0.15"/>
<stop offset="0.79" stop-color="white" stop-opacity="0.23"/>
<stop offset="0.84" stop-color="white" stop-opacity="0.34"/>
<stop offset="0.88" stop-color="white" stop-opacity="0.47"/>
<stop offset="0.92" stop-color="white" stop-opacity="0.61"/>
<stop offset="0.96" stop-color="white" stop-opacity="0.78"/>
<stop offset="0.99" stop-color="white" stop-opacity="0.96"/>
<stop offset="1" stop-color="white"/>
</radialGradient>
</defs>
</svg>
