<svg width="35" height="39" viewBox="0 0 35 39" fill="none" xmlns="http://www.w3.org/2000/svg">
<path d="M27.8011 27.9174L27.6484 28.0698L27.4545 28.0196C27.0667 28.2119 26.6025 28.1624 26.2441 28.4621C23.2587 29.2634 23.2481 29.2615 21.2016 27.4698C20.3879 31.5697 17.6868 32.901 14.2707 33.166C14.0439 32.6965 14.0651 32.1788 13.7619 31.6688C12.6385 29.7793 12.508 27.6003 13.8541 25.8992C15.1256 24.292 16.7596 22.7723 19.037 24.049C20.4495 24.8407 21.2833 23.5094 22.2728 22.9293C22.9338 22.5414 22.5236 21.9227 21.9984 21.6815C20.5735 21.0281 19.124 20.349 17.6328 21.5311C16.1615 21.6571 14.6931 21.8957 13.2201 21.8366C11.6419 21.7735 10.2459 20.9464 10.629 19.091C11.2436 16.1165 12.8693 13.6192 14.7666 11.3785C15.4153 12.1316 15.6098 13.1157 15.8401 14.0617C15.9799 14.6354 16.2649 14.7602 16.7232 14.7055C16.9841 14.4752 17.2432 14.4778 17.4994 14.7132C17.8031 14.775 18.1063 14.8373 18.4101 14.8991C18.5587 15.0026 18.6046 15.0978 18.5476 15.1865C18.4941 15.2708 18.44 15.3133 18.3854 15.3133C18.1798 15.7602 17.6133 16.3532 18.5593 16.4953C19.4101 16.6233 20.2486 16.7346 21.0365 17.1262C23.2563 17.469 24.4286 19.4447 25.9268 20.9053C26.1854 21.1587 26.4674 21.5529 26.4145 21.879C26.0796 24.1242 27.1901 25.9475 27.8011 27.9174Z" fill="#DDD9E5"/>
<path d="M14.7668 11.378C14.7163 11.4552 14.6798 11.5568 14.6123 11.6063C13.436 12.4578 14.7792 14.0181 13.7962 14.9686C12.9653 15.7725 12.0622 16.4877 11.5892 17.7052C10.6609 20.0905 11.2267 21.1356 13.5864 21.0836C15.0218 21.0514 16.4578 20.2919 17.8927 21.0906C19.1976 20.1748 20.388 20.3819 21.1783 21.8032C21.6507 22.6522 21.0255 23.3892 20.3986 23.9455C20.2006 24.1217 19.9215 24.3758 19.7165 24.2767C17.0442 22.9892 14.2779 25.7804 11.6257 24.0439C11.2467 23.8317 10.9382 23.5307 10.6944 23.1513C10.5452 22.9043 10.4335 22.6341 10.3518 22.3518C9.74841 20.3716 9.1514 18.3856 8.48334 16.4266C7.92045 14.7783 7.67485 13.1248 8.43399 11.4494C8.89405 10.4346 8.73189 9.50392 8.27711 8.4704C7.21656 6.06186 7.70779 4.97565 10.1662 3.80322L10.1626 3.8083C10.1843 4.18132 10.3988 4.35629 10.7037 4.43925L10.6685 4.39742C10.7108 4.72414 10.9223 4.90423 11.1515 5.06951L11.1351 5.0496C11.2508 5.29657 11.46 5.45476 11.621 5.65863C13.0523 7.31277 14.1087 9.21386 14.7668 11.378Z" fill="#E1DFEC"/>
<path d="M10.1659 3.80396C9.78986 4.31654 9.47314 4.90433 9.026 5.32751C7.89846 6.39254 7.95252 7.36178 9.0971 8.31941C10.0372 9.1066 10.0936 10.0442 9.43787 11.0308C8.27743 12.7782 8.53186 14.5308 9.21461 16.3868C9.91851 18.3047 10.4832 20.283 11.1089 22.2355C10.8751 22.5597 10.7494 23.0041 10.3122 23.1076C7.85972 22.6548 5.67222 24.5129 3.22207 24.0903C3.01642 22.878 2.81014 21.665 2.60449 20.4527C3.18618 20.0032 3.83603 19.9254 4.53875 19.881C7.43781 19.6958 7.99895 18.7427 6.99833 15.7887C6.82264 15.2697 6.72336 14.7031 6.38081 14.2613L6.39314 14.2651C5.45421 11.7588 5.07756 9.00303 3.60571 6.73148C3.23084 4.8471 3.89067 3.89657 5.68451 3.85798C7.03826 3.82904 8.28335 2.81224 9.70291 3.29266C9.98024 3.32932 10.1483 3.48433 10.1659 3.80396Z" fill="#DCDBF1"/>
<path d="M27.8013 27.917C27.2078 27.2308 26.6849 26.4532 26.0151 25.8808C25.2395 25.2223 25.2043 24.6769 25.6332 23.7212C26.303 22.2214 25.9504 21.2065 24.552 20.6419C23.7289 20.3126 23.0767 20.2412 23.4128 18.9974C23.5638 18.4366 22.955 18.3278 22.559 18.1555C21.9985 17.9124 21.4115 17.7027 21.0366 17.1258C24.3229 17.5548 27.4076 18.6809 30.2867 20.4335C31.1856 20.9788 32.0376 21.6496 32.8132 22.3918C35.1282 24.6222 34.9578 25.5978 32.0259 26.6931C30.651 27.207 29.2761 27.8051 27.8013 27.917Z" fill="#DAD1E4"/>
<path d="M3.2219 24.0899C5.61565 23.2365 7.84953 21.2936 10.5876 22.803C10.7615 22.5966 10.9354 22.5972 11.1088 22.8036C11.2827 22.9946 11.4566 23.1856 11.6305 23.376C13.0266 25.5575 13.1083 30.392 11.781 32.414C11.335 33.0938 10.758 33.3864 9.99767 33.1156C9.80201 33.1613 9.65573 33.0886 9.55878 32.8969C9.21505 32.5336 9.35137 32.1271 9.47064 31.7226L9.47414 31.6229C9.44712 31.255 9.23679 31.0216 8.98355 30.8196C8.85135 30.8164 8.72324 30.7933 8.5975 30.7495C7.68677 29.4125 8.60282 28.4085 9.11518 27.3332C9.2086 27.1113 9.54406 27.0445 9.47414 26.7216C9.44418 26.584 9.47829 26.6714 9.44832 26.9235C9.40543 27.294 9.42306 26.775 9.27205 27.1216C8.73091 27.8664 8.35838 28.8047 7.39477 29.0549C6.16617 28.7211 4.78716 28.9044 3.78594 27.7924C3.35643 27.2889 2.1096 28.3153 2.22476 26.7923C2.72243 25.9646 3.45987 25.2424 3.2219 24.0899Z" fill="#DAE8F5"/>
<path d="M9.99798 33.116C10.4915 32.7874 11.2395 32.725 11.3323 31.9423C11.669 29.0996 12.7977 26.2833 11.6308 23.3763C13.4723 23.4265 15.282 24.563 17.1763 23.4652C17.5212 23.2651 18.1557 23.6092 18.6399 23.7655C19.2862 23.9745 19.8144 23.8009 20.2727 23.2966C20.5736 22.9661 20.8979 22.631 20.8057 22.0997C20.7164 21.5814 20.3574 21.2649 19.9343 21.2C19.2621 21.0971 18.5735 21.1216 17.8925 21.0913C18.4096 20.2032 18.8356 19.1799 20.0724 20.1761C20.4549 20.4842 21.0466 20.5041 21.5513 20.6025C22.8792 20.8611 23.6254 21.6945 23.7582 23.2021C22.9162 24.0594 21.5372 23.8079 20.7645 25.0138C20.4396 25.52 19.5541 25.4382 18.8873 24.8716C18.3109 24.3822 17.5923 23.7095 16.7861 24.3835C15.7714 25.2318 14.1409 25.6183 13.8853 27.0313C13.6056 28.5729 13.0897 30.4354 14.5446 31.8033C15.2391 32.4561 14.279 32.6922 14.2707 33.1662C12.9123 33.1475 11.9516 33.7167 11.4181 35.1843C11.008 36.3105 10.387 37.3433 9.5021 38.1209C9.15191 38.4289 8.71947 38.5196 8.34872 38.1189C7.93448 37.6713 8.20647 37.2526 8.48321 36.9105C8.99263 36.2815 9.53556 35.6841 10.0838 35.095C10.7412 34.3888 10.4016 33.7559 9.99798 33.116Z" fill="#DEE1EA"/>
<path d="M6.38081 14.2605C7.94902 15.3468 8.74161 17.3552 8.19635 18.8627C7.61878 20.4609 6.47713 20.9838 4.38951 20.6391C3.79901 20.542 3.19911 20.5124 2.60449 20.4519C3.29841 19.5142 2.61095 18.3232 3.18265 17.2646C3.96587 15.8137 5.20156 15.1114 6.38081 14.2605Z" fill="#D5D0F5"/>
<path d="M9.70328 3.2918C8.35776 4.18383 6.83475 4.99992 5.34938 4.82371C3.51912 4.60568 3.84756 5.71831 3.80702 6.80649C3.6472 6.99557 3.48624 6.99691 3.32349 6.80976C3.32407 5.38586 3.19597 3.94457 3.35344 2.5419C3.64311 -0.0357828 5.0127 -0.702718 6.93111 0.76813C7.91058 1.51931 9.03698 2.11422 9.70328 3.2918Z" fill="#D4CEE7"/>
<path d="M3.32294 6.81013C3.48452 6.81078 3.64548 6.80944 3.80648 6.80687C6.36356 8.58835 6.64856 11.3146 6.39297 14.2646C4.29125 14.0299 3.4945 12.5346 3.39168 10.4457C3.33234 9.23663 3.08321 8.02694 3.32294 6.81013Z" fill="#D5D0F5"/>
<path d="M2.22464 26.7928C2.54076 27.5092 3.46501 27.0868 3.78583 27.7929C3.04843 27.7627 2.44793 28.0096 2.12888 28.7981C1.92323 29.3062 1.76343 29.8381 1.5284 30.3281C1.31805 30.7648 0.927882 31.0831 0.48662 30.9063C-0.149714 30.6516 -0.0415946 29.9602 0.141138 29.4914C0.575937 28.3775 1.22343 27.4083 2.22464 26.7928Z" fill="#BECBD7"/>
<path d="M9.47054 31.7222C9.49992 32.1132 9.5293 32.5048 9.55867 32.8965C8.96288 32.5556 9.02751 32.1557 9.47054 31.7222Z" fill="#DEE1EA"/>
<path d="M26.2437 28.4624C26.5551 28.0093 26.984 27.9497 27.4541 28.0215C27.125 28.4034 26.7196 28.5483 26.2437 28.4624Z" fill="#DAD1E4"/>
<path d="M11.6202 5.65918C11.4586 5.45571 11.297 5.25226 11.1343 5.04943C11.4369 5.11833 11.5955 5.32436 11.6202 5.65918Z" fill="#DCDBF1"/>
<path d="M11.1509 5.06934C10.8783 4.9412 10.7144 4.71969 10.668 4.39646C10.9894 4.48274 11.1204 4.73258 11.1509 5.06934Z" fill="#DCDBF1"/>
<path d="M10.7033 4.43945C10.3977 4.35768 10.2168 4.14774 10.1621 3.80776C10.4817 3.87473 10.6604 4.08725 10.7033 4.43945Z" fill="#DCDBF1"/>
<path d="M8.9834 30.8198C9.28012 30.9895 9.4405 31.2597 9.47399 31.623C9.162 31.4642 9.03334 31.1703 8.9834 30.8198Z" fill="#DEE1EA"/>
<path d="M11.1091 22.8041L10.8488 22.8047L10.5879 22.8034C10.7612 22.6136 10.9351 22.4243 11.1091 22.2351C11.1091 22.4243 11.1091 22.6142 11.1091 22.8041Z" fill="#DEE1EA"/>
</svg>
