<?xml version="1.0" encoding="UTF-8" standalone="no"?>
<!DOCTYPE svg PUBLIC "-//W3C//DTD SVG 1.1//EN" "http://www.w3.org/Graphics/SVG/1.1/DTD/svg11.dtd">
<svg xmlns="http://www.w3.org/2000/svg" version="1.1" viewBox="0 0 298 88">
<g stroke-width="2.00" fill="none" stroke-linecap="butt">
<path stroke="#808080" vector-effect="non-scaling-stroke" d="
  M 15.56 0.00
  C 5.72 1.22 1.26 7.58 1.26 16.90
  Q 1.25 42.93 1.25 68.97
  C 1.25 76.41 3.08 82.03 9.82 85.06
  Q 13.00 86.49 19.89 86.49
  Q 149.77 86.55 279.65 86.49
  C 291.79 86.48 296.78 80.17 296.76 68.49
  Q 296.73 42.85 296.76 17.22
  C 296.77 7.88 292.67 1.48 282.81 0.00"
/>
<path stroke="#808080" vector-effect="non-scaling-stroke" d="
  M 91.59 20.25
  Q 90.78 22.68 88.24 23.17
  C 79.00 24.96 80.82 9.04 90.27 14.19
  Q 90.87 14.52 91.25 14.13
  A 0.57 0.56 46.1 0 0 91.26 13.35
  Q 89.08 11.02 85.98 11.72
  C 76.48 13.84 79.99 27.36 89.50 24.46
  Q 93.44 23.26 93.28 18.60
  A 0.62 0.62 0.0 0 0 92.66 18.00
  L 87.57 18.00
  A 0.60 0.60 0.0 0 0 86.98 18.68
  L 87.03 19.02
  A 0.56 0.56 0.0 0 0 87.58 19.50
  L 91.05 19.50
  A 0.57 0.57 0.0 0 1 91.59 20.25"
/>
<path stroke="#808080" vector-effect="non-scaling-stroke" d="
  M 97.75 13.37
  L 102.46 13.28
  A 0.55 0.54 -2.5 0 0 103.00 12.70
  C 102.91 11.24 97.16 12.06 96.01 12.05
  A 0.50 0.50 0.0 0 0 95.50 12.55
  L 95.50 24.00
  A 0.65 0.64 -88.1 0 0 96.10 24.65
  C 97.26 24.74 103.06 25.44 103.01 23.67
  A 0.67 0.66 89.5 0 0 102.36 23.02
  L 97.60 22.99
  A 0.63 0.63 0.0 0 1 96.97 22.34
  L 97.08 19.66
  A 0.69 0.69 0.0 0 1 97.77 18.99
  L 101.91 19.00
  A 0.57 0.56 4.8 0 0 102.47 18.53
  L 102.53 18.17
  A 0.51 0.50 5.9 0 0 102.04 17.58
  L 97.56 17.47
  A 0.62 0.62 0.0 0 1 96.96 16.81
  L 97.12 13.97
  A 0.64 0.63 0.9 0 1 97.75 13.37"
/>
<path stroke="#808080" vector-effect="non-scaling-stroke" d="
  M 110.09 13.37
  C 110.81 13.16 112.94 13.69 113.20 12.91
  A 0.79 0.78 8.3 0 0 112.43 11.88
  L 105.07 12.05
  A 0.57 0.57 0.0 0 0 104.51 12.68
  L 104.54 13.05
  A 0.53 0.53 0.0 0 0 105.11 13.53
  L 107.32 13.37
  A 0.63 0.62 87.9 0 1 107.99 14.00
  C 107.99 15.34 107.48 24.74 108.84 24.72
  A 0.63 0.63 0.0 0 0 109.47 24.10
  L 109.66 13.93
  A 0.60 0.59 82.7 0 1 110.09 13.37"
/>
<path stroke="#808080" vector-effect="non-scaling-stroke" d="
  M 120.5000 12.5187
  A 0.73 0.73 0.0 0 0 119.7687 11.7900
  L 119.7287 11.7900
  A 0.73 0.73 0.0 0 0 119.0000 12.5213
  L 119.0200 24.0013
  A 0.73 0.73 0.0 0 0 119.7513 24.7300
  L 119.7913 24.7300
  A 0.73 0.73 0.0 0 0 120.5200 23.9987
  L 120.5000 12.5187"
/>
<path stroke="#808080" vector-effect="non-scaling-stroke" d="
  M 128.05 13.33
  L 130.75 13.31
  A 0.49 0.49 0.0 0 0 131.24 12.77
  L 131.21 12.43
  A 0.58 0.58 0.0 0 0 130.62 11.90
  L 122.64 12.07
  Q 121.36 12.10 122.30 12.97
  Q 123.43 14.02 124.78 13.22
  Q 125.98 12.52 125.98 13.91
  C 125.99 15.72 125.48 23.96 126.80 24.81
  Q 127.49 25.24 127.49 24.43
  L 127.50 13.88
  A 0.56 0.56 0.0 0 1 128.05 13.33"
/>
<path stroke="#808080" vector-effect="non-scaling-stroke" d="
  M 149.28 18.26
  A 6.62 6.62 0.0 0 0 142.66 11.64
  A 6.62 6.62 0.0 0 0 136.04 18.26
  A 6.62 6.62 0.0 0 0 142.66 24.88
  A 6.62 6.62 0.0 0 0 149.28 18.26"
/>
<path stroke="#808080" vector-effect="non-scaling-stroke" d="
  M 153.34 15.18
  C 153.73 15.71 159.26 25.08 160.78 24.61
  A 0.68 0.67 -8.9 0 0 161.25 23.97
  L 161.25 12.53
  A 0.70 0.69 9.3 0 0 160.77 11.87
  C 158.68 11.19 159.53 19.74 159.53 21.03
  Q 159.53 21.53 159.25 21.11
  C 158.19 19.55 153.72 11.43 152.09 11.85
  A 0.74 0.71 85.1 0 0 151.56 12.50
  C 151.47 13.83 150.67 24.94 152.34 24.75
  A 0.76 0.75 86.6 0 0 153.00 24.00
  L 152.99 15.29
  Q 152.99 14.72 153.34 15.18"
/>
<path stroke="#2e7467" vector-effect="non-scaling-stroke" d="
  M 25.54 43.75
  L 25.54 51.75"
/>
<path stroke="#33806a" vector-effect="non-scaling-stroke" d="
  M 25.54 51.75
  Q 25.38 64.35 25.56 70.44
  Q 25.60 71.74 27.35 71.97"
/>
<path stroke="#621f3f" vector-effect="non-scaling-stroke" d="
  M 27.35 71.97
  Q 41.74 65.49 55.29 57.50"
/>
<path stroke="#806233" vector-effect="non-scaling-stroke" d="
  M 55.29 57.50
  L 65.16 52.23
  Q 68.57 50.40 65.18 48.54
  L 55.04 43.00"
/>
<path stroke="#5a7754" vector-effect="non-scaling-stroke" d="
  M 55.04 43.00
  Q 41.93 35.47 28.11 28.76"
/>
<path stroke="#276163" vector-effect="non-scaling-stroke" d="
  M 28.11 28.76
  Q 26.81 28.39 26.00 29.39
  C 24.86 30.81 25.49 41.47 25.54 43.75"
/>
<path stroke="#80d8b7" vector-effect="non-scaling-stroke" d="
  M 28.11 28.76
  Q 33.56 35.50 40.18 41.99"
/>
<path stroke="#55d5ca" vector-effect="non-scaling-stroke" d="
  M 40.18 41.99
  Q 32.95 44.01 25.54 43.75"
/>
<path stroke="#d9d987" vector-effect="non-scaling-stroke" d="
  M 55.04 43.00
  Q 52.35 47.15 48.46 50.25"
/>
<path stroke="#bc9692" vector-effect="non-scaling-stroke" d="
  M 48.46 50.25
  L 48.29 50.25"
/>
<path stroke="#88ebbb" vector-effect="non-scaling-stroke" d="
  M 48.29 50.25
  L 40.18 41.99"
/>
<path stroke="#9092a6" vector-effect="non-scaling-stroke" d="
  M 48.29 50.25
  L 45.33 53.48"
/>
<path stroke="#61f3d1" vector-effect="non-scaling-stroke" d="
  M 45.33 53.48
  Q 38.75 51.32 36.51 51.78
  Q 30.95 52.92 25.54 51.75"
/>
<path stroke="#959ea8" vector-effect="non-scaling-stroke" d="
  M 27.35 71.97
  L 45.33 53.48"
/>
<path stroke="#e28172" vector-effect="non-scaling-stroke" d="
  M 55.29 57.50
  Q 52.36 53.43 48.46 50.25"
/>
<path stroke="#808080" vector-effect="non-scaling-stroke" d="
  M 104.07 52.24
  Q 101.73 60.72 92.49 59.34
  C 75.02 56.72 85.95 29.21 101.37 40.71
  A 0.52 0.52 0.0 0 0 102.06 40.65
  L 104.12 38.48
  A 0.48 0.47 -47.9 0 0 104.09 37.80
  C 95.21 29.97 81.50 35.32 79.33 46.49
  C 75.40 66.66 110.39 71.13 108.17 48.11
  A 0.68 0.67 87.2 0 0 107.50 47.50
  L 94.96 47.50
  A 0.49 0.49 0.0 0 0 94.47 47.98
  L 94.36 51.17
  A 0.56 0.56 0.0 0 0 94.92 51.75
  L 103.70 51.75
  A 0.38 0.38 0.0 0 1 104.07 52.24"
/>
<path stroke="#808080" vector-effect="non-scaling-stroke" d="
  M 178.99 35.44
  A 0.30 0.30 0.0 0 0 178.69 35.14
  L 175.05 35.14
  A 0.30 0.30 0.0 0 0 174.75 35.44
  L 174.75 62.96
  A 0.30 0.30 0.0 0 0 175.05 63.26
  L 178.69 63.26
  A 0.30 0.30 0.0 0 0 178.99 62.96
  L 178.99 35.44"
/>
<path stroke="#808080" vector-effect="non-scaling-stroke" d="
  M 214.51 52.55
  C 219.22 52.45 224.29 53.16 227.20 48.67
  C 229.98 44.40 228.43 38.19 223.47 36.25
  C 220.13 34.94 214.33 35.49 210.24 35.54
  A 0.50 0.49 -0.6 0 0 209.75 36.03
  L 209.75 62.83
  A 0.49 0.49 0.0 0 0 210.26 63.32
  L 213.49 63.23
  A 0.48 0.47 89.4 0 0 213.94 62.76
  L 214.02 53.05
  A 0.51 0.51 0.0 0 1 214.51 52.55"
/>
<path stroke="#808080" vector-effect="non-scaling-stroke" d="
  M 236.50 35.78
  A 0.27 0.27 0.0 0 0 236.23 35.51
  L 232.77 35.51
  A 0.27 0.27 0.0 0 0 232.50 35.78
  L 232.50 62.98
  A 0.27 0.27 0.0 0 0 232.77 63.25
  L 236.23 63.25
  A 0.27 0.27 0.0 0 0 236.50 62.98
  L 236.50 35.78"
/>
<path stroke="#808080" vector-effect="non-scaling-stroke" d="
  M 252.98 51.05
  C 247.86 49.67 240.17 50.75 240.29 57.48
  C 240.40 64.13 249.20 65.74 253.17 61.35
  Q 253.76 60.71 253.75 61.58
  L 253.75 62.84
  A 0.50 0.50 0.0 0 0 254.27 63.34
  L 257.48 63.22
  A 0.51 0.51 0.0 0 0 257.97 62.71
  C 258.04 58.27 258.78 50.91 256.76 47.45
  C 253.56 41.96 244.85 42.21 241.19 47.16
  A 0.56 0.56 0.0 0 0 241.40 48.00
  L 243.93 49.20
  A 0.80 0.79 -55.3 0 0 244.85 49.03
  C 247.16 46.58 253.03 46.53 253.42 50.68
  A 0.35 0.35 0.0 0 1 252.98 51.05"
/>
<path stroke="#808080" vector-effect="non-scaling-stroke" d="
  M 270.34 56.60
  A 0.31 0.31 0.0 0 1 269.76 56.61
  L 264.57 44.69
  A 0.31 0.31 0.0 0 0 264.29 44.50
  L 260.15 44.49
  A 0.31 0.31 0.0 0 0 259.87 44.93
  L 267.73 62.50
  A 0.31 0.31 0.0 0 1 267.73 62.76
  L 263.49 71.56
  A 0.31 0.31 0.0 0 0 263.77 72.00
  L 267.85 72.00
  A 0.31 0.31 0.0 0 0 268.13 71.82
  L 280.00 44.98
  A 0.31 0.31 0.0 0 0 279.73 44.54
  L 275.47 44.40
  A 0.31 0.31 0.0 0 0 275.17 44.59
  L 270.34 56.60"
/>
<path stroke="#808080" vector-effect="non-scaling-stroke" d="
  M 129.49 54.23
  A 9.63 9.63 0.0 0 0 119.86 44.60
  A 9.63 9.63 0.0 0 0 110.23 54.23
  A 9.63 9.63 0.0 0 0 119.86 63.86
  A 9.63 9.63 0.0 0 0 129.49 54.23"
/>
<path stroke="#808080" vector-effect="non-scaling-stroke" d="
  M 150.75 54.24
  A 9.63 9.63 0.0 0 0 141.12 44.61
  A 9.63 9.63 0.0 0 0 131.49 54.24
  A 9.63 9.63 0.0 0 0 141.12 63.87
  A 9.63 9.63 0.0 0 0 150.75 54.24"
/>
<path stroke="#808080" vector-effect="non-scaling-stroke" d="
  M 167.07 46.24
  Q 160.76 42.97 156.44 46.87
  C 147.73 54.76 157.56 68.55 166.84 62.14
  A 0.31 0.31 0.0 0 1 167.32 62.35
  C 168.23 68.66 160.45 70.90 157.65 65.67
  A 0.59 0.59 0.0 0 0 156.89 65.41
  L 154.27 66.56
  A 0.54 0.54 0.0 0 0 154.02 67.31
  C 158.74 75.84 171.37 73.12 171.50 62.72
  Q 171.60 54.32 171.47 45.86
  A 0.64 0.64 0.0 0 0 170.81 45.23
  L 167.78 45.32
  A 0.30 0.30 0.0 0 0 167.49 45.65
  L 167.52 45.95
  Q 167.57 46.50 167.07 46.24"
/>
<path stroke="#808080" vector-effect="non-scaling-stroke" d="
  M 187.04 56.87
  L 198.72 51.96
  A 0.55 0.55 0.0 0 0 199.03 51.27
  C 195.43 40.87 181.29 43.79 181.49 54.01
  C 181.68 63.65 192.66 66.93 198.76 60.09
  A 0.54 0.53 36.9 0 0 198.64 59.28
  L 196.15 57.74
  A 0.59 0.58 -54.6 0 0 195.38 57.88
  C 193.22 60.65 188.52 60.89 186.79 57.56
  A 0.50 0.50 0.0 0 1 187.04 56.87"
/>
<path stroke="#808080" vector-effect="non-scaling-stroke" d="
  M 147.67 18.26
  A 4.97 4.97 0.0 0 0 142.70 13.29
  A 4.97 4.97 0.0 0 0 137.73 18.26
  A 4.97 4.97 0.0 0 0 142.70 23.23
  A 4.97 4.97 0.0 0 0 147.67 18.26"
/>
<path stroke="#808080" vector-effect="non-scaling-stroke" d="
  M 214.47 48.31
  C 226.71 51.17 227.94 37.26 214.51 39.61
  A 0.62 0.61 -5.1 0 0 214.00 40.21
  L 214.00 47.72
  A 0.61 0.61 0.0 0 0 214.47 48.31"
/>
<path stroke="#808080" vector-effect="non-scaling-stroke" d="
  M 253.18 54.90
  Q 248.84 52.81 245.18 55.65
  A 1.42 1.36 74.7 0 0 244.66 56.61
  C 244.20 62.03 251.85 59.55 253.53 55.89
  A 0.75 0.75 0.0 0 0 253.18 54.90"
/>
<path stroke="#808080" vector-effect="non-scaling-stroke" d="
  M 119.9200 59.9199
  A 5.73 5.40 89.6 0 0 125.2799 54.1523
  A 5.73 5.40 89.6 0 0 119.8400 48.4601
  A 5.73 5.40 89.6 0 0 114.4801 54.2277
  A 5.73 5.40 89.6 0 0 119.9200 59.9199"
/>
<path stroke="#808080" vector-effect="non-scaling-stroke" d="
  M 140.9005 59.9150
  A 5.72 5.38 92.4 0 0 146.5153 54.4253
  A 5.72 5.38 92.4 0 0 141.3795 48.4850
  A 5.72 5.38 92.4 0 0 135.7647 53.9747
  A 5.72 5.38 92.4 0 0 140.9005 59.9150"
/>
<path stroke="#808080" vector-effect="non-scaling-stroke" d="
  M 162.4597 59.9699
  A 5.77 5.16 90.4 0 0 167.6599 54.2360
  A 5.77 5.16 90.4 0 0 162.5403 48.4301
  A 5.77 5.16 90.4 0 0 157.3401 54.1640
  A 5.77 5.16 90.4 0 0 162.4597 59.9699"
/>
<path stroke="#808080" vector-effect="non-scaling-stroke" d="
  M 193.79 49.69
  C 190.19 47.16 185.99 49.05 185.82 53.32
  A 0.34 0.33 80.0 0 0 186.28 53.65
  L 193.69 50.54
  Q 194.51 50.20 193.79 49.69"
/>
</g>
<path fill="#ffffff" d="
  M 0.00 0.00
  L 15.56 0.00
  C 5.72 1.22 1.26 7.58 1.26 16.90
  Q 1.25 42.93 1.25 68.97
  C 1.25 76.41 3.08 82.03 9.82 85.06
  Q 13.00 86.49 19.89 86.49
  Q 149.77 86.55 279.65 86.49
  C 291.79 86.48 296.78 80.17 296.76 68.49
  Q 296.73 42.85 296.76 17.22
  C 296.77 7.88 292.67 1.48 282.81 0.00
  L 298.00 0.00
  L 298.00 88.00
  L 0.00 88.00
  L 0.00 0.00
  Z"
/>
<path fill="#000000" d="
  M 15.56 0.00
  L 282.81 0.00
  C 292.67 1.48 296.77 7.88 296.76 17.22
  Q 296.73 42.85 296.76 68.49
  C 296.78 80.17 291.79 86.48 279.65 86.49
  Q 149.77 86.55 19.89 86.49
  Q 13.00 86.49 9.82 85.06
  C 3.08 82.03 1.25 76.41 1.25 68.97
  Q 1.25 42.93 1.26 16.90
  C 1.26 7.58 5.72 1.22 15.56 0.00
  Z
  M 91.59 20.25
  Q 90.78 22.68 88.24 23.17
  C 79.00 24.96 80.82 9.04 90.27 14.19
  Q 90.87 14.52 91.25 14.13
  A 0.57 0.56 46.1 0 0 91.26 13.35
  Q 89.08 11.02 85.98 11.72
  C 76.48 13.84 79.99 27.36 89.50 24.46
  Q 93.44 23.26 93.28 18.60
  A 0.62 0.62 0.0 0 0 92.66 18.00
  L 87.57 18.00
  A 0.60 0.60 0.0 0 0 86.98 18.68
  L 87.03 19.02
  A 0.56 0.56 0.0 0 0 87.58 19.50
  L 91.05 19.50
  A 0.57 0.57 0.0 0 1 91.59 20.25
  Z
  M 97.75 13.37
  L 102.46 13.28
  A 0.55 0.54 -2.5 0 0 103.00 12.70
  C 102.91 11.24 97.16 12.06 96.01 12.05
  A 0.50 0.50 0.0 0 0 95.50 12.55
  L 95.50 24.00
  A 0.65 0.64 -88.1 0 0 96.10 24.65
  C 97.26 24.74 103.06 25.44 103.01 23.67
  A 0.67 0.66 89.5 0 0 102.36 23.02
  L 97.60 22.99
  A 0.63 0.63 0.0 0 1 96.97 22.34
  L 97.08 19.66
  A 0.69 0.69 0.0 0 1 97.77 18.99
  L 101.91 19.00
  A 0.57 0.56 4.8 0 0 102.47 18.53
  L 102.53 18.17
  A 0.51 0.50 5.9 0 0 102.04 17.58
  L 97.56 17.47
  A 0.62 0.62 0.0 0 1 96.96 16.81
  L 97.12 13.97
  A 0.64 0.63 0.9 0 1 97.75 13.37
  Z
  M 110.09 13.37
  C 110.81 13.16 112.94 13.69 113.20 12.91
  A 0.79 0.78 8.3 0 0 112.43 11.88
  L 105.07 12.05
  A 0.57 0.57 0.0 0 0 104.51 12.68
  L 104.54 13.05
  A 0.53 0.53 0.0 0 0 105.11 13.53
  L 107.32 13.37
  A 0.63 0.62 87.9 0 1 107.99 14.00
  C 107.99 15.34 107.48 24.74 108.84 24.72
  A 0.63 0.63 0.0 0 0 109.47 24.10
  L 109.66 13.93
  A 0.60 0.59 82.7 0 1 110.09 13.37
  Z
  M 120.5000 12.5187
  A 0.73 0.73 0.0 0 0 119.7687 11.7900
  L 119.7287 11.7900
  A 0.73 0.73 0.0 0 0 119.0000 12.5213
  L 119.0200 24.0013
  A 0.73 0.73 0.0 0 0 119.7513 24.7300
  L 119.7913 24.7300
  A 0.73 0.73 0.0 0 0 120.5200 23.9987
  L 120.5000 12.5187
  Z
  M 128.05 13.33
  L 130.75 13.31
  A 0.49 0.49 0.0 0 0 131.24 12.77
  L 131.21 12.43
  A 0.58 0.58 0.0 0 0 130.62 11.90
  L 122.64 12.07
  Q 121.36 12.10 122.30 12.97
  Q 123.43 14.02 124.78 13.22
  Q 125.98 12.52 125.98 13.91
  C 125.99 15.72 125.48 23.96 126.80 24.81
  Q 127.49 25.24 127.49 24.43
  L 127.50 13.88
  A 0.56 0.56 0.0 0 1 128.05 13.33
  Z
  M 149.28 18.26
  A 6.62 6.62 0.0 0 0 142.66 11.64
  A 6.62 6.62 0.0 0 0 136.04 18.26
  A 6.62 6.62 0.0 0 0 142.66 24.88
  A 6.62 6.62 0.0 0 0 149.28 18.26
  Z
  M 153.34 15.18
  C 153.73 15.71 159.26 25.08 160.78 24.61
  A 0.68 0.67 -8.9 0 0 161.25 23.97
  L 161.25 12.53
  A 0.70 0.69 9.3 0 0 160.77 11.87
  C 158.68 11.19 159.53 19.74 159.53 21.03
  Q 159.53 21.53 159.25 21.11
  C 158.19 19.55 153.72 11.43 152.09 11.85
  A 0.74 0.71 85.1 0 0 151.56 12.50
  C 151.47 13.83 150.67 24.94 152.34 24.75
  A 0.76 0.75 86.6 0 0 153.00 24.00
  L 152.99 15.29
  Q 152.99 14.72 153.34 15.18
  Z
  M 25.54 43.75
  L 25.54 51.75
  Q 25.38 64.35 25.56 70.44
  Q 25.60 71.74 27.35 71.97
  Q 41.74 65.49 55.29 57.50
  L 65.16 52.23
  Q 68.57 50.40 65.18 48.54
  L 55.04 43.00
  Q 41.93 35.47 28.11 28.76
  Q 26.81 28.39 26.00 29.39
  C 24.86 30.81 25.49 41.47 25.54 43.75
  Z
  M 104.07 52.24
  Q 101.73 60.72 92.49 59.34
  C 75.02 56.72 85.95 29.21 101.37 40.71
  A 0.52 0.52 0.0 0 0 102.06 40.65
  L 104.12 38.48
  A 0.48 0.47 -47.9 0 0 104.09 37.80
  C 95.21 29.97 81.50 35.32 79.33 46.49
  C 75.40 66.66 110.39 71.13 108.17 48.11
  A 0.68 0.67 87.2 0 0 107.50 47.50
  L 94.96 47.50
  A 0.49 0.49 0.0 0 0 94.47 47.98
  L 94.36 51.17
  A 0.56 0.56 0.0 0 0 94.92 51.75
  L 103.70 51.75
  A 0.38 0.38 0.0 0 1 104.07 52.24
  Z
  M 178.99 35.44
  A 0.30 0.30 0.0 0 0 178.69 35.14
  L 175.05 35.14
  A 0.30 0.30 0.0 0 0 174.75 35.44
  L 174.75 62.96
  A 0.30 0.30 0.0 0 0 175.05 63.26
  L 178.69 63.26
  A 0.30 0.30 0.0 0 0 178.99 62.96
  L 178.99 35.44
  Z
  M 214.51 52.55
  C 219.22 52.45 224.29 53.16 227.20 48.67
  C 229.98 44.40 228.43 38.19 223.47 36.25
  C 220.13 34.94 214.33 35.49 210.24 35.54
  A 0.50 0.49 -0.6 0 0 209.75 36.03
  L 209.75 62.83
  A 0.49 0.49 0.0 0 0 210.26 63.32
  L 213.49 63.23
  A 0.48 0.47 89.4 0 0 213.94 62.76
  L 214.02 53.05
  A 0.51 0.51 0.0 0 1 214.51 52.55
  Z
  M 236.50 35.78
  A 0.27 0.27 0.0 0 0 236.23 35.51
  L 232.77 35.51
  A 0.27 0.27 0.0 0 0 232.50 35.78
  L 232.50 62.98
  A 0.27 0.27 0.0 0 0 232.77 63.25
  L 236.23 63.25
  A 0.27 0.27 0.0 0 0 236.50 62.98
  L 236.50 35.78
  Z
  M 252.98 51.05
  C 247.86 49.67 240.17 50.75 240.29 57.48
  C 240.40 64.13 249.20 65.74 253.17 61.35
  Q 253.76 60.71 253.75 61.58
  L 253.75 62.84
  A 0.50 0.50 0.0 0 0 254.27 63.34
  L 257.48 63.22
  A 0.51 0.51 0.0 0 0 257.97 62.71
  C 258.04 58.27 258.78 50.91 256.76 47.45
  C 253.56 41.96 244.85 42.21 241.19 47.16
  A 0.56 0.56 0.0 0 0 241.40 48.00
  L 243.93 49.20
  A 0.80 0.79 -55.3 0 0 244.85 49.03
  C 247.16 46.58 253.03 46.53 253.42 50.68
  A 0.35 0.35 0.0 0 1 252.98 51.05
  Z
  M 270.34 56.60
  A 0.31 0.31 0.0 0 1 269.76 56.61
  L 264.57 44.69
  A 0.31 0.31 0.0 0 0 264.29 44.50
  L 260.15 44.49
  A 0.31 0.31 0.0 0 0 259.87 44.93
  L 267.73 62.50
  A 0.31 0.31 0.0 0 1 267.73 62.76
  L 263.49 71.56
  A 0.31 0.31 0.0 0 0 263.77 72.00
  L 267.85 72.00
  A 0.31 0.31 0.0 0 0 268.13 71.82
  L 280.00 44.98
  A 0.31 0.31 0.0 0 0 279.73 44.54
  L 275.47 44.40
  A 0.31 0.31 0.0 0 0 275.17 44.59
  L 270.34 56.60
  Z
  M 129.49 54.23
  A 9.63 9.63 0.0 0 0 119.86 44.60
  A 9.63 9.63 0.0 0 0 110.23 54.23
  A 9.63 9.63 0.0 0 0 119.86 63.86
  A 9.63 9.63 0.0 0 0 129.49 54.23
  Z
  M 150.75 54.24
  A 9.63 9.63 0.0 0 0 141.12 44.61
  A 9.63 9.63 0.0 0 0 131.49 54.24
  A 9.63 9.63 0.0 0 0 141.12 63.87
  A 9.63 9.63 0.0 0 0 150.75 54.24
  Z
  M 167.07 46.24
  Q 160.76 42.97 156.44 46.87
  C 147.73 54.76 157.56 68.55 166.84 62.14
  A 0.31 0.31 0.0 0 1 167.32 62.35
  C 168.23 68.66 160.45 70.90 157.65 65.67
  A 0.59 0.59 0.0 0 0 156.89 65.41
  L 154.27 66.56
  A 0.54 0.54 0.0 0 0 154.02 67.31
  C 158.74 75.84 171.37 73.12 171.50 62.72
  Q 171.60 54.32 171.47 45.86
  A 0.64 0.64 0.0 0 0 170.81 45.23
  L 167.78 45.32
  A 0.30 0.30 0.0 0 0 167.49 45.65
  L 167.52 45.95
  Q 167.57 46.50 167.07 46.24
  Z
  M 187.04 56.87
  L 198.72 51.96
  A 0.55 0.55 0.0 0 0 199.03 51.27
  C 195.43 40.87 181.29 43.79 181.49 54.01
  C 181.68 63.65 192.66 66.93 198.76 60.09
  A 0.54 0.53 36.9 0 0 198.64 59.28
  L 196.15 57.74
  A 0.59 0.58 -54.6 0 0 195.38 57.88
  C 193.22 60.65 188.52 60.89 186.79 57.56
  A 0.50 0.50 0.0 0 1 187.04 56.87
  Z"
/>
<path fill="#ffffff" d="
  M 91.05 19.50
  L 87.58 19.50
  A 0.56 0.56 0.0 0 1 87.03 19.02
  L 86.98 18.68
  A 0.60 0.60 0.0 0 1 87.57 18.00
  L 92.66 18.00
  A 0.62 0.62 0.0 0 1 93.28 18.60
  Q 93.44 23.26 89.50 24.46
  C 79.99 27.36 76.48 13.84 85.98 11.72
  Q 89.08 11.02 91.26 13.35
  A 0.57 0.56 46.1 0 1 91.25 14.13
  Q 90.87 14.52 90.27 14.19
  C 80.82 9.04 79.00 24.96 88.24 23.17
  Q 90.78 22.68 91.59 20.25
  A 0.57 0.57 0.0 0 0 91.05 19.50
  Z"
/>
<path fill="#ffffff" d="
  M 97.12 13.97
  L 96.96 16.81
  A 0.62 0.62 0.0 0 0 97.56 17.47
  L 102.04 17.58
  A 0.51 0.50 5.9 0 1 102.53 18.17
  L 102.47 18.53
  A 0.57 0.56 4.8 0 1 101.91 19.00
  L 97.77 18.99
  A 0.69 0.69 0.0 0 0 97.08 19.66
  L 96.97 22.34
  A 0.63 0.63 0.0 0 0 97.60 22.99
  L 102.36 23.02
  A 0.67 0.66 89.5 0 1 103.01 23.67
  C 103.06 25.44 97.26 24.74 96.10 24.65
  A 0.65 0.64 -88.1 0 1 95.50 24.00
  L 95.50 12.55
  A 0.50 0.50 0.0 0 1 96.01 12.05
  C 97.16 12.06 102.91 11.24 103.00 12.70
  A 0.55 0.54 -2.5 0 1 102.46 13.28
  L 97.75 13.37
  A 0.64 0.63 0.9 0 0 97.12 13.97
  Z"
/>
<path fill="#ffffff" d="
  M 109.66 13.93
  L 109.47 24.10
  A 0.63 0.63 0.0 0 1 108.84 24.72
  C 107.48 24.74 107.99 15.34 107.99 14.00
  A 0.63 0.62 87.9 0 0 107.32 13.37
  L 105.11 13.53
  A 0.53 0.53 0.0 0 1 104.54 13.05
  L 104.51 12.68
  A 0.57 0.57 0.0 0 1 105.07 12.05
  L 112.43 11.88
  A 0.79 0.78 8.3 0 1 113.20 12.91
  C 112.94 13.69 110.81 13.16 110.09 13.37
  A 0.60 0.59 82.7 0 0 109.66 13.93
  Z"
/>
<rect fill="#ffffff" x="-0.75" y="-6.47" transform="translate(119.76,18.26) rotate(-0.1)" width="1.50" height="12.94" rx="0.73"/>
<path fill="#ffffff" d="
  M 127.50 13.88
  L 127.49 24.43
  Q 127.49 25.24 126.80 24.81
  C 125.48 23.96 125.99 15.72 125.98 13.91
  Q 125.98 12.52 124.78 13.22
  Q 123.43 14.02 122.30 12.97
  Q 121.36 12.10 122.64 12.07
  L 130.62 11.90
  A 0.58 0.58 0.0 0 1 131.21 12.43
  L 131.24 12.77
  A 0.49 0.49 0.0 0 1 130.75 13.31
  L 128.05 13.33
  A 0.56 0.56 0.0 0 0 127.50 13.88
  Z"
/>
<path fill="#ffffff" d="
  M 149.28 18.26
  A 6.62 6.62 0.0 0 1 142.66 24.88
  A 6.62 6.62 0.0 0 1 136.04 18.26
  A 6.62 6.62 0.0 0 1 142.66 11.64
  A 6.62 6.62 0.0 0 1 149.28 18.26
  Z
  M 147.67 18.26
  A 4.97 4.97 0.0 0 0 142.70 13.29
  A 4.97 4.97 0.0 0 0 137.73 18.26
  A 4.97 4.97 0.0 0 0 142.70 23.23
  A 4.97 4.97 0.0 0 0 147.67 18.26
  Z"
/>
<path fill="#ffffff" d="
  M 152.99 15.29
  L 153.00 24.00
  A 0.76 0.75 86.6 0 1 152.34 24.75
  C 150.67 24.94 151.47 13.83 151.56 12.50
  A 0.74 0.71 85.1 0 1 152.09 11.85
  C 153.72 11.43 158.19 19.55 159.25 21.11
  Q 159.53 21.53 159.53 21.03
  C 159.53 19.74 158.68 11.19 160.77 11.87
  A 0.70 0.69 9.3 0 1 161.25 12.53
  L 161.25 23.97
  A 0.68 0.67 -8.9 0 1 160.78 24.61
  C 159.26 25.08 153.73 15.71 153.34 15.18
  Q 152.99 14.72 152.99 15.29
  Z"
/>
<circle fill="#000000" cx="142.70" cy="18.26" r="4.97"/>
<path fill="#4dc2c6" d="
  M 28.11 28.76
  Q 33.56 35.50 40.18 41.99
  Q 32.95 44.01 25.54 43.75
  C 25.49 41.47 24.86 30.81 26.00 29.39
  Q 26.81 28.39 28.11 28.76
  Z"
/>
<path fill="#b3eea7" d="
  M 28.11 28.76
  Q 41.93 35.47 55.04 43.00
  Q 52.35 47.15 48.46 50.25
  L 48.29 50.25
  L 40.18 41.99
  Q 33.56 35.50 28.11 28.76
  Z"
/>
<path fill="#ffffff" d="
  M 103.70 51.75
  L 94.92 51.75
  A 0.56 0.56 0.0 0 1 94.36 51.17
  L 94.47 47.98
  A 0.49 0.49 0.0 0 1 94.96 47.50
  L 107.50 47.50
  A 0.68 0.67 87.2 0 1 108.17 48.11
  C 110.39 71.13 75.40 66.66 79.33 46.49
  C 81.50 35.32 95.21 29.97 104.09 37.80
  A 0.48 0.47 -47.9 0 1 104.12 38.48
  L 102.06 40.65
  A 0.52 0.52 0.0 0 1 101.37 40.71
  C 85.95 29.21 75.02 56.72 92.49 59.34
  Q 101.73 60.72 104.07 52.24
  A 0.38 0.38 0.0 0 0 103.70 51.75
  Z"
/>
<rect fill="#ffffff" x="174.75" y="35.14" width="4.24" height="28.12" rx="0.30"/>
<path fill="#ffffff" d="
  M 214.02 53.05
  L 213.94 62.76
  A 0.48 0.47 89.4 0 1 213.49 63.23
  L 210.26 63.32
  A 0.49 0.49 0.0 0 1 209.75 62.83
  L 209.75 36.03
  A 0.50 0.49 -0.6 0 1 210.24 35.54
  C 214.33 35.49 220.13 34.94 223.47 36.25
  C 228.43 38.19 229.98 44.40 227.20 48.67
  C 224.29 53.16 219.22 52.45 214.51 52.55
  A 0.51 0.51 0.0 0 0 214.02 53.05
  Z
  M 214.47 48.31
  C 226.71 51.17 227.94 37.26 214.51 39.61
  A 0.62 0.61 -5.1 0 0 214.00 40.21
  L 214.00 47.72
  A 0.61 0.61 0.0 0 0 214.47 48.31
  Z"
/>
<rect fill="#ffffff" x="232.50" y="35.51" width="4.00" height="27.74" rx="0.27"/>
<path fill="#000000" d="
  M 214.51 39.61
  C 227.94 37.26 226.71 51.17 214.47 48.31
  A 0.61 0.61 0.0 0 1 214.00 47.72
  L 214.00 40.21
  A 0.62 0.61 -5.1 0 1 214.51 39.61
  Z"
/>
<path fill="#5ce7ce" d="
  M 40.18 41.99
  L 48.29 50.25
  L 45.33 53.48
  Q 38.75 51.32 36.51 51.78
  Q 30.95 52.92 25.54 51.75
  L 25.54 43.75
  Q 32.95 44.01 40.18 41.99
  Z"
/>
<path fill="#ffc466" d="
  M 55.04 43.00
  L 65.18 48.54
  Q 68.57 50.40 65.16 52.23
  L 55.29 57.50
  Q 52.36 53.43 48.46 50.25
  Q 52.35 47.15 55.04 43.00
  Z"
/>
<path fill="#ffffff" d="
  M 253.42 50.68
  C 253.03 46.53 247.16 46.58 244.85 49.03
  A 0.80 0.79 -55.3 0 1 243.93 49.20
  L 241.40 48.00
  A 0.56 0.56 0.0 0 1 241.19 47.16
  C 244.85 42.21 253.56 41.96 256.76 47.45
  C 258.78 50.91 258.04 58.27 257.97 62.71
  A 0.51 0.51 0.0 0 1 257.48 63.22
  L 254.27 63.34
  A 0.50 0.50 0.0 0 1 253.75 62.84
  L 253.75 61.58
  Q 253.76 60.71 253.17 61.35
  C 249.20 65.74 240.40 64.13 240.29 57.48
  C 240.17 50.75 247.86 49.67 252.98 51.05
  A 0.35 0.35 0.0 0 0 253.42 50.68
  Z
  M 253.18 54.90
  Q 248.84 52.81 245.18 55.65
  A 1.42 1.36 74.7 0 0 244.66 56.61
  C 244.20 62.03 251.85 59.55 253.53 55.89
  A 0.75 0.75 0.0 0 0 253.18 54.90
  Z"
/>
<path fill="#ffffff" d="
  M 270.34 56.60
  L 275.17 44.59
  A 0.31 0.31 0.0 0 1 275.47 44.40
  L 279.73 44.54
  A 0.31 0.31 0.0 0 1 280.00 44.98
  L 268.13 71.82
  A 0.31 0.31 0.0 0 1 267.85 72.00
  L 263.77 72.00
  A 0.31 0.31 0.0 0 1 263.49 71.56
  L 267.73 62.76
  A 0.31 0.31 0.0 0 0 267.73 62.50
  L 259.87 44.93
  A 0.31 0.31 0.0 0 1 260.15 44.49
  L 264.29 44.50
  A 0.31 0.31 0.0 0 1 264.57 44.69
  L 269.76 56.61
  A 0.31 0.31 0.0 0 0 270.34 56.60
  Z"
/>
<path fill="#ffffff" d="
  M 129.49 54.23
  A 9.63 9.63 0.0 0 1 119.86 63.86
  A 9.63 9.63 0.0 0 1 110.23 54.23
  A 9.63 9.63 0.0 0 1 119.86 44.60
  A 9.63 9.63 0.0 0 1 129.49 54.23
  Z
  M 119.9200 59.9199
  A 5.73 5.40 89.6 0 0 125.2799 54.1523
  A 5.73 5.40 89.6 0 0 119.8400 48.4601
  A 5.73 5.40 89.6 0 0 114.4801 54.2277
  A 5.73 5.40 89.6 0 0 119.9200 59.9199
  Z"
/>
<path fill="#ffffff" d="
  M 150.75 54.24
  A 9.63 9.63 0.0 0 1 141.12 63.87
  A 9.63 9.63 0.0 0 1 131.49 54.24
  A 9.63 9.63 0.0 0 1 141.12 44.61
  A 9.63 9.63 0.0 0 1 150.75 54.24
  Z
  M 140.9005 59.9150
  A 5.72 5.38 92.4 0 0 146.5153 54.4253
  A 5.72 5.38 92.4 0 0 141.3795 48.4850
  A 5.72 5.38 92.4 0 0 135.7647 53.9747
  A 5.72 5.38 92.4 0 0 140.9005 59.9150
  Z"
/>
<path fill="#ffffff" d="
  M 167.52 45.95
  L 167.49 45.65
  A 0.30 0.30 0.0 0 1 167.78 45.32
  L 170.81 45.23
  A 0.64 0.64 0.0 0 1 171.47 45.86
  Q 171.60 54.32 171.50 62.72
  C 171.37 73.12 158.74 75.84 154.02 67.31
  A 0.54 0.54 0.0 0 1 154.27 66.56
  L 156.89 65.41
  A 0.59 0.59 0.0 0 1 157.65 65.67
  C 160.45 70.90 168.23 68.66 167.32 62.35
  A 0.31 0.31 0.0 0 0 166.84 62.14
  C 157.56 68.55 147.73 54.76 156.44 46.87
  Q 160.76 42.97 167.07 46.24
  Q 167.57 46.50 167.52 45.95
  Z
  M 162.4597 59.9699
  A 5.77 5.16 90.4 0 0 167.6599 54.2360
  A 5.77 5.16 90.4 0 0 162.5403 48.4301
  A 5.77 5.16 90.4 0 0 157.3401 54.1640
  A 5.77 5.16 90.4 0 0 162.4597 59.9699
  Z"
/>
<path fill="#ffffff" d="
  M 186.79 57.56
  C 188.52 60.89 193.22 60.65 195.38 57.88
  A 0.59 0.58 -54.6 0 1 196.15 57.74
  L 198.64 59.28
  A 0.54 0.53 36.9 0 1 198.76 60.09
  C 192.66 66.93 181.68 63.65 181.49 54.01
  C 181.29 43.79 195.43 40.87 199.03 51.27
  A 0.55 0.55 0.0 0 1 198.72 51.96
  L 187.04 56.87
  A 0.50 0.50 0.0 0 0 186.79 57.56
  Z
  M 193.79 49.69
  C 190.19 47.16 185.99 49.05 185.82 53.32
  A 0.34 0.33 80.0 0 0 186.28 53.65
  L 193.69 50.54
  Q 194.51 50.20 193.79 49.69
  Z"
/>
<ellipse fill="#000000" cx="0.00" cy="0.00" transform="translate(119.88,54.19) rotate(89.6)" rx="5.73" ry="5.40"/>
<ellipse fill="#000000" cx="0.00" cy="0.00" transform="translate(141.14,54.20) rotate(92.4)" rx="5.72" ry="5.38"/>
<ellipse fill="#000000" cx="0.00" cy="0.00" transform="translate(162.50,54.20) rotate(90.4)" rx="5.77" ry="5.16"/>
<path fill="#000000" d="
  M 193.79 49.69
  Q 194.51 50.20 193.69 50.54
  L 186.28 53.65
  A 0.34 0.33 80.0 0 1 185.82 53.32
  C 185.99 49.05 190.19 47.16 193.79 49.69
  Z"
/>
<path fill="#c43d7d" d="
  M 48.29 50.25
  L 48.46 50.25
  Q 52.36 53.43 55.29 57.50
  Q 41.74 65.49 27.35 71.97
  L 45.33 53.48
  L 48.29 50.25
  Z"
/>
<path fill="#66ffd3" d="
  M 25.54 51.75
  Q 30.95 52.92 36.51 51.78
  Q 38.75 51.32 45.33 53.48
  L 27.35 71.97
  Q 25.60 71.74 25.56 70.44
  Q 25.38 64.35 25.54 51.75
  Z"
/>
<path fill="#000000" d="
  M 253.18 54.90
  A 0.75 0.75 0.0 0 1 253.53 55.89
  C 251.85 59.55 244.20 62.03 244.66 56.61
  A 1.42 1.36 74.7 0 1 245.18 55.65
  Q 248.84 52.81 253.18 54.90
  Z"
/>
</svg>
