<?xml version="1.0" encoding="UTF-8" standalone="no"?>
<!DOCTYPE svg PUBLIC "-//W3C//DTD SVG 1.1//EN" "http://www.w3.org/Graphics/SVG/1.1/DTD/svg11.dtd">
<svg xmlns="http://www.w3.org/2000/svg" version="1.1" viewBox="0 0 295 89">
<g stroke-width="2.00" fill="none" stroke-linecap="butt">
<path stroke="#808080" vector-effect="non-scaling-stroke" d="
  M 293.24 16.27
  A 15.26 15.26 0.0 0 0 277.98 1.01
  L 16.18 1.01
  A 15.26 15.26 0.0 0 0 0.92 16.27
  L 0.92 73.07
  A 15.26 15.26 0.0 0 0 16.18 88.33
  L 277.98 88.33
  A 15.26 15.26 0.0 0 0 293.24 73.07
  L 293.24 16.27"
/>
<path stroke="#808080" vector-effect="non-scaling-stroke" d="
  M 61.62 14.90
  C 55.62 15.50 51.31 20.79 50.99 26.65
  A 0.85 0.84 84.9 0 0 52.02 27.52
  Q 61.56 25.27 62.16 15.42
  A 0.50 0.50 0.0 0 0 61.62 14.90"
/>
<path stroke="#808080" vector-effect="non-scaling-stroke" d="
  M 155.0018 16.1320
  A 0.84 0.84 0.0 0 0 154.1632 15.2905
  L 153.6032 15.2895
  A 0.84 0.84 0.0 0 0 152.7618 16.1281
  L 152.7382 29.6080
  A 0.84 0.84 0.0 0 0 153.5768 30.4495
  L 154.1368 30.4505
  A 0.84 0.84 0.0 0 0 154.9782 29.6119
  L 155.0018 16.1320"
/>
<path stroke="#808080" vector-effect="non-scaling-stroke" d="
  M 189.29 20.48
  C 180.01 15.97 180.78 35.00 188.99 29.83
  A 0.92 0.89 39.3 0 1 189.82 29.76
  L 191.50 30.46
  A 0.59 0.59 0.0 0 0 192.31 29.90
  L 192.07 16.16
  A 0.74 0.74 0.0 0 0 191.40 15.45
  L 190.44 15.36
  A 0.65 0.64 -87.6 0 0 189.74 16.01
  L 189.76 20.19
  A 0.33 0.32 13.1 0 1 189.29 20.48"
/>
<path stroke="#808080" vector-effect="non-scaling-stroke" d="
  M 244.50 20.19
  L 244.50 16.20
  A 0.70 0.70 0.0 0 0 243.95 15.52
  L 242.92 15.29
  A 0.55 0.54 6.4 0 0 242.25 15.82
  L 242.25 29.88
  A 0.52 0.52 0.0 0 0 242.82 30.40
  L 243.87 30.31
  A 0.69 0.68 -2.8 0 0 244.49 29.63
  L 244.51 23.70
  A 1.91 1.90 87.7 0 1 246.26 21.80
  C 249.80 21.52 248.88 27.73 249.06 29.89
  A 0.61 0.61 0.0 0 0 249.78 30.44
  L 250.47 30.30
  A 0.63 0.63 0.0 0 0 250.97 29.70
  C 251.05 26.12 252.15 17.26 244.97 20.50
  A 0.34 0.33 78.1 0 1 244.50 20.19"
/>
<path stroke="#808080" vector-effect="non-scaling-stroke" d="
  M 101.32 16.34
  Q 98.77 15.94 96.08 16.35
  A 0.69 0.69 0.0 0 0 95.50 17.03
  L 95.50 29.73
  A 0.68 0.68 0.0 0 0 96.07 30.40
  C 100.37 31.08 104.83 30.26 106.69 25.88
  C 108.61 21.38 106.21 17.11 101.32 16.34"
/>
<path stroke="#808080" vector-effect="non-scaling-stroke" d="
  M 234.17 19.68
  L 232.84 20.49
  Q 232.12 20.92 232.86 21.32
  L 233.99 21.94
  A 0.97 0.95 -76.1 0 1 234.49 22.79
  C 234.50 25.24 233.38 31.51 238.05 30.49
  C 238.68 30.35 238.91 29.99 238.87 29.39
  A 0.67 0.66 6.4 0 0 238.39 28.80
  L 237.22 28.48
  A 0.82 0.82 0.0 0 1 236.62 27.72
  L 236.45 22.57
  A 0.79 0.79 0.0 0 1 237.19 21.76
  L 238.35 21.70
  A 0.85 0.84 4.6 0 0 239.12 21.05
  C 239.38 19.92 237.63 20.01 237.02 19.92
  A 0.65 0.65 0.0 0 1 236.49 19.12
  L 236.72 18.20
  Q 236.91 17.47 236.19 17.72
  L 234.37 18.35
  A 0.26 0.25 71.2 0 0 234.22 18.67
  L 234.38 19.11
  A 0.48 0.48 0.0 0 1 234.17 19.68"
/>
<path stroke="#808080" vector-effect="non-scaling-stroke" d="
  M 114.2872 30.6395
  A 5.39 4.98 96.1 0 0 119.8118 25.8092
  A 5.39 4.98 96.1 0 0 115.4328 19.9205
  A 5.39 4.98 96.1 0 0 109.9082 24.7508
  A 5.39 4.98 96.1 0 0 114.2872 30.6395"
/>
<path stroke="#808080" vector-effect="non-scaling-stroke" d="
  M 129.55 23.76
  Q 130.72 26.00 131.09 28.55
  C 131.27 29.82 131.81 30.45 133.09 30.49
  A 0.72 0.72 0.0 0 0 133.79 29.98
  L 136.54 20.96
  A 0.68 0.68 0.0 0 0 136.05 20.10
  L 135.68 20.00
  A 0.94 0.94 0.0 0 0 134.54 20.69
  L 133.02 27.00
  Q 132.78 27.99 132.45 27.02
  C 131.94 25.54 131.04 19.94 129.29 19.98
  A 0.81 0.79 7.2 0 0 128.53 20.56
  L 126.64 27.17
  A 0.30 0.29 28.1 0 1 126.16 27.31
  C 125.02 26.30 125.62 19.07 122.76 20.07
  A 0.59 0.58 -18.3 0 0 122.39 20.79
  L 125.05 29.86
  A 0.76 0.74 78.7 0 0 125.84 30.40
  L 126.77 30.31
  A 0.86 0.84 -84.4 0 0 127.51 29.69
  L 129.19 23.79
  Q 129.32 23.32 129.55 23.76"
/>
<path stroke="#808080" vector-effect="non-scaling-stroke" d="
  M 141.17 30.43
  A 0.69 0.69 0.0 0 0 142.00 29.76
  L 142.00 23.81
  Q 142.00 21.56 144.24 21.76
  C 147.35 22.04 146.55 27.39 146.49 29.52
  A 0.72 0.71 -81.4 0 0 147.01 30.24
  L 147.78 30.46
  A 0.55 0.55 0.0 0 0 148.48 29.94
  C 148.52 26.84 149.70 16.69 142.59 20.66
  A 0.78 0.76 -39.0 0 1 141.72 20.58
  L 141.08 20.05
  Q 139.74 18.92 139.75 20.67
  L 139.75 29.69
  A 0.56 0.56 0.0 0 0 140.20 30.24
  L 141.17 30.43"
/>
<path stroke="#808080" vector-effect="non-scaling-stroke" d="
  M 163.0362 30.6149
  A 5.36 5.01 92.5 0 0 168.2752 25.4785
  A 5.36 5.01 92.5 0 0 163.5038 19.9051
  A 5.36 5.01 92.5 0 0 158.2648 25.0415
  A 5.36 5.01 92.5 0 0 163.0362 30.6149"
/>
<path stroke="#808080" vector-effect="non-scaling-stroke" d="
  M 173.72 24.31
  C 168.51 26.07 171.06 32.42 176.54 29.95
  A 0.79 0.78 -41.0 0 1 177.29 30.00
  Q 177.98 30.42 178.75 30.46
  A 0.50 0.50 0.0 0 0 179.26 29.91
  C 179.00 27.32 179.66 22.74 177.87 20.95
  C 176.46 19.55 170.29 19.67 171.91 21.80
  A 0.62 0.61 -33.2 0 0 172.69 21.96
  Q 175.28 20.54 176.67 22.72
  A 0.48 0.48 0.0 0 1 176.41 23.44
  Q 175.02 23.87 173.72 24.31"
/>
<path stroke="#808080" vector-effect="non-scaling-stroke" d="
  M 206.0946 30.6162
  A 5.37 4.98 95.4 0 0 211.5579 25.7387
  A 5.37 4.98 95.4 0 0 207.1054 19.9238
  A 5.37 4.98 95.4 0 0 201.6421 24.8013
  A 5.37 4.98 95.4 0 0 206.0946 30.6162"
/>
<path stroke="#808080" vector-effect="non-scaling-stroke" d="
  M 217.27 20.65
  L 215.78 19.98
  A 0.56 0.55 -78.0 0 0 215.00 20.49
  L 215.00 29.81
  A 0.53 0.53 0.0 0 0 215.55 30.34
  L 216.57 30.31
  A 0.69 0.69 0.0 0 0 217.23 29.63
  C 217.25 27.14 216.16 22.36 219.52 21.73
  Q 221.46 21.36 221.47 23.33
  L 221.52 29.60
  A 0.69 0.69 0.0 0 0 222.09 30.28
  L 223.01 30.44
  A 0.61 0.61 0.0 0 0 223.72 29.86
  C 223.86 25.52 224.82 19.13 218.99 20.02
  Q 218.64 20.08 218.02 20.56
  A 0.74 0.73 -51.6 0 1 217.27 20.65"
/>
<path stroke="#808080" vector-effect="non-scaling-stroke" d="
  M 257.12 25.84
  L 262.97 25.71
  A 0.47 0.47 0.0 0 0 263.43 25.27
  Q 263.66 20.98 260.34 20.14
  C 253.89 18.49 252.15 28.99 257.87 30.26
  C 258.78 30.46 262.60 30.94 262.74 29.30
  A 0.49 0.48 3.3 0 0 262.26 28.77
  C 260.25 28.76 257.16 29.17 256.62 26.45
  A 0.52 0.52 0.0 0 1 257.12 25.84"
/>
<path stroke="#808080" vector-effect="non-scaling-stroke" d="
  M 28.95 47.78
  C 29.76 54.85 36.10 73.67 46.38 69.49
  Q 49.28 68.31 52.41 68.21
  C 56.00 68.10 59.04 70.87 62.54 70.03
  C 67.61 68.80 71.84 60.69 73.30 56.07
  A 0.63 0.63 0.0 0 0 73.03 55.34
  C 64.39 50.08 63.86 40.64 71.64 33.83
  A 0.53 0.53 0.0 0 0 71.70 33.10
  C 67.33 27.78 61.11 27.11 54.85 29.64
  C 49.47 31.81 48.36 28.76 43.76 28.46
  C 32.52 27.74 27.83 37.94 28.95 47.78"
/>
<path stroke="#808080" vector-effect="non-scaling-stroke" d="
  M 187.02 63.03
  C 185.51 67.91 178.92 66.56 175.28 64.96
  A 0.41 0.41 0.0 0 0 174.72 65.24
  L 174.05 68.01
  A 0.66 0.65 19.6 0 0 174.41 68.76
  C 179.68 71.16 188.34 71.15 190.95 64.88
  C 196.13 52.45 175.76 54.59 179.47 45.95
  A 1.41 1.35 89.9 0 1 180.15 45.24
  Q 184.35 43.19 188.66 45.27
  A 0.63 0.63 0.0 0 0 189.53 44.91
  L 190.40 42.36
  A 0.66 0.65 -70.4 0 0 190.02 41.54
  C 185.18 39.65 177.11 39.92 174.87 45.42
  C 170.17 56.99 189.22 55.89 187.02 63.03"
/>
<path stroke="#808080" vector-effect="non-scaling-stroke" d="
  M 100.07 61.47
  A 0.31 0.31 0.0 0 1 100.37 61.25
  L 109.29 61.25
  A 0.31 0.31 0.0 0 1 109.59 61.47
  L 112.11 69.53
  A 0.31 0.31 0.0 0 0 112.41 69.75
  L 116.65 69.76
  A 0.31 0.31 0.0 0 0 116.95 69.35
  L 107.84 40.96
  A 0.31 0.31 0.0 0 0 107.54 40.74
  L 102.35 40.75
  A 0.31 0.31 0.0 0 0 102.05 40.97
  L 92.96 69.39
  A 0.31 0.31 0.0 0 0 93.26 69.79
  L 97.29 69.73
  A 0.31 0.31 0.0 0 0 97.59 69.51
  L 100.07 61.47"
/>
<path stroke="#808080" vector-effect="non-scaling-stroke" d="
  M 204.06 66.47
  Q 202.03 66.59 201.98 64.56
  L 201.66 52.93
  A 0.66 0.66 0.0 0 1 202.32 52.25
  L 206.50 52.25
  A 0.50 0.50 0.0 0 0 207.00 51.75
  L 207.00 49.50
  A 0.50 0.50 0.0 0 0 206.50 49.00
  L 202.38 49.00
  A 0.63 0.63 0.0 0 1 201.75 48.37
  L 201.75 44.21
  A 0.40 0.40 0.0 0 0 201.23 43.83
  L 197.77 45.01
  A 0.76 0.75 81.0 0 0 197.25 45.73
  L 197.25 48.37
  A 0.63 0.63 0.0 0 1 196.62 49.00
  L 194.84 49.00
  A 0.62 0.62 0.0 0 0 194.22 49.67
  L 194.38 51.87
  A 0.64 0.64 0.0 0 0 195.11 52.45
  L 196.54 52.24
  A 0.60 0.60 0.0 0 1 197.23 52.84
  Q 197.19 58.55 197.34 64.24
  Q 197.49 69.89 204.69 70.39
  Q 206.87 70.55 206.79 68.36
  L 206.73 66.74
  A 0.43 0.42 -2.6 0 0 206.27 66.33
  L 204.06 66.47"
/>
<path stroke="#808080" vector-effect="non-scaling-stroke" d="
  M 125.28 51.22
  L 125.08 49.51
  A 0.58 0.57 86.6 0 0 124.51 49.00
  L 121.55 49.00
  A 0.45 0.45 0.0 0 0 121.10 49.45
  L 121.31 77.83
  A 0.54 0.53 90.0 0 0 121.83 78.36
  L 125.18 78.39
  A 0.57 0.56 -89.5 0 0 125.75 77.82
  L 125.75 68.55
  Q 125.75 67.89 126.29 68.27
  C 132.22 72.38 138.12 69.84 140.29 63.37
  C 143.36 54.24 134.95 42.57 125.66 51.35
  Q 125.33 51.66 125.28 51.22"
/>
<path stroke="#808080" vector-effect="non-scaling-stroke" d="
  M 149.10 51.47
  L 148.96 49.58
  A 0.63 0.63 0.0 0 0 148.33 49.00
  L 145.56 49.00
  A 0.44 0.43 -0.6 0 0 145.12 49.44
  L 145.31 77.83
  A 0.53 0.53 0.0 0 0 145.83 78.36
  L 149.18 78.39
  A 0.57 0.56 -89.5 0 0 149.75 77.82
  L 149.75 68.52
  Q 149.74 67.99 150.19 68.29
  C 163.42 77.03 170.36 54.82 159.75 49.36
  Q 154.51 46.66 149.59 51.65
  Q 149.15 52.10 149.10 51.47"
/>
<path stroke="#808080" vector-effect="non-scaling-stroke" d="
  M 219.0464 70.3706
  A 11.02 10.22 93.4 0 0 229.9020 59.9761
  A 11.02 10.22 93.4 0 0 220.3536 48.3694
  A 11.02 10.22 93.4 0 0 209.4980 58.7639
  A 11.02 10.22 93.4 0 0 219.0464 70.3706"
/>
<path stroke="#808080" vector-effect="non-scaling-stroke" d="
  M 237.75 51.99
  L 237.75 49.50
  A 0.50 0.50 0.0 0 0 237.25 49.00
  L 234.29 49.00
  A 0.46 0.45 -90.0 0 0 233.84 49.46
  L 234.06 69.28
  A 0.48 0.47 89.4 0 0 234.53 69.75
  L 237.97 69.75
  A 0.52 0.52 0.0 0 0 238.49 69.23
  C 238.47 64.16 236.35 52.74 244.25 52.68
  A 0.50 0.50 0.0 0 0 244.75 52.18
  L 244.76 49.12
  A 0.65 0.65 0.0 0 0 244.10 48.47
  Q 240.09 48.51 238.46 52.14
  Q 237.75 53.72 237.75 51.99"
/>
<path stroke="#808080" vector-effect="non-scaling-stroke" d="
  M 252.06 60.50
  L 264.79 60.50
  A 0.57 0.56 -85.9 0 0 265.35 60.01
  C 266.31 53.14 261.94 47.13 254.75 48.65
  C 242.14 51.31 245.20 76.19 263.86 69.07
  A 0.59 0.58 73.4 0 0 264.22 68.39
  L 263.75 66.25
  A 0.52 0.52 0.0 0 0 263.06 65.87
  C 258.47 67.55 251.98 67.10 251.58 61.01
  A 0.48 0.48 0.0 0 1 252.06 60.50"
/>
<path stroke="#808080" vector-effect="non-scaling-stroke" d="
  M 187.3076 28.7500
  A 3.54 2.58 90.2 0 0 189.9000 25.2190
  A 3.54 2.58 90.2 0 0 187.3324 21.6700
  A 3.54 2.58 90.2 0 0 184.7400 25.2010
  A 3.54 2.58 90.2 0 0 187.3076 28.7500"
/>
<path stroke="#808080" vector-effect="non-scaling-stroke" d="
  M 98.30 28.54
  C 106.61 29.75 107.46 16.76 98.34 18.07
  A 0.69 0.69 0.0 0 0 97.75 18.75
  L 97.75 27.91
  A 0.64 0.64 0.0 0 0 98.30 28.54"
/>
<path stroke="#808080" vector-effect="non-scaling-stroke" d="
  M 114.7438 28.8892
  A 3.64 2.60 91.2 0 0 117.4194 25.3045
  A 3.64 2.60 91.2 0 0 114.8962 21.6108
  A 3.64 2.60 91.2 0 0 112.2206 25.1955
  A 3.64 2.60 91.2 0 0 114.7438 28.8892"
/>
<path stroke="#808080" vector-effect="non-scaling-stroke" d="
  M 163.2109 28.9100
  A 3.64 2.58 90.3 0 0 165.8100 25.2835
  A 3.64 2.58 90.3 0 0 163.2491 21.6300
  A 3.64 2.58 90.3 0 0 160.6500 25.2565
  A 3.64 2.58 90.3 0 0 163.2109 28.9100"
/>
<path stroke="#808080" vector-effect="non-scaling-stroke" d="
  M 176.67 27.62
  Q 176.94 27.10 177.04 26.75
  A 0.98 0.98 0.0 0 0 176.14 25.50
  Q 172.93 25.37 173.24 27.83
  A 0.97 0.94 -82.7 0 0 173.82 28.60
  Q 175.72 29.39 176.67 27.62"
/>
<path stroke="#808080" vector-effect="non-scaling-stroke" d="
  M 206.4503 28.9189
  A 3.67 2.58 91.4 0 0 209.1192 25.3130
  A 3.67 2.58 91.4 0 0 206.6297 21.5811
  A 3.67 2.58 91.4 0 0 203.9608 25.1870
  A 3.67 2.58 91.4 0 0 206.4503 28.9189"
/>
<path stroke="#808080" vector-effect="non-scaling-stroke" d="
  M 260.09 24.23
  A 1.00 0.99 87.8 0 0 261.17 23.06
  C 260.75 20.74 257.64 21.27 256.85 23.31
  A 0.47 0.46 -76.5 0 0 257.23 23.94
  L 260.09 24.23"
/>
<path stroke="#808080" vector-effect="non-scaling-stroke" d="
  M 104.40 46.54
  L 101.24 57.02
  A 0.57 0.56 -81.6 0 0 101.78 57.75
  L 107.99 57.75
  A 0.52 0.52 0.0 0 0 108.48 57.07
  L 105.11 46.53
  Q 104.74 45.39 104.40 46.54"
/>
<path stroke="#808080" vector-effect="non-scaling-stroke" d="
  M 136.1035 57.1986
  A 4.66 4.66 0.0 0 0 131.5922 52.3945
  L 130.8926 52.3725
  A 4.66 4.66 0.0 0 0 126.0885 56.8838
  L 125.9365 61.7214
  A 4.66 4.66 0.0 0 0 130.4478 66.5255
  L 131.1474 66.5475
  A 4.66 4.66 0.0 0 0 135.9515 62.0362
  L 136.1035 57.1986"
/>
<path stroke="#808080" vector-effect="non-scaling-stroke" d="
  M 154.7507 66.7395
  A 7.31 5.31 90.7 0 0 160.1496 59.4949
  A 7.31 5.31 90.7 0 0 154.9293 52.1205
  A 7.31 5.31 90.7 0 0 149.5304 59.3651
  A 7.31 5.31 90.7 0 0 154.7507 66.7395"
/>
<path stroke="#808080" vector-effect="non-scaling-stroke" d="
  M 219.5589 66.8894
  A 7.46 5.45 90.7 0 0 225.0996 59.4966
  A 7.46 5.45 90.7 0 0 219.7411 51.9706
  A 7.46 5.45 90.7 0 0 214.2004 59.3634
  A 7.46 5.45 90.7 0 0 219.5589 66.8894"
/>
<path stroke="#808080" vector-effect="non-scaling-stroke" d="
  M 258.67 52.18
  Q 256.93 51.04 255.05 51.93
  Q 252.08 53.34 251.72 56.63
  A 0.39 0.38 -87.4 0 0 252.11 57.06
  L 260.35 56.99
  A 0.63 0.62 89.1 0 0 260.97 56.34
  Q 260.88 53.65 258.67 52.18"
/>
</g>
<path fill="#ffffff" d="
  M 0.00 0.00
  L 295.00 0.00
  L 295.00 89.00
  L 0.00 89.00
  L 0.00 0.00
  Z
  M 293.24 16.27
  A 15.26 15.26 0.0 0 0 277.98 1.01
  L 16.18 1.01
  A 15.26 15.26 0.0 0 0 0.92 16.27
  L 0.92 73.07
  A 15.26 15.26 0.0 0 0 16.18 88.33
  L 277.98 88.33
  A 15.26 15.26 0.0 0 0 293.24 73.07
  L 293.24 16.27
  Z"
/>
<path fill="#000000" d="
  M 293.24 73.07
  A 15.26 15.26 0.0 0 1 277.98 88.33
  L 16.18 88.33
  A 15.26 15.26 0.0 0 1 0.92 73.07
  L 0.92 16.27
  A 15.26 15.26 0.0 0 1 16.18 1.01
  L 277.98 1.01
  A 15.26 15.26 0.0 0 1 293.24 16.27
  L 293.24 73.07
  Z
  M 61.62 14.90
  C 55.62 15.50 51.31 20.79 50.99 26.65
  A 0.85 0.84 84.9 0 0 52.02 27.52
  Q 61.56 25.27 62.16 15.42
  A 0.50 0.50 0.0 0 0 61.62 14.90
  Z
  M 155.0018 16.1320
  A 0.84 0.84 0.0 0 0 154.1632 15.2905
  L 153.6032 15.2895
  A 0.84 0.84 0.0 0 0 152.7618 16.1281
  L 152.7382 29.6080
  A 0.84 0.84 0.0 0 0 153.5768 30.4495
  L 154.1368 30.4505
  A 0.84 0.84 0.0 0 0 154.9782 29.6119
  L 155.0018 16.1320
  Z
  M 189.29 20.48
  C 180.01 15.97 180.78 35.00 188.99 29.83
  A 0.92 0.89 39.3 0 1 189.82 29.76
  L 191.50 30.46
  A 0.59 0.59 0.0 0 0 192.31 29.90
  L 192.07 16.16
  A 0.74 0.74 0.0 0 0 191.40 15.45
  L 190.44 15.36
  A 0.65 0.64 -87.6 0 0 189.74 16.01
  L 189.76 20.19
  A 0.33 0.32 13.1 0 1 189.29 20.48
  Z
  M 244.50 20.19
  L 244.50 16.20
  A 0.70 0.70 0.0 0 0 243.95 15.52
  L 242.92 15.29
  A 0.55 0.54 6.4 0 0 242.25 15.82
  L 242.25 29.88
  A 0.52 0.52 0.0 0 0 242.82 30.40
  L 243.87 30.31
  A 0.69 0.68 -2.8 0 0 244.49 29.63
  L 244.51 23.70
  A 1.91 1.90 87.7 0 1 246.26 21.80
  C 249.80 21.52 248.88 27.73 249.06 29.89
  A 0.61 0.61 0.0 0 0 249.78 30.44
  L 250.47 30.30
  A 0.63 0.63 0.0 0 0 250.97 29.70
  C 251.05 26.12 252.15 17.26 244.97 20.50
  A 0.34 0.33 78.1 0 1 244.50 20.19
  Z
  M 101.32 16.34
  Q 98.77 15.94 96.08 16.35
  A 0.69 0.69 0.0 0 0 95.50 17.03
  L 95.50 29.73
  A 0.68 0.68 0.0 0 0 96.07 30.40
  C 100.37 31.08 104.83 30.26 106.69 25.88
  C 108.61 21.38 106.21 17.11 101.32 16.34
  Z
  M 234.17 19.68
  L 232.84 20.49
  Q 232.12 20.92 232.86 21.32
  L 233.99 21.94
  A 0.97 0.95 -76.1 0 1 234.49 22.79
  C 234.50 25.24 233.38 31.51 238.05 30.49
  C 238.68 30.35 238.91 29.99 238.87 29.39
  A 0.67 0.66 6.4 0 0 238.39 28.80
  L 237.22 28.48
  A 0.82 0.82 0.0 0 1 236.62 27.72
  L 236.45 22.57
  A 0.79 0.79 0.0 0 1 237.19 21.76
  L 238.35 21.70
  A 0.85 0.84 4.6 0 0 239.12 21.05
  C 239.38 19.92 237.63 20.01 237.02 19.92
  A 0.65 0.65 0.0 0 1 236.49 19.12
  L 236.72 18.20
  Q 236.91 17.47 236.19 17.72
  L 234.37 18.35
  A 0.26 0.25 71.2 0 0 234.22 18.67
  L 234.38 19.11
  A 0.48 0.48 0.0 0 1 234.17 19.68
  Z
  M 114.2872 30.6395
  A 5.39 4.98 96.1 0 0 119.8118 25.8092
  A 5.39 4.98 96.1 0 0 115.4328 19.9205
  A 5.39 4.98 96.1 0 0 109.9082 24.7508
  A 5.39 4.98 96.1 0 0 114.2872 30.6395
  Z
  M 129.55 23.76
  Q 130.72 26.00 131.09 28.55
  C 131.27 29.82 131.81 30.45 133.09 30.49
  A 0.72 0.72 0.0 0 0 133.79 29.98
  L 136.54 20.96
  A 0.68 0.68 0.0 0 0 136.05 20.10
  L 135.68 20.00
  A 0.94 0.94 0.0 0 0 134.54 20.69
  L 133.02 27.00
  Q 132.78 27.99 132.45 27.02
  C 131.94 25.54 131.04 19.94 129.29 19.98
  A 0.81 0.79 7.2 0 0 128.53 20.56
  L 126.64 27.17
  A 0.30 0.29 28.1 0 1 126.16 27.31
  C 125.02 26.30 125.62 19.07 122.76 20.07
  A 0.59 0.58 -18.3 0 0 122.39 20.79
  L 125.05 29.86
  A 0.76 0.74 78.7 0 0 125.84 30.40
  L 126.77 30.31
  A 0.86 0.84 -84.4 0 0 127.51 29.69
  L 129.19 23.79
  Q 129.32 23.32 129.55 23.76
  Z
  M 141.17 30.43
  A 0.69 0.69 0.0 0 0 142.00 29.76
  L 142.00 23.81
  Q 142.00 21.56 144.24 21.76
  C 147.35 22.04 146.55 27.39 146.49 29.52
  A 0.72 0.71 -81.4 0 0 147.01 30.24
  L 147.78 30.46
  A 0.55 0.55 0.0 0 0 148.48 29.94
  C 148.52 26.84 149.70 16.69 142.59 20.66
  A 0.78 0.76 -39.0 0 1 141.72 20.58
  L 141.08 20.05
  Q 139.74 18.92 139.75 20.67
  L 139.75 29.69
  A 0.56 0.56 0.0 0 0 140.20 30.24
  L 141.17 30.43
  Z
  M 163.0362 30.6149
  A 5.36 5.01 92.5 0 0 168.2752 25.4785
  A 5.36 5.01 92.5 0 0 163.5038 19.9051
  A 5.36 5.01 92.5 0 0 158.2648 25.0415
  A 5.36 5.01 92.5 0 0 163.0362 30.6149
  Z
  M 173.72 24.31
  C 168.51 26.07 171.06 32.42 176.54 29.95
  A 0.79 0.78 -41.0 0 1 177.29 30.00
  Q 177.98 30.42 178.75 30.46
  A 0.50 0.50 0.0 0 0 179.26 29.91
  C 179.00 27.32 179.66 22.74 177.87 20.95
  C 176.46 19.55 170.29 19.67 171.91 21.80
  A 0.62 0.61 -33.2 0 0 172.69 21.96
  Q 175.28 20.54 176.67 22.72
  A 0.48 0.48 0.0 0 1 176.41 23.44
  Q 175.02 23.87 173.72 24.31
  Z
  M 206.0946 30.6162
  A 5.37 4.98 95.4 0 0 211.5579 25.7387
  A 5.37 4.98 95.4 0 0 207.1054 19.9238
  A 5.37 4.98 95.4 0 0 201.6421 24.8013
  A 5.37 4.98 95.4 0 0 206.0946 30.6162
  Z
  M 217.27 20.65
  L 215.78 19.98
  A 0.56 0.55 -78.0 0 0 215.00 20.49
  L 215.00 29.81
  A 0.53 0.53 0.0 0 0 215.55 30.34
  L 216.57 30.31
  A 0.69 0.69 0.0 0 0 217.23 29.63
  C 217.25 27.14 216.16 22.36 219.52 21.73
  Q 221.46 21.36 221.47 23.33
  L 221.52 29.60
  A 0.69 0.69 0.0 0 0 222.09 30.28
  L 223.01 30.44
  A 0.61 0.61 0.0 0 0 223.72 29.86
  C 223.86 25.52 224.82 19.13 218.99 20.02
  Q 218.64 20.08 218.02 20.56
  A 0.74 0.73 -51.6 0 1 217.27 20.65
  Z
  M 257.12 25.84
  L 262.97 25.71
  A 0.47 0.47 0.0 0 0 263.43 25.27
  Q 263.66 20.98 260.34 20.14
  C 253.89 18.49 252.15 28.99 257.87 30.26
  C 258.78 30.46 262.60 30.94 262.74 29.30
  A 0.49 0.48 3.3 0 0 262.26 28.77
  C 260.25 28.76 257.16 29.17 256.62 26.45
  A 0.52 0.52 0.0 0 1 257.12 25.84
  Z
  M 28.95 47.78
  C 29.76 54.85 36.10 73.67 46.38 69.49
  Q 49.28 68.31 52.41 68.21
  C 56.00 68.10 59.04 70.87 62.54 70.03
  C 67.61 68.80 71.84 60.69 73.30 56.07
  A 0.63 0.63 0.0 0 0 73.03 55.34
  C 64.39 50.08 63.86 40.64 71.64 33.83
  A 0.53 0.53 0.0 0 0 71.70 33.10
  C 67.33 27.78 61.11 27.11 54.85 29.64
  C 49.47 31.81 48.36 28.76 43.76 28.46
  C 32.52 27.74 27.83 37.94 28.95 47.78
  Z
  M 187.02 63.03
  C 185.51 67.91 178.92 66.56 175.28 64.96
  A 0.41 0.41 0.0 0 0 174.72 65.24
  L 174.05 68.01
  A 0.66 0.65 19.6 0 0 174.41 68.76
  C 179.68 71.16 188.34 71.15 190.95 64.88
  C 196.13 52.45 175.76 54.59 179.47 45.95
  A 1.41 1.35 89.9 0 1 180.15 45.24
  Q 184.35 43.19 188.66 45.27
  A 0.63 0.63 0.0 0 0 189.53 44.91
  L 190.40 42.36
  A 0.66 0.65 -70.4 0 0 190.02 41.54
  C 185.18 39.65 177.11 39.92 174.87 45.42
  C 170.17 56.99 189.22 55.89 187.02 63.03
  Z
  M 100.07 61.47
  A 0.31 0.31 0.0 0 1 100.37 61.25
  L 109.29 61.25
  A 0.31 0.31 0.0 0 1 109.59 61.47
  L 112.11 69.53
  A 0.31 0.31 0.0 0 0 112.41 69.75
  L 116.65 69.76
  A 0.31 0.31 0.0 0 0 116.95 69.35
  L 107.84 40.96
  A 0.31 0.31 0.0 0 0 107.54 40.74
  L 102.35 40.75
  A 0.31 0.31 0.0 0 0 102.05 40.97
  L 92.96 69.39
  A 0.31 0.31 0.0 0 0 93.26 69.79
  L 97.29 69.73
  A 0.31 0.31 0.0 0 0 97.59 69.51
  L 100.07 61.47
  Z
  M 204.06 66.47
  Q 202.03 66.59 201.98 64.56
  L 201.66 52.93
  A 0.66 0.66 0.0 0 1 202.32 52.25
  L 206.50 52.25
  A 0.50 0.50 0.0 0 0 207.00 51.75
  L 207.00 49.50
  A 0.50 0.50 0.0 0 0 206.50 49.00
  L 202.38 49.00
  A 0.63 0.63 0.0 0 1 201.75 48.37
  L 201.75 44.21
  A 0.40 0.40 0.0 0 0 201.23 43.83
  L 197.77 45.01
  A 0.76 0.75 81.0 0 0 197.25 45.73
  L 197.25 48.37
  A 0.63 0.63 0.0 0 1 196.62 49.00
  L 194.84 49.00
  A 0.62 0.62 0.0 0 0 194.22 49.67
  L 194.38 51.87
  A 0.64 0.64 0.0 0 0 195.11 52.45
  L 196.54 52.24
  A 0.60 0.60 0.0 0 1 197.23 52.84
  Q 197.19 58.55 197.34 64.24
  Q 197.49 69.89 204.69 70.39
  Q 206.87 70.55 206.79 68.36
  L 206.73 66.74
  A 0.43 0.42 -2.6 0 0 206.27 66.33
  L 204.06 66.47
  Z
  M 125.28 51.22
  L 125.08 49.51
  A 0.58 0.57 86.6 0 0 124.51 49.00
  L 121.55 49.00
  A 0.45 0.45 0.0 0 0 121.10 49.45
  L 121.31 77.83
  A 0.54 0.53 90.0 0 0 121.83 78.36
  L 125.18 78.39
  A 0.57 0.56 -89.5 0 0 125.75 77.82
  L 125.75 68.55
  Q 125.75 67.89 126.29 68.27
  C 132.22 72.38 138.12 69.84 140.29 63.37
  C 143.36 54.24 134.95 42.57 125.66 51.35
  Q 125.33 51.66 125.28 51.22
  Z
  M 149.10 51.47
  L 148.96 49.58
  A 0.63 0.63 0.0 0 0 148.33 49.00
  L 145.56 49.00
  A 0.44 0.43 -0.6 0 0 145.12 49.44
  L 145.31 77.83
  A 0.53 0.53 0.0 0 0 145.83 78.36
  L 149.18 78.39
  A 0.57 0.56 -89.5 0 0 149.75 77.82
  L 149.75 68.52
  Q 149.74 67.99 150.19 68.29
  C 163.42 77.03 170.36 54.82 159.75 49.36
  Q 154.51 46.66 149.59 51.65
  Q 149.15 52.10 149.10 51.47
  Z
  M 219.0464 70.3706
  A 11.02 10.22 93.4 0 0 229.9020 59.9761
  A 11.02 10.22 93.4 0 0 220.3536 48.3694
  A 11.02 10.22 93.4 0 0 209.4980 58.7639
  A 11.02 10.22 93.4 0 0 219.0464 70.3706
  Z
  M 237.75 51.99
  L 237.75 49.50
  A 0.50 0.50 0.0 0 0 237.25 49.00
  L 234.29 49.00
  A 0.46 0.45 -90.0 0 0 233.84 49.46
  L 234.06 69.28
  A 0.48 0.47 89.4 0 0 234.53 69.75
  L 237.97 69.75
  A 0.52 0.52 0.0 0 0 238.49 69.23
  C 238.47 64.16 236.35 52.74 244.25 52.68
  A 0.50 0.50 0.0 0 0 244.75 52.18
  L 244.76 49.12
  A 0.65 0.65 0.0 0 0 244.10 48.47
  Q 240.09 48.51 238.46 52.14
  Q 237.75 53.72 237.75 51.99
  Z
  M 252.06 60.50
  L 264.79 60.50
  A 0.57 0.56 -85.9 0 0 265.35 60.01
  C 266.31 53.14 261.94 47.13 254.75 48.65
  C 242.14 51.31 245.20 76.19 263.86 69.07
  A 0.59 0.58 73.4 0 0 264.22 68.39
  L 263.75 66.25
  A 0.52 0.52 0.0 0 0 263.06 65.87
  C 258.47 67.55 251.98 67.10 251.58 61.01
  A 0.48 0.48 0.0 0 1 252.06 60.50
  Z"
/>
<path fill="#ffffff" d="
  M 50.99 26.65
  C 51.31 20.79 55.62 15.50 61.62 14.90
  A 0.50 0.50 0.0 0 1 62.16 15.42
  Q 61.56 25.27 52.02 27.52
  A 0.85 0.84 84.9 0 1 50.99 26.65
  Z"
/>
<rect fill="#ffffff" x="-1.12" y="-7.58" transform="translate(153.87,22.87) rotate(0.1)" width="2.24" height="15.16" rx="0.84"/>
<path fill="#ffffff" d="
  M 189.76 20.19
  L 189.74 16.01
  A 0.65 0.64 -87.6 0 1 190.44 15.36
  L 191.40 15.45
  A 0.74 0.74 0.0 0 1 192.07 16.16
  L 192.31 29.90
  A 0.59 0.59 0.0 0 1 191.50 30.46
  L 189.82 29.76
  A 0.92 0.89 39.3 0 0 188.99 29.83
  C 180.78 35.00 180.01 15.97 189.29 20.48
  A 0.33 0.32 13.1 0 0 189.76 20.19
  Z
  M 187.3076 28.7500
  A 3.54 2.58 90.2 0 0 189.9000 25.2190
  A 3.54 2.58 90.2 0 0 187.3324 21.6700
  A 3.54 2.58 90.2 0 0 184.7400 25.2010
  A 3.54 2.58 90.2 0 0 187.3076 28.7500
  Z"
/>
<path fill="#ffffff" d="
  M 244.97 20.50
  C 252.15 17.26 251.05 26.12 250.97 29.70
  A 0.63 0.63 0.0 0 1 250.47 30.30
  L 249.78 30.44
  A 0.61 0.61 0.0 0 1 249.06 29.89
  C 248.88 27.73 249.80 21.52 246.26 21.80
  A 1.91 1.90 87.7 0 0 244.51 23.70
  L 244.49 29.63
  A 0.69 0.68 -2.8 0 1 243.87 30.31
  L 242.82 30.40
  A 0.52 0.52 0.0 0 1 242.25 29.88
  L 242.25 15.82
  A 0.55 0.54 6.4 0 1 242.92 15.29
  L 243.95 15.52
  A 0.70 0.70 0.0 0 1 244.50 16.20
  L 244.50 20.19
  A 0.34 0.33 78.1 0 0 244.97 20.50
  Z"
/>
<path fill="#ffffff" d="
  M 101.32 16.34
  C 106.21 17.11 108.61 21.38 106.69 25.88
  C 104.83 30.26 100.37 31.08 96.07 30.40
  A 0.68 0.68 0.0 0 1 95.50 29.73
  L 95.50 17.03
  A 0.69 0.69 0.0 0 1 96.08 16.35
  Q 98.77 15.94 101.32 16.34
  Z
  M 98.30 28.54
  C 106.61 29.75 107.46 16.76 98.34 18.07
  A 0.69 0.69 0.0 0 0 97.75 18.75
  L 97.75 27.91
  A 0.64 0.64 0.0 0 0 98.30 28.54
  Z"
/>
<path fill="#ffffff" d="
  M 234.38 19.11
  L 234.22 18.67
  A 0.26 0.25 71.2 0 1 234.37 18.35
  L 236.19 17.72
  Q 236.91 17.47 236.72 18.20
  L 236.49 19.12
  A 0.65 0.65 0.0 0 0 237.02 19.92
  C 237.63 20.01 239.38 19.92 239.12 21.05
  A 0.85 0.84 4.6 0 1 238.35 21.70
  L 237.19 21.76
  A 0.79 0.79 0.0 0 0 236.45 22.57
  L 236.62 27.72
  A 0.82 0.82 0.0 0 0 237.22 28.48
  L 238.39 28.80
  A 0.67 0.66 6.4 0 1 238.87 29.39
  C 238.91 29.99 238.68 30.35 238.05 30.49
  C 233.38 31.51 234.50 25.24 234.49 22.79
  A 0.97 0.95 -76.1 0 0 233.99 21.94
  L 232.86 21.32
  Q 232.12 20.92 232.84 20.49
  L 234.17 19.68
  A 0.48 0.48 0.0 0 0 234.38 19.11
  Z"
/>
<path fill="#000000" d="
  M 98.30 28.54
  A 0.64 0.64 0.0 0 1 97.75 27.91
  L 97.75 18.75
  A 0.69 0.69 0.0 0 1 98.34 18.07
  C 107.46 16.76 106.61 29.75 98.30 28.54
  Z"
/>
<path fill="#ffffff" d="
  M 114.2872 30.6395
  A 5.39 4.98 96.1 0 1 109.9082 24.7508
  A 5.39 4.98 96.1 0 1 115.4328 19.9205
  A 5.39 4.98 96.1 0 1 119.8118 25.8092
  A 5.39 4.98 96.1 0 1 114.2872 30.6395
  Z
  M 114.7438 28.8892
  A 3.64 2.60 91.2 0 0 117.4194 25.3045
  A 3.64 2.60 91.2 0 0 114.8962 21.6108
  A 3.64 2.60 91.2 0 0 112.2206 25.1955
  A 3.64 2.60 91.2 0 0 114.7438 28.8892
  Z"
/>
<path fill="#ffffff" d="
  M 129.19 23.79
  L 127.51 29.69
  A 0.86 0.84 -84.4 0 1 126.77 30.31
  L 125.84 30.40
  A 0.76 0.74 78.7 0 1 125.05 29.86
  L 122.39 20.79
  A 0.59 0.58 -18.3 0 1 122.76 20.07
  C 125.62 19.07 125.02 26.30 126.16 27.31
  A 0.30 0.29 28.1 0 0 126.64 27.17
  L 128.53 20.56
  A 0.81 0.79 7.2 0 1 129.29 19.98
  C 131.04 19.94 131.94 25.54 132.45 27.02
  Q 132.78 27.99 133.02 27.00
  L 134.54 20.69
  A 0.94 0.94 0.0 0 1 135.68 20.00
  L 136.05 20.10
  A 0.68 0.68 0.0 0 1 136.54 20.96
  L 133.79 29.98
  A 0.72 0.72 0.0 0 1 133.09 30.49
  C 131.81 30.45 131.27 29.82 131.09 28.55
  Q 130.72 26.00 129.55 23.76
  Q 129.32 23.32 129.19 23.79
  Z"
/>
<path fill="#ffffff" d="
  M 141.17 30.43
  L 140.20 30.24
  A 0.56 0.56 0.0 0 1 139.75 29.69
  L 139.75 20.67
  Q 139.74 18.92 141.08 20.05
  L 141.72 20.58
  A 0.78 0.76 -39.0 0 0 142.59 20.66
  C 149.70 16.69 148.52 26.84 148.48 29.94
  A 0.55 0.55 0.0 0 1 147.78 30.46
  L 147.01 30.24
  A 0.72 0.71 -81.4 0 1 146.49 29.52
  C 146.55 27.39 147.35 22.04 144.24 21.76
  Q 142.00 21.56 142.00 23.81
  L 142.00 29.76
  A 0.69 0.69 0.0 0 1 141.17 30.43
  Z"
/>
<path fill="#ffffff" d="
  M 163.0362 30.6149
  A 5.36 5.01 92.5 0 1 158.2648 25.0415
  A 5.36 5.01 92.5 0 1 163.5038 19.9051
  A 5.36 5.01 92.5 0 1 168.2752 25.4785
  A 5.36 5.01 92.5 0 1 163.0362 30.6149
  Z
  M 163.2109 28.9100
  A 3.64 2.58 90.3 0 0 165.8100 25.2835
  A 3.64 2.58 90.3 0 0 163.2491 21.6300
  A 3.64 2.58 90.3 0 0 160.6500 25.2565
  A 3.64 2.58 90.3 0 0 163.2109 28.9100
  Z"
/>
<path fill="#ffffff" d="
  M 176.54 29.95
  C 171.06 32.42 168.51 26.07 173.72 24.31
  Q 175.02 23.87 176.41 23.44
  A 0.48 0.48 0.0 0 0 176.67 22.72
  Q 175.28 20.54 172.69 21.96
  A 0.62 0.61 -33.2 0 1 171.91 21.80
  C 170.29 19.67 176.46 19.55 177.87 20.95
  C 179.66 22.74 179.00 27.32 179.26 29.91
  A 0.50 0.50 0.0 0 1 178.75 30.46
  Q 177.98 30.42 177.29 30.00
  A 0.79 0.78 -41.0 0 0 176.54 29.95
  Z
  M 176.67 27.62
  Q 176.94 27.10 177.04 26.75
  A 0.98 0.98 0.0 0 0 176.14 25.50
  Q 172.93 25.37 173.24 27.83
  A 0.97 0.94 -82.7 0 0 173.82 28.60
  Q 175.72 29.39 176.67 27.62
  Z"
/>
<path fill="#ffffff" d="
  M 206.0946 30.6162
  A 5.37 4.98 95.4 0 1 201.6421 24.8013
  A 5.37 4.98 95.4 0 1 207.1054 19.9238
  A 5.37 4.98 95.4 0 1 211.5579 25.7387
  A 5.37 4.98 95.4 0 1 206.0946 30.6162
  Z
  M 206.4503 28.9189
  A 3.67 2.58 91.4 0 0 209.1192 25.3130
  A 3.67 2.58 91.4 0 0 206.6297 21.5811
  A 3.67 2.58 91.4 0 0 203.9608 25.1870
  A 3.67 2.58 91.4 0 0 206.4503 28.9189
  Z"
/>
<path fill="#ffffff" d="
  M 218.02 20.56
  Q 218.64 20.08 218.99 20.02
  C 224.82 19.13 223.86 25.52 223.72 29.86
  A 0.61 0.61 0.0 0 1 223.01 30.44
  L 222.09 30.28
  A 0.69 0.69 0.0 0 1 221.52 29.60
  L 221.47 23.33
  Q 221.46 21.36 219.52 21.73
  C 216.16 22.36 217.25 27.14 217.23 29.63
  A 0.69 0.69 0.0 0 1 216.57 30.31
  L 215.55 30.34
  A 0.53 0.53 0.0 0 1 215.00 29.81
  L 215.00 20.49
  A 0.56 0.55 -78.0 0 1 215.78 19.98
  L 217.27 20.65
  A 0.74 0.73 -51.6 0 0 218.02 20.56
  Z"
/>
<path fill="#ffffff" d="
  M 256.62 26.45
  C 257.16 29.17 260.25 28.76 262.26 28.77
  A 0.49 0.48 3.3 0 1 262.74 29.30
  C 262.60 30.94 258.78 30.46 257.87 30.26
  C 252.15 28.99 253.89 18.49 260.34 20.14
  Q 263.66 20.98 263.43 25.27
  A 0.47 0.47 0.0 0 1 262.97 25.71
  L 257.12 25.84
  A 0.52 0.52 0.0 0 0 256.62 26.45
  Z
  M 260.09 24.23
  A 1.00 0.99 87.8 0 0 261.17 23.06
  C 260.75 20.74 257.64 21.27 256.85 23.31
  A 0.47 0.46 -76.5 0 0 257.23 23.94
  L 260.09 24.23
  Z"
/>
<ellipse fill="#000000" cx="0.00" cy="0.00" transform="translate(114.82,25.25) rotate(91.2)" rx="3.64" ry="2.60"/>
<ellipse fill="#000000" cx="0.00" cy="0.00" transform="translate(206.54,25.25) rotate(91.4)" rx="3.67" ry="2.58"/>
<path fill="#000000" d="
  M 260.09 24.23
  L 257.23 23.94
  A 0.47 0.46 -76.5 0 1 256.85 23.31
  C 257.64 21.27 260.75 20.74 261.17 23.06
  A 1.00 0.99 87.8 0 1 260.09 24.23
  Z"
/>
<ellipse fill="#000000" cx="0.00" cy="0.00" transform="translate(163.23,25.27) rotate(90.3)" rx="3.64" ry="2.58"/>
<ellipse fill="#000000" cx="0.00" cy="0.00" transform="translate(187.32,25.21) rotate(90.2)" rx="3.54" ry="2.58"/>
<path fill="#000000" d="
  M 176.67 27.62
  Q 175.72 29.39 173.82 28.60
  A 0.97 0.94 -82.7 0 1 173.24 27.83
  Q 172.93 25.37 176.14 25.50
  A 0.98 0.98 0.0 0 1 177.04 26.75
  Q 176.94 27.10 176.67 27.62
  Z"
/>
<path fill="#ffffff" d="
  M 46.38 69.49
  C 36.10 73.67 29.76 54.85 28.95 47.78
  C 27.83 37.94 32.52 27.74 43.76 28.46
  C 48.36 28.76 49.47 31.81 54.85 29.64
  C 61.11 27.11 67.33 27.78 71.70 33.10
  A 0.53 0.53 0.0 0 1 71.64 33.83
  C 63.86 40.64 64.39 50.08 73.03 55.34
  A 0.63 0.63 0.0 0 1 73.30 56.07
  C 71.84 60.69 67.61 68.80 62.54 70.03
  C 59.04 70.87 56.00 68.10 52.41 68.21
  Q 49.28 68.31 46.38 69.49
  Z"
/>
<path fill="#ffffff" d="
  M 175.28 64.96
  C 178.92 66.56 185.51 67.91 187.02 63.03
  C 189.22 55.89 170.17 56.99 174.87 45.42
  C 177.11 39.92 185.18 39.65 190.02 41.54
  A 0.66 0.65 -70.4 0 1 190.40 42.36
  L 189.53 44.91
  A 0.63 0.63 0.0 0 1 188.66 45.27
  Q 184.35 43.19 180.15 45.24
  A 1.41 1.35 89.9 0 0 179.47 45.95
  C 175.76 54.59 196.13 52.45 190.95 64.88
  C 188.34 71.15 179.68 71.16 174.41 68.76
  A 0.66 0.65 19.6 0 1 174.05 68.01
  L 174.72 65.24
  A 0.41 0.41 0.0 0 1 175.28 64.96
  Z"
/>
<path fill="#ffffff" d="
  M 100.07 61.47
  L 97.59 69.51
  A 0.31 0.31 0.0 0 1 97.29 69.73
  L 93.26 69.79
  A 0.31 0.31 0.0 0 1 92.96 69.39
  L 102.05 40.97
  A 0.31 0.31 0.0 0 1 102.35 40.75
  L 107.54 40.74
  A 0.31 0.31 0.0 0 1 107.84 40.96
  L 116.95 69.35
  A 0.31 0.31 0.0 0 1 116.65 69.76
  L 112.41 69.75
  A 0.31 0.31 0.0 0 1 112.11 69.53
  L 109.59 61.47
  A 0.31 0.31 0.0 0 0 109.29 61.25
  L 100.37 61.25
  A 0.31 0.31 0.0 0 0 100.07 61.47
  Z
  M 104.40 46.54
  L 101.24 57.02
  A 0.57 0.56 -81.6 0 0 101.78 57.75
  L 107.99 57.75
  A 0.52 0.52 0.0 0 0 108.48 57.07
  L 105.11 46.53
  Q 104.74 45.39 104.40 46.54
  Z"
/>
<path fill="#ffffff" d="
  M 204.06 66.47
  L 206.27 66.33
  A 0.43 0.42 -2.6 0 1 206.73 66.74
  L 206.79 68.36
  Q 206.87 70.55 204.69 70.39
  Q 197.49 69.89 197.34 64.24
  Q 197.19 58.55 197.23 52.84
  A 0.60 0.60 0.0 0 0 196.54 52.24
  L 195.11 52.45
  A 0.64 0.64 0.0 0 1 194.38 51.87
  L 194.22 49.67
  A 0.62 0.62 0.0 0 1 194.84 49.00
  L 196.62 49.00
  A 0.63 0.63 0.0 0 0 197.25 48.37
  L 197.25 45.73
  A 0.76 0.75 81.0 0 1 197.77 45.01
  L 201.23 43.83
  A 0.40 0.40 0.0 0 1 201.75 44.21
  L 201.75 48.37
  A 0.63 0.63 0.0 0 0 202.38 49.00
  L 206.50 49.00
  A 0.50 0.50 0.0 0 1 207.00 49.50
  L 207.00 51.75
  A 0.50 0.50 0.0 0 1 206.50 52.25
  L 202.32 52.25
  A 0.66 0.66 0.0 0 0 201.66 52.93
  L 201.98 64.56
  Q 202.03 66.59 204.06 66.47
  Z"
/>
<path fill="#000000" d="
  M 105.11 46.53
  L 108.48 57.07
  A 0.52 0.52 0.0 0 1 107.99 57.75
  L 101.78 57.75
  A 0.57 0.56 -81.6 0 1 101.24 57.02
  L 104.40 46.54
  Q 104.74 45.39 105.11 46.53
  Z"
/>
<path fill="#ffffff" d="
  M 125.66 51.35
  C 134.95 42.57 143.36 54.24 140.29 63.37
  C 138.12 69.84 132.22 72.38 126.29 68.27
  Q 125.75 67.89 125.75 68.55
  L 125.75 77.82
  A 0.57 0.56 -89.5 0 1 125.18 78.39
  L 121.83 78.36
  A 0.54 0.53 90.0 0 1 121.31 77.83
  L 121.10 49.45
  A 0.45 0.45 0.0 0 1 121.55 49.00
  L 124.51 49.00
  A 0.58 0.57 86.6 0 1 125.08 49.51
  L 125.28 51.22
  Q 125.33 51.66 125.66 51.35
  Z
  M 136.1035 57.1986
  A 4.66 4.66 0.0 0 0 131.5922 52.3945
  L 130.8926 52.3725
  A 4.66 4.66 0.0 0 0 126.0885 56.8838
  L 125.9365 61.7214
  A 4.66 4.66 0.0 0 0 130.4478 66.5255
  L 131.1474 66.5475
  A 4.66 4.66 0.0 0 0 135.9515 62.0362
  L 136.1035 57.1986
  Z"
/>
<path fill="#ffffff" d="
  M 149.59 51.65
  Q 154.51 46.66 159.75 49.36
  C 170.36 54.82 163.42 77.03 150.19 68.29
  Q 149.74 67.99 149.75 68.52
  L 149.75 77.82
  A 0.57 0.56 -89.5 0 1 149.18 78.39
  L 145.83 78.36
  A 0.53 0.53 0.0 0 1 145.31 77.83
  L 145.12 49.44
  A 0.44 0.43 -0.6 0 1 145.56 49.00
  L 148.33 49.00
  A 0.63 0.63 0.0 0 1 148.96 49.58
  L 149.10 51.47
  Q 149.15 52.10 149.59 51.65
  Z
  M 154.7507 66.7395
  A 7.31 5.31 90.7 0 0 160.1496 59.4949
  A 7.31 5.31 90.7 0 0 154.9293 52.1205
  A 7.31 5.31 90.7 0 0 149.5304 59.3651
  A 7.31 5.31 90.7 0 0 154.7507 66.7395
  Z"
/>
<path fill="#ffffff" d="
  M 219.0464 70.3706
  A 11.02 10.22 93.4 0 1 209.4980 58.7639
  A 11.02 10.22 93.4 0 1 220.3536 48.3694
  A 11.02 10.22 93.4 0 1 229.9020 59.9761
  A 11.02 10.22 93.4 0 1 219.0464 70.3706
  Z
  M 219.5589 66.8894
  A 7.46 5.45 90.7 0 0 225.0996 59.4966
  A 7.46 5.45 90.7 0 0 219.7411 51.9706
  A 7.46 5.45 90.7 0 0 214.2004 59.3634
  A 7.46 5.45 90.7 0 0 219.5589 66.8894
  Z"
/>
<path fill="#ffffff" d="
  M 238.46 52.14
  Q 240.09 48.51 244.10 48.47
  A 0.65 0.65 0.0 0 1 244.76 49.12
  L 244.75 52.18
  A 0.50 0.50 0.0 0 1 244.25 52.68
  C 236.35 52.74 238.47 64.16 238.49 69.23
  A 0.52 0.52 0.0 0 1 237.97 69.75
  L 234.53 69.75
  A 0.48 0.47 89.4 0 1 234.06 69.28
  L 233.84 49.46
  A 0.46 0.45 90.0 0 1 234.29 49.00
  L 237.25 49.00
  A 0.50 0.50 0.0 0 1 237.75 49.50
  L 237.75 51.99
  Q 237.75 53.72 238.46 52.14
  Z"
/>
<path fill="#ffffff" d="
  M 251.58 61.01
  C 251.98 67.10 258.47 67.55 263.06 65.87
  A 0.52 0.52 0.0 0 1 263.75 66.25
  L 264.22 68.39
  A 0.59 0.58 73.4 0 1 263.86 69.07
  C 245.20 76.19 242.14 51.31 254.75 48.65
  C 261.94 47.13 266.31 53.14 265.35 60.01
  A 0.57 0.56 -85.9 0 1 264.79 60.50
  L 252.06 60.50
  A 0.48 0.48 0.0 0 0 251.58 61.01
  Z
  M 258.67 52.18
  Q 256.93 51.04 255.05 51.93
  Q 252.08 53.34 251.72 56.63
  A 0.39 0.38 -87.4 0 0 252.11 57.06
  L 260.35 56.99
  A 0.63 0.62 89.1 0 0 260.97 56.34
  Q 260.88 53.65 258.67 52.18
  Z"
/>
<path fill="#000000" d="
  M 258.67 52.18
  Q 260.88 53.65 260.97 56.34
  A 0.63 0.62 89.1 0 1 260.35 56.99
  L 252.11 57.06
  A 0.39 0.38 -87.4 0 1 251.72 56.63
  Q 252.08 53.34 255.05 51.93
  Q 256.93 51.04 258.67 52.18
  Z"
/>
<ellipse fill="#000000" cx="0.00" cy="0.00" transform="translate(219.65,59.43) rotate(90.7)" rx="7.46" ry="5.45"/>
<rect fill="#000000" x="-5.01" y="-7.08" transform="translate(131.02,59.46) rotate(1.8)" width="10.02" height="14.16" rx="4.66"/>
<ellipse fill="#000000" cx="0.00" cy="0.00" transform="translate(154.84,59.43) rotate(90.7)" rx="7.31" ry="5.31"/>
</svg>
