<svg width="26" height="20" viewBox="0 0 26 20" fill="none" xmlns="http://www.w3.org/2000/svg">
<path d="M21.3191 1.59122C19.714 0.854746 17.9928 0.312116 16.1931 0.00130409C16.1603 -0.00469671 16.1275 0.0103053 16.1107 0.0402601C15.8893 0.434001 15.6441 0.947611 15.4724 1.35134C13.5367 1.06153 11.6109 1.06153 9.71499 1.35134C9.54323 0.938659 9.28913 0.434001 9.06676 0.0402601C9.04988 0.011289 9.01713 -0.00371297 8.98437 0.00130409C7.1857 0.311083 5.46446 0.853713 3.85831 1.59122C3.84439 1.59722 3.83248 1.60721 3.82456 1.62019C0.559735 6.49781 -0.33468 11.2556 0.104067 15.9543C0.106035 15.9773 0.118971 15.9992 0.136826 16.0133C2.29087 17.5952 4.37747 18.5555 6.42527 19.1921C6.45803 19.202 6.49276 19.1901 6.51361 19.1631C6.998 18.5016 7.42981 17.8041 7.80005 17.0705C7.82188 17.0276 7.80103 16.9766 7.75637 16.9596C7.07144 16.6998 6.41927 16.383 5.79189 16.0233C5.74226 15.9943 5.73828 15.9233 5.78397 15.8894C5.91599 15.7904 6.04806 15.6875 6.17412 15.5836C6.19695 15.5646 6.22872 15.5606 6.25553 15.5725C10.377 17.4543 14.839 17.4543 18.9118 15.5725C18.9386 15.5596 18.9704 15.5636 18.9942 15.5825C19.1203 15.6865 19.2523 15.7904 19.3853 15.8893C19.431 15.9233 19.428 15.9943 19.3784 16.0232C18.751 16.39 18.0988 16.6998 17.4129 16.9586C17.3683 16.9756 17.3484 17.0275 17.3703 17.0705C17.7485 17.803 18.1803 18.5005 18.6557 19.1621C18.6756 19.19 18.7113 19.202 18.7441 19.192C20.8018 18.5555 22.8884 17.5951 25.0425 16.0132C25.0613 15.9992 25.0733 15.9782 25.0752 15.9553C25.6003 10.523 24.1957 5.80428 21.3518 1.62118C21.3449 1.60721 21.333 1.59722 21.3191 1.59122ZM8.41562 13.0932C7.17478 13.0932 6.15233 11.9541 6.15233 10.555C6.15233 9.15597 7.15491 8.01675 8.41562 8.01675C9.68616 8.01675 10.6987 9.16595 10.6789 10.555C10.6789 11.9541 9.67623 13.0932 8.41562 13.0932ZM16.7836 13.0932C15.5429 13.0932 14.5204 11.9541 14.5204 10.555C14.5204 9.15597 15.523 8.01675 16.7836 8.01675C18.0542 8.01675 19.0667 9.16595 19.0469 10.555C19.0469 11.9541 18.0543 13.0932 16.7836 13.0932Z" fill="#8682E3"/>
</svg>
