<svg width="25" height="25" viewBox="0 0 25 25" fill="none" xmlns="http://www.w3.org/2000/svg">
<path fill-rule="evenodd" clip-rule="evenodd" d="M21.9922 2.02194C22.5968 2.62624 23.0684 3.3501 23.3771 4.14719C23.733 5.09286 23.9229 6.09289 23.9384 7.10319C24.0131 8.37919 24.0131 8.79253 24.0131 12.0499C24.0131 15.3072 23.9958 15.7139 23.9384 16.9965C23.9184 17.9939 23.7304 18.9779 23.3798 19.9112C23.0707 20.7082 22.5989 21.432 21.9944 22.0365C21.3899 22.641 20.6661 23.1128 19.8691 23.4219C18.9361 23.7714 17.9506 23.9603 16.9544 23.9805C15.6811 24.0539 15.2638 24.0539 12.0078 24.0539C8.75178 24.0539 8.34511 24.0365 7.06111 23.9805C6.06294 23.9477 5.07769 23.7448 4.14778 23.3805C3.35053 23.072 2.62641 22.6005 2.02169 21.9962C1.41697 21.392 0.944945 20.6682 0.635775 19.8712C0.285108 18.9365 0.0971081 17.9525 0.0771081 16.9552C0.00244141 15.6792 0.00244141 15.2645 0.00244141 12.0085C0.00244141 8.75119 0.0197747 8.34453 0.0771081 7.06186C0.0965941 6.06564 0.285514 5.08001 0.635775 4.14719C0.94408 3.34989 1.41565 2.62584 2.02022 2.0215C2.62479 1.41715 3.34902 0.945861 4.14644 0.637859C5.07812 0.286661 6.06296 0.0972684 7.05844 0.0778592C8.33178 0.00585938 8.74911 0.00585938 12.0051 0.00585938C15.2611 0.00585938 15.6678 0.0218592 16.9518 0.0778592C17.948 0.0983142 18.9336 0.287669 19.8664 0.637859C20.6637 0.946221 21.3877 1.41764 21.9922 2.02194ZM21.3384 19.1072C21.6043 18.3862 21.7445 17.6249 21.7531 16.8565V16.8579H21.7678C21.8251 15.5832 21.8251 15.2339 21.8251 11.9859C21.8251 8.73653 21.8104 8.38053 21.7531 7.11253C21.7407 6.35274 21.6005 5.60046 21.3384 4.88719C21.1381 4.36862 20.8315 3.89767 20.4384 3.50457C20.0453 3.11146 19.5744 2.80489 19.0558 2.60453C18.3429 2.33929 17.5897 2.19901 16.8291 2.18986C15.5398 2.11653 15.2064 2.11653 11.9571 2.11653C8.70778 2.11653 8.35178 2.13253 7.08378 2.18986C6.32381 2.20048 5.57123 2.34071 4.85844 2.60453C3.80644 3.00719 2.97311 3.83519 2.56644 4.88719C2.30065 5.60775 2.16039 6.36856 2.15177 7.13653C2.08111 8.42853 2.08111 8.76053 2.08111 12.0099C2.08111 15.2579 2.09444 15.6152 2.15177 16.8819C2.16419 17.6416 2.30437 18.3939 2.56644 19.1072C2.76756 19.6267 3.07548 20.0982 3.4703 20.4911C3.86511 20.8841 4.33802 21.1898 4.85844 21.3885C5.57088 21.6536 6.32368 21.7939 7.08378 21.8032C8.37444 21.8765 8.70644 21.8765 11.9571 21.8765C15.2051 21.8765 15.5624 21.8619 16.8291 21.8032C17.5896 21.7934 18.3427 21.6531 19.0558 21.3885C19.5744 21.1886 20.0454 20.8823 20.4385 20.4894C20.8317 20.0965 21.1382 19.6257 21.3384 19.1072ZM18.4085 7.04589C19.2023 7.04589 19.8459 6.40237 19.8459 5.60856C19.8459 4.81474 19.2023 4.17122 18.4085 4.17122C17.6147 4.17122 16.9712 4.81474 16.9712 5.60856C16.9712 6.40237 17.6147 7.04589 18.4085 7.04589ZM11.9985 5.83529C10.3634 5.83529 8.79518 6.48485 7.63896 7.64107C6.48273 8.7973 5.83317 10.3655 5.83317 12.0006C5.83317 13.6358 6.48273 15.2039 7.63896 16.3602C8.79518 17.5164 10.3634 18.166 11.9985 18.166C13.6337 18.166 15.2018 17.5164 16.3581 16.3602C17.5143 15.2039 18.1638 13.6358 18.1638 12.0006C18.1638 10.3655 17.5143 8.7973 16.3581 7.64107C15.2018 6.48485 13.6337 5.83529 11.9985 5.83529ZM11.9985 16.0046C10.9362 16.0046 9.91745 15.5826 9.16631 14.8315C8.41516 14.0803 7.99317 13.0616 7.99317 11.9993C7.99317 10.937 8.41516 9.91824 9.16631 9.16709C9.91745 8.41594 10.9362 7.99396 11.9985 7.99396C13.0608 7.99396 14.0796 8.41594 14.8307 9.16709C15.5818 9.91824 16.0038 10.937 16.0038 11.9993C16.0038 13.0616 15.5818 14.0803 14.8307 14.8315C14.0796 15.5826 13.0608 16.0046 11.9985 16.0046Z" fill="#8682E3"/>
</svg>
