<svg width="23" height="23" viewBox="0 0 23 23" fill="none" xmlns="http://www.w3.org/2000/svg">
<path fill-rule="evenodd" clip-rule="evenodd" d="M0.783505 22.6672H5.4636V7.55622H0.783505V22.6672ZM3.10111 5.57685C1.57232 5.57685 0.333496 4.32827 0.333496 2.78845C0.333496 1.24856 1.57232 0 3.10111 0C4.62991 0 5.868 1.24856 5.868 2.78845C5.868 4.32827 4.62991 5.57685 3.10111 5.57685ZM22.9998 22.667H18.3426V14.7347C18.3426 12.5598 17.5162 11.3445 15.7948 11.3445C13.9222 11.3445 12.9438 12.6092 12.9438 14.7347V22.667H8.4556V7.55602H12.9438V9.59148C12.9438 9.59148 14.2934 7.09434 17.5 7.09434C20.7052 7.09434 22.9998 9.05159 22.9998 13.0996L22.9998 22.667Z" fill="#8682E3"/>
</svg>
