<svg width="25" height="24" viewBox="0 0 25 24" fill="none" xmlns="http://www.w3.org/2000/svg">
<path d="M22.7679 9.85714H15.1786C14.932 9.85714 14.7321 9.66525 14.7321 9.42857V2.14286C14.7321 0.959473 13.7327 0 12.5 0C11.2673 0 10.2679 0.959473 10.2679 2.14286V9.42857C10.2679 9.66525 10.068 9.85714 9.82143 9.85714H2.23214C0.999451 9.85714 0 10.8166 0 12C0 13.1834 0.999451 14.1429 2.23214 14.1429H9.82143C10.068 14.1429 10.2679 14.3348 10.2679 14.5714V21.8571C10.2679 23.0405 11.2673 24 12.5 24C13.7327 24 14.7321 23.0405 14.7321 21.8571V14.5714C14.7321 14.3348 14.932 14.1429 15.1786 14.1429H22.7679C24.0006 14.1429 25 13.1834 25 12C25 10.8166 24.0006 9.85714 22.7679 9.85714Z" fill="#8682E3"/>
</svg>
