<?xml version="1.0" encoding="UTF-8" standalone="no"?>
<!DOCTYPE svg PUBLIC "-//W3C//DTD SVG 1.1//EN" "http://www.w3.org/Graphics/SVG/1.1/DTD/svg11.dtd">
<svg xmlns="http://www.w3.org/2000/svg" version="1.1" viewBox="0 0 232 232">
<g stroke-width="2.00" fill="none" stroke-linecap="butt">
<path stroke="#e6a2b2" vector-effect="non-scaling-stroke" d="
  M 142.25 30.79
  Q 143.14 31.66 142.46 32.50"
/>
<path stroke="#eac1c8" vector-effect="non-scaling-stroke" d="
  M 142.46 32.50
  Q 136.97 28.56 130.12 28.56
  A 0.62 0.61 -88.1 0 0 129.50 29.15
  L 129.46 30.08
  A 0.77 0.77 0.0 0 1 128.84 30.81
  Q 124.46 31.64 121.85 28.09
  A 0.30 0.30 0.0 0 0 121.46 28.01
  L 121.20 28.16
  A 0.57 0.56 68.2 0 0 120.94 28.77
  C 121.47 31.01 120.83 36.65 117.43 34.46
  A 1.05 1.03 -76.9 0 1 116.95 33.68
  L 116.27 26.22
  A 0.24 0.24 0.0 0 0 116.01 26.00
  L 115.75 26.01
  A 0.76 0.75 7.1 0 0 115.10 26.51
  C 114.17 29.13 110.66 33.64 107.25 32.04"
/>
<path stroke="#e6a2b2" vector-effect="non-scaling-stroke" d="
  M 107.25 32.04
  L 107.69 31.99
  A 0.52 0.51 3.1 0 0 108.14 31.59
  Q 109.12 27.10 113.86 25.33
  Q 114.60 25.05 114.21 24.00"
/>
<path stroke="#e6b2be" vector-effect="non-scaling-stroke" d="
  M 107.25 32.04
  Q 105.12 31.38 106.22 29.12
  Q 106.56 28.44 105.80 28.50
  L 105.45 28.52
  Q 103.79 28.64 102.72 29.92
  Q 98.47 35.02 93.66 39.67
  C 91.52 41.73 89.64 42.86 88.21 45.75"
/>
<path stroke="#e6a2b2" vector-effect="non-scaling-stroke" d="
  M 88.21 45.75
  Q 87.28 47.06 86.38 48.41
  C 85.12 50.29 84.93 52.55 83.70 54.63
  A 1.46 1.46 0.0 0 0 83.50 55.56
  L 84.05 60.13
  A 0.81 0.80 -84.3 0 0 84.59 60.80
  L 85.89 61.23
  A 1.58 1.56 -9.4 0 1 86.63 61.75
  L 89.02 64.78
  A 0.67 0.66 -46.7 0 1 89.04 65.58
  L 87.53 67.75
  A 0.38 0.37 -52.5 0 1 86.98 67.83
  Q 85.32 66.41 83.47 65.42
  Q 83.03 65.18 82.71 64.79
  Q 81.12 62.84 78.71 62.00"
/>
<path stroke="#e6a2b2" vector-effect="non-scaling-stroke" d="
  M 159.46 47.25
  C 157.62 49.38 155.95 52.79 158.46 55.15
  A 0.28 0.28 0.0 0 1 158.53 55.43
  L 158.43 55.69
  A 0.39 0.39 0.0 0 1 157.93 55.93
  Q 155.19 54.96 153.71 52.50"
/>
<path stroke="#e6b2be" vector-effect="non-scaling-stroke" d="
  M 142.46 32.50
  C 146.25 35.95 149.91 39.65 153.84 42.91
  Q 156.01 44.71 155.06 47.44
  A 1.44 1.43 -46.3 0 0 155.08 48.45
  L 155.83 50.26
  A 0.61 0.61 0.0 0 1 155.45 51.08
  L 154.51 51.38
  A 0.91 0.91 0.0 0 0 153.93 51.92
  L 153.71 52.50"
/>
<path stroke="#eac1c8" vector-effect="non-scaling-stroke" d="
  M 153.71 52.50
  L 151.00 55.13
  Q 149.94 56.16 151.42 56.21
  L 155.18 56.32
  Q 157.43 56.39 156.94 58.59
  Q 156.50 60.55 157.99 61.82"
/>
<path stroke="#e6b2be" vector-effect="non-scaling-stroke" d="
  M 154.29 64.00
  L 151.50 63.71"
/>
<path stroke="#eac1c8" vector-effect="non-scaling-stroke" d="
  M 151.21 63.00
  L 151.97 59.61
  A 0.99 0.97 -61.3 0 0 151.71 58.70
  Q 150.37 57.36 148.32 58.01
  A 1.04 1.04 0.0 0 1 146.97 57.20
  Q 146.56 54.90 144.58 54.15
  A 0.58 0.57 11.4 0 0 143.80 54.66
  L 143.58 59.91
  A 0.46 0.45 -1.7 0 0 144.08 60.37
  C 147.00 60.07 150.83 63.07 147.50 65.71"
/>
<path stroke="#e6b2be" vector-effect="non-scaling-stroke" d="
  M 147.50 65.71
  L 145.25 66.79"
/>
<path stroke="#eac1c8" vector-effect="non-scaling-stroke" d="
  M 145.25 66.79
  Q 144.50 66.85 143.83 66.64
  A 1.08 1.07 -4.0 0 1 143.20 66.10
  L 141.61 62.86
  Q 140.46 60.53 138.52 62.24
  Q 136.32 64.17 138.00 66.51
  A 1.57 1.55 -8.4 0 0 138.76 67.07
  Q 139.86 67.45 139.79 68.75"
/>
<path stroke="#e6b2be" vector-effect="non-scaling-stroke" d="
  M 139.79 68.75
  Q 139.25 70.66 137.25 71.21"
/>
<path stroke="#e6b2be" vector-effect="non-scaling-stroke" d="
  M 134.29 72.00
  Q 131.15 69.56 130.07 65.80
  A 0.71 0.71 0.0 0 0 129.44 65.28
  L 129.06 65.25
  A 0.54 0.53 -83.3 0 0 128.48 65.72
  C 128.22 67.76 128.64 70.58 126.25 71.54"
/>
<path stroke="#eac1c8" vector-effect="non-scaling-stroke" d="
  M 126.25 71.54
  L 123.74 71.47
  A 0.71 0.70 2.0 0 1 123.05 70.74
  L 123.21 66.07
  A 0.91 0.89 78.9 0 1 123.73 65.28
  L 125.41 64.52
  Q 126.29 64.12 125.50 63.56
  Q 124.46 62.82 123.26 62.28
  A 0.77 0.75 6.8 0 1 122.84 61.76
  L 122.78 61.45
  Q 122.69 61.04 122.40 61.34
  L 120.76 62.97
  A 1.10 1.07 -67.6 0 1 120.02 63.29
  L 114.61 63.47
  A 1.80 1.77 -30.9 0 1 113.66 63.24
  C 110.13 61.27 107.96 68.27 105.56 63.92
  A 0.97 0.95 75.8 0 0 104.74 63.42
  Q 102.49 63.37 100.63 64.69
  A 0.91 0.89 37.5 0 1 99.81 64.79
  L 95.73 63.23
  A 0.81 0.80 -75.4 0 1 95.22 62.35
  L 95.75 59.03
  A 0.44 0.44 0.0 0 0 95.32 58.52
  Q 92.71 58.47 91.25 60.39
  Q 91.01 60.69 90.66 60.85
  Q 89.90 61.17 89.78 60.87
  A 0.50 0.49 84.5 0 0 89.41 60.56
  L 87.03 60.12
  A 0.88 0.86 86.0 0 1 86.35 59.52
  Q 84.96 55.07 87.30 51.15
  A 1.37 1.34 56.3 0 0 87.47 50.24
  L 87.24 48.86
  A 1.08 1.06 -29.3 0 1 87.50 47.96
  Q 88.31 47.05 88.21 45.75"
/>
<path stroke="#e6a2b2" vector-effect="non-scaling-stroke" d="
  M 126.25 71.54
  Q 123.12 72.80 121.29 70.10
  A 0.75 0.75 0.0 0 0 120.13 70.00
  L 116.31 74.01
  A 1.00 0.99 31.7 0 1 115.24 74.26
  Q 113.19 73.48 113.75 71.28
  Q 114.60 67.97 111.73 69.82
  Q 110.14 70.84 109.84 72.50
  A 0.88 0.88 0.0 0 1 109.26 73.18
  L 106.75 74.04"
/>
<path stroke="#e6a2b2" vector-effect="non-scaling-stroke" d="
  M 105.50 73.71
  L 105.42 71.21
  A 1.53 1.50 26.6 0 0 105.12 70.34
  C 102.88 67.39 100.18 71.62 100.50 74.21"
/>
<path stroke="#e6a2b2" vector-effect="non-scaling-stroke" d="
  M 94.25 73.29
  Q 95.37 71.70 94.11 70.20
  A 1.71 1.71 0.0 0 0 91.57 70.13
  L 88.74 73.10
  A 1.14 1.11 18.3 0 1 88.02 73.45
  Q 86.04 73.61 84.50 74.79"
/>
<path stroke="#e6a2b2" vector-effect="non-scaling-stroke" d="
  M 83.25 74.71
  Q 80.59 71.87 82.76 67.91
  Q 83.73 66.15 81.83 65.52
  L 80.85 65.20
  A 0.87 0.87 0.0 0 0 79.84 65.55
  L 78.48 67.63
  A 0.83 0.83 0.0 0 1 77.60 67.98
  Q 74.54 67.25 73.72 63.90"
/>
<path stroke="#e6a2b2" vector-effect="non-scaling-stroke" d="
  M 146.71 71.50
  L 144.00 71.46"
/>
<path stroke="#e49ebe" vector-effect="non-scaling-stroke" d="
  M 133.54 74.25
  Q 132.93 72.20 130.94 71.14
  Q 129.29 70.28 128.29 71.85
  Q 126.58 74.54 128.28 77.34
  A 1.70 1.70 0.0 0 1 127.90 79.55
  Q 127.16 80.15 125.50 80.21"
/>
<path stroke="#e8acbf" vector-effect="non-scaling-stroke" d="
  M 125.50 80.21
  C 125.47 78.70 127.03 76.07 124.92 75.42"
/>
<path stroke="#e49ebe" vector-effect="non-scaling-stroke" d="
  M 124.92 75.42
  Q 124.07 74.91 124.20 73.73
  A 0.76 0.76 0.0 0 0 123.77 72.96
  L 121.43 71.86
  A 1.20 1.20 0.0 0 0 119.74 72.75
  L 119.20 75.90
  Q 119.05 76.81 118.48 76.08
  L 117.98 75.44
  Q 117.35 74.63 117.16 75.64
  Q 116.51 79.00 116.69 82.34
  C 116.74 83.20 116.14 84.10 115.15 83.50"
/>
<path stroke="#e5aec8" vector-effect="non-scaling-stroke" d="
  M 115.15 83.50
  Q 115.85 81.04 114.71 78.75"
/>
<path stroke="#e49ebe" vector-effect="non-scaling-stroke" d="
  M 114.71 78.75
  L 114.02 76.25
  A 1.05 1.03 -85.8 0 0 113.44 75.57
  Q 110.31 74.19 107.29 75.75"
/>
<path stroke="#e6a2b2" vector-effect="non-scaling-stroke" d="
  M 148.46 65.50
  L 147.50 65.71"
/>
<path stroke="#e6b2be" vector-effect="non-scaling-stroke" d="
  M 152.25 71.79
  L 150.54 71.25"
/>
<path stroke="#e6a2b2" vector-effect="non-scaling-stroke" d="
  M 140.54 73.75
  Q 139.89 72.09 137.79 72.75"
/>
<path stroke="#e6a2b2" vector-effect="non-scaling-stroke" d="
  M 145.25 66.79
  L 144.25 67.04"
/>
<path stroke="#e6a2b2" vector-effect="non-scaling-stroke" d="
  M 140.79 68.25
  L 139.79 68.75"
/>
<path stroke="#e8acbf" vector-effect="non-scaling-stroke" d="
  M 104.96 77.00
  L 101.04 77.75"
/>
<path stroke="#e6a2b2" vector-effect="non-scaling-stroke" d="
  M 91.54 80.75
  Q 90.47 78.73 88.29 79.25"
/>
<path stroke="#eac1c8" vector-effect="non-scaling-stroke" d="
  M 131.75 134.71
  Q 129.52 134.66 129.81 136.94
  Q 129.86 135.81 129.54 134.75"
/>
<path stroke="#eab6d6" vector-effect="non-scaling-stroke" d="
  M 124.92 75.42
  Q 120.17 90.53 113.21 104.75"
/>
<path stroke="#e7b8de" vector-effect="non-scaling-stroke" d="
  M 113.21 104.75
  L 111.75 101.38
  Q 111.55 100.90 111.27 101.34
  C 109.99 103.35 107.19 107.86 106.89 110.16
  A 1.48 1.46 72.1 0 1 106.46 111.01
  Q 105.96 111.51 105.29 111.75"
/>
<path stroke="#eab6d6" vector-effect="non-scaling-stroke" d="
  M 103.75 110.21
  Q 109.53 105.09 111.96 97.75"
/>
<path stroke="#e7b8de" vector-effect="non-scaling-stroke" d="
  M 111.96 97.75
  Q 114.55 90.84 115.15 83.50"
/>
<path stroke="#e7b8de" vector-effect="non-scaling-stroke" d="
  M 110.96 97.50
  L 111.92 89.58
  A 0.40 0.40 0.0 0 0 111.47 89.14
  Q 108.74 89.56 106.29 88.25"
/>
<path stroke="#e7b8de" vector-effect="non-scaling-stroke" d="
  M 128.96 88.50
  Q 127.56 87.65 125.96 87.36
  Q 123.25 86.86 123.89 89.55
  Q 124.93 93.92 128.75 93.04"
/>
<path stroke="#e7b8de" vector-effect="non-scaling-stroke" d="
  M 128.21 94.25
  L 122.80 94.64
  A 1.08 1.07 14.3 0 0 121.98 95.12
  Q 120.50 97.38 121.01 100.00
  A 0.77 0.77 0.0 0 1 120.66 100.80
  Q 118.63 102.10 119.54 104.50"
/>
<path stroke="#e7b8de" vector-effect="non-scaling-stroke" d="
  M 120.22 107.09
  Q 118.73 104.39 116.73 106.99
  Q 115.29 108.85 115.90 111.13
  A 0.69 0.66 66.3 0 1 115.63 111.86
  L 115.02 112.28
  A 1.24 1.21 81.0 0 0 114.54 112.96
  L 113.01 118.50"
/>
<path stroke="#eab6d6" vector-effect="non-scaling-stroke" d="
  M 113.01 118.50
  Q 112.92 114.41 114.20 110.94
  Q 117.34 102.43 122.31 90.19
  C 123.56 87.09 124.24 83.52 125.50 80.21"
/>
<path stroke="#e7b8de" vector-effect="non-scaling-stroke" d="
  M 114.71 78.75
  Q 113.69 79.16 113.69 80.13
  A 0.94 0.93 -17.4 0 1 113.28 80.90
  C 112.38 81.50 110.28 79.33 108.50 79.46"
/>
<path stroke="#ebc6e0" vector-effect="non-scaling-stroke" d="
  M 113.01 118.50
  L 112.96 121.00"
/>
<path stroke="#eab6d6" vector-effect="non-scaling-stroke" d="
  M 112.96 121.00
  C 110.25 122.17 110.02 130.25 109.96 133.50"
/>
<path stroke="#ebc6e0" vector-effect="non-scaling-stroke" d="
  M 109.96 133.50
  L 108.54 133.00"
/>
<path stroke="#ebc6e0" vector-effect="non-scaling-stroke" d="
  M 108.04 132.75
  Q 108.57 129.18 107.38 125.83
  A 0.51 0.51 0.0 0 0 106.60 125.59
  L 106.04 126.02
  A 1.35 1.32 29.9 0 1 105.07 126.27
  L 96.89 125.20
  A 0.55 0.55 0.0 0 1 96.49 124.92
  L 96.25 124.46"
/>
<path stroke="#ebc6e0" vector-effect="non-scaling-stroke" d="
  M 98.27 123.32
  Q 104.92 126.36 107.99 121.99
  Q 108.86 120.75 110.25 114.78
  C 111.03 111.40 112.28 108.10 113.21 104.75"
/>
<path stroke="#eac1c8" vector-effect="non-scaling-stroke" d="
  M 118.79 143.25
  Q 118.58 142.08 117.54 141.75"
/>
<path stroke="#e9bcd2" vector-effect="non-scaling-stroke" d="
  M 118.29 130.00
  L 118.29 128.00"
/>
<path stroke="#e9bcd2" vector-effect="non-scaling-stroke" d="
  M 119.00 120.21
  Q 120.42 117.12 120.54 113.75"
/>
<path stroke="#e9bcd2" vector-effect="non-scaling-stroke" d="
  M 107.71 152.75
  Q 104.26 153.88 104.42 157.59
  A 0.88 0.87 -17.1 0 1 104.00 158.37
  Q 103.68 158.58 103.29 158.50"
/>
<path stroke="#ecd9ec" vector-effect="non-scaling-stroke" d="
  M 89.96 173.25
  Q 88.65 173.96 87.13 173.62"
/>
<path stroke="#e7b8de" vector-effect="non-scaling-stroke" d="
  M 109.96 133.50
  L 110.22 139.76
  Q 110.28 141.06 110.69 139.82
  Q 111.31 137.93 110.89 135.93
  A 1.35 1.34 -40.2 0 1 110.96 135.13
  Q 112.18 132.03 112.07 128.68
  C 111.98 125.88 112.82 123.70 112.96 121.00"
/>
<path stroke="#eab6d6" vector-effect="non-scaling-stroke" d="
  M 100.96 102.75
  Q 102.53 103.38 104.00 102.51
  Q 104.42 102.26 104.92 102.26
  L 105.75 102.24
  Q 106.53 102.23 106.11 102.88
  L 103.95 106.22
  A 0.48 0.47 19.0 0 0 104.31 106.95
  L 104.86 107.00
  A 0.94 0.93 21.9 0 0 105.66 106.66
  Q 109.01 102.47 110.96 97.50"
/>
<path stroke="#ebc6e0" vector-effect="non-scaling-stroke" d="
  M 110.96 97.50
  L 111.02 97.76
  A 0.18 0.18 0.0 0 0 111.24 97.90
  L 111.96 97.75"
/>
<path stroke="#ebc6e0" vector-effect="non-scaling-stroke" d="
  M 95.46 118.00
  L 92.50 120.79"
/>
<path stroke="#efd7e4" vector-effect="non-scaling-stroke" d="
  M 72.96 168.00
  L 72.67 166.73
  Q 72.64 166.57 72.58 166.73
  L 72.45 167.11
  Q 72.23 167.75 71.81 167.22
  L 71.06 166.26
  Q 70.50 165.56 70.50 166.46
  L 70.51 168.01
  Q 70.51 168.49 70.26 168.09
  L 70.04 167.75"
/>
<path stroke="#eac1c8" vector-effect="non-scaling-stroke" d="
  M 72.79 120.00
  Q 73.12 118.47 72.50 117.04"
/>
<path stroke="#eac1c8" vector-effect="non-scaling-stroke" d="
  M 104.96 165.25
  L 102.54 165.25"
/>
<path stroke="#eac1c8" vector-effect="non-scaling-stroke" d="
  M 111.11 36.07
  Q 110.44 36.56 111.20 36.89
  Q 112.16 37.32 112.62 36.39
  A 0.45 0.45 0.0 0 0 112.24 35.74
  Q 111.63 35.70 111.11 36.07"
/>
</g>
<path fill="#eab0bc" d="
  M 142.25 30.79
  Q 143.14 31.66 142.46 32.50
  Q 136.97 28.56 130.12 28.56
  A 0.62 0.61 -88.1 0 0 129.50 29.15
  L 129.46 30.08
  A 0.77 0.77 0.0 0 1 128.84 30.81
  Q 124.46 31.64 121.85 28.09
  A 0.30 0.30 0.0 0 0 121.46 28.01
  L 121.20 28.16
  A 0.57 0.56 68.2 0 0 120.94 28.77
  C 121.47 31.01 120.83 36.65 117.43 34.46
  A 1.05 1.03 -76.9 0 1 116.95 33.68
  L 116.27 26.22
  A 0.24 0.24 0.0 0 0 116.01 26.00
  L 115.75 26.01
  A 0.76 0.75 7.1 0 0 115.10 26.51
  C 114.17 29.13 110.66 33.64 107.25 32.04
  L 107.69 31.99
  A 0.52 0.51 3.1 0 0 108.14 31.59
  Q 109.12 27.10 113.86 25.33
  Q 114.60 25.05 114.21 24.00
  Q 129.89 21.06 142.25 30.79
  Z"
/>
<path fill="#e293a7" d="
  M 114.21 24.00
  Q 114.60 25.05 113.86 25.33
  Q 109.12 27.10 108.14 31.59
  A 0.52 0.51 3.1 0 1 107.69 31.99
  L 107.25 32.04
  Q 105.12 31.38 106.22 29.12
  Q 106.56 28.44 105.80 28.50
  L 105.45 28.52
  Q 103.79 28.64 102.72 29.92
  Q 98.47 35.02 93.66 39.67
  C 91.52 41.73 89.64 42.86 88.21 45.75
  Q 87.28 47.06 86.38 48.41
  C 85.12 50.29 84.93 52.55 83.70 54.63
  A 1.46 1.46 0.0 0 0 83.50 55.56
  L 84.05 60.13
  A 0.81 0.80 -84.3 0 0 84.59 60.80
  L 85.89 61.23
  A 1.58 1.56 -9.4 0 1 86.63 61.75
  L 89.02 64.78
  A 0.67 0.66 -46.7 0 1 89.04 65.58
  L 87.53 67.75
  A 0.38 0.37 -52.5 0 1 86.98 67.83
  Q 85.32 66.41 83.47 65.42
  Q 83.03 65.18 82.71 64.79
  Q 81.12 62.84 78.71 62.00
  C 79.62 59.21 80.16 56.34 81.42 53.80
  C 87.59 41.33 99.92 26.60 114.21 24.00
  Z"
/>
<path fill="#ead1d4" d="
  M 142.46 32.50
  C 146.25 35.95 149.91 39.65 153.84 42.91
  Q 156.01 44.71 155.06 47.44
  A 1.44 1.43 -46.3 0 0 155.08 48.45
  L 155.83 50.26
  A 0.61 0.61 0.0 0 1 155.45 51.08
  L 154.51 51.38
  A 0.91 0.91 0.0 0 0 153.93 51.92
  L 153.71 52.50
  L 151.00 55.13
  Q 149.94 56.16 151.42 56.21
  L 155.18 56.32
  Q 157.43 56.39 156.94 58.59
  Q 156.50 60.55 157.99 61.82
  Q 156.72 64.09 154.29 64.00
  L 151.50 63.71
  L 151.21 63.00
  L 151.97 59.61
  A 0.99 0.97 -61.3 0 0 151.71 58.70
  Q 150.37 57.36 148.32 58.01
  A 1.04 1.04 0.0 0 1 146.97 57.20
  Q 146.56 54.90 144.58 54.15
  A 0.58 0.57 11.4 0 0 143.80 54.66
  L 143.58 59.91
  A 0.46 0.45 -1.7 0 0 144.08 60.37
  C 147.00 60.07 150.83 63.07 147.50 65.71
  L 145.25 66.79
  Q 144.50 66.85 143.83 66.64
  A 1.08 1.07 -4.0 0 1 143.20 66.10
  L 141.61 62.86
  Q 140.46 60.53 138.52 62.24
  Q 136.32 64.17 138.00 66.51
  A 1.57 1.55 -8.4 0 0 138.76 67.07
  Q 139.86 67.45 139.79 68.75
  Q 139.25 70.66 137.25 71.21
  L 134.29 72.00
  Q 131.15 69.56 130.07 65.80
  A 0.71 0.71 0.0 0 0 129.44 65.28
  L 129.06 65.25
  A 0.54 0.53 -83.3 0 0 128.48 65.72
  C 128.22 67.76 128.64 70.58 126.25 71.54
  L 123.74 71.47
  A 0.71 0.70 2.0 0 1 123.05 70.74
  L 123.21 66.07
  A 0.91 0.89 78.9 0 1 123.73 65.28
  L 125.41 64.52
  Q 126.29 64.12 125.50 63.56
  Q 124.46 62.82 123.26 62.28
  A 0.77 0.75 6.8 0 1 122.84 61.76
  L 122.78 61.45
  Q 122.69 61.04 122.40 61.34
  L 120.76 62.97
  A 1.10 1.07 -67.6 0 1 120.02 63.29
  L 114.61 63.47
  A 1.80 1.77 -30.9 0 1 113.66 63.24
  C 110.13 61.27 107.96 68.27 105.56 63.92
  A 0.97 0.95 75.8 0 0 104.74 63.42
  Q 102.49 63.37 100.63 64.69
  A 0.91 0.89 37.5 0 1 99.81 64.79
  L 95.73 63.23
  A 0.81 0.80 -75.4 0 1 95.22 62.35
  L 95.75 59.03
  A 0.44 0.44 0.0 0 0 95.32 58.52
  Q 92.71 58.47 91.25 60.39
  Q 91.01 60.69 90.66 60.85
  Q 89.90 61.17 89.78 60.87
  A 0.50 0.49 84.5 0 0 89.41 60.56
  L 87.03 60.12
  A 0.88 0.86 86.0 0 1 86.35 59.52
  Q 84.96 55.07 87.30 51.15
  A 1.37 1.34 56.3 0 0 87.47 50.24
  L 87.24 48.86
  A 1.08 1.06 -29.3 0 1 87.50 47.96
  Q 88.31 47.05 88.21 45.75
  C 89.64 42.86 91.52 41.73 93.66 39.67
  Q 98.47 35.02 102.72 29.92
  Q 103.79 28.64 105.45 28.52
  L 105.80 28.50
  Q 106.56 28.44 106.22 29.12
  Q 105.12 31.38 107.25 32.04
  C 110.66 33.64 114.17 29.13 115.10 26.51
  A 0.76 0.75 7.1 0 1 115.75 26.01
  L 116.01 26.00
  A 0.24 0.24 0.0 0 1 116.27 26.22
  L 116.95 33.68
  A 1.05 1.03 -76.9 0 0 117.43 34.46
  C 120.83 36.65 121.47 31.01 120.94 28.77
  A 0.57 0.56 68.2 0 1 121.20 28.16
  L 121.46 28.01
  A 0.30 0.30 0.0 0 1 121.85 28.09
  Q 124.46 31.64 128.84 30.81
  A 0.77 0.77 0.0 0 0 129.46 30.08
  L 129.50 29.15
  A 0.62 0.61 -88.1 0 1 130.12 28.56
  Q 136.97 28.56 142.46 32.50
  Z
  M 111.11 36.07
  Q 110.44 36.56 111.20 36.89
  Q 112.16 37.32 112.62 36.39
  A 0.45 0.45 0.0 0 0 112.24 35.74
  Q 111.63 35.70 111.11 36.07
  Z"
/>
<path fill="#e293a7" d="
  M 142.25 30.79
  C 150.90 37.45 155.54 41.82 159.46 47.25
  C 157.62 49.38 155.95 52.79 158.46 55.15
  A 0.28 0.28 0.0 0 1 158.53 55.43
  L 158.43 55.69
  A 0.39 0.39 0.0 0 1 157.93 55.93
  Q 155.19 54.96 153.71 52.50
  L 153.93 51.92
  A 0.91 0.91 0.0 0 1 154.51 51.38
  L 155.45 51.08
  A 0.61 0.61 0.0 0 0 155.83 50.26
  L 155.08 48.45
  A 1.44 1.43 -46.3 0 1 155.06 47.44
  Q 156.01 44.71 153.84 42.91
  C 149.91 39.65 146.25 35.95 142.46 32.50
  Q 143.14 31.66 142.25 30.79
  Z"
/>
<path fill="#eab0bc" d="
  M 111.11 36.07
  Q 111.63 35.70 112.24 35.74
  A 0.45 0.45 0.0 0 1 112.62 36.39
  Q 112.16 37.32 111.20 36.89
  Q 110.44 36.56 111.11 36.07
  Z"
/>
<path fill="#eab0bc" d="
  M 88.21 45.75
  Q 88.31 47.05 87.50 47.96
  A 1.08 1.06 -29.3 0 0 87.24 48.86
  L 87.47 50.24
  A 1.37 1.34 56.3 0 1 87.30 51.15
  Q 84.96 55.07 86.35 59.52
  A 0.88 0.86 86.0 0 0 87.03 60.12
  L 89.41 60.56
  A 0.50 0.49 84.5 0 1 89.78 60.87
  Q 89.90 61.17 90.66 60.85
  Q 91.01 60.69 91.25 60.39
  Q 92.71 58.47 95.32 58.52
  A 0.44 0.44 0.0 0 1 95.75 59.03
  L 95.22 62.35
  A 0.81 0.80 -75.4 0 0 95.73 63.23
  L 99.81 64.79
  A 0.91 0.89 37.5 0 0 100.63 64.69
  Q 102.49 63.37 104.74 63.42
  A 0.97 0.95 75.8 0 1 105.56 63.92
  C 107.96 68.27 110.13 61.27 113.66 63.24
  A 1.80 1.77 -30.9 0 0 114.61 63.47
  L 120.02 63.29
  A 1.10 1.07 -67.6 0 0 120.76 62.97
  L 122.40 61.34
  Q 122.69 61.04 122.78 61.45
  L 122.84 61.76
  A 0.77 0.75 6.8 0 0 123.26 62.28
  Q 124.46 62.82 125.50 63.56
  Q 126.29 64.12 125.41 64.52
  L 123.73 65.28
  A 0.91 0.89 78.9 0 0 123.21 66.07
  L 123.05 70.74
  A 0.71 0.70 2.0 0 0 123.74 71.47
  L 126.25 71.54
  Q 123.12 72.80 121.29 70.10
  A 0.75 0.75 0.0 0 0 120.13 70.00
  L 116.31 74.01
  A 1.00 0.99 31.7 0 1 115.24 74.26
  Q 113.19 73.48 113.75 71.28
  Q 114.60 67.97 111.73 69.82
  Q 110.14 70.84 109.84 72.50
  A 0.88 0.88 0.0 0 1 109.26 73.18
  L 106.75 74.04
  L 105.50 73.71
  L 105.42 71.21
  A 1.53 1.50 26.6 0 0 105.12 70.34
  C 102.88 67.39 100.18 71.62 100.50 74.21
  Q 96.70 77.26 94.25 73.29
  Q 95.37 71.70 94.11 70.20
  A 1.71 1.71 0.0 0 0 91.57 70.13
  L 88.74 73.10
  A 1.14 1.11 18.3 0 1 88.02 73.45
  Q 86.04 73.61 84.50 74.79
  L 83.25 74.71
  Q 80.59 71.87 82.76 67.91
  Q 83.73 66.15 81.83 65.52
  L 80.85 65.20
  A 0.87 0.87 0.0 0 0 79.84 65.55
  L 78.48 67.63
  A 0.83 0.83 0.0 0 1 77.60 67.98
  Q 74.54 67.25 73.72 63.90
  C 75.17 61.99 77.05 64.03 78.71 62.00
  Q 81.12 62.84 82.71 64.79
  Q 83.03 65.18 83.47 65.42
  Q 85.32 66.41 86.98 67.83
  A 0.38 0.37 -52.5 0 0 87.53 67.75
  L 89.04 65.58
  A 0.67 0.66 -46.7 0 0 89.02 64.78
  L 86.63 61.75
  A 1.58 1.56 -9.4 0 0 85.89 61.23
  L 84.59 60.80
  A 0.81 0.80 -84.3 0 1 84.05 60.13
  L 83.50 55.56
  A 1.46 1.46 0.0 0 1 83.70 54.63
  C 84.93 52.55 85.12 50.29 86.38 48.41
  Q 87.28 47.06 88.21 45.75
  Z"
/>
<path fill="#eab0bc" d="
  M 159.46 47.25
  C 161.25 49.94 162.23 55.20 166.30 54.18
  A 1.32 1.31 77.0 0 1 167.91 55.19
  C 168.71 59.09 166.78 61.77 162.72 61.72
  Q 160.34 61.69 157.99 61.82
  Q 156.50 60.55 156.94 58.59
  Q 157.43 56.39 155.18 56.32
  L 151.42 56.21
  Q 149.94 56.16 151.00 55.13
  L 153.71 52.50
  Q 155.19 54.96 157.93 55.93
  A 0.39 0.39 0.0 0 0 158.43 55.69
  L 158.53 55.43
  A 0.28 0.28 0.0 0 0 158.46 55.15
  C 155.95 52.79 157.62 49.38 159.46 47.25
  Z"
/>
<path fill="#eab0bc" d="
  M 151.21 63.00
  Q 149.48 63.81 148.46 65.50
  L 147.50 65.71
  C 150.83 63.07 147.00 60.07 144.08 60.37
  A 0.46 0.45 -1.7 0 1 143.58 59.91
  L 143.80 54.66
  A 0.58 0.57 11.4 0 1 144.58 54.15
  Q 146.56 54.90 146.97 57.20
  A 1.04 1.04 0.0 0 0 148.32 58.01
  Q 150.37 57.36 151.71 58.70
  A 0.99 0.97 -61.3 0 1 151.97 59.61
  L 151.21 63.00
  Z"
/>
<path fill="#eab0bc" d="
  M 145.25 66.79
  L 144.25 67.04
  L 141.56 66.85
  A 0.56 0.55 -82.6 0 0 140.97 67.31
  L 140.79 68.25
  L 139.79 68.75
  Q 139.86 67.45 138.76 67.07
  A 1.57 1.55 -8.4 0 1 138.00 66.51
  Q 136.32 64.17 138.52 62.24
  Q 140.46 60.53 141.61 62.86
  L 143.20 66.10
  A 1.08 1.07 -4.0 0 0 143.83 66.64
  Q 144.50 66.85 145.25 66.79
  Z"
/>
<path fill="#e293a7" d="
  M 154.29 64.00
  L 152.25 71.79
  L 150.54 71.25
  L 151.50 63.71
  L 154.29 64.00
  Z"
/>
<path fill="#e293a7" d="
  M 73.72 63.90
  Q 74.54 67.25 77.60 67.98
  A 0.83 0.83 0.0 0 0 78.48 67.63
  L 79.84 65.55
  A 0.87 0.87 0.0 0 1 80.85 65.20
  L 81.83 65.52
  Q 83.73 66.15 82.76 67.91
  Q 80.59 71.87 83.25 74.71
  Q 79.68 74.04 80.46 70.64
  A 0.39 0.39 0.0 0 0 80.07 70.16
  Q 73.56 70.24 73.72 63.90
  Z"
/>
<path fill="#e293a7" d="
  M 134.29 72.00
  L 133.54 74.25
  Q 132.93 72.20 130.94 71.14
  Q 129.29 70.28 128.29 71.85
  Q 126.58 74.54 128.28 77.34
  A 1.70 1.70 0.0 0 1 127.90 79.55
  Q 127.16 80.15 125.50 80.21
  C 125.47 78.70 127.03 76.07 124.92 75.42
  Q 124.07 74.91 124.20 73.73
  A 0.76 0.76 0.0 0 0 123.77 72.96
  L 121.43 71.86
  A 1.20 1.20 0.0 0 0 119.74 72.75
  L 119.20 75.90
  Q 119.05 76.81 118.48 76.08
  L 117.98 75.44
  Q 117.35 74.63 117.16 75.64
  Q 116.51 79.00 116.69 82.34
  C 116.74 83.20 116.14 84.10 115.15 83.50
  Q 115.85 81.04 114.71 78.75
  L 114.02 76.25
  A 1.05 1.03 -85.8 0 0 113.44 75.57
  Q 110.31 74.19 107.29 75.75
  Q 107.52 74.60 106.75 74.04
  L 109.26 73.18
  A 0.88 0.88 0.0 0 0 109.84 72.50
  Q 110.14 70.84 111.73 69.82
  Q 114.60 67.97 113.75 71.28
  Q 113.19 73.48 115.24 74.26
  A 1.00 0.99 31.7 0 0 116.31 74.01
  L 120.13 70.00
  A 0.75 0.75 0.0 0 1 121.29 70.10
  Q 123.12 72.80 126.25 71.54
  C 128.64 70.58 128.22 67.76 128.48 65.72
  A 0.54 0.53 -83.3 0 1 129.06 65.25
  L 129.44 65.28
  A 0.71 0.71 0.0 0 1 130.07 65.80
  Q 131.15 69.56 134.29 72.00
  Z"
/>
<path fill="#e293a7" d="
  M 148.46 65.50
  L 146.71 71.50
  L 144.00 71.46
  Q 144.97 69.24 144.25 67.04
  L 145.25 66.79
  L 147.50 65.71
  L 148.46 65.50
  Z"
/>
<path fill="#e293a7" d="
  M 140.79 68.25
  Q 141.22 71.01 140.54 73.75
  Q 139.89 72.09 137.79 72.75
  Q 138.08 71.66 137.25 71.21
  Q 139.25 70.66 139.79 68.75
  L 140.79 68.25
  Z"
/>
<path fill="#e293a7" d="
  M 105.50 73.71
  Q 104.31 75.08 104.96 77.00
  L 101.04 77.75
  Q 101.36 75.84 100.50 74.21
  C 100.18 71.62 102.88 67.39 105.12 70.34
  A 1.53 1.50 26.6 0 1 105.42 71.21
  L 105.50 73.71
  Z"
/>
<path fill="#e293a7" d="
  M 94.25 73.29
  C 91.16 71.54 91.86 79.08 91.54 80.75
  Q 90.47 78.73 88.29 79.25
  C 88.19 76.43 88.51 74.13 84.50 74.79
  Q 86.04 73.61 88.02 73.45
  A 1.14 1.11 18.3 0 0 88.74 73.10
  L 91.57 70.13
  A 1.71 1.71 0.0 0 1 94.11 70.20
  Q 95.37 71.70 94.25 73.29
  Z"
/>
<path fill="#e6a8d4" d="
  M 133.54 74.25
  Q 131.08 75.27 131.22 77.58
  A 1.59 1.57 -66.2 0 0 131.56 78.47
  C 133.85 81.32 132.14 85.30 128.71 86.17
  A 0.48 0.48 0.0 0 0 128.38 86.79
  L 128.96 88.50
  Q 127.56 87.65 125.96 87.36
  Q 123.25 86.86 123.89 89.55
  Q 124.93 93.92 128.75 93.04
  L 128.21 94.25
  L 122.80 94.64
  A 1.08 1.07 14.3 0 0 121.98 95.12
  Q 120.50 97.38 121.01 100.00
  A 0.77 0.77 0.0 0 1 120.66 100.80
  Q 118.63 102.10 119.54 104.50
  L 120.22 107.09
  Q 118.73 104.39 116.73 106.99
  Q 115.29 108.85 115.90 111.13
  A 0.69 0.66 66.3 0 1 115.63 111.86
  L 115.02 112.28
  A 1.24 1.21 81.0 0 0 114.54 112.96
  L 113.01 118.50
  Q 112.92 114.41 114.20 110.94
  Q 117.34 102.43 122.31 90.19
  C 123.56 87.09 124.24 83.52 125.50 80.21
  Q 127.16 80.15 127.90 79.55
  A 1.70 1.70 0.0 0 0 128.28 77.34
  Q 126.58 74.54 128.29 71.85
  Q 129.29 70.28 130.94 71.14
  Q 132.93 72.20 133.54 74.25
  Z"
/>
<path fill="#ead1d4" d="
  M 150.54 71.25
  L 152.25 71.79
  Q 150.26 78.73 151.79 85.83
  A 0.77 0.77 0.0 0 1 151.08 86.77
  C 146.84 87.01 149.87 73.49 150.54 71.25
  Z"
/>
<path fill="#eab0bc" d="
  M 144.00 71.46
  L 146.71 71.50
  C 145.95 81.10 146.80 89.04 141.48 98.26
  C 135.14 109.27 129.86 121.75 131.75 134.71
  Q 129.52 134.66 129.81 136.94
  Q 129.86 135.81 129.54 134.75
  C 127.73 125.96 131.49 113.12 135.45 105.26
  C 138.22 99.75 143.13 89.97 142.75 82.25
  Q 142.41 75.51 144.00 71.46
  Z"
/>
<path fill="#e6a8d4" d="
  M 124.92 75.42
  Q 120.17 90.53 113.21 104.75
  L 111.75 101.38
  Q 111.55 100.90 111.27 101.34
  C 109.99 103.35 107.19 107.86 106.89 110.16
  A 1.48 1.46 72.1 0 1 106.46 111.01
  Q 105.96 111.51 105.29 111.75
  L 103.75 110.21
  Q 109.53 105.09 111.96 97.75
  Q 114.55 90.84 115.15 83.50
  C 116.14 84.10 116.74 83.20 116.69 82.34
  Q 116.51 79.00 117.16 75.64
  Q 117.35 74.63 117.98 75.44
  L 118.48 76.08
  Q 119.05 76.81 119.20 75.90
  L 119.74 72.75
  A 1.20 1.20 0.0 0 1 121.43 71.86
  L 123.77 72.96
  A 0.76 0.76 0.0 0 1 124.20 73.73
  Q 124.07 74.91 124.92 75.42
  Z"
/>
<path fill="#eab0bc" d="
  M 137.79 72.75
  Q 139.89 72.09 140.54 73.75
  C 137.95 86.38 132.82 96.62 126.52 107.78
  Q 122.66 114.62 121.62 118.78
  C 119.61 126.86 120.86 134.71 118.79 143.25
  Q 118.58 142.08 117.54 141.75
  Q 118.79 135.92 118.29 130.00
  L 118.29 128.00
  L 118.56 127.96
  A 0.15 0.15 0.0 0 0 118.69 127.81
  L 119.00 120.21
  Q 120.42 117.12 120.54 113.75
  C 128.35 100.63 136.18 86.64 137.79 72.75
  Z"
/>
<path fill="#e6a8d4" d="
  M 114.71 78.75
  Q 113.69 79.16 113.69 80.13
  A 0.94 0.93 -17.4 0 1 113.28 80.90
  C 112.38 81.50 110.28 79.33 108.50 79.46
  Q 108.74 77.42 107.29 75.75
  Q 110.31 74.19 113.44 75.57
  A 1.05 1.03 -85.8 0 1 114.02 76.25
  L 114.71 78.75
  Z"
/>
<path fill="#eec4d7" d="
  M 124.92 75.42
  C 127.03 76.07 125.47 78.70 125.50 80.21
  C 124.24 83.52 123.56 87.09 122.31 90.19
  Q 117.34 102.43 114.20 110.94
  Q 112.92 114.41 113.01 118.50
  L 112.96 121.00
  C 110.25 122.17 110.02 130.25 109.96 133.50
  L 108.54 133.00
  L 108.04 132.75
  Q 108.57 129.18 107.38 125.83
  A 0.51 0.51 0.0 0 0 106.60 125.59
  L 106.04 126.02
  A 1.35 1.32 29.9 0 1 105.07 126.27
  L 96.89 125.20
  A 0.55 0.55 0.0 0 1 96.49 124.92
  L 96.25 124.46
  L 98.27 123.32
  Q 104.92 126.36 107.99 121.99
  Q 108.86 120.75 110.25 114.78
  C 111.03 111.40 112.28 108.10 113.21 104.75
  Q 120.17 90.53 124.92 75.42
  Z"
/>
<path fill="#eec4d7" d="
  M 104.96 77.00
  C 104.04 87.87 95.16 93.73 94.95 105.11
  C 94.94 105.55 95.13 105.96 95.56 106.01
  A 0.61 0.60 16.8 0 0 96.17 105.69
  L 97.50 103.00
  A 1.20 1.18 -84.2 0 1 98.26 102.37
  Q 99.66 102.01 100.96 102.75
  Q 102.53 103.38 104.00 102.51
  Q 104.42 102.26 104.92 102.26
  L 105.75 102.24
  Q 106.53 102.23 106.11 102.88
  L 103.95 106.22
  A 0.48 0.47 19.0 0 0 104.31 106.95
  L 104.86 107.00
  A 0.94 0.93 21.9 0 0 105.66 106.66
  Q 109.01 102.47 110.96 97.50
  L 111.02 97.76
  A 0.18 0.18 0.0 0 0 111.24 97.90
  L 111.96 97.75
  Q 109.53 105.09 103.75 110.21
  L 95.46 118.00
  L 92.50 120.79
  Q 88.39 123.56 85.81 127.78
  A 0.99 0.99 0.0 0 1 84.97 128.25
  L 83.44 128.25
  Q 82.94 128.25 82.50 128.48
  C 78.24 130.77 74.84 133.38 72.94 138.03
  C 70.98 142.81 69.28 148.97 71.00 154.04
  Q 73.30 160.82 72.96 168.00
  L 72.67 166.73
  Q 72.64 166.57 72.58 166.73
  L 72.45 167.11
  Q 72.23 167.75 71.81 167.22
  L 71.06 166.26
  Q 70.50 165.56 70.50 166.46
  L 70.51 168.01
  Q 70.51 168.49 70.26 168.09
  L 70.04 167.75
  Q 70.09 161.26 68.38 155.07
  C 66.75 149.18 67.99 143.12 70.14 137.56
  C 71.47 134.14 74.13 131.66 76.64 128.99
  Q 77.00 128.60 77.15 128.09
  L 77.51 126.77
  A 1.02 1.00 87.7 0 1 78.11 126.11
  L 82.22 124.55
  A 0.75 0.74 73.1 0 0 82.68 123.68
  Q 82.28 122.09 83.25 120.97
  A 1.42 1.40 -23.1 0 0 83.59 120.14
  Q 83.87 116.43 87.45 115.94
  Q 89.44 115.67 89.33 113.66
  Q 89.15 109.99 92.38 109.08
  A 0.56 0.56 0.0 0 0 92.78 108.42
  C 89.78 94.61 97.23 89.68 101.04 77.75
  L 104.96 77.00
  Z
  M 92.16 117.68
  Q 93.35 117.34 93.47 116.56
  A 0.49 0.48 -87.6 0 0 92.96 116.00
  C 92.08 116.05 91.88 116.86 92.04 117.60
  A 0.10 0.10 0.0 0 0 92.16 117.68
  Z"
/>
<path fill="#e8c8e8" d="
  M 114.71 78.75
  Q 115.85 81.04 115.15 83.50
  Q 114.55 90.84 111.96 97.75
  L 111.24 97.90
  A 0.18 0.18 0.0 0 1 111.02 97.76
  L 110.96 97.50
  L 111.92 89.58
  A 0.40 0.40 0.0 0 0 111.47 89.14
  Q 108.74 89.56 106.29 88.25
  Q 106.03 86.15 107.23 84.64
  A 1.49 1.46 9.6 0 1 107.95 84.14
  L 108.99 83.82
  A 0.42 0.42 0.0 0 0 109.17 83.13
  Q 107.68 81.53 108.50 79.46
  C 110.28 79.33 112.38 81.50 113.28 80.90
  A 0.94 0.93 -17.4 0 0 113.69 80.13
  Q 113.69 79.16 114.71 78.75
  Z"
/>
<path fill="#eab0bc" d="
  M 91.54 80.75
  C 89.63 91.38 81.45 98.49 80.09 107.38
  C 79.32 112.44 76.31 116.48 72.79 120.00
  Q 73.12 118.47 72.50 117.04
  Q 77.18 112.77 78.07 108.25
  Q 80.21 97.39 85.17 89.78
  C 87.57 86.10 88.27 83.32 88.29 79.25
  Q 90.47 78.73 91.54 80.75
  Z"
/>
<path fill="#e8c8e8" d="
  M 128.96 88.50
  Q 130.92 90.88 128.75 93.04
  Q 124.93 93.92 123.89 89.55
  Q 123.25 86.86 125.96 87.36
  Q 127.56 87.65 128.96 88.50
  Z"
/>
<path fill="#e6a8d4" d="
  M 106.29 88.25
  Q 108.74 89.56 111.47 89.14
  A 0.40 0.40 0.0 0 1 111.92 89.58
  L 110.96 97.50
  Q 109.01 102.47 105.66 106.66
  A 0.94 0.93 21.9 0 1 104.86 107.00
  L 104.31 106.95
  A 0.48 0.47 19.0 0 1 103.95 106.22
  L 106.11 102.88
  Q 106.53 102.23 105.75 102.24
  L 104.92 102.26
  Q 104.42 102.26 104.00 102.51
  Q 102.53 103.38 100.96 102.75
  Q 101.15 100.48 99.65 98.49
  A 0.71 0.71 0.0 0 1 99.69 97.59
  Q 100.75 96.41 101.07 94.84
  A 1.12 1.12 0.0 0 1 101.87 93.99
  L 105.53 92.95
  A 0.79 0.76 1.1 0 0 106.06 92.46
  Q 106.79 90.42 106.29 88.25
  Z"
/>
<path fill="#e8c8e8" d="
  M 128.21 94.25
  C 130.81 97.89 126.15 101.76 122.79 102.02
  A 0.63 0.63 0.0 0 0 122.22 102.55
  C 121.99 103.97 121.40 105.77 119.54 104.50
  Q 118.63 102.10 120.66 100.80
  A 0.77 0.77 0.0 0 0 121.01 100.00
  Q 120.50 97.38 121.98 95.12
  A 1.08 1.07 14.3 0 1 122.80 94.64
  L 128.21 94.25
  Z"
/>
<path fill="#e8c8e8" d="
  M 113.21 104.75
  C 112.28 108.10 111.03 111.40 110.25 114.78
  Q 108.86 120.75 107.99 121.99
  Q 104.92 126.36 98.27 123.32
  Q 100.13 119.79 103.32 117.01
  A 1.92 1.84 79.4 0 0 103.85 116.20
  L 105.29 111.75
  Q 105.96 111.51 106.46 111.01
  A 1.48 1.46 72.1 0 0 106.89 110.16
  C 107.19 107.86 109.99 103.35 111.27 101.34
  Q 111.55 100.90 111.75 101.38
  L 113.21 104.75
  Z"
/>
<path fill="#e8c8e8" d="
  M 120.22 107.09
  Q 119.02 110.45 120.54 113.75
  Q 120.42 117.12 119.00 120.21
  Q 114.22 123.71 118.29 128.00
  L 118.29 130.00
  Q 117.34 132.21 115.38 133.65
  A 1.49 1.48 81.1 0 0 114.82 134.42
  L 113.33 139.12
  Q 113.19 139.56 113.25 140.02
  C 113.82 144.23 111.19 144.91 109.84 147.91
  Q 108.74 150.34 107.71 152.75
  Q 104.26 153.88 104.42 157.59
  A 0.88 0.87 -17.1 0 1 104.00 158.37
  Q 103.68 158.58 103.29 158.50
  L 102.51 156.24
  Q 102.35 155.76 101.97 155.41
  Q 100.23 153.79 101.16 151.49
  Q 101.40 150.91 100.78 151.01
  Q 96.80 151.69 97.26 155.78
  A 0.87 0.87 0.0 0 1 96.81 156.65
  Q 92.90 158.73 91.53 163.03
  A 1.41 1.37 -5.6 0 1 90.84 163.85
  L 89.12 164.74
  A 0.60 0.60 0.0 0 0 88.82 165.45
  Q 89.98 169.30 89.96 173.25
  Q 88.65 173.96 87.13 173.62
  C 87.02 172.79 86.49 166.94 86.20 166.83
  A 0.31 0.31 0.0 0 0 85.79 167.15
  C 86.20 171.56 82.69 170.85 81.28 173.84
  A 0.77 0.77 0.0 0 1 80.04 174.06
  C 78.25 172.25 81.42 170.30 82.54 169.15
  A 0.61 0.60 -39.2 0 0 82.62 168.39
  C 80.39 165.06 83.50 164.85 85.42 163.80
  A 0.82 0.81 -16.3 0 0 85.84 163.04
  Q 85.17 151.53 85.21 143.25
  C 85.25 134.36 88.78 128.49 92.50 120.79
  L 95.46 118.00
  Q 94.29 123.96 91.74 129.46
  C 87.60 138.40 86.18 146.14 87.52 156.06
  Q 87.61 156.76 88.10 156.26
  Q 89.49 154.84 89.01 152.97
  A 2.27 2.26 64.9 0 1 89.87 150.58
  L 92.78 148.45
  Q 94.62 147.11 92.69 145.91
  Q 91.20 144.97 90.63 143.45
  C 89.64 140.76 91.52 138.38 94.10 137.65
  A 0.44 0.43 71.2 0 0 94.38 137.07
  C 92.54 132.60 91.99 127.71 96.25 124.46
  L 96.49 124.92
  A 0.55 0.55 0.0 0 0 96.89 125.20
  L 105.07 126.27
  A 1.35 1.32 29.9 0 0 106.04 126.02
  L 106.60 125.59
  A 0.51 0.51 0.0 0 1 107.38 125.83
  Q 108.57 129.18 108.04 132.75
  Q 106.57 133.79 104.63 134.02
  A 0.41 0.40 74.6 0 0 104.31 134.59
  L 105.51 137.17
  A 0.95 0.94 55.5 0 1 105.32 138.23
  Q 103.57 139.96 104.27 142.33
  A 0.79 0.77 -31.0 0 1 104.07 143.10
  L 101.42 145.71
  A 0.75 0.73 55.8 0 0 101.27 146.55
  L 102.38 148.97
  A 0.38 0.38 0.0 0 0 102.96 149.12
  C 104.82 147.73 109.45 146.15 106.91 142.92
  Q 106.62 142.55 106.50 142.09
  Q 105.61 138.55 107.96 135.85
  A 1.57 1.53 -21.8 0 0 108.35 134.97
  L 108.54 133.00
  L 109.96 133.50
  L 110.22 139.76
  Q 110.28 141.06 110.69 139.82
  Q 111.31 137.93 110.89 135.93
  A 1.35 1.34 -40.2 0 1 110.96 135.13
  Q 112.18 132.03 112.07 128.68
  C 111.98 125.88 112.82 123.70 112.96 121.00
  L 113.01 118.50
  L 114.54 112.96
  A 1.24 1.21 81.0 0 1 115.02 112.28
  L 115.63 111.86
  A 0.69 0.66 66.3 0 0 115.90 111.13
  Q 115.29 108.85 116.73 106.99
  Q 118.73 104.39 120.22 107.09
  Z"
/>
<path fill="#ead1d4" d="
  M 72.50 117.04
  Q 73.12 118.47 72.79 120.00
  Q 70.74 122.13 66.76 122.89
  A 2.33 2.32 63.2 0 1 64.64 122.19
  Q 63.25 120.69 64.43 119.16
  A 1.07 1.05 19.5 0 1 65.31 118.75
  Q 69.16 118.88 72.50 117.04
  Z"
/>
<path fill="#e6a8d4" d="
  M 112.96 121.00
  C 112.82 123.70 111.98 125.88 112.07 128.68
  Q 112.18 132.03 110.96 135.13
  A 1.35 1.34 -40.2 0 0 110.89 135.93
  Q 111.31 137.93 110.69 139.82
  Q 110.28 141.06 110.22 139.76
  L 109.96 133.50
  C 110.02 130.25 110.25 122.17 112.96 121.00
  Z"
/>
<path fill="#ead1d4" d="
  M 129.54 134.75
  Q 129.86 135.81 129.81 136.94
  Q 129.52 134.66 131.75 134.71
  C 132.87 138.55 134.80 147.82 130.20 150.61
  A 0.83 0.82 -44.5 0 1 129.33 150.61
  Q 127.44 149.46 127.95 147.73
  Q 130.18 140.19 129.54 134.75
  Z"
/>
<path fill="#ead1d4" d="
  M 117.54 141.75
  Q 118.58 142.08 118.79 143.25
  Q 117.26 148.19 115.08 152.88
  C 112.12 159.22 112.71 167.07 114.36 173.67
  A 1.22 1.22 0.0 0 1 113.64 175.10
  L 112.62 175.52
  A 0.71 0.71 0.0 0 1 111.67 175.06
  C 109.61 167.82 109.39 160.53 112.59 153.55
  Q 115.26 147.72 117.54 141.75
  Z"
/>
<path fill="#eab0bc" d="
  M 107.71 152.75
  Q 105.27 158.77 104.96 165.25
  L 102.54 165.25
  L 103.29 158.50
  Q 103.68 158.58 104.00 158.37
  A 0.88 0.87 -17.1 0 0 104.42 157.59
  Q 104.26 153.88 107.71 152.75
  Z"
/>
<path fill="#ead1d4" d="
  M 104.96 165.25
  C 105.39 172.22 106.58 176.15 111.26 182.32
  Q 111.55 182.70 111.68 183.17
  Q 111.95 184.16 111.51 185.02
  A 1.07 1.07 0.0 0 1 109.78 185.26
  Q 101.81 176.65 102.54 165.25
  L 104.96 165.25
  Z"
/>
<path fill="#f0e9f0" d="
  M 72.96 168.00
  L 69.94 182.23
  Q 69.46 184.50 67.18 184.05
  Q 65.73 183.77 65.25 182.31
  A 3.24 3.23 -40.1 0 1 65.47 179.78
  Q 68.49 174.07 70.04 167.75
  L 70.26 168.09
  Q 70.51 168.49 70.51 168.01
  L 70.50 166.46
  Q 70.50 165.56 71.06 166.26
  L 71.81 167.22
  Q 72.23 167.75 72.45 167.11
  L 72.58 166.73
  Q 72.64 166.57 72.67 166.73
  L 72.96 168.00
  Z"
/>
<path fill="#f0e9f0" d="
  M 89.96 173.25
  C 91.24 178.86 90.97 183.09 88.26 188.50
  C 85.32 194.36 82.34 199.28 80.41 206.15
  C 79.85 208.12 78.26 209.34 76.40 208.08
  A 0.90 0.88 -72.1 0 1 76.00 207.28
  C 76.58 194.35 89.23 188.80 87.13 173.62
  Q 88.65 173.96 89.96 173.25
  Z"
/>
</svg>
