<svg width="53" height="43" viewBox="0 0 53 43" fill="none" xmlns="http://www.w3.org/2000/svg">
<path fill-rule="evenodd" clip-rule="evenodd" d="M46.1553 35.2968C45.5817 33.3606 45.07 31.4016 44.4242 29.4911C39.3432 14.47 27.635 6.33546 11.9713 2.36606C8.71099 1.60274 5.34952 1.17268 1.94387 1.0811C1.43253 1.0591 0.746288 0.735894 0.414663 1.41847C0.109479 2.04543 0.507654 2.56535 0.921892 2.99614C1.55987 3.54582 2.42607 3.81214 3.32207 3.73406C13.6623 4.04172 23.4146 7.40657 31.2078 13.3543C38.0779 18.4682 41.2602 25.645 43.2065 33.5318C43.6612 34.8586 43.9241 36.2484 43.9893 37.6649C41.4798 36.2936 39.127 34.9774 36.7371 33.719C36.0998 33.3833 35.2241 32.521 34.635 33.3837C34.0064 34.3035 34.9757 35.005 35.8078 35.4238C38.6232 36.8393 41.3708 38.3568 44.0519 39.9748C44.9446 40.5741 45.785 41.2364 46.567 41.9572C47.3504 42.6143 48.1831 42.91 48.4199 41.2976C49.0665 36.8351 50.3556 32.4364 52.2523 28.2223C52.7257 27.3837 52.5011 26.3873 51.7249 25.8747C50.7957 25.1113 50.0641 25.0382 49.4661 26.4244C48.2264 29.3091 47.2533 32.2505 46.1475 35.2968" fill="#8682E3"/>
</svg>
