<svg width="157" height="31" viewBox="0 0 157 31" fill="none" xmlns="http://www.w3.org/2000/svg">
<path d="M57.0879 24.3481C55.8112 24.3481 54.6121 24.1254 53.4905 23.6799C52.378 23.2254 51.3977 22.5617 50.5496 21.689C49.7107 20.8163 49.0541 19.7481 48.5799 18.4845C48.1057 17.2117 47.8687 15.7572 47.8687 14.1208C47.8687 11.9754 48.2699 10.1436 49.0723 8.62537C49.8748 7.0981 50.9736 5.92992 52.3688 5.12083C53.764 4.30265 55.337 3.89355 57.0879 3.89355C59.5135 3.89355 61.433 4.45719 62.8465 5.58446C64.269 6.70265 65.2311 8.27537 65.7326 10.3026L62.3677 10.8345C61.9939 9.67083 61.3829 8.74355 60.5348 8.05265C59.6868 7.35265 58.6062 7.00265 57.2931 7.00265C55.9708 6.98446 54.872 7.27083 53.9966 7.86174C53.1211 8.45265 52.46 9.28446 52.0132 10.3572C51.5755 11.4299 51.3566 12.6845 51.3566 14.1208C51.3566 15.5572 51.5755 16.8072 52.0132 17.8708C52.4509 18.9254 53.1075 19.7481 53.9829 20.339C54.8674 20.9299 55.9708 21.2345 57.2931 21.2526C58.287 21.2617 59.1579 21.0845 59.9056 20.7208C60.6534 20.3481 61.2643 19.789 61.7385 19.0436C62.2127 18.289 62.5319 17.3481 62.696 16.2208H59.2217V13.6436H66.1977C66.2159 13.789 66.2296 14.0026 66.2387 14.2845C66.2478 14.5663 66.2524 14.7345 66.2524 14.789C66.2524 16.6436 65.8831 18.2936 65.1444 19.739C64.4149 21.1754 63.3663 22.3026 61.9984 23.1208C60.6306 23.939 58.9937 24.3481 57.0879 24.3481Z" fill="#131C39"/>
<path d="M71.8994 24.3481C70.8325 24.3481 69.9297 24.1481 69.1911 23.7481C68.4525 23.339 67.8917 22.7981 67.5087 22.1254C67.1348 21.4526 66.9479 20.7117 66.9479 19.9026C66.9479 19.1936 67.0664 18.5572 67.3035 17.9936C67.5406 17.4208 67.9053 16.9299 68.3978 16.5208C68.8902 16.1026 69.5285 15.7617 70.3127 15.4981C70.9055 15.3072 71.5985 15.1345 72.3918 14.9799C73.1943 14.8254 74.0606 14.6845 74.9907 14.5572C75.93 14.4208 76.9103 14.2754 77.9316 14.1208L76.7552 14.789C76.7644 13.7708 76.5364 13.0208 76.0713 12.539C75.6063 12.0572 74.822 11.8163 73.7186 11.8163C73.053 11.8163 72.4101 11.9708 71.79 12.2799C71.1699 12.589 70.7368 13.1208 70.4906 13.8754L67.4813 12.9345C67.8461 11.689 68.5391 10.689 69.5604 9.93446C70.5909 9.17992 71.9769 8.80265 73.7186 8.80265C75.0318 8.80265 76.1853 9.01628 77.1793 9.44355C78.1824 9.87083 78.9255 10.5708 79.4089 11.5436C79.6733 12.0617 79.8329 12.5936 79.8876 13.139C79.9423 13.6754 79.9697 14.2617 79.9697 14.8981V23.939H77.0835V20.7481L77.5623 21.2663C76.8966 22.3299 76.1169 23.1117 75.2233 23.6117C74.3387 24.1026 73.2308 24.3481 71.8994 24.3481ZM72.556 21.7299C73.3037 21.7299 73.9421 21.5981 74.471 21.3345C74.9999 21.0708 75.4193 20.7481 75.7294 20.3663C76.0485 19.9845 76.2628 19.6254 76.3723 19.289C76.5455 18.8708 76.6413 18.3936 76.6595 17.8572C76.6869 17.3117 76.7005 16.8708 76.7005 16.5345L77.7127 16.8345C76.7188 16.989 75.8662 17.1254 75.1549 17.2436C74.4436 17.3617 73.8326 17.4754 73.322 17.5845C72.8113 17.6845 72.3599 17.7981 71.9678 17.9254C71.5848 18.0617 71.2611 18.2208 70.9967 18.4026C70.7322 18.5845 70.527 18.7936 70.3811 19.0299C70.2443 19.2663 70.1759 19.5436 70.1759 19.8617C70.1759 20.2254 70.2671 20.5481 70.4495 20.8299C70.6319 21.1026 70.8963 21.3208 71.2429 21.4845C71.5985 21.6481 72.0362 21.7299 72.556 21.7299Z" fill="#131C39"/>
<path d="M100.041 23.939V14.9936C100.041 13.9845 99.7898 13.1981 99.2882 12.6345C98.7867 12.0617 98.1073 11.7754 97.2502 11.7754C96.7213 11.7754 96.2471 11.8981 95.8276 12.1436C95.4081 12.3799 95.0753 12.7345 94.8291 13.2072C94.5829 13.6708 94.4598 14.2254 94.4598 14.8708L92.9962 14.0117C92.9871 12.9936 93.215 12.0981 93.6801 11.3254C94.1543 10.5436 94.7926 9.93446 95.5951 9.4981C96.3975 9.06174 97.2912 8.84355 98.276 8.84355C99.9083 8.84355 101.158 9.33446 102.024 10.3163C102.899 11.289 103.337 12.5708 103.337 14.1617V23.939H100.041ZM82.2723 23.939V9.21174H85.1858V13.7799H85.5962V23.939H82.2723ZM91.177 23.939V15.0345C91.177 14.0072 90.9262 13.2072 90.4246 12.6345C89.9231 12.0617 89.2392 11.7754 88.3729 11.7754C87.534 11.7754 86.8591 12.0617 86.3485 12.6345C85.847 13.2072 85.5962 13.9526 85.5962 14.8708L84.1189 13.889C84.1189 12.9345 84.356 12.0754 84.8302 11.3117C85.3044 10.5481 85.9427 9.9481 86.7452 9.51174C87.5567 9.06628 88.4641 8.84355 89.4672 8.84355C90.5705 8.84355 91.4916 9.07992 92.2302 9.55265C92.9779 10.0163 93.5342 10.6526 93.899 11.4617C94.2728 12.2617 94.4598 13.1663 94.4598 14.1754V23.939H91.177Z" fill="#131C39"/>
<path d="M111.884 30.8936C111.063 30.8936 110.274 30.7663 109.517 30.5117C108.77 30.2572 108.095 29.889 107.493 29.4072C106.891 28.9345 106.399 28.3617 106.016 27.689L109.052 26.189C109.335 26.7254 109.732 27.1208 110.242 27.3754C110.762 27.639 111.314 27.7708 111.897 27.7708C112.581 27.7708 113.192 27.6481 113.73 27.4026C114.268 27.1663 114.683 26.8117 114.975 26.339C115.276 25.8754 115.417 25.2936 115.399 24.5936V20.4072H115.809V9.21174H118.696V24.6481C118.696 25.0208 118.677 25.3754 118.641 25.7117C118.613 26.0572 118.563 26.3936 118.49 26.7208C118.271 27.6754 117.852 28.4572 117.232 29.0663C116.612 29.6845 115.841 30.1436 114.92 30.4436C114.008 30.7436 112.996 30.8936 111.884 30.8936ZM111.596 24.3481C110.238 24.3481 109.052 24.0072 108.04 23.3254C107.028 22.6436 106.244 21.7163 105.687 20.5436C105.131 19.3708 104.853 18.0481 104.853 16.5754C104.853 15.0845 105.131 13.7572 105.687 12.5936C106.253 11.4208 107.051 10.4981 108.081 9.82537C109.112 9.14356 110.324 8.80265 111.72 8.80265C113.124 8.80265 114.3 9.14356 115.249 9.82537C116.206 10.4981 116.931 11.4208 117.423 12.5936C117.916 13.7663 118.162 15.0936 118.162 16.5754C118.162 18.039 117.916 19.3617 117.423 20.5436C116.931 21.7163 116.197 22.6436 115.221 23.3254C114.245 24.0072 113.037 24.3481 111.596 24.3481ZM112.103 21.4026C112.987 21.4026 113.698 21.2026 114.236 20.8026C114.783 20.3936 115.18 19.8254 115.426 19.0981C115.682 18.3708 115.809 17.5299 115.809 16.5754C115.809 15.6117 115.682 14.7708 115.426 14.0526C115.18 13.3254 114.793 12.7617 114.264 12.3617C113.735 11.9526 113.051 11.7481 112.212 11.7481C111.327 11.7481 110.598 11.9663 110.023 12.4026C109.449 12.8299 109.025 13.4117 108.751 14.1481C108.478 14.8754 108.341 15.6845 108.341 16.5754C108.341 17.4754 108.473 18.2936 108.738 19.0299C109.011 19.7572 109.426 20.3345 109.982 20.7617C110.539 21.189 111.245 21.4026 112.103 21.4026Z" fill="#131C39"/>
<path d="M125.431 24.3481C124.364 24.3481 123.461 24.1481 122.723 23.7481C121.984 23.339 121.423 22.7981 121.04 22.1254C120.666 21.4526 120.479 20.7117 120.479 19.9026C120.479 19.1936 120.598 18.5572 120.835 17.9936C121.072 17.4208 121.437 16.9299 121.929 16.5208C122.422 16.1026 123.06 15.7617 123.844 15.4981C124.437 15.3072 125.13 15.1345 125.923 14.9799C126.726 14.8254 127.592 14.6845 128.522 14.5572C129.462 14.4208 130.442 14.2754 131.463 14.1208L130.287 14.789C130.296 13.7708 130.068 13.0208 129.603 12.539C129.138 12.0572 128.354 11.8163 127.25 11.8163C126.585 11.8163 125.942 11.9708 125.322 12.2799C124.702 12.589 124.268 13.1208 124.022 13.8754L121.013 12.9345C121.378 11.689 122.071 10.689 123.092 9.93446C124.122 9.17992 125.509 8.80265 127.25 8.80265C128.563 8.80265 129.717 9.01628 130.711 9.44355C131.714 9.87083 132.457 10.5708 132.94 11.5436C133.205 12.0617 133.364 12.5936 133.419 13.139C133.474 13.6754 133.501 14.2617 133.501 14.8981V23.939H130.615V20.7481L131.094 21.2663C130.428 22.3299 129.649 23.1117 128.755 23.6117C127.87 24.1026 126.762 24.3481 125.431 24.3481ZM126.088 21.7299C126.835 21.7299 127.474 21.5981 128.003 21.3345C128.531 21.0708 128.951 20.7481 129.261 20.3663C129.58 19.9845 129.794 19.6254 129.904 19.289C130.077 18.8708 130.173 18.3936 130.191 17.8572C130.218 17.3117 130.232 16.8708 130.232 16.5345L131.244 16.8345C130.25 16.989 129.398 17.1254 128.686 17.2436C127.975 17.3617 127.364 17.4754 126.854 17.5845C126.343 17.6845 125.892 17.7981 125.499 17.9254C125.116 18.0617 124.793 18.2208 124.528 18.4026C124.264 18.5845 124.059 18.7936 123.913 19.0299C123.776 19.2663 123.708 19.5436 123.708 19.8617C123.708 20.2254 123.799 20.5481 123.981 20.8299C124.164 21.1026 124.428 21.3208 124.774 21.4845C125.13 21.6481 125.568 21.7299 126.088 21.7299Z" fill="#131C39"/>
<path d="M153.572 23.939V14.9936C153.572 13.9845 153.321 13.1981 152.82 12.6345C152.318 12.0617 151.639 11.7754 150.782 11.7754C150.253 11.7754 149.779 11.8981 149.359 12.1436C148.94 12.3799 148.607 12.7345 148.361 13.2072C148.114 13.6708 147.991 14.2254 147.991 14.8708L146.528 14.0117C146.519 12.9936 146.747 12.0981 147.212 11.3254C147.686 10.5436 148.324 9.93446 149.127 9.4981C149.929 9.06174 150.823 8.84355 151.808 8.84355C153.44 8.84355 154.689 9.33446 155.556 10.3163C156.431 11.289 156.869 12.5708 156.869 14.1617V23.939H153.572ZM135.804 23.939V9.21174H138.717V13.7799H139.128V23.939H135.804ZM144.709 23.939V15.0345C144.709 14.0072 144.458 13.2072 143.956 12.6345C143.455 12.0617 142.771 11.7754 141.905 11.7754C141.066 11.7754 140.391 12.0617 139.88 12.6345C139.379 13.2072 139.128 13.9526 139.128 14.8708L137.651 13.889C137.651 12.9345 137.888 12.0754 138.362 11.3117C138.836 10.5481 139.474 9.9481 140.277 9.51174C141.088 9.06628 141.996 8.84355 142.999 8.84355C144.102 8.84355 145.023 9.07992 145.762 9.55265C146.51 10.0163 147.066 10.6526 147.431 11.4617C147.804 12.2617 147.991 13.1663 147.991 14.1754V23.939H144.709Z" fill="#131C39"/>
<path d="M38.7808 14.1531C38.7808 10.3995 37.1464 6.79955 34.2372 4.14534C31.328 1.49113 27.3823 4.92229e-07 23.2681 0C19.1539 -4.92228e-07 15.2082 1.49113 12.299 4.14534C9.38974 6.79955 7.75537 10.3995 7.75537 14.1531H12.6032C14.2096 14.1531 15.4624 12.9249 16.0508 11.5611C16.4371 10.6657 17.0233 9.84285 17.7835 9.14919C19.2381 7.82209 21.211 7.07654 23.2681 7.07654C25.3252 7.07654 27.2981 7.82209 28.7527 9.14919C30.2073 10.4763 31.0244 12.2763 31.0244 14.1531H38.7808Z" fill="#93D0E5"/>
<path d="M29.8444 19.5694C30.624 17.8523 31.0253 16.0119 31.0253 14.1533H38.7808C38.7808 21.9698 31.8355 28.3063 23.2681 28.3063C21.9264 28.3063 20.6244 28.1509 19.3828 27.8588C20.0853 27.6937 20.7758 27.4834 21.449 27.229C23.3311 26.5177 25.0412 25.4753 26.4817 24.161C27.9222 22.8468 29.0649 21.2866 29.8444 19.5694Z" fill="#B1B9FC"/>
<path d="M0 14.1533C-2.91433e-07 16.012 0.401247 17.8524 1.18083 19.5695C1.96042 21.2867 3.10307 22.8469 4.54356 24.1611C5.98404 25.4753 7.69415 26.5178 9.57623 27.2291C11.4583 27.9404 13.4755 28.3064 15.5127 28.3064C17.5498 28.3064 19.567 27.9404 21.4491 27.2291C23.3312 26.5178 25.0413 25.4753 26.4818 24.1611C27.9223 22.8469 29.0649 21.2867 29.8445 19.5695C30.6241 17.8524 31.0254 16.012 31.0254 14.1533H26.1776C24.5712 14.1533 23.3184 15.3815 22.73 16.7452C22.7133 16.7841 22.6961 16.8228 22.6786 16.8615C22.2888 17.72 21.7175 18.5001 20.9972 19.1572C20.277 19.8143 19.4219 20.3356 18.4809 20.6913C17.5399 21.0469 16.5313 21.2299 15.5127 21.2299C14.4941 21.2299 13.4855 21.0469 12.5445 20.6913C11.6034 20.3356 10.7484 19.8143 10.0281 19.1572C9.30787 18.5001 8.73655 17.72 8.34676 16.8615C7.95696 16.0028 7.75634 15.0826 7.75634 14.1533H0Z" fill="#679AE5"/>
<path d="M0.00146484 14.1531C0.00146484 6.33653 6.94671 0 15.5141 0C16.8555 0 18.1571 0.155325 19.3986 0.447349C16.7347 1.07345 14.2773 2.34051 12.299 4.14535C9.3898 6.79954 7.75545 10.3995 7.75545 14.1531H0.00146484Z" fill="#3E89AE"/>
</svg>
